<svg width="256" height="256" viewBox="0 0 256 256" fill="none" xmlns="http://www.w3.org/2000/svg">
<path fill-rule="evenodd" clip-rule="evenodd" d="M163.008 18.929C164.952 21.342 165.943 24.599 167.925 31.11L211.234 173.38C194.966 164.939 177.506 159.027 159.456 155.85L131.258 60.56C131.033 59.7998 130.569 59.1327 129.933 58.6586C129.298 58.1846 128.526 57.929 127.733 57.9301C126.941 57.9312 126.169 58.189 125.535 58.6649C124.901 59.1408 124.439 59.8091 124.216 60.57L96.359 155.802C78.2276 158.964 60.6875 164.885 44.349 173.359L87.869 31.078C89.859 24.576 90.852 21.326 92.796 18.918C94.5121 16.7911 96.7444 15.1393 99.28 14.12C102.152 12.966 105.551 12.966 112.35 12.966H143.435C150.242 12.966 153.646 12.966 156.521 14.123C159.059 15.1443 161.292 16.799 163.008 18.929Z" fill="url(#paint0_linear_1_6)"/>
<path fill-rule="evenodd" clip-rule="evenodd" d="M168.19 180.151C161.051 186.256 146.8 190.419 130.386 190.419C110.239 190.419 93.353 184.147 88.873 175.712C87.271 180.547 86.912 186.079 86.912 189.614C86.912 189.614 85.856 206.969 97.927 219.04C97.927 212.772 103.008 207.691 109.277 207.691C120.019 207.691 120.007 217.064 119.997 224.668V225.347C119.997 236.889 127.051 246.783 137.083 250.953C135.539 247.775 134.739 244.286 134.744 240.753C134.744 229.745 141.207 225.646 148.718 220.883C154.694 217.093 161.334 212.882 165.91 204.434C168.374 199.883 169.661 194.789 169.653 189.614C169.653 186.315 169.14 183.135 168.19 180.151Z" fill="#FF5D01"/>
<path fill-rule="evenodd" clip-rule="evenodd" d="M168.19 180.151C161.051 186.256 146.8 190.419 130.386 190.419C110.239 190.419 93.353 184.147 88.873 175.712C87.271 180.547 86.912 186.079 86.912 189.614C86.912 189.614 85.856 206.969 97.927 219.04C97.927 212.772 103.008 207.691 109.277 207.691C120.019 207.691 120.007 217.064 119.997 224.668V225.347C119.997 236.889 127.051 246.783 137.083 250.953C135.539 247.775 134.739 244.286 134.744 240.753C134.744 229.745 141.207 225.646 148.718 220.883C154.694 217.093 161.334 212.882 165.91 204.434C168.374 199.883 169.661 194.789 169.653 189.614C169.653 186.315 169.14 183.135 168.19 180.151Z" fill="url(#paint1_linear_1_6)"/>
<defs>
<linearGradient id="paint0_linear_1_6" x1="176.599" y1="5.423" x2="127.791" y2="173.38" gradientUnits="userSpaceOnUse">
<stop stop-color="#000014"/>
<stop offset="1" stop-color="#150426"/>
</linearGradient>
<linearGradient id="paint1_linear_1_6" x1="200.336" y1="130.49" x2="158.065" y2="218.982" gradientUnits="userSpaceOnUse">
<stop stop-color="#FF1639"/>
<stop offset="1" stop-color="#FF1639" stop-opacity="0"/>
</linearGradient>
</defs>
</svg>
