<svg width="45" height="24" viewBox="0 0 45 24" fill="none" xmlns="http://www.w3.org/2000/svg">
<g clip-path="url(#clip0_1_24)">
<mask id="mask0_1_24" style="mask-type:luminance" maskUnits="userSpaceOnUse" x="0" y="0" width="45" height="24">
<path d="M45 0H0V24H45V0Z" fill="white"/>
</mask>
<g mask="url(#mask0_1_24)">
<mask id="mask1_1_24" style="mask-type:luminance" maskUnits="userSpaceOnUse" x="0" y="0" width="18" height="24">
<path d="M18 0H0V23.2941H18V0Z" fill="white"/>
</mask>
<g mask="url(#mask1_1_24)">
<path fill-rule="evenodd" clip-rule="evenodd" d="M17.3467 7.03562C17.6745 7.04682 17.9314 7.33045 17.9205 7.66911C17.8004 11.4204 17.1391 14.7529 15.9231 17.6551C14.9499 19.9775 12.8264 21.5675 10.4688 22.3838C8.10927 23.2008 5.42338 23.2774 3.21394 22.4764C3.028 22.409 2.88654 22.2506 2.83635 22.0537C1.99051 18.7354 1.07479 14.2598 0.088678 8.63341C0.0302403 8.29998 0.244436 7.98073 0.567096 7.92035C0.889756 7.85996 1.1987 8.0813 1.25714 8.41473C2.20894 13.8454 3.0911 18.1781 3.90317 21.4188C5.77532 22.0092 8.05253 21.9263 10.0916 21.2203C12.2414 20.4759 14.0348 19.0734 14.8334 17.1675C15.9796 14.4321 16.6176 11.2562 16.7337 7.62854C16.7445 7.28987 17.019 7.02441 17.3467 7.03562Z" fill="black"/>
<path fill-rule="evenodd" clip-rule="evenodd" d="M17.6701 6.97418C17.9378 7.16993 18.0012 7.55284 17.8117 7.82942C17.014 8.99417 15.7394 9.80678 14.2821 10.3413C12.819 10.8779 11.1234 11.1526 9.41333 11.2073C6.02102 11.3158 2.41296 10.5603 0.335512 9.07774C0.0656905 8.88519 -0.00198672 8.50306 0.18435 8.22424C0.370687 7.94541 0.740476 7.87548 1.01029 8.06803C2.79329 9.34044 6.10873 10.0853 9.3766 9.9808C10.9967 9.92899 12.5652 9.66887 13.8849 9.18488C15.2102 8.69881 16.2366 8.00514 16.8425 7.12053C17.0319 6.84395 17.4025 6.77842 17.6701 6.97418Z" fill="black"/>
<path fill-rule="evenodd" clip-rule="evenodd" d="M3.46285 5.17458C3.67889 5.07684 3.93043 5.12051 4.10371 5.28583C6.79068 7.8494 11.0772 8.4747 17.181 6.87331C17.4988 6.78993 17.8219 6.98858 17.9026 7.31701C17.9833 7.64544 17.791 7.97928 17.4732 8.06266C11.8546 9.53674 7.40898 9.25755 4.29468 7.01535V9.9087C4.29468 10.2475 4.02886 10.5222 3.70095 10.5222C3.37304 10.5222 3.10721 10.2475 3.10721 9.9087V5.73662C3.10721 5.49291 3.2468 5.27231 3.46285 5.17458Z" fill="black"/>
<path fill-rule="evenodd" clip-rule="evenodd" d="M6.56337 2.36603C6.81701 2.2899 7.08883 2.39607 7.23033 2.62653C8.94062 5.41216 12.2241 6.90131 17.3271 6.90131C17.655 6.90131 17.9208 7.176 17.9208 7.51485C17.9208 7.8537 17.655 8.12839 17.3271 8.12839C12.8724 8.12839 9.48876 7.03099 7.32272 4.72147V7.64881C7.32272 7.98766 7.05689 8.26236 6.72898 8.26236C6.40107 8.26236 6.13525 7.98766 6.13525 7.64881V2.95522C6.13525 2.68229 6.30973 2.44217 6.56337 2.36603Z" fill="black"/>
<path fill-rule="evenodd" clip-rule="evenodd" d="M9.58342 0.282456C9.83306 0.203587 10.1033 0.302463 10.2492 0.526098C12.3136 3.68865 14.7467 5.79688 17.5394 6.90202C17.8457 7.0232 17.9988 7.37796 17.8816 7.6944C17.7643 8.01084 17.421 8.16913 17.1148 8.04795C14.5448 7.03096 12.2919 5.25232 10.3507 2.74225V5.73662C10.3507 6.07547 10.0849 6.35016 9.75702 6.35016C9.42911 6.35016 9.16328 6.07547 9.16328 5.73662V0.869188C9.16328 0.599435 9.33378 0.361325 9.58342 0.282456Z" fill="black"/>
</g>
</g>
</g>
<g clip-path="url(#clip1_1_24)">
<path d="M27.8787 20.0288C26.7097 18.9667 26.3685 16.735 26.8555 15.1181C27.6999 16.1375 28.87 16.4604 30.0819 16.6427C31.9528 16.924 33.7902 16.8188 35.5282 15.9687C35.727 15.8714 35.9107 15.742 36.128 15.6109C36.2911 16.0812 36.3335 16.5561 36.2765 17.0393C36.138 18.2162 35.5488 19.1253 34.6117 19.8145C34.237 20.0901 33.8404 20.3365 33.4534 20.5965C32.2644 21.3953 31.9427 22.332 32.3895 23.6946C32.4001 23.7277 32.4096 23.7609 32.4336 23.8419C31.8266 23.5719 31.3831 23.1787 31.0452 22.6617C30.6884 22.116 30.5186 21.5123 30.5097 20.8592C30.5052 20.5413 30.5052 20.2207 30.4622 19.9073C30.3572 19.1433 29.9964 18.8013 29.3168 18.7816C28.6192 18.7613 28.0674 19.19 27.9211 19.8651C27.9099 19.9169 27.8937 19.9681 27.8776 20.0282L27.8787 20.0288Z" fill="#17191E"/>
<path d="M22 15.6131C22 15.6131 25.1962 14.0486 28.4013 14.0486L30.8179 6.53374C30.9083 6.17031 31.1725 5.92335 31.4707 5.92335C31.769 5.92335 32.0331 6.17031 32.1236 6.53374L34.5401 14.0486C38.3361 14.0486 40.9414 15.6131 40.9414 15.6131C40.9414 15.6131 35.5124 0.75216 35.5018 0.722345C35.346 0.282975 35.083 0 34.7283 0H28.2137C27.859 0 27.6066 0.282975 27.4402 0.722345C27.4284 0.751598 22 15.6131 22 15.6131Z" fill="#17191E"/>
</g>
<defs>
<clipPath id="clip0_1_24">
<rect width="45" height="24" fill="white"/>
</clipPath>
<clipPath id="clip1_1_24">
<rect width="19" height="24" fill="white" transform="translate(22)"/>
</clipPath>
</defs>
</svg>
