<svg width="45" height="24" viewBox="0 0 45 24" fill="none" xmlns="http://www.w3.org/2000/svg">
<g clip-path="url(#clip0_1_24)">
<mask id="mask0_1_24" style="mask-type:luminance" maskUnits="userSpaceOnUse" x="0" y="0" width="45" height="24">
<path d="M45 0H0V24H45V0Z" fill="white"/>
</mask>
<g mask="url(#mask0_1_24)">
<mask id="mask1_1_24" style="mask-type:luminance" maskUnits="userSpaceOnUse" x="0" y="0" width="18" height="24">
<path d="M18 0H0V23.2941H18V0Z" fill="white"/>
</mask>
<g mask="url(#mask1_1_24)">
<path fill-rule="evenodd" clip-rule="evenodd" d="M17.3467 7.03562C17.6745 7.04682 17.9314 7.33045 17.9205 7.66911C17.8004 11.4204 17.1391 14.7529 15.9231 17.6551C14.9499 19.9775 12.8264 21.5675 10.4688 22.3838C8.10927 23.2008 5.42338 23.2774 3.21394 22.4764C3.028 22.409 2.88654 22.2506 2.83635 22.0537C1.99051 18.7354 1.07479 14.2598 0.088678 8.63341C0.0302403 8.29998 0.244436 7.98073 0.567096 7.92035C0.889756 7.85996 1.1987 8.0813 1.25714 8.41473C2.20894 13.8454 3.0911 18.1781 3.90317 21.4188C5.77532 22.0092 8.05253 21.9263 10.0916 21.2203C12.2414 20.4759 14.0348 19.0734 14.8334 17.1675C15.9796 14.4321 16.6176 11.2562 16.7337 7.62854C16.7445 7.28987 17.019 7.02441 17.3467 7.03562Z" fill="black"/>
<path fill-rule="evenodd" clip-rule="evenodd" d="M17.6701 6.97418C17.9378 7.16993 18.0012 7.55284 17.8117 7.82942C17.014 8.99417 15.7394 9.80678 14.2821 10.3413C12.819 10.8779 11.1234 11.1526 9.41335 11.2073C6.02104 11.3158 2.41298 10.5603 0.335527 9.07774C0.0657058 8.88519 -0.00197146 8.50306 0.184365 8.22424C0.370702 7.94541 0.740491 7.87548 1.01031 8.06803C2.79331 9.34044 6.10875 10.0853 9.37662 9.9808C10.9967 9.92899 12.5652 9.66887 13.8849 9.18488C15.2102 8.69881 16.2366 8.00514 16.8425 7.12053C17.0319 6.84395 17.4025 6.77842 17.6701 6.97418Z" fill="black"/>
<path fill-rule="evenodd" clip-rule="evenodd" d="M3.46285 5.17458C3.67889 5.07684 3.93043 5.12051 4.10371 5.28583C6.79068 7.8494 11.0772 8.4747 17.181 6.87331C17.4988 6.78993 17.8219 6.98858 17.9026 7.31701C17.9833 7.64544 17.791 7.97928 17.4732 8.06266C11.8546 9.53674 7.40898 9.25755 4.29468 7.01535V9.9087C4.29468 10.2475 4.02886 10.5222 3.70095 10.5222C3.37304 10.5222 3.10721 10.2475 3.10721 9.9087V5.73662C3.10721 5.49291 3.2468 5.27231 3.46285 5.17458Z" fill="black"/>
<path fill-rule="evenodd" clip-rule="evenodd" d="M6.56337 2.36603C6.81701 2.2899 7.08883 2.39607 7.23033 2.62653C8.94062 5.41216 12.2241 6.90131 17.3271 6.90131C17.655 6.90131 17.9208 7.176 17.9208 7.51485C17.9208 7.8537 17.655 8.12839 17.3271 8.12839C12.8724 8.12839 9.48876 7.03099 7.32272 4.72147V7.64881C7.32272 7.98766 7.05689 8.26236 6.72898 8.26236C6.40107 8.26236 6.13525 7.98766 6.13525 7.64881V2.95522C6.13525 2.68229 6.30973 2.44217 6.56337 2.36603Z" fill="black"/>
<path fill-rule="evenodd" clip-rule="evenodd" d="M9.58342 0.282456C9.83306 0.203587 10.1033 0.302463 10.2492 0.526098C12.3136 3.68865 14.7467 5.79688 17.5394 6.90202C17.8457 7.0232 17.9988 7.37796 17.8816 7.6944C17.7643 8.01084 17.421 8.16913 17.1148 8.04795C14.5448 7.03096 12.2919 5.25232 10.3507 2.74225V5.73662C10.3507 6.07547 10.0849 6.35016 9.75702 6.35016C9.42911 6.35016 9.16328 6.07547 9.16328 5.73662V0.869188C9.16328 0.599435 9.33378 0.361325 9.58342 0.282456Z" fill="black"/>
</g>
</g>
</g>
<g clip-path="url(#clip1_1_24)">
<path d="M29.3787 20.0288C28.2097 18.9667 27.8685 16.735 28.3555 15.1181C29.1999 16.1375 30.37 16.4604 31.5819 16.6427C33.4528 16.924 35.2902 16.8188 37.0282 15.9687C37.227 15.8714 37.4107 15.742 37.628 15.6109C37.7911 16.0812 37.8335 16.5561 37.7765 17.0393C37.638 18.2162 37.0488 19.1253 36.1117 19.8145C35.737 20.0901 35.3404 20.3365 34.9534 20.5965C33.7644 21.3953 33.4427 22.332 33.8895 23.6946C33.9001 23.7277 33.9096 23.7609 33.9336 23.8419C33.3266 23.5719 32.8831 23.1787 32.5452 22.6617C32.1884 22.116 32.0186 21.5123 32.0097 20.8592C32.0052 20.5413 32.0052 20.2207 31.9622 19.9073C31.8572 19.1433 31.4964 18.8013 30.8168 18.7816C30.1192 18.7613 29.5674 19.19 29.4211 19.8651C29.4099 19.9169 29.3937 19.9681 29.3776 20.0282L29.3787 20.0288Z" fill="#17191E"/>
<path d="M23.5 15.6131C23.5 15.6131 26.6962 14.0486 29.9013 14.0486L32.3179 6.53374C32.4083 6.17031 32.6725 5.92335 32.9707 5.92335C33.269 5.92335 33.5331 6.17031 33.6236 6.53374L36.0401 14.0486C39.8361 14.0486 42.4414 15.6131 42.4414 15.6131C42.4414 15.6131 37.0124 0.75216 37.0018 0.722345C36.846 0.282975 36.583 0 36.2283 0H29.7137C29.359 0 29.1066 0.282975 28.9402 0.722345C28.9284 0.751598 23.5 15.6131 23.5 15.6131Z" fill="#17191E"/>
</g>
<defs>
<clipPath id="clip0_1_24">
<rect width="45" height="24" fill="white"/>
</clipPath>
<clipPath id="clip1_1_24">
<rect width="19" height="24" fill="white" transform="translate(23.5)"/>
</clipPath>
</defs>
</svg>
