<svg width="45" height="24" viewBox="0 0 45 24" fill="none" xmlns="http://www.w3.org/2000/svg">
<g clip-path="url(#clip0_1_2)">
<path d="M33 24C39.6274 24 45 18.6274 45 12C45 5.37258 39.6274 0 33 0C26.3726 0 21 5.37258 21 12C21 18.6274 26.3726 24 33 24Z" fill="#393939"/>
<path d="M38.5081 13.1832C38.5491 12.9558 38.59 12.7466 38.6264 12.5328C38.7537 11.8414 38.8766 11.1501 39.0039 10.4587C39.0676 10.1085 39.1313 9.75373 39.1949 9.40351C39.2222 9.26706 39.2586 9.1397 39.3678 9.03964C39.4269 8.98051 39.4997 8.94867 39.5816 8.94867C39.7362 8.94412 39.8908 8.94412 40.0455 8.94412C40.2593 8.94412 40.3684 9.03964 40.4048 9.25341C40.4366 9.43535 40.4003 9.61273 40.3639 9.78557C40.1819 10.718 40.0046 11.6504 39.8226 12.5828C39.6452 13.4925 39.4724 14.3976 39.295 15.3073C39.2177 15.7121 39.1358 16.1169 39.0448 16.5217C38.9766 16.8219 38.8811 17.113 38.7219 17.3814C38.4808 17.7907 38.1261 18.0045 37.6439 17.9999C37.4211 17.9999 37.1982 17.9817 36.9981 17.8726C36.7934 17.7634 36.6706 17.5951 36.666 17.3541C36.666 17.1949 36.666 17.0357 36.7115 16.8856C36.7752 16.6809 36.9208 16.5945 37.13 16.6445C37.1755 16.6536 37.2209 16.6673 37.271 16.6809C37.3438 16.6991 37.412 16.7173 37.4848 16.74C37.5484 16.7582 37.5939 16.74 37.6303 16.6809C37.7713 16.4671 37.8259 16.2306 37.835 15.9805C37.8441 15.753 37.7895 15.5393 37.7349 15.3255C37.4848 14.3249 37.2255 13.3242 36.9708 12.3236C36.7434 11.4275 36.5114 10.5361 36.284 9.64002C36.243 9.48083 36.2476 9.32164 36.2931 9.16244C36.334 9.02599 36.425 8.94867 36.566 8.94867C36.7889 8.94412 37.0117 8.94412 37.2346 8.94867C37.4393 8.94867 37.5666 9.07148 37.6258 9.26706C37.6894 9.47628 37.7304 9.6946 37.7758 9.90838C38.0124 10.9818 38.2489 12.0598 38.4854 13.1332C38.4945 13.1423 38.499 13.1559 38.5081 13.1832Z" fill="white"/>
<path d="M33.3457 10.2359C33.2502 10.2359 33.1593 10.2359 33.0728 10.2359C32.85 10.2313 32.7226 10.1221 32.6908 9.90382C32.6817 9.84924 32.6771 9.79466 32.6771 9.73553C32.6817 9.58089 32.6817 9.42624 32.6953 9.2716C32.6999 9.20792 32.7317 9.13969 32.7635 9.08511C32.8181 8.99414 32.9045 8.94866 33.0092 8.94411C33.1183 8.93956 33.2275 8.94411 33.3457 8.94411C33.3503 8.85769 33.3548 8.77582 33.3594 8.6894C33.3912 7.98441 33.4231 7.28395 33.4594 6.57896C33.464 6.4698 33.4822 6.35609 33.5095 6.24693C33.5595 6.07864 33.6732 6.00131 33.8461 6.00131C33.9871 5.99676 34.1281 6.00586 34.2691 6.00131C34.5556 5.98767 34.6648 6.1696 34.6921 6.38338C34.7012 6.4607 34.7057 6.53802 34.7057 6.61534V8.86224V8.93956H34.7739C34.9786 8.93956 35.1833 8.94411 35.388 8.93956C35.6927 8.92592 35.8064 9.1124 35.8201 9.33072C35.8291 9.52176 35.8291 9.71279 35.811 9.90382C35.7928 10.113 35.6472 10.2359 35.4334 10.2359C35.2106 10.2359 34.9877 10.2359 34.7648 10.2359C34.7466 10.2359 34.733 10.2359 34.7102 10.2404C34.7102 10.2631 34.7057 10.2813 34.7057 10.2995V13.9655C34.7057 14.2384 34.7284 14.5113 34.8194 14.7706C34.8922 14.9662 34.9377 14.998 35.1469 15.0025C35.3106 15.0025 35.4744 15.0025 35.6381 15.0071C35.8337 15.0116 35.9611 15.1163 35.9883 15.3118C36.0156 15.5256 36.0202 15.7394 35.9792 15.9532C35.952 16.1078 35.8382 16.2124 35.6836 16.2306C35.6017 16.2397 35.5199 16.2397 35.4334 16.2397C35.1924 16.2397 34.9513 16.2443 34.7148 16.2261C34.1462 16.1851 33.7551 15.8895 33.5504 15.3573C33.4276 15.0389 33.373 14.7069 33.3548 14.3658C33.3412 14.1111 33.3366 13.8564 33.3366 13.6017C33.3366 12.51 33.3366 11.4184 33.3366 10.3223C33.3457 10.295 33.3457 10.2722 33.3457 10.2359Z" fill="white"/>
<path d="M26.6369 7.79791C26.505 7.82975 26.3776 7.85704 26.2594 7.89343C26.032 7.96166 25.8591 7.82975 25.8182 7.61598C25.8091 7.5614 25.8045 7.50227 25.8 7.44314C25.8 7.23846 25.8 7.02924 25.8045 6.82456C25.8091 6.63353 25.9137 6.50163 26.0956 6.4516C26.6323 6.30605 27.1691 6.16505 27.7103 6.0286C27.9377 5.96947 28.1151 6.09682 28.147 6.32879C28.1606 6.41066 28.1651 6.49253 28.1651 6.57895V15.4983C28.1651 15.6484 28.1606 15.794 28.1151 15.9395C28.0514 16.1396 27.9468 16.217 27.7331 16.217C27.5011 16.217 27.2691 16.217 27.0372 16.217C26.8643 16.217 26.7597 16.1533 26.7006 15.9895C26.6687 15.894 26.6505 15.7894 26.6369 15.6848C26.6278 15.6166 26.6323 15.5438 26.6323 15.471C26.6323 12.9421 26.6323 10.4178 26.6323 7.88888C26.6369 7.86159 26.6369 7.8343 26.6369 7.79791Z" fill="white"/>
<path d="M30.03 7.79792C29.8981 7.82975 29.7753 7.85704 29.6525 7.89343C29.416 7.96621 29.2386 7.82066 29.2068 7.59779C29.1931 7.50227 29.1931 7.40221 29.1931 7.30214C29.1931 7.1293 29.1931 6.95192 29.2068 6.77908C29.2204 6.60624 29.325 6.49253 29.4979 6.44705C29.9845 6.31969 30.4712 6.18779 30.9579 6.06498C31.0443 6.04224 31.1353 6.0195 31.2262 6.0195C31.3945 6.0195 31.5082 6.12411 31.5401 6.3015C31.5537 6.38337 31.5628 6.46524 31.5628 6.54711V15.5211C31.5628 15.6575 31.5446 15.794 31.5128 15.9259C31.4628 16.1305 31.3445 16.2124 31.1353 16.2124C30.9079 16.2124 30.685 16.2124 30.4576 16.2124C30.2529 16.2124 30.1392 16.1351 30.0846 15.935C30.0573 15.8212 30.0391 15.703 30.0346 15.5847C30.03 14.8115 30.03 14.0337 30.03 13.2605C30.03 11.4639 30.03 9.67185 30.03 7.87524C30.03 7.85704 30.03 7.8343 30.03 7.79792Z" fill="white"/>
<g clip-path="url(#clip1_1_2)">
<path fill-rule="evenodd" clip-rule="evenodd" d="M17.3467 7.03561C17.6745 7.04681 17.9314 7.33044 17.9205 7.6691C17.8004 11.4204 17.1391 14.7529 15.9231 17.6551C14.9499 19.9775 12.8264 21.5675 10.4688 22.3838C8.10926 23.2008 5.42337 23.2774 3.21393 22.4764C3.02799 22.409 2.88653 22.2506 2.83634 22.0537C1.9905 18.7354 1.07478 14.2598 0.0886704 8.6334C0.0302327 8.29997 0.244428 7.98072 0.567088 7.92034C0.889748 7.85995 1.19869 8.08129 1.25713 8.41472C2.20893 13.8454 3.09109 18.1781 3.90316 21.4188C5.77531 22.0092 8.05252 21.9263 10.0916 21.2203C12.2414 20.4759 14.0348 19.0734 14.8334 17.1675C15.9796 14.4321 16.6176 11.2562 16.7337 7.62853C16.7445 7.28986 17.019 7.0244 17.3467 7.03561Z" fill="black"/>
<path fill-rule="evenodd" clip-rule="evenodd" d="M17.6701 6.97418C17.9378 7.16993 18.0012 7.55284 17.8117 7.82942C17.014 8.99417 15.7394 9.80678 14.2821 10.3413C12.819 10.8779 11.1234 11.1526 9.41333 11.2073C6.02102 11.3158 2.41296 10.5603 0.335508 9.07774C0.0656867 8.88519 -0.00199056 8.50306 0.184346 8.22424C0.370683 7.94541 0.740472 7.87548 1.01029 8.06803C2.79329 9.34044 6.10873 10.0853 9.3766 9.9808C10.9967 9.92899 12.5652 9.66887 13.8849 9.18488C15.2102 8.69881 16.2366 8.00514 16.8425 7.12053C17.0319 6.84395 17.4025 6.77842 17.6701 6.97418Z" fill="black"/>
<path fill-rule="evenodd" clip-rule="evenodd" d="M3.46284 5.17457C3.67888 5.07683 3.93042 5.1205 4.1037 5.28582C6.79067 7.84939 11.0772 8.47469 17.181 6.8733C17.4988 6.78992 17.8219 6.98857 17.9026 7.317C17.9833 7.64543 17.791 7.97927 17.4732 8.06265C11.8546 9.53673 7.40897 9.25754 4.29467 7.01534V9.90869C4.29467 10.2475 4.02885 10.5222 3.70094 10.5222C3.37303 10.5222 3.1072 10.2475 3.1072 9.90869V5.73661C3.1072 5.4929 3.24679 5.2723 3.46284 5.17457Z" fill="black"/>
<path fill-rule="evenodd" clip-rule="evenodd" d="M6.56336 2.36603C6.817 2.2899 7.08882 2.39607 7.23032 2.62653C8.94061 5.41216 12.2241 6.90131 17.3271 6.90131C17.655 6.90131 17.9208 7.176 17.9208 7.51485C17.9208 7.8537 17.655 8.12839 17.3271 8.12839C12.8724 8.12839 9.48875 7.03099 7.32271 4.72147V7.64881C7.32271 7.98766 7.05688 8.26236 6.72897 8.26236C6.40106 8.26236 6.13524 7.98766 6.13524 7.64881V2.95522C6.13524 2.68229 6.30972 2.44217 6.56336 2.36603Z" fill="black"/>
<path fill-rule="evenodd" clip-rule="evenodd" d="M9.58342 0.282451C9.83306 0.203582 10.1033 0.302458 10.2492 0.526093C12.3136 3.68864 14.7467 5.79687 17.5394 6.90201C17.8457 7.02319 17.9988 7.37795 17.8816 7.69439C17.7643 8.01083 17.421 8.16912 17.1148 8.04794C14.5448 7.03095 12.2919 5.25231 10.3507 2.74224V5.73661C10.3507 6.07546 10.0849 6.35015 9.75701 6.35015C9.4291 6.35015 9.16328 6.07546 9.16328 5.73661V0.869183C9.16328 0.59943 9.33378 0.36132 9.58342 0.282451Z" fill="black"/>
</g>
</g>
<defs>
<clipPath id="clip0_1_2">
<rect width="45" height="24" fill="white"/>
</clipPath>
<clipPath id="clip1_1_2">
<rect width="18" height="23.2941" fill="white"/>
</clipPath>
</defs>
</svg>
