<svg fill="none" height="24" viewBox="0 0 24 24" width="24" xmlns="http://www.w3.org/2000/svg"><path d="m11.2363 21.9959c-1.60018-.1577-2.84784-.5356-4.10051-1.2339-2.18779-1.2238-3.86051-3.251-4.63311-5.6085-.08502-.2578-.25504-.866-.25504-.9135 0-.015.07001-.0426.15502-.0601.24753-.05.7276-.2152.98763-.3403.27004-.1277.60758-.3454.7176-.4605l.07251-.0751-.15002-.1952c-.46756-.6132-.7051-1.0862-.7076-1.4141 0-.1326.06751-.2853.16003-.3578.05-.0401.0625-.0626.0375-.0626-.12002 0-.34004.2878-.64759.8509-.35504.6507-.44005.7984-.59758 1.0336-.13501.2052-.16502.2378-.18002.1977-.01-.0275-.0375-.2527-.05751-.5005-.13501-1.5492.09502-3.11837.66509-4.55993 1.09765-2.76548 3.38295-4.9153 6.20583-5.82879.63258-.20522 1.25267-.34036 1.99027-.43296.4175-.05256 1.8977-.04255 2.3253.01501 2.1003.28281 3.908 1.1062 5.4532 2.48518 1.8178 1.62426 2.9654 3.84415 3.2605 6.31429.045.3704.08 1.5267.0525 1.7119l-.0175.1151-.2676-.1377c-1.0276-.528-1.8027-1.6542-1.9552-2.84051-.05-.40294-.08-.45299-.3476-.58564-.255-.13014-2.0252-.88595-2.6278-1.12371-.8051-.31784-1.0202-.35288-1.2152-.20522-.12.0901-.145.20772-.1275.58813.0225.48553.12.85343.3575 1.35146.8802 1.84449 3.0104 3.05079 5.7483 3.25599.2925.0225.4126.0426.4126.0626 0 .1326-.1301.921-.2051 1.2363-.7976 3.4162-3.3304 6.1817-6.6458 7.2529-.6076.1952-1.1277.3153-1.7878.4079-.2775.04-.5201.0525-1.1626.0601-.4476.0025-.8577.0025-.9127-.0025zm-1.0676-5.8664c.7351-.04 1.3552-.1551 2.0453-.3854 1.7477-.5856 3.3704-1.7894 4.7656-3.5388.25-.3153.2875-.3829.26-.493-.01-.0376-.2025-.2503-.4475-.4956-.8476-.8459-1.2627-1.54414-1.4052-2.35502-.04-.23525-.0475-.6482-.015-.84841.01-.06507.01-.11012 0-.10011s-.105.20522-.21.43297c-.2751.58813-.8026 1.63927-1.0827 2.15227-.9376 1.7269-1.7652 2.9157-2.6278 3.7791-.6401.6382-1.1552.9786-1.76527 1.1663-.20503.0651-.26003.0701-.62508.0701-.38755 0-.40756-.0025-.63509-.0801-.46506-.1602-.82261-.3955-1.23016-.8034-.52257-.5256-.98263-1.2013-1.5202-2.2424-.10002-.1927-.21753-.3854-.26004-.4305-.12001-.1176-1.5327-.6582-1.72273-.6582-.10251 0-.22753.1327-.27003.2853-.07251.2628.0125.4956.40755 1.1262 1.12015 1.7795 2.79787 2.9532 4.74313 3.3161.27504.0501.68509.1001.93763.1101.08251.005.15502.01.16252.0125s.23003-.0075.49507-.02z" fill="#3a6d62"/></svg>