<svg fill="none" height="24" viewBox="0 0 24 24" width="24" xmlns="http://www.w3.org/2000/svg"><g clip-rule="evenodd" fill-rule="evenodd"><path d="m11.88 6.23999h10.08v4.08001h-10.08z" fill="#fff"/><g fill="#3ecc5f"><path d="m2.75999 19.56c-.88776 0-1.66116-.4833-2.076365-1.2-.211981.3644-.323649.7784-.32364 1.2 0 1.3255 1.074485 2.4 2.400005 2.4h2.4v-2.4z"/><path d="m13.5576 6.88511 8.4024-.52512v-1.2c0-1.32552-1.0745-2.4-2.4-2.4h-10.80001l-.3-.5196c-.13344-.231-.46668-.231-.6 0l-.3.5196-.3-.5196c-.13332-.231-.46668-.231-.6 0l-.3.5196-.3-.5196c-.13332-.231-.46668-.231-.6 0l-.3.5196c-.00264 0-.00504.00036-.0078.00036l-.49704-.49692c-.1884-.18852-.51024-.10236-.57936.15528l-.16428.61248-.62304-.16704c-.25776-.069-.49332.16668-.4242.42432l.1668.62316-.61224.16404c-.25776.06912-.34404.39108-.15552.5796l.49704.49704c0 .00252-.00036.00504-.00036.00768l-.5196.3c-.231.13332-.231.46668 0 .6l.5196.3-.5196.3c-.231.13332-.231.46668 0 .6l.5196.3-.5196.3c-.231.13332-.231.46668 0 .6l.5196.3-.5196.3c-.231.13332-.231.46668 0 .6l.5196.3-.5196.30001c-.231.1333-.231.4667 0 .6l.5196.3-.5196.3c-.231.1333-.231.4667 0 .6l.5196.3-.5196.3c-.231.1333-.231.4667 0 .6l.5196.3-.5196.3c-.231.1333-.231.4667 0 .6l.5196.3-.5196.3c-.231.1333-.231.4667 0 .6l.5196.3-.5196.3c-.231.1333-.231.4667 0 .6l.5196.3-.5196.3c-.231.1333-.231.4667 0 .6l.5196.3-.5196.3c-.231.1333-.231.4667 0 .6l.5196.3c0 1.3255 1.07448 2.4 2.4 2.4h14.40001c1.3255 0 2.4-1.0745 2.4-2.4v-9.60001l-8.4024-.52512c-.3243-.0203-.6287-.16345-.8512-.40031-.2225-.23685-.3464-.5496-.3464-.87457 0-.67452.5244-1.23276 1.1976-1.27488z"/><path d="m17.16 21.96h3.6v-4.8h-3.6z"/></g><path d="m23.16 18.96c-.0263 0-.0514.0044-.0767.0077-.0046-.018-.0089-.0361-.0139-.0541.1279-.0535.2333-.1496.2983-.272.0651-.1224.0858-.2635.0586-.3994-.0273-.1359-.1007-.2582-.2079-.3461-.1071-.0879-.2414-.136-.38-.1361-.131.0005-.2583.0442-.3619.1243-.0133-.0135-.0267-.027-.0402-.0403.0784-.1031.121-.2289.1213-.3584-.0001-.1383-.0479-.2723-.1354-.3793-.0874-.1071-.2092-.1806-.3446-.2083-.1355-.0276-.2763-.0076-.3987.0566-.1225.0642-.219.1687-.2732.2959-.0178-.0051-.0356-.0093-.0534-.0138.0032-.0253.0077-.0504.0077-.0767 0-.1591-.0632-.3117-.1757-.4243-.1126-.1125-.2652-.1757-.4243-.1757s-.3118.0632-.4243.1757c-.1125.1126-.1757.2652-.1757.4243 0 .0263.0044.0514.0077.0767-.0178.0045-.0357.0087-.0534.0138-.0541-.1274-.1505-.2322-.273-.2966s-.2635-.0845-.3991-.0568-.2574.1014-.3449.2086c-.0874.1073-.1351.2415-.1349.3799 0 .135.0461.2581.1213.3584-.446.4358-.7237 1.0432-.7237 1.716 0 1.3255 1.0745 2.4 2.4 2.4 1.1207 0 2.0592-.7692 2.3233-1.8077.0253.0033.0504.0077.0767.0077.1591 0 .3117-.0632.4243-.1757.1125-.1126.1757-.2652.1757-.4243s-.0632-.3117-.1757-.4243c-.1126-.1125-.2652-.1757-.4243-.1757" fill="#44d860"/><path d="m18.36 14.76h3.6v-2.4h-3.6z" fill="#3ecc5f"/><path d="m23.16 13.86c.0796 0 .1559-.0316.2121-.0879.0563-.0562.0879-.1325.0879-.2121s-.0316-.1559-.0879-.2121c-.0562-.0563-.1325-.0879-.2121-.0879-.0131 0-.0257.0023-.0383.0038-.0024-.009-.0044-.018-.0069-.027.0638-.0268.1164-.0748.1489-.136s.0428-.1317.0292-.1996-.0503-.1291-.1038-.173c-.0536-.044-.1206-.0681-.1899-.0682-.0683 0-.1306.0236-.181.0622-.0065-.0069-.0133-.0136-.0201-.0202.0377-.05.0607-.1117.0607-.1793 0-.0691-.0239-.1361-.0677-.1897-.0437-.0535-.1046-.0903-.1723-.1041-.0678-.0139-.1382-.0038-.1994.0283-.0613.0321-.1095.0844-.1366.148-.105-.0297-.2136-.0449-.3228-.0452-.6626 0-1.2.5374-1.2 1.2s.5374 1.2 1.2 1.2c.1121 0 .22-.0166.3228-.0452.0271.0636.0753.1159.1366.148.0612.0321.1316.0421.1994.0283.0677-.0138.1286-.0506.1723-.1041.0438-.0536.0677-.1206.0677-.1897 0-.0676-.023-.1293-.0607-.1793.0068-.0066.0135-.0133.0201-.0202.0504.0386.1127.0622.181.0622.0693 0 .1365-.024.1902-.068.0536-.0439.0903-.1051.1039-.1731.0137-.068.0033-.1386-.0292-.1998-.0326-.0612-.0853-.1092-.1493-.1359.0025-.0089.0045-.018.0069-.027.0126.0015.0252.0038.0383.0038z" fill="#44d860"/><path d="m7.55998 6.65999c-.07956 0-.15587-.03161-.21213-.08787s-.08787-.13257-.08787-.21213c0-.49632-.40368-.9-.9-.9s-.89999.40368-.89999.9c0 .07956-.03161.15587-.08787.21213s-.13257.08787-.21213.08787c-.07957 0-.15588-.03161-.21214-.08787s-.08786-.13257-.08786-.21213c0-.82716.67284-1.5 1.49999-1.5.82716 0 1.5.67284 1.5 1.5 0 .07956-.0316.15587-.08786.21213s-.13257.08787-.21214.08787" fill="#000"/><path d="m12.36 21.96h7.2c1.3255 0 2.4-1.0745 2.4-2.4v-8.4h-7.2c-1.3255 0-2.4 1.0745-2.4 2.4z" fill="#ffff50"/><path d="m20.1624 14.88h-6.0048c-.0318 0-.0623-.0127-.0848-.0352s-.0352-.053-.0352-.0848.0127-.0624.0352-.0849.053-.0351.0848-.0351h6.0048c.0318 0 .0624.0126.0849.0351s.0351.0531.0351.0849-.0126.0623-.0351.0848-.0531.0352-.0849.0352zm0 2.4h-6.0048c-.0318 0-.0623-.0127-.0848-.0352s-.0352-.053-.0352-.0848.0127-.0624.0352-.0849.053-.0351.0848-.0351h6.0048c.0318 0 .0624.0126.0849.0351s.0351.0531.0351.0849-.0126.0623-.0351.0848-.0531.0352-.0849.0352zm0 2.4h-6.0048c-.0318 0-.0623-.0127-.0848-.0352s-.0352-.053-.0352-.0848.0127-.0624.0352-.0849.053-.0351.0848-.0351h6.0048c.0318 0 .0624.0126.0849.0351s.0351.0531.0351.0849-.0126.0623-.0351.0848-.0531.0352-.0849.0352zm0-5.9777h-6.0048c-.0318 0-.0623-.0126-.0848-.0351s-.0352-.0531-.0352-.0849.0127-.0623.0352-.0848.053-.0352.0848-.0352h6.0048c.0318 0 .0624.0127.0849.0352s.0351.053.0351.0848-.0126.0624-.0351.0849-.0531.0351-.0849.0351zm0 2.3777h-6.0048c-.0318 0-.0623-.0127-.0848-.0352s-.0352-.053-.0352-.0848.0127-.0624.0352-.0849.053-.0351.0848-.0351h6.0048c.0318 0 .0624.0126.0849.0351s.0351.0531.0351.0849-.0126.0623-.0351.0848-.0531.0352-.0849.0352zm0 2.4h-6.0048c-.0318 0-.0623-.0127-.0848-.0352s-.0352-.053-.0352-.0848.0127-.0624.0352-.0849.053-.0351.0848-.0351h6.0048c.0318 0 .0624.0126.0849.0351s.0351.0531.0351.0849-.0126.0623-.0351.0848-.0531.0352-.0849.0352zm1.7976-11.08669c-.0014 0-.0026-.00072-.0041-.0006-.3708.0126-.5462.38352-.701.71076-.1615.342-.2864.56436-.4912.55764-.2266-.00816-.3562-.26424-.4935-.5352-.1577-.31128-.3377-.66432-.7156-.65112-.3655.01248-.5415.33528-.6968.62004-.1653.30336-.2777.4878-.4945.47928-.2313-.0084-.3542-.2166-.4964-.45756-.1585-.26832-.3417-.57-.7123-.55968-.3593.01236-.5358.2862-.6915.528-.1648.2556-.2802.41136-.4998.40212-.2368-.0084-.3591-.1812-.5006-.38124-.1588-.22476-.3379-.47916-.7074-.4668-.3513.012-.5278.2364-.6835.43416-.1478.18768-.2633.33624-.5075.32688-.0318-.00114-.0628.0104-.0861.0321-.0233.02169-.037.05176-.0382.08358-.0011.03183.0104.06281.0321.08612.0217.02332.0518.03706.0836.0382.362.01212.5454-.216.7046-.41844.1413-.17952.2632-.33444.5032-.3426.2311-.00984.3395.1338.5034.3654.1556.22008.3323.46968.6877.48252.3724.01248.5515-.2658.7102-.51204.1418-.22008.2642-.41004.498-.41808.2151-.00804.3323.162.4974.44172.1556.26364.3319.56232.6944.57552.375.01296.5561-.3144.7139-.6042.1367-.25056.2657-.4872.4943-.49512.2151-.00504.3273.1914.4933.5196.155.30636.3308.6534.699.66672l.0203.00036c.3677 0 .5421-.369.6966-.69528.1367-.2892.266-.5616.488-.57276z" fill="#000"/><path d="m9.95996 21.96h4.80004v-4.8h-4.80004z" fill="#3ecc5f"/><path d="m17.16 18.96c-.0263 0-.0514.0044-.0767.0077-.0046-.018-.0089-.0361-.0139-.0541.1279-.0535.2333-.1496.2983-.272.0651-.1224.0858-.2635.0586-.3994-.0273-.1359-.1007-.2582-.2079-.3461-.1071-.0879-.2414-.136-.38-.1361-.131.0005-.2583.0442-.3619.1243-.0133-.0135-.0267-.027-.0402-.0403.0784-.1031.121-.2289.1213-.3584-.0001-.1383-.0479-.2723-.1354-.3793-.0874-.1071-.2092-.1806-.3446-.2083-.1355-.0276-.2763-.0076-.3987.0566-.1225.0642-.2189.1687-.2732.2959-.0178-.0051-.0356-.0093-.0534-.0138.0032-.0253.0077-.0504.0077-.0767 0-.1591-.0632-.3117-.1757-.4243-.1126-.1125-.2652-.1757-.4243-.1757s-.3118.0632-.4243.1757c-.1125.1126-.1757.2652-.1757.4243 0 .0263.0044.0514.0077.0767-.0178.0045-.0357.0087-.0534.0138-.0541-.1274-.1505-.2322-.273-.2966s-.2635-.0845-.3991-.0568-.2574.1014-.3449.2086c-.0874.1073-.1351.2415-.1349.3799 0 .135.0461.2581.1213.3584-.446.4358-.7237 1.0432-.7237 1.716 0 1.3255 1.0745 2.4 2.4 2.4 1.1207 0 2.0592-.7692 2.3233-1.8077.0253.0033.0504.0077.0767.0077.1591 0 .3117-.0632.4243-.1757.1125-.1126.1757-.2652.1757-.4243s-.0632-.3117-.1757-.4243c-.1126-.1125-.2652-.1757-.4243-.1757" fill="#44d860"/><path d="m9.95996 14.76h4.80004v-2.4h-4.80004z" fill="#3ecc5f"/><path d="m15.9599 13.86c.0796 0 .1559-.0316.2122-.0879.0562-.0562.0878-.1325.0878-.2121s-.0316-.1559-.0878-.2121c-.0563-.0563-.1326-.0879-.2122-.0879-.013 0-.0256.0023-.0382.0038-.0024-.009-.0045-.018-.007-.027.0639-.0268.1165-.0748.1489-.136.0325-.0612.0428-.1317.0292-.1996s-.0503-.1291-.1038-.173c-.0535-.044-.1206-.0681-.1899-.0682-.0682 0-.1305.0236-.1809.0622-.0066-.0069-.0133-.0136-.0202-.0202.0377-.05.0607-.1117.0607-.1793 0-.0691-.0239-.1361-.0676-.1897-.0438-.0535-.1047-.0903-.1724-.1041-.0678-.0139-.1382-.0038-.1994.0283s-.1095.0844-.1366.148c-.105-.0297-.2136-.0449-.3228-.0452-.6626 0-1.2.5374-1.2 1.2s.5374 1.2 1.2 1.2c.1121 0 .22-.0166.3228-.0452.0271.0636.0754.1159.1366.148s.1316.0421.1994.0283c.0677-.0138.1286-.0506.1724-.1041.0437-.0536.0676-.1206.0676-.1897 0-.0676-.023-.1293-.0607-.1793.0069-.0066.0136-.0133.0202-.0202.0504.0386.1127.0622.1809.0622.0694 0 .1366-.024.1902-.068.0536-.0439.0904-.1051.104-.1731s.0032-.1386-.0293-.1998c-.0326-.0612-.0853-.1092-.1493-.1359.0025-.0089.0046-.018.007-.027.0126.0015.0252.0038.0382.0038z" fill="#44d860"/><path d="m17.16 5.00997c-.0192 0-.0396-.0024-.0588-.006-.0193-.00375-.0382-.00938-.0564-.0168-.018-.0072-.0348-.0168-.0517-.0276-.0156-.0108-.0311-.024-.0456-.0372-.0131-.0144-.0263-.0288-.0371-.0456s-.0204-.0336-.0277-.0516c-.0148-.03663-.0225-.07571-.0227-.1152 0-.0192.0024-.0396.006-.0588s.0096-.0372.0167-.0564c.0073-.018.0169-.0348.0277-.0516.0108-.0156.024-.0312.0371-.0456.0145-.0132.03-.0264.0456-.0372.0169-.0108.0337-.0204.0517-.0276.0179-.0072.0372-.0132.0564-.0168.0384-.0084.078-.0084.1176 0 .0191.0036.0384.0096.0564.0168.0179.0072.0348.0168.0516.0276.0156.0108.0311.024.0456.0372.0132.0144.0264.03.0372.0456.0108.0168.0204.0336.0276.0516.0072.0192.0132.0372.0168.0564.0035.0192.006.0396.006.0588 0 .0792-.0325.1572-.0876.2124-.0145.0132-.03.0264-.0456.0372-.0168.0108-.0337.0204-.0516.0276-.0366.01493-.0757.02267-.1152.0228zm2.4-.15c-.0792 0-.156-.0324-.2125-.0876-.0134-.01438-.0257-.02962-.0371-.0456-.0108-.0168-.0204-.0336-.0277-.0516-.0148-.03663-.0225-.07571-.0227-.1152 0-.0792.0324-.156.0875-.2124.0145-.0132.03-.0264.0456-.0372.0169-.0108.0337-.0204.0517-.0276.0179-.0072.0372-.0132.0564-.0168.0384-.0084.0792-.0084.1176 0 .0191.0036.0384.0096.0564.0168.0179.0072.0348.0168.0516.0276.0156.0108.0311.024.0456.0372.0551.0564.0876.1332.0876.2124 0 .0192-.0025.0396-.006.0588-.0036.0192-.0096.0384-.0168.0564-.0084.018-.0168.0348-.0276.0516-.0108.0156-.024.0312-.0372.0456-.0145.0132-.03.0264-.0456.0372-.0168.0108-.0337.0204-.0516.0276-.0366.01493-.0757.02267-.1152.0228z" fill="#000"/></g></svg>