<svg fill="none" height="24" viewBox="0 0 24 24" width="24" xmlns="http://www.w3.org/2000/svg"><circle cx="12" cy="12" fill="#393939" r="12"/><g fill="#fff"><path d="m17.5081 13.1832c.041-.2274.0819-.4366.1183-.6504.1273-.6914.2502-1.3827.3775-2.0741.0637-.3502.1274-.70497.191-1.05519.0273-.13645.0637-.26381.1729-.36387.0591-.05913.1319-.09097.2138-.09097.1546-.00455.3092-.00455.4639-.00455.2138 0 .3229.09552.3593.30929.0318.18194-.0045.35932-.0409.53216-.182.93243-.3593 1.86483-.5413 2.79723-.1774.9097-.3502 1.8148-.5276 2.7245-.0773.4048-.1592.8096-.2502 1.2144-.0682.3002-.1637.5913-.3229.8597-.2411.4093-.5958.6231-1.078.6185-.2228 0-.4457-.0182-.6458-.1273-.2047-.1092-.3275-.2775-.3321-.5185 0-.1592 0-.3184.0455-.4685.0637-.2047.2093-.2911.4185-.2411.0455.0091.0909.0228.141.0364.0728.0182.141.0364.2138.0591.0636.0182.1091 0 .1455-.0591.141-.2138.1956-.4503.2047-.7004.0091-.2275-.0455-.4412-.1001-.655-.2501-1.0006-.5094-2.0013-.7641-3.0019-.2274-.8961-.4594-1.7875-.6868-2.68358-.041-.15919-.0364-.31838.0091-.47758.0409-.13645.1319-.21377.2729-.21377.2229-.00455.4457-.00455.6686 0 .2047 0 .332.12281.3912.31839.0636.20922.1046.42754.15.64132.2366 1.07342.4731 2.15142.7096 3.22482.0091.0091.0136.0227.0227.05z"/><path d="m12.3457 10.2359c-.0955 0-.1864 0-.2729 0-.2228-.0046-.3502-.1138-.382-.33208-.0091-.05458-.0137-.10916-.0137-.16829.0046-.15464.0046-.30929.0182-.46393.0046-.06368.0364-.13191.0682-.18649.0546-.09097.141-.13645.2457-.141.1091-.00455.2183 0 .3365 0 .0046-.08642.0091-.16829.0137-.25471.0318-.70499.0637-1.40545.1-2.11044.0046-.10916.0228-.22287.0501-.33203.05-.16829.1637-.24562.3366-.24562.141-.00455.282.00455.423 0 .2865-.01364.3957.16829.423.38207.0091.07732.0136.15464.0136.23196v2.2469.07732h.0682c.2047 0 .4094.00455.6141 0 .3047-.01364.4184.17284.4321.39116.009.19104.009.38207-.0091.5731-.0182.20918-.1638.33208-.3776.33208-.2228 0-.4457 0-.6686 0-.0182 0-.0318 0-.0546.0045 0 .0227-.0045.0409-.0045.0591v3.666c0 .2729.0227.5458.1137.8051.0728.1956.1183.2274.3275.2319.1637 0 .3275 0 .4912.0046.1956.0045.323.1092.3502.3047.0273.2138.0319.4276-.0091.6414-.0272.1546-.141.2592-.2956.2774-.0819.0091-.1637.0091-.2502.0091-.241 0-.4821.0046-.7186-.0136-.5686-.041-.9597-.3366-1.1644-.8688-.1228-.3184-.1774-.6504-.1956-.9915-.0136-.2547-.0182-.5094-.0182-.7641 0-1.0917 0-2.1833 0-3.2794.0091-.0273.0091-.0501.0091-.0864z"/><path d="m5.63689 7.79791c-.1319.03184-.25926.05913-.37752.09552-.22741.06823-.40025-.06368-.44119-.27745-.0091-.05458-.01364-.11371-.01819-.17284 0-.20468 0-.4139.00455-.61858.00454-.19103.10916-.32293.29109-.37296.53671-.14555 1.07342-.28655 1.61468-.423.22742-.05913.4048.06822.43664.30019.01365.08187.01819.16374.01819.25016v8.91935c0 .1501-.00454.2957-.05003.4412-.06368.2001-.16829.2775-.38206.2775-.23197 0-.46394 0-.6959 0-.17284 0-.27745-.0637-.33658-.2275-.03184-.0955-.05004-.2001-.06368-.3047-.0091-.0682-.00455-.141-.00455-.2138 0-2.5289 0-5.0532 0-7.58212.00455-.02729.00455-.05458.00455-.09097z"/><path d="m9.03002 7.79792c-.13191.03183-.25471.05912-.37752.09551-.23651.07278-.4139-.07277-.44574-.29564-.01364-.09552-.01364-.19558-.01364-.29565 0-.17284 0-.35022.01364-.52306.01365-.17284.11826-.28655.2911-.33203.48667-.12736.97335-.25926 1.46002-.38207.08642-.02274.17742-.04548.26832-.04548.1683 0 .282.10461.3139.282.0136.08187.0227.16374.0227.24561v8.97399c0 .1364-.0182.2729-.05.4048-.05.2046-.1683.2865-.3775.2865-.22745 0-.45032 0-.67774 0-.20467 0-.31838-.0773-.37296-.2774-.02729-.1138-.04549-.232-.05004-.3503-.00454-.7732-.00454-1.551-.00454-2.3242 0-1.7966 0-3.58865 0-5.38526 0-.0182 0-.04094 0-.07732z"/></g></svg>