<svg fill="none" height="24" viewBox="0 0 21 24" width="21" xmlns="http://www.w3.org/2000/svg" xmlns:xlink="http://www.w3.org/1999/xlink"><clipPath id="a"><path d="m0 0h20.8224v24h-20.8224z"/></clipPath><g clip-path="url(#a)"><path d="m10.4145.00271606-10.3677471 6.00010394.0013014 11.98188 10.3912457 5.9755 10.3676-6.0002.0001-11.97532-10.3926-5.98196394z" fill="#0e83cd"/><path d="m5.55066 17.1691.00081-5.1812.00082-5.18136.94131-.5505.90162.53358.00976 2.11721.00976 2.11727h6.02496l.0098-2.1158.0097-2.11592.9156-.5291.9283.54334-.0005 5.17778-.0004 5.1779-.919.5132-.924-.5199-.0098-2.1054-.0098-2.1055h-6.02486l-.00976 2.1048.00277 2.1154-.92399.542-.93294-.5378z" fill="#fff"/></g></svg>