<svg fill="none" height="24" viewBox="0 0 24 24" width="24" xmlns="http://www.w3.org/2000/svg"><path clip-rule="evenodd" d="m20.9165 15.1118v-6.95142c0-.90397-.4807-1.74027-1.2633-2.19822-1.6797-.98272-4.6471-2.71895-6.4644-3.78235-.9598-.56132-2.152-.5487-3.0993.03298-1.60846.98766-4.11792 2.52858-5.7378 3.52346-.97695.59988-1.57191 1.66089-1.57191 2.80379v7.11736c0 1.1336.60409 2.182 1.58675 2.7541l5.97936 3.4805c.7948.4629 1.7763.4729 2.5808.0268 1.7461-.9687 4.8385-2.6836 6.62-3.6718.845-.4691 1.3686-1.3567 1.3686-2.3199v-.8154z" fill="#ff4088" fill-rule="evenodd"/><path clip-rule="evenodd" d="m11.6747 1h.0158l.0141.00017h.0808l.0141.00057h.0017l.0141.00057h.0015l.0143.00057h.0012l.0142.00057h.0017l.0137.00056h.0018l.0137.00057h.0011l.0143.00057h.0017l.0143.00114h.0017l.0137.00114h.0011l.0137.00113h.0017l.0143.00114h.0012l.0137.00114h.0017l.0142.00113h.0018l.0142.00114h.0017l.0143.00114h.0017l.0137.00114h.0018l.0137.00113h.0017l.0142.00114h.0018l.0142.00171h.0017l.0143.0017h.0012l.0137.00171h.0017l.0137.0017h.0017l.0143.00171h.0017l.0143.0017h.0011l.0137.00171h.0017l.0143.00171h.0017l.0137.00227.0017.00057.0143.00227h.0017l.0137.00228h.0011l.0143.00227h.0017l.0137.00228h.0018l.0137.00227h.0011l.0143.00228h.0017l.0137.00227.0017.00057.0137.00227.0017.00057.0137.00285h.0017l.0137.00227h.0018l.0137.00284h.0017l.0142.00285h.0012l.0137.00284h.0017l.0137.00284h.0011l.0143.00284.0017.00057.0143.00285h.0012l.0137.00341.0017.00057.0137.00341h.0017l.0143.00341.0011.00057.0137.00284.0017.00057.0137.00284.0012.00057.0137.00341h.0017l.0137.00341.0017.00057.0137.00341.0011.00057.0143.00342.0012.00056.0137.00342.0017.00056.0137.00342h.0011l.0137.00398h.0017l.0143.00341.0017.00057.0137.00341h.0017l.0137.00398.0018.00057.0137.00398.0017.00057.0137.00398.0017.00056.0137.00398.0011.00057.0137.00398.0018.00057.0137.00398.0017.00057.0137.00398.0017.00057.0137.00455.0011.00057.0137.00455h.0017l.0138.00454h.0017l.0137.00455.0017.00057.0137.00455.0017.00057.0137.00455.0011.00057.0137.00455.0018.00056.0137.00455.0011.00057.0137.00455.0011.00057.0132.00455.0017.00057.0131.00455.0017.00056.0132.00512.0017.00057.0137.00512.0017.00057.0131.00511.0012.00057.0137.00455.0011.00057.0137.00512.0017.00057.0137.00511.0018.00057.0131.00512.0017.00057.0131.00568.0012.00057.0137.00512.0017.00057.0131.00568.0017.00057.0137.00569.0018.00057.0137.00568.0011.00057.0137.00569.0011.00057.0132.00568.0011.00057.0132.00569.0011.00057.0137.00568.0011.00057.0132.00569.0017.00057.0131.00568.0017.00057.0132.00569.0011.00056.0131.00626.0018.00057.0131.00625.0017.00057.0131.00626.0012.00056.0131.00626.0011.00057.0132.00625.0017.00057.0131.00626.0017.00056.0132.00626.0017.00057.0131.00625.0012.00057.0131.00682.0011.00114.0132.00626.0011.00056.0126.00683.0017.00057.0131.00625.0012.00057.0131.00682.0017.00057.0126.00682.0017.00114.0131.00682.0017.00057.0132.00683.0011.00057.0126.00682.0017.00114.0131.00682.0011.00114.0126.00739.0011.00114.0126.00739.0017.00057.0126.00739.0011.00057.0126.00739.0011.00114.0126.00739.0017.00113.012.0074h.0011l6.4693 3.78519.0108.00625.0012.00114.0108.00625.0017.00057.0103.00683.0011.00113.0103.00626.0012.00114.0102.00625.0012.00057.0103.00625.0011.00057.0103.00626.0011.00057.0103.00625.0017.00057.0103.00682.0011.00057.0103.00682.0017.00057.0103.00626.0011.00057.0103.00682.0012.00114.0102.00682.0012.00114.0097.00625.0017.00057.0103.00682.0011.00057.0103.00682.0011.00057.0097.00683.0012.00057.0097.00682.0011.00057.0097.00682.0012.00114.0097.00682.0011.00057.0097.00739.0017.00114.0098.00682.0011.00057.0097.00682.0011.00057.0098.00683.0011.00113.0097.00683.0011.00056.0097.00683.0012.00113.0097.00683.0011.00113.0097.0074.0018.00113.0091.0074.0017.00113.0097.0074.0017.00056.0097.0074.0012.00113.0097.00739.0011.00114.0092.00739.0017.00114.0097.00796.0017.00171.0183.01478.0022.00171.0183.01535.0023.0017.0188.01536.0023.0017.0189.01535.0023.00171.0182.01535.0023.00228.0183.01535.0023.00171.0177.01592.0022.0017.0178.01592.0022.00171.0177.01649.0023.0017.0171.01592.0023.00171.0177.01649.0023.00227.0171.01649.0023.00228.0172.01649.0022.00227.0166.01649.0023.00228.0165.01705.0023.00228.0166.01706.0017.00227.0166.01706.0022.00227.016.01706.0023.00228.016.01705.0023.00228.016.01706.0023.00227.0159.01763.0023.00227.0154.0182.0018.00227.0159.01763.0023.00227.0154.0182.0023.00227.0154.0182.0018.00227.0154.0182.0023.00227.0148.0182.0017.00227.0149.0182.0022.00227.0149.01877.0017.00227.0143.01876.0017.00228.0143.01876.0017.00228.0143.01876.0017.00284.0142.01934.0018.00227.0142.01876.0017.00285.0137.01933.0018.00227.0137.01934.0017.00227.0137.01933.0017.00285.0131.01933.0017.00284.0132.0199.0017.00285.0125.01933.0018.00227.0125.01934.0017.00227.0132.0199.0017.00228.0125.0199.0018.00284.0119.0199.0018.00284.0125.01991.0017.00284.012.0199.0017.00284.012.02047.0017.00228.0115.02047.0017.00284.0114.02047.0017.00284.0114.02047.0017.00285.0115.02046.0011.00285.0114.02104.0012.00284.0108.02104.0012.00284.0108.02104.0017.00227.0103.02161.0011.00284.0109.02104.0011.00284.0103.02104.0017.00285.0097.0216.0012.00285.0097.0216.0011.00285.0097.0216.0012.00285.0097.0216.0011.00285.0091.0216.0012.00285.0091.0216.0012.00285.0085.02217.0012.00284.0085.02161.0012.00284.0085.02218.0012.00284.0085.02218.0012.00284.0086.02218.0011.00284.008.02218.0011.00284.0075.02217.0011.00285.0074.02217.0012.00285.0074.02217.0011.00284.0074.02275.0006.00284.0069.02218.0011.00284.0069.02274.0005.00285.0069.02274.0011.00284.0069.02275.0011.00284.0063.02275.0011.00284.0063.02274.0006.00285.0057.02274.0012.00341.0062.02331.0006.00285.0057.02331.0012.00284.0051.02331.0011.00285.0057.02331.0006.00341.0052.02332.0005.00284.0052.02331.0005.00284.0046.02332.0006.00284.0045.02331.0006.00285.0046.02331.0006.00284.0039.02388.0006.00285.004.02331.0006.00341.004.02388.0006.00341.0034.02388.0006.00342.0034.02331v.00227l.0017.01251v.00114l.0011.01194v.00171l.0017.01194v.00113l.0018.01194v.00171l.0017.01194.0005.00171.0018.01194v.0017l.0011.01194.0006.00114.0011.01194.0006.00171.0011.01194v.0017l.0012.01194.0005.00171.0012.01194.0005.00171.0012.01194v.0017l.0011.01194v.00171l.0012.01194v.00171l.0011.01194v.0017l.0012.01194v.00171l.0005.01194v.00171l.0006.01251v.0017l.0011.01251v.00114l.0006.01194v.0017l.0006.01194v.00171l.0006.01194v.00171l.0005.01194v.0017l.0006.01251v.00171l.0006.01194v.00171l.0005.01194v.00113l.0006.01194v7.93767l-.0006.0131v.0165l-.0005.0131v.0017l-.0006.0125v.0011l-.0006.0131v.0017l-.0005.0125v.0012l-.0006.0125v.0017l-.0006.0125-.0006.0017-.0005.0125v.0017l-.0006.0125v.0012l-.0006.013v.0017l-.0011.0131v.0012l-.0012.013v.0017l-.0011.0125v.0018l-.0006.0125v.0017l-.0011.0125v.0017l-.0012.0125v.0017l-.0011.0125v.0017l-.0011.0125-.0006.0012-.0011.013-.0006.0017-.0012.0126v.0017l-.0011.0125-.0006.0017-.0017.0125v.0017l-.0017.0125v.0011l-.0017.0125v.0018l-.0017.0125-.0006.0017-.0017.013-.0006.0017-.0017.0126-.0006.0017-.0017.0125v.0017l-.0017.0125v.0017l-.0017.0125-.0006.0017-.0017.0125-.0006.0017-.0022.0125v.0012l-.0018.0125v.0011l-.0022.0125-.0006.0017-.0017.0125-.0006.0017-.0017.0126v.0011l-.0023.0125v.0011l-.0023.0125v.0012l-.0023.0125v.0017l-.0022.0119-.0006.0017-.0023.012-.0006.0017-.0023.0125-.0005.0017-.0029.0125v.0012l-.0028.0125v.0011l-.0023.0119v.0017l-.0029.0126v.0011l-.0023.0125-.0005.0011-.0029.012v.0011l-.0028.012v.0017l-.0029.0119-.0006.0017-.0028.012-.0006.0017-.0028.0119-.0006.0011-.0029.012-.0005.0011-.0029.012-.0006.0017-.0034.0119-.0006.0017-.0028.0119-.0006.0018-.0034.0119v.0017l-.0034.0125-.0006.0017-.0034.012v.0017l-.0035.0119-.0005.0017-.0035.012-.0005.0017-.0035.0125-.0005.0011-.0035.0119-.0005.0012-.0035.0119-.0005.0017-.004.012-.0006.0017-.0034.0119-.0006.0012-.0034.0119-.0006.0017-.0034.0119-.0006.0012-.004.0119-.0005.0017-.004.012-.0006.0017-.004.0119-.0006.0017-.004.012-.0006.0017-.0039.0119-.0006.0011-.004.012-.0006.0017-.004.0119-.0006.0017-.004.012-.0005.0011-.004.012-.0006.0017-.004.0119-.0006.0017-.0045.0114-.0006.0017-.004.0114-.0006.0017-.004.0113-.0005.0017-.004.012-.0006.0017-.0046.0119-.0005.0017-.0046.0114-.0006.0017-.0045.0114-.0006.0017-.0046.0114-.0006.0017-.0045.0113-.0006.0017-.0046.0114-.0005.0017-.0046.0114-.0006.0011-.0051.0114-.0006.0017-.0051.0119-.0006.0018-.0046.0113-.0005.0017-.0052.0114-.0005.0017-.0052.0114-.0006.0017-.0051.0114-.0006.0011-.0051.0114-.0006.0017-.0051.0113-.0006.0012-.0051.0114-.0006.0011-.0051.0114-.0006.0011-.0051.0114-.0006.0011-.0057.0114-.0006.0011-.0057.0108-.0006.0017-.0051.0114-.0006.0011-.0057.0108-.0006.0017-.0051.0114-.0006.0012-.0057.0113-.0006.0017-.0057.0114-.0005.0011-.0057.0108-.0006.0012-.0057.0114-.0006.0017-.0057.0113-.0006.0017-.0057.0114-.0011.0017-.0057.0108-.0006.0012-.0057.0113-.0006.0017-.0057.0114-.0006.0017-.0063.0108-.0011.0012-.0063.0108-.0005.0011-.0063.0108-.0006.0011-.0063.0108-.0005.0012-.0063.0108-.0006.0011-.0063.0108-.0006.0017-.0062.0108-.0006.0012-.0063.0108-.0006.0017-.0062.0108-.0012.0011-.0063.0108-.0011.0012-.0063.0108-.0006.0011-.0062.0108-.0006.0017-.0069.0108-.0005.0011-.0063.0103-.0006.0017-.0063.0102-.0011.0012-.0069.0108-.0005.0017-.0069.0102-.0011.0011-.0069.0103-.0005.0011-.0069.0108-.0011.0017-.0069.0103-.0011.0011-.0069.0102-.0006.0012-.0068.0108-.0006.0011-.0068.0102-.0012.0012-.0074.0102-.0006.0012-.0068.0102-.0006.0011-.0074.0103-.0006.0011-.0068.0102-.0012.0012-.0068.0102-.0012.0011-.0074.0103-.0011.0011-.0069.0102-.0006.0012-.0074.0102-.0011.0017-.0069.0103-.0011.0011-.0074.0102-.0012.0012-.0074.0102-.0011.0011-.0075.0103-.0011.0011-.0074.0102-.0006.0012-.0074.0097-.0012.0011-.0074.0097-.0006.0011-.008.0097-.0011.0011-.0074.0097-.0006.0011-.0074.0102-.0012.0012-.0079.0102-.0012.0011-.008.0097-.0011.0011-.008.0097-.0006.0012-.008.0096-.0011.0012-.008.0096-.0012.0012-.008.0096-.0011.0012-.008.0096-.0011.0012-.008.0096-.0006.0012-.008.0096-.0011.0012-.0086.0096-.0011.0012-.008.0096-.0012.0012-.008.0096-.0011.0012-.008.0096-.0011.0012-.008.0097-.0012.0011-.008.0091-.0011.0011-.0086.0097-.0011.0011-.008.0097-.0012.0011-.0085.0097-.0012.0011-.008.0097-.0011.0011-.0086.0091-.0011.0012-.0086.0091-.0011.0011-.0086.0091-.0011.0011-.0086.0091-.0011.0012-.0086.0091-.0011.0011-.0086.0091-.0011.0011-.0086.0091-.0011.0012-.0086.0091-.0012.0011-.0091.0091-.0011.0012-.0086.009-.0011.0012-.0086.0085-.0011.0012-.0092.009-.0017.0012-.0091.0091-.0012.0011-.0091.0086-.0012.0011-.0091.0091-.0011.0011-.0092.0086-.0011.0011-.0091.0085-.0012.0012-.0091.0085-.0012.0011-.0091.0086-.0011.0011-.0092.0085-.0011.0012-.0092.0085-.0011.0011-.0097.0086-.0011.0005-.0092.0085-.0011.0012-.0097.0085-.0012.0012-.0097.0085-.0011.0006-.0097.0085-.0012.0011-.0097.008-.0017.0011-.0097.008-.0011.0011-.0097.0085-.0012.0012-.0097.0085-.0011.0011-.0097.0086-.0012.0011-.0097.008-.0011.0011-.0103.008-.0011.0005-.0098.008-.0011.0011-.0097.008-.0017.0011-.0097.008-.0012.0011-.0097.008-.0011.0011-.0097.008-.0012.0011-.0102.008-.0012.0011-.0097.0074-.0011.0012-.0103.0079-.0012.0011-.0102.008-.0012.0011-.0102.008-.0012.0011-.0103.008-.0011.0006-.0103.0074-.0011.0005-.0103.0074-.0012.0006-.0102.0074-.0017.0006-.0103.0073-.0012.0012-.0102.0074-.0012.0011-.0103.0074-.0011.0011-.0103.0074-.0017.0012-.0103.0074-.0011.0005-.0109.0074-.0017.0006-.0108.0074-.0012.0011-.0108.0074-.0012.0011-.0108.0069-.0011.0011-.0109.0074-.0011.0011-.0103.0074-.0017.0012-.0109.0068-.0011.0006-.0109.0068-.0017.0006-.0108.0068-.0012.0011-.0108.0068-.0012.0012-.0108.0068-.0011.0006-.0109.0068-.0017.0006-.0109.0068-.0011.0011-.0108.0068-.0018.0006-.0108.0068-.0017.0012-.0109.0068-.0017.0011-.0114.0069-.0011.0011-.0109.0062-.0017.0006-.0109.0063-.0011.0011-.0114.0068-.0017.0012-.0115.0062-.0011.0012-.0108.0062-.0018.0006-.0114.0062-.0017.0006-.0114.0063-.0011.0005-.0109.0063-.0006.0006-6.6194 3.6731h-.0005l-.0103.0063-.0017.0006-.0109.0062-.0017.0011-.0108.0057-.0017.0006-.0109.0057-.0011.0006-.0109.0056-.0017.0006-.0108.0057-.0018.0006-.0108.0056-.0017.0006-.0109.0057-.0011.0006-.0109.0057-.0011.0005-.0109.0051-.0011.0006-.0114.0057-.0012.0011-.0108.0057-.0011.0006-.0109.0051-.0011.0006-.0109.0051-.0011.0006-.0109.0056-.0011.0006-.0114.0051-.0012.0006-.0108.0051-.0012.0006-.0114.0051-.0011.0006-.0109.0051-.0011.0006-.0109.0051-.0017.0011-.0114.0051-.0011.0006-.0115.0045-.0011.0006-.0114.0051-.0012.0012-.0114.0051-.0017.0006-.0109.0045-.0011.0006-.0114.0051-.0012.0006-.0114.0045-.0011.0006-.0114.0045-.0012.0006-.0114.0045-.0017.0006-.0114.0046-.0017.0005-.0115.0046-.0017.0005-.0108.0046-.0012.0006-.0114.0039-.0011.0006-.0114.0046-.0018.0005-.0114.0046-.0017.0006-.0114.0045-.0017.0006-.0114.0039-.0018.0006-.0114.0046-.0017.0005-.0114.004-.0012.0006-.0114.004-.0017.0005-.0114.004-.0017.0006-.0114.004-.0018.0005-.0114.004-.0011.0006-.0114.004-.0115.0039-.0017.0006-.012.0034-.0017.0006-.0114.0034-.0011.0006-.0114.0039-.0012.0006-.012.0034-.0017.0006-.0114.0034-.0017.0006-.0114.0034-.0018.0006-.012.0039-.0022.0006-.0229.0068-.0028.0012-.0234.0068-.0029.0006-.0234.0068-.0029.0006-.0234.0062-.0028.0011-.0234.0063-.0029.0006-.0234.0062-.0034.0006-.0234.0057-.0029.0005-.0234.0057-.0034.0006-.0234.0057-.0029.0006-.0234.0051-.0029.0005-.0239.0052-.0035.0005-.0239.0051-.0029.0006-.024.0046-.0028.0005-.0234.004-.0029.0006-.0234.0045-.0029.0006-.0239.004-.0029.0005-.024.004-.0028.0006-.024.0034-.0029.0006-.024.0034-.0028.0006-.024.0034-.0028.0005-.024.0034-.0035.0006-.0239.0029-.0029.0005-.024.0029-.0028.0005-.024.0029-.024.0023h-.0028l-.024.0017-.0029.0005-.024.0017h-.0028l-.024.0017h-.0029l-.0239.0017-.0035.0006-.0239.0017h-.0029l-.024.0012h-.0028l-.024.0011h-.0034l-.024.0006h-.0029l-.024.0005h-.0028l-.024.0006h-.0845l-.024-.0006-.024-.0005h-.0034l-.024-.0006h-.0005l-.024-.0011-.0028-.0006-.024-.0011h-.0029l-.0239-.0012-.0029-.0006-.024-.0011h-.0028l-.024-.0017-.0029-.0006-.0239-.0022-.0035-.0006-.024-.0023-.0034-.0006-.024-.0022-.0028-.0006-.024-.0023h-.0028l-.024-.0022-.0029-.0006-.024-.0029h-.0034l-.024-.0028-.0034-.0006-.024-.0034-.0028-.0005-.024-.0035-.0029-.0005-.024-.0034-.0028-.0006-.024-.0034-.0028-.0006-.0235-.004h-.0017l-.0239-.0045-.0031-.0006-.0234-.0045-.0029-.0006-.0234-.0046-.0029-.0005-.0234-.0046-.0034-.0005-.0238-.0046-.0028-.0006-.0234-.0051-.0034-.0011-.0235-.0051-.0028-.0006-.0234-.0057-.0032-.0011-.0234-.0057-.0029-.0011-.0234-.0063-.0028-.0006-.0235-.0062-.0028-.0012-.0234-.0062-.0029-.0011-.0234-.0063-.0028-.0011-.0235-.0069-.0034-.0011-.0234-.0068-.0028-.0012-.0235-.0068-.0028-.0011-.0234-.0068-.0029-.0006-.0227-.0074-.0023-.0006-.012-.004h-.0015l-.0114-.0034-.0017-.0005-.0115-.004-.0017-.0006-.0114-.004-.0017-.0005-.0114-.004-.0017-.0006-.0115-.004-.0017-.0005-.0114-.004-.0011-.0006-.0115-.004-.0011-.0005-.0114-.004-.0012-.0006-.0114-.0045-.0017-.0006-.0114-.0045-.0017-.0006-.0114-.0046-.0012-.0005-.0114-.0046-.0017-.0005-.0114-.0046-.0012-.0006-.0114-.0045-.0017-.0006-.0114-.0045-.0012-.0006-.0114-.0045-.0011-.0006-.0115-.0046-.0017-.0005-.0114-.0046-.0017-.0006-.0114-.0045-.0017-.0006-.0115-.0045-.0017-.0006-.0114-.0045-.0011-.0006-.0115-.0051-.0017-.0006-.0108-.0051-.0012-.0006-.0114-.0051-.0011-.0006-.0114-.0051-.0012-.0005-.0114-.0046-.0017-.0006-.0109-.0051-.0017-.0006-.0114-.0051-.0017-.0005-.0109-.0052-.0011-.0011-.0108-.0051-.0012-.0006-.0108-.0051-.0012-.0006-.0114-.0051-.0011-.0011-.0115-.0057-.0011-.0011-.0108-.0052-.0018-.0005-.0114-.0051-.0011-.0012-.0109-.0057-.0017-.0005-.0114-.0057-.0011-.0006-.0109-.0057-.0017-.0005-.0109-.0057-.0011-.0006-.0108-.0057-.0018-.0011-.0108-.0057-.0012-.0006-.0108-.0057-.0011-.0005-.0109-.0057-.0017-.0012-.0109-.0056-.0011-.0006-.0108-.0063-.0018-.0011-.0108-.0057-.0017-.0006-.0109-.0056-.0017-.0006-.01083-.0057-.00171-.0006-.01085-.0062-.00171-.0006-.01028-.0062-.00171-.0006-.01028-.0063-.00057-.0005-5.98389-3.4782-.00057-.0006-.01256-.0073-.00115-.0006-.01256-.0074-.00171-.0006-.01313-.0074-.00172-.0005-.01256-.008-.00114-.0006-.01256-.0079-.00114-.0012-.01256-.0079-.00115-.0012-.01256-.0079-.00171-.0006-.01256-.0074-.00171-.0011-.01257-.008-.00114-.0011-.01256-.008h.00291l-.01256-.0079-.00171-.0012-.01256-.0079-.00115-.0012-.01256-.0079-.0016-.0012-.01256-.0085-.00171-.0011-.01256-.0086-.00114-.0011-.01257-.008-.00114-.0011-.01256-.0085-.00114-.0012-.01256-.0085-.00115-.0011-.01199-.0086-.00171-.0011-.01228-.0085-.00114-.0012-.01199-.0085-.00143-.0011-.01199-.0086-.00154-.0011-.01199-.0085-.00114-.0006-.01199-.0085-.00114-.0012-.01182-.0085-.00114-.0011-.01177-.0086-.00171-.0005-.01199-.0086-.00114-.0011-.01199-.0091-.00114-.0011-.01199-.0086-.00149-.0011-.01199-.0091-.00148-.0011-.01142-.0091-.00115-.0012-.01142-.0091-.00114-.0005-.01142-.0091-.00114-.0012-.01142-.0091-.00114-.0011-.01142-.0091-.00114-.0011-.01142-.0091-.00114-.0012-.01142-.0091-.00115-.0011-.01142-.0091-.00114-.0011-.01142-.0097-.00114-.0006-.01142-.0091-.00114-.0011-.01108-.0091-.00114-.0011-.01142-.0097-.00114-.0011-.01142-.0091-.00114-.0012-.01142-.0096-.00114-.0006-.0112-.0091-.00114-.0011-.01085-.0091-.00114-.0012-.01085-.0096-.00114-.0012-.01085-.0097-.00114-.0011-.01085-.0097-.00114-.0011-.01085-.0097-.00114-.0011-.01085-.0097-.00114-.0011-.01085-.0102-.00114-.0006-.01085-.0097-.00171-.0011-.01057-.0102-.00114-.0012-.01085-.0096-.00114-.0012-.01062-.0102-.00114-.0012-.01028-.0102-.00114-.0011-.01028-.0103-.00114-.0011-.01085-.0102-.00114-.0012-.01085-.0102-.00114-.0006-.01028-.0102-.00114-.0011-.01028-.0103-.00114-.0011-.01028-.0103-.00114-.0011-.01028-.0102-.00114-.0012-.01028-.0102-.00114-.0011-.01028-.0103-.00114-.0011-.00971-.0102-.00114-.0012-.01028-.0102-.00114-.0012-.01028-.0108-.00114-.0011-.0097-.0108-.00115-.0011-.0097-.0108-.00115-.0012-.01027-.0108-.00114-.0011-.00971-.0108-.00114-.0012-.00971-.0108-.00114-.0011-.00971-.0108-.00114-.0011-.00971-.0108-.00114-.0012-.00971-.0108-.00057-.0011-.00913-.0108-.00114-.0012-.00971-.0108-.00114-.0011-.01028-.0114-.00114-.0011-.00971-.0108-.00114-.0011-.00971-.0114-.00114-.0012-.00914-.0108-.00057-.0011-.00913-.0108-.00114-.0011-.00914-.0114-.00114-.0011-.00971-.0114-.00114-.0012-.00914-.0108-.00114-.0011-.00971-.0108-.00114-.0011-.00913-.0108-.00115-.0012-.00913-.0113-.00114-.0012-.00914-.0114-.00114-.0011-.00914-.0114-.00114-.0011-.00913-.0114-.00115-.0011-.00913-.0114-.00057-.0011-.00857-.0114-.00114-.0011-.00856-.0114-.00057-.0011-.00857-.0114-.00114-.0012-.00857-.0119-.00114-.0011-.00856-.0114-.00114-.0011-.00857-.0114-.00057-.0011-.00857-.012-.00057-.0011-.00856-.012-.00057-.0011-.00857-.0114-.00057-.0011-.00856-.0114-.00114-.0011-.00857-.012-.00114-.0011-.00857-.0119-.00114-.0017-.00799-.012-.00114-.0011-.008-.012-.00114-.0011-.00799-.0119-.00115-.0012-.00799-.0119-.00057-.0012-.00799-.0119-.00115-.0017-.00799-.0119-.00114-.0012-.00799-.0119-.00115-.0012-.00799-.0119-.00114-.0011-.008-.012-.00114-.0011-.00742-.012-.00057-.0011-.00742-.0119-.00115-.0017-.00799-.012-.00114-.0017-.008-.0119-.00057-.0012-.00799-.0125-.00057-.0017-.00742-.0119-.00115-.0012-.00742-.0119-.00114-.0011-.00742-.0125-.00115-.0018-.00742-.0119-.00057-.0011-.00742-.0125-.00057-.0012-.00743-.0119-.00114-.0017-.00742-.0125-.00114-.0017-.00743-.0125-.00114-.0018-.00685-.0125-.00114-.0011-.00742-.0125-.00058-.0011-.00685-.0126-.00057-.0011-.00685-.0125-.00057-.0017-.00685-.0125-.00114-.0017-.00686-.0125-.00057-.0017-.00685-.0131-.00057-.0012-.00685-.0125-.00057-.0017-.00685-.0125-.00058-.0017-.00685-.0125-.00057-.0017-.00628-.0131-.00057-.0011-.00685-.0131-.00057-.0017-.00685-.0131-.00115-.0011-.00628-.0131-.00057-.0011-.00628-.0125-.00057-.0017-.00628-.0131v.0005l-.00628-.013-.00114-.0017-.00628-.0131-.00058-.0017-.00628-.0125-.00057-.0017-.00628-.0131-.00057-.0011-.00628-.0131-.00057-.0012-.00571-.013-.00057-.0012-.00628-.0131-.00057-.0011-.00628-.0131-.00058-.0011-.00628-.0131-.00057-.0017-.00571-.0131-.00057-.0011-.00628-.0131-.00057-.0017-.00628-.0131-.00057-.0011-.00571-.0131-.00057-.0011-.00571-.0131-.00057-.0017-.00571-.0131-.00057-.0011-.00514-.0131-.00057-.0011-.00571-.0131-.00057-.0017-.00514-.0137-.00057-.0011-.00571-.0131-.00058-.0017-.00513-.0125-.00057-.0017-.00571-.0136-.00058-.0012-.00513-.0136-.00058-.0017-.00513-.0137-.00058-.0011-.00513-.0137-.00058-.0017-.00513-.0136-.00058-.0012-.00513-.0136-.00057-.0011-.00457-.0137-.00057-.0017-.00514-.0136-.00057-.0012-.00457-.0136-.00057-.0017-.00457-.0137-.00057-.0017-.00514-.0136-.00057-.0017-.00457-.0137-.00057-.0011-.00457-.0137-.00057-.0011-.00457-.0136-.00057-.0018-.00457-.0136-.00057-.0017-.00456-.0137-.00058-.0017-.00456-.0136-.00057-.0017-.00457-.0137-.00052-.0016-.00399-.0137-.00057-.0011-.00457-.0142-.00057-.0017-.004-.0142-.00057-.0017-.004-.0137-.00057-.0017-.004-.0136-.00057-.0017-.00399-.0143-.00057-.0017-.004-.0142-.00057-.0011-.004-.0142-.00057-.0006-.004-.0142-.00057-.0011-.00342-.0137-.00057-.0011-.00343-.0137v-.0011l-.004-.0142v-.0017l-.00342-.0137-.00057-.0017-.00343-.0136-.00057-.0017-.00343-.0143h.00057l-.00342-.0142-.00057-.0011-.00343-.0142-.00057-.0012-.00343-.0142-.00057-.0011-.00342-.0142.00057-.0006-.00343-.0142-.00057-.0017-.00342-.0142-.00058-.0017-.00285-.0143-.00057-.0017-.00343-.0142-.00057-.0011-.00285-.0142-.00057-.0017-.00286-.0142-.00057-.0018-.00285-.0142-.00286-.0142v-.0017l-.00285-.0148v-.0017l-.00286-.0142-.00057-.0017-.00343-.0136v-.0017l-.00285-.0154-.00057-.0017-.00286-.0148-.00057-.0017-.00228-.0142-.00057-.0017-.00229-.0142v-.0017l-.00228-.0143v-.0017l-.00228-.0142-.00058-.0017-.00228-.0142v.0006l-.00228-.0142v-.0012l-.00229-.0142v-.0017l-.00228-.0142v-.0017l-.00229-.0142v-.0012l-.00171-.0148v-.0017l-.00171-.0142v-.0011l-.00228-.0148-.00058-.0017-.00171-.0142v-.0017l-.00171-.0148-.00057-.0017-.00172-.0148v-.0017l-.00171-.0148-.00057-.0017-.00171-.0148v-.0017l-.00172-.0148-.00057-.0011-.00171-.0148-.00114-.0148v-.0017l-.00171-.0148-.00058-.0017-.00171-.0147v-.0018l-.00114-.0147-.00057-.0017-.00114-.0148v-.0017l-.00115-.0148v-.0017l-.00114-.0148-.00114-.0148v-.0017l-.00114-.0148v-.0017l-.00114-.0148v-.0183l-.00057-.0148v-.0017l-.00058-.0148v-.0017l-.00057-.0148-.00057-.0017-.00057-.0148v-.0159l-.00057-.0148v-.0017l-.00057-.0148v-7.1985l.00057-.01422v-.01819l.00057-.01478v-.05232l.00057-.01478v-.00114l.00057-.01478v-.00171l.00057-.01478v-.00171l.00058-.01478v-.00114l.00057-.01478v-.00171l.00057-.01478v-.00171l.00114-.01535v-.0017l.00114-.01479v-.00113l.00057-.01479v-.0017l.00114-.01479v-.0017l.00058-.01479v-.0017l.00057-.01479v-.0017l.00114-.01479v-.0017l.00114-.01479v-.0017l.00171-.01479v-.0017l.00115-.01479.00057-.00113.00114-.01479v-.00113l.00171-.01479v-.00113l.00171-.01479.00058-.0017.00171-.01479v-.0017l.00171-.01479v-.00113l.00171-.01479v-.00113l.00172-.01479.00057-.0017.00171-.01479v-.0017l.00171-.01422v-.00171l.00172-.01478v-.00171l.00171-.01478.00057-.0017.00171-.01422v-.0017l.00229-.01479v-.0017l.00171-.01479.00057-.0017.00171-.01422.00058-.0017.00228-.01479.00057-.00114.00228-.01478v-.00114l.00229-.01478v-.00114l.00228-.01421.00057-.00171.00229-.01421v-.00171l.00399-.01478.00058-.00171.00228-.01421v-.00171l.00285-.01421v-.00114l.00286-.01422v-.00113l.00285-.01479.00057-.00114.00286-.01421.00057-.00114.00286-.01421.00057-.00171.00285-.01421.00057-.00171.00286-.01421v-.00171l.00285-.01422v-.00113l.00286-.01422.00057-.00113.00285-.01422.00057-.00114.00343-.01421v-.00171l.00343-.01421.00057-.00171.00285-.01421.00057-.00171.00343-.01421v-.00171l.00342-.01422.00058-.0017.00342-.01422v-.0017l.00343-.01422.00057-.00113.00342-.01422v-.00114l.00343-.01421.00057-.00171.004-.01421v-.00114l.00399-.01422v-.00113l.004-.01422.00057-.0017.004-.01422v-.0017l.004-.01422.00057-.00171.00399-.01364.00058-.00114.00399-.01421.00057-.00143.004-.01421.00057-.00171.004-.01387.00057-.00114.00457-.01421.00057-.00114.00399-.01365.00058-.00113.00399-.01382.00057-.00114.004-.0141.00057-.0017.00457-.01388.00057-.0017.00457-.01365v-.00114l.00457-.01365v-.0017l.00456-.01365.00057-.00113.00457-.01365.00057-.00171.00457-.01364.00057-.00171.00457-.01365.00057-.0017.00457-.01365.00057-.00114.00514-.01364.00057-.00114.00457-.01365.00057-.00142.00457-.01364.00057-.00114.00514-.01365.00057-.00113.00514-.01365v-.00114l.00513-.01364.00058-.00114.00513-.01365.00058-.0017.00513-.01365.00058-.00114.00513-.01364.00058-.00171.00571-.01308.00057-.00113.00571-.01365.00057-.00114.00571-.01364.00057-.00171.00571-.01365.00057-.0017.00571-.01365.00057-.00171.00571-.01364.00057-.00171.00571-.01364.00057-.00171.00571-.01365.00057-.00142.00571-.01308.00057-.0017.00571-.01308.00057-.0017.00571-.01365.00057-.00114.00628-.01365.00058-.00113.00628-.01308.00057-.00114.00571-.01308.00057-.0017.00628-.01308.00057-.00114.00628-.01307.00057-.00114.00628-.01308.00057-.00114.00628-.01307.00058-.00171.00628-.01308.00057-.00114.00628-.01307.00057-.00171.00628-.01308.00057-.00113.00628-.01308.00057-.00114.00628-.01308.00057-.00113.00629-.01308.00057-.00114.00685-.01251.00057-.00114.00685-.01307.00114-.00171.00685-.01308.00058-.00113.00685-.01308.00057-.00171.00685-.01251.00057-.00113.00685-.01251.00057-.00114.00686-.01251.00057-.00171.00685-.01251.00114-.00113.00685-.01251.00057-.00171.00685-.01251.00115-.00113.00685-.01251.00057-.00114.00685-.01251.00114-.00171.00743-.01251.00057-.00113.00685-.01251.00057-.00114.00742-.01251.00057-.00114.00743-.0125.00057-.00114.00742-.01251.00114-.00114.00742-.01251.00058-.00113.00742-.01251.00114-.00114.00742-.01251.00057-.00114.00743-.01251.00114-.00113.00742-.01251.00057-.00114.008-.01251.00114-.00171.00799-.0125.00057-.00114.00743-.01194.00114-.00114.00799-.01194.00114-.00114.00743-.01251.00057-.00113.00799-.01195.00057-.00113.008-.01194.00114-.00114.00799-.01251.00114-.00114.008-.01194.00057-.0017.00799-.01194.00057-.00114.008-.01194.00057-.00114.00856-.01194.00114-.00114.008-.01194.00114-.00113.00856-.01195.00058-.00113.00856-.01194.00057-.00114.00857-.01194.00057-.00114.00856-.01194.00114-.00114.00857-.01194.00057-.00113.00856-.01194.00115-.00114.00856-.01137.00057-.00114.00857-.01194.00114-.00114.00856-.01137.00115-.00114.00856-.01137.00114-.00114.00857-.01137.00114-.00114.00856-.01137.00057-.00114.00857-.01137.00114-.00113.00914-.01138.00114-.00113.00913-.01138.00115-.00113.00913-.01138.00114-.00113.00914-.01138.00114-.00113.00914-.01137.00114-.00171.00914-.01137.00057-.00114.00913-.01137.00114-.00114.00914-.01137.00114-.00114.00914-.0108.00114-.00114.00914-.01137.00114-.00114.00913-.01137.00114-.00114.00971-.0108.00114-.00114.00914-.01137.00114-.00114.00914-.0108.00114-.00114.00913-.01137.00115-.00114.0097-.01137.00057-.00114.00971-.0108.00114-.00114.00971-.0108.00114-.00114.00971-.0108.00114-.00114.00971-.0108.00057-.00114.0097-.0108.00115-.00114.0097-.0108.00115-.00114.0097-.0108.00057-.00114.00971-.0108.00114-.00114.01028-.01081.00057-.00113.01028-.01081.00114-.00113.01085-.01024.00114-.00114.01028-.0108.00114-.00114.01028-.0108.00114-.00114.01028-.01023.00114-.00114.01028-.01023.00114-.00114.01028-.01024.00114-.00113.01085-.01024.00114-.00113.01028-.01024.00114-.00114.01028-.01023.00114-.00114.01028-.01023.00114-.00114.01028-.01024.00114-.00113.01028-.01024.00114-.00114.01028-.01023.00114-.00114.01027-.01023.00115-.00114.01085-.00967.00114-.00113.01085-.00967.00114-.00114.01085-.01023.00114-.00114.01085-.01023.00114-.00057.01085-.00967.00114-.00057.01085-.00966.00114-.00114.01085-.00967.00114-.00113.01085-.00967.00114-.00114.01085-.00966.00114-.00057.01142-.00967.00114-.00114.01142-.00966.00115-.00114.01142-.00967.00114-.00113.01142-.0091.00114-.00114.01142-.00909.00114-.00114.01085-.0091.00114-.00114.01142-.00909.00114-.00114.01142-.0091.00114-.00057.01142-.0091.00115-.00113.01142-.0091.00114-.00114.01142-.0091.00114-.00113.01199-.0091.00114-.00114.01142-.00909.00114-.00114.01199-.0091.00115-.00114.01199-.00909.00114-.00114.01142-.0091.00114-.00057.01199-.0091.00114-.00113.01142-.0091.00114-.00114.01199-.00853.00115-.00113.01199-.0091.00114-.00114.01199-.00853.00114-.00057.01199-.00853.00172-.00113.01199-.00853.00114-.00057.01199-.00853.00114-.00114.01199-.00909.00114-.00057.01256-.00853.00115-.00114.01199-.00853.00171-.00057.01199-.00853.00114-.00056.01199-.00853.00115-.00057.01256-.00853.00114-.00114.01199-.00853.00114-.00057.01256-.00796.00115-.00057.01199-.00852.00171-.00114.01256-.00796.00114-.00114.01256-.00853.00115-.00114.01256-.00796.00171-.00056.01256-.00797.00114-.00113.01257-.00796.00114-.00057.01256-.00796.00114-.00057.01256-.00796.00114-.00057.01257-.00796.00171-.00057.01256-.00739h.00057l5.73894-3.52534.00057-.00057.01199-.00739.00114-.00057.01257-.00796.00171-.00114.01256-.00739.00171-.00114.01257-.00739.00171-.00114.01256-.00739.00171-.00057.01314-.00739.00114-.00113.01256-.0074.00171-.00057.01256-.00739.00115-.00057.01313-.00682.00114-.00114.01313-.00682.00114-.00114.01257-.00682.00171-.00057.01313-.00682.00114-.00114.01257-.00682.00171-.00114.01256-.00682.00171-.00114.01256-.00682.00115-.00114.01313-.00682.00114-.00057.01256-.00683.00172-.00056.01256-.00683.00171-.00057.01313-.00682.00172-.00057.01313-.00682.00114-.00057.01313-.00625.00172-.00057.01313-.00626.00171-.00057.01258-.00625.0017-.00057.0131-.00625.0012-.00057.0131-.00626.0017-.00057.0131-.00625.0018-.00114.0131-.00625.0017-.00057.0131-.00626.0018-.00056.0131-.00569.0017-.00057.0131-.00568.0012-.00114.0131-.00569.0011-.00057.0132-.00568.0017-.00114.0131-.00569.0017-.00056.0132-.00569.0017-.00057.0131-.00568.0017-.00057.0132-.00569.0017-.00057.0131-.00568.0017-.00057.0132-.00512.0017-.00057.0131-.00568.0017-.00057.0137-.00569.0017-.00057.0137-.00568.0017-.00114.0132-.00512.0011-.00057.0137-.00511.0017-.00057.0132-.00512.0011-.00057.0137-.00512.0017-.00057.0137-.00454.0017-.00057.0137-.00512.0018-.00057.0137-.00512.0017-.00056.0137-.00455.0017-.00057.0137-.00455.0017-.00057.0131-.00455.0018-.00057.0137-.00455.0017-.00056.0131-.00455.0017-.00057.0137-.00455.0012-.00057.0137-.00455.0017-.00057.0137-.00455.0017-.00056.0137-.00455.0017-.00057.0137-.00398.0012-.00057.0137-.00398.0017-.00057.0137-.00398h.0017l.0137-.00398.0017-.00057.0137-.00398.0012-.00057.0137-.00398.0011-.00057.0137-.00398.0017-.00056.0137-.00399.0017-.00056.0137-.00398.0017-.00057.0138-.00341.0017-.00057.0137-.00341.0011-.00057.0137-.00398.0014-.00057.0143-.00341h.0011l.0137-.00398h.0017l.0141-.00342.0017-.00056.0143-.00342.0017-.00056.0137-.00342h.0017l.0143-.00341h.0017l.0137-.00341.0017-.00057.0137-.00284.0018-.00057.0137-.00341.0017-.00057.0137-.00284h.0017l.0137-.00285.0017-.00056.0137-.00285h.0012l.0137-.00284.0017-.00057.0142-.00284h.0012l.0143-.00284.0011-.00057.0143-.00285.0017-.00056.0143-.00285.0017-.00057.0143-.00227h.0017l.0137-.00228.0017-.00056.0143-.00285.0017-.00057.0142-.00227h.0018l.0137-.00227.0017-.00057.0142-.00228.0018-.00057.0137-.00227h.0011l.0137-.00227h.0017l.0143-.00228.0017-.00057.0143-.00227h.0017l.0143-.00228h.0017l.0143-.00227h.0017l.0142-.00171h.0018l.0137-.0017h.0017l.0143-.00171.0017-.00057.0142-.0017.0012-.00057.0143-.00114h.0017l.0137-.0017h.0017l.0137-.00171h.0017l.0143-.00171h.0017l.0143-.0017h.0017l.0137-.00114h.0017l.0143-.00171.0017-.00056.0143-.00114.0017-.00057.0142-.00114h.0018l.014-.00113h.0017l.0143-.00114h.0017l.0143-.00057.0017-.00057.0143-.00114.0011-.00056.0143-.00057h.0017l.0143-.00114h.0011l.0143-.00057h.0017l.0143-.00057h.0017l.0143-.00057h.0017l.0142-.00056.0018-.00057.0142-.00057h.0017l.0143-.00057h.0017l.0143-.00057h.0017l.0143-.00057h.0017l.0143-.00057h.0011l.0143-.00056h.0177l.0143-.00057h.0331zm-.0131 1.53523h-.0094l-.0093.00011h-.0094l-.0097.00023-.0097.00023-.0097.00028-.0097.00057-.0097.00057-.0097.00057-.0091.00057-.0097.00056-.0092.00057-.0091.00057-.0091.00057-.0097.00057-.0092.00057-.0097.00114-.0097.00113-.0091.00114-.0097.00114-.0097.00113-.0098.00114-.0091.00114-.0097.00114-.0091.00113-.0092.00114-.0097.00114-.0091.00113-.0091.00114-.0092.00114-.0091.00114-.0097.00113-.0092.00171-.0091.00114-.0097.0017-.0091.00171-.0092.0017-.0091.00171-.0091.00171-.0092.0017-.0091.00171-.0091.00113-.0098.00171-.0091.00171-.0097.0017-.0091.00171-.0092.0017-.0091.00171-.0091.00227-.0092.00228-.0091.00227-.0091.00171-.0092.0017-.0091.00228-.0092.00227-.0091.00228-.0091.00227-.0092.00228-.0091.00227-.0091.00227-.0092.00228-.0091.00227-.0091.00228-.0092.00284-.0091.00228-.0091.00284-.0086.00284-.0091.00284-.0092.00285-.0091.00284-.0092.00284-.0091.00285-.0086.00284-.0091.00284-.0091.00341-.0092.00285-.0091.00284-.0091.00341-.0092.00284-.0091.00285-.0086.00284-.0091.00341-.0091.00341-.0092.00342-.0085.00341-.0092.00341-.0085.00341-.0086.00341-.0091.00398-.0092.00341-.0091.00342-.0092.00341-.0085.00398-.0086.00341-.0091.00398-.0086.00398-.0085.00398-.0086.00398-.0091.00398-.0086.00398-.0091.00398-.0086.00398-.0086.00398-.0085.00398-.0092.00398-.0085.00398-.0086.00398-.0086.00455-.0085.00455-.0086.00398-.0086.00455-.0085.00398-.0086.00455-.0086.00455-.0085.00455-.0086.00454-.0086.00455-.0085.00512-.008.00455-.0086.00455-.008.00455-.0085.00511-.0086.00512-.0086.00512-.008.00455-.0085.00512-.008.00511-.0086.00512-.0085.00512-.0092.00568-5.73264 3.51852-.00971.00626-.00913.00568-.00857.00569-.00856.00568-.00857.00569-.00856.00569-.00857.00568-.00856.00569-.00857.00568-.00856.00569-.00857.00569-.00856.00568-.00856.00626-.008.00568-.00799.00569-.00857.00568-.00799.00569-.00799.00569-.008.00568-.00799.00569-.008.00568-.00799.00569-.00799.00626-.008.00568-.00799.00626-.00799.00625-.008.00626-.00799.00625-.008.00625-.00799.00626-.00742.00625-.008.00626-.00799.00625-.00742.00626-.008.00625-.00799.00626-.00742.00625-.008.00626-.00742.00625-.00742.00626-.00742.00682-.00743.00682-.00742.00626-.00742.00625-.00743.00682-.00742.00683-.00742.00682-.00742.00682-.00743.00683-.00742.00682-.00742.00682-.00742.00683-.00743.00682-.00742.00682-.00742.00683-.00685.00682-.00743.00682-.00685.0074-.00742.00682-.00685.00739-.00686.00682-.00685.0074-.00685.00682-.00685.00739-.00685.00739-.00743.00739-.00685.00683-.00685.00739-.00685.00739-.00685.00739-.00628.00739-.00686.0074-.00685.00739-.00685.00739-.00685.00796-.00685.00739-.00628.00739-.00628.0074-.00686.00796-.00628.00739-.00685.00739-.00628.00796-.00628.00739-.00628.00796-.00628.00796-.00628.00796-.00628.00796-.00628.00796-.00629.00797-.0057.00796-.00629.00796-.00628.00796-.00628.00796-.00628.00796-.00571.00796-.00571.00796-.00571.00796-.00571.00853-.00571.00796-.00571.00796-.00571.00853-.00571.00796-.00571.00796-.00571.00796-.00571.00796-.00514.00853-.0057.00853-.00571.00796-.00571.00853-.00514.00853-.00514.00796-.00514.00853-.00514.00852-.00514.00853-.00514.00853-.00571.00853-.00571.00853-.00514.00853-.00513.00853-.00514.00853-.00514.00853-.00514.00853-.00514.00853-.00514.00852-.00514.00853-.00514.00853-.00514.00853-.00513.0091-.00514.00853-.00514.00853-.00514.00909-.00457.00853-.00457.0091-.00456.0091-.00457.0091-.00457.00853-.00457.00853-.00457.00909-.00456.00853-.00457.0091-.004.00853-.00457.0091-.00456.00909-.00457.0091-.00457.0091-.00457.0091-.00399.00909-.004.0091-.004.0091-.004.0091-.00399.00909-.004.0091-.004.0091-.00399.0091-.004.0091-.00343.00909-.00399.0091-.004.00967-.004.00909-.00399.0091-.004.0091-.00343.0091-.00399.00966-.004.0091-.00343.0091-.00342.00967-.00343.00909-.00342.00967-.00343.0091-.00342.00966-.00343.00967-.00343.00967-.00285.00966-.00343.0091-.00342.00967-.00286.00966-.00285.0091-.00286.00967-.00342.00966-.00286.0091-.00285.0091-.00286.00966-.00342.00967-.00286.00967-.00285.00909-.00286.00967-.00285.00967-.00286.00966-.00285.00967-.00286.00967-.00228.00966-.00229.00967-.00285.00966-.00229.00967-.00285.00967-.00228.00966-.00229.00967-.00228.01023-.00229.00967-.00228.00967-.00228.00966-.00229.00967-.00228.00967-.00229.00966-.00171.00967-.00228.00966-.00172.00967-.00171.01024-.00171.01023-.00171.01023-.00172.01024-.00171.00967-.00171.00966-.00172.01024-.00171.01023-.00171.00967-.00172.00966-.00171.00967-.00171.01024-.00114.01023-.00114.01024-.00115.00966-.00171.01024-.00171.00966-.00114.01024-.00115.01023-.00114.01024-.00114.01023-.00114.01024-.00114.01023-.00115.00967-.00114.01023-.00114.01024-.00057.01023-.00114.01024-.00115.01023-.00057.01024-.00057.01023-.00057.01024-.00057.01023-.00057.01024-.00057.01023-.00057.01024-.00057.01023-.00057.01024-.00058.01023v.01024l-.00057.01023-.00057.01024v.01023l-.00057.01024v7.20992l.00057.0102v.0307l.00057.0097.00057.0102.00058.0102.00057.0103.00057.0102.00057.0102.00057.0103.00057.0102.00057.0102.00114.0103.00057.0102.00058.0103.00057.0102.00114.0097.00114.0102.00114.0097.00057.0102.00115.0097.00114.0096.00114.0097.00114.0097.00114.0102.00115.0097.00114.0096.00114.0103.00114.0102.00114.0097.00115.0102.00171.0097.00171.0096.00171.0097.00172.0097.00171.0102.00171.0097.00172.0096.00171.0097.00171.0097.00229.0096.00171.0097.00171.0097.00171.0096.00229.0097.00228.0097.00172.0096.00228.0097.00228.0097.00229.0096.00228.0097.00228.0097.00229.0096.00228.0097.00229.0091.00285.0091.00229.0096.00228.0097.00228.0097.00286.0096.00228.0091.00229.0097.00228.0091.00285.0097.00229.0091.00285.0096.00286.0097.00285.0091.00286.0097.00285.0096.00286.0091.00285.0097.00343.0091.00342.0091.00343.0091.00343.0091.00285.0091.00343.0097.00342.0091.00343.009.00343.0091.00342.0091.00343.0091.00342.0091.00343.0091.00342.0091.00343.0091.004.0091.00399.0091.00343.0091.00343.0091.00342.0091.00343.0091.00342.0091.004.0091.004.0091.00399.0091.004.0091.004.0091.00399.0091.004.0091.004.0091.004.0091.00399.0091.004.0091.004.0085.00456.0091.00457.0085.00457.0091.00457.0086.00457.0085.00456.0085.00457.0086.00457.0085.00457.0085.00514.0085.00456.0086.00457.0085.00457.0085.00514.0086.00514.0085.00456.0085.00457.0086.00457.0085.00514.0085.00457.0085.00514.008.00514.0085.00513.008.00514.0085.00514.0085.00514.008.00514.008.00514.0079.00514.008.00514.0085.00513.0085.00571.008.00514.008.00514.0085.00514.008.00514.0079.00571.008.00571.0079.00571.0086.00571.0079.00571.008.00571.0079.00571.008.00571.008.00571.0079.00571.008.00628.008.00628.0079.00571.008.00571.0079.00571.008.00571.008.00628.0073.00628.0074.00628.008.00628.0074.00628.0079.00628.0074.00628.0074.00629.0074.00628.0074.00628.0074.00628.0074.00628.0074.00628.0074.00628.0074.00628.0074.00628.0074.00685.0074.00686.0073.00628.0074.00685.0069.00685.0074.00685.0068.00685.0074.00628.0074.00686.0073.00685.0069.00685.0068.00685.0068.00685.0068.00685.0074.00686.0069.00685.0068.00685.0068.00685.0068.00685.0069.00743.0068.00685.0068.00685.0068.00742.0068.00685.0069.00686.0068.00742.0068.00742.0063.00742.0062.00743.0068.00742.0069.00742.0062.00743.0063.00742.0068.00742.0068.00742.0063.008.0062.00799.0063.008.0062.00742.0063.00742.0063.00799.0062.00743.0063.00799.0056.00742.0063.008.0063.00799.0062.008.0063.00742.0057.00799.0062.008.0057.00799.0062.00799.0063.008.0057.00799.0057.00856.0057.008.0056.00799.0057.008.0057.00799.0057.00799.0057.008.0057.00856.0057.00857.0051.00856.0057.008.0057.00856.0056.00856.0057.008.0051.00856.0052.00857.0051.00856.0051.00857.0051.00856.0051.00914.0051.00856.0052.00857.0051.0097.0057 5.97707 3.4798.0074.0046.0063.0034.0068.0034.0069.0034.0068.0034.0063.004.0069.0034.0068.0034.0069.0034.0068.004.0069.0034.0068.0034.0069.0034.0068.0035.0069.0034.0068.0034.0069.0034.0068.0034.0063.0034.0069.0034.0068.0034.0069.0029.0068.0034.0069.0028.0068.0029.0069.0028.0068.0034.0069.0034.0068.0029.0069.0034.0068.0028.0069.0029.0068.0028.0069.0029.0068.0028.0069.0029.0068.0028.0069.0028.0069.0029.0068.0023.0074.0028.0069.0028.0068.0029.0069.0028.0068.0029.0069.0022.0068.0029.0069.0023.0068.0022.0075.0023.0068.0023.0063.0023.0148.0045.0143.0046.0143.0039.0143.004.0142.004.0143.004.0143.004.0143.0039.0142.004.0143.0034.0143.0034.0143.0035.0142.0028.0143.0034.0143.0029.0143.0028.0142.0028.0143.0023.0143.0029.0143.0022.0142.0023.0149.0023.0143.0023.0148.0017.0148.0017.0149.0017.0148.0011.0143.0011.0149.0012.0142.0011.0149.0012.0148.0011.0143.0011.0143.0006.0142.0006.0149.0005h.0731l.0148-.0005h.0149l.0148-.0006.0149-.0006.0148-.0011.0148-.0011.0149-.0006.0148-.0011.0149-.0012.0148-.0011.0143-.0012.0148-.0017.0149-.0017.0143-.0017.0148-.0017.0143-.0023.0148-.0022.0143-.0023.0149-.0023.0142-.0023.0143-.0028.0143-.0023.0148-.0028.0143-.0029.0143-.0034.0142-.0028.0143-.0034.0143-.0034.0143-.0034.0142-.0035.0143-.0039.0143-.004.0143-.004.0142-.004.0149-.0045.0068-.0023.0069-.0023.0068-.0022.0075-.0023.0068-.0023.0074-.0023.0069-.0022.0068-.0023.0075-.0023.0068-.0023.0069-.0022.0074-.0029.0068-.0023.0075-.0022.0068-.0029.0069-.0023.0068-.0022.0069-.0023.0074-.0028.0069-.0023.0068-.0029.0069-.0028.0068-.0028.0069-.0029.0068-.0028.0069-.0029.0068-.0028.0069-.0029.0068-.0028.0069-.0028.0068-.0035.0069-.0034.0068-.0028.0069-.0034.0068-.0034.0069-.0029.0068-.0034.0069-.0034.0068-.0034.0063-.0034.0069-.0034.0068-.0035.0069-.0034.0068-.0034.0069-.0034.0068-.0034.0069-.0034.0068-.0034.0063-.0034.0069-.0034.0068-.0035.0074-.0039 6.6217-3.6749.008-.004.0074-.004.0069-.004.0068-.0039.0069-.004.0068-.0046.0075-.004.0068-.0039.0069-.004.0068-.004.0069-.0045.0068-.0046.0069-.004.0068-.004.0069-.0039.0068-.0046.0069-.0045.0068-.004.0069-.0046.0068-.0039.0063-.0046.0063-.0045.0063-.0046.0063-.0045.0062-.0046.0069-.0045.0063-.0046.0068-.0045.0063-.0046.0063-.0045.0063-.0046.0062-.0045.0063-.0046.0069-.0045.0063-.0051.0062-.0046.0063-.0051.0063-.0046.0063-.0051.0063-.0051.0062-.0051.0063-.0046.0063-.0045.0063-.0051.0057-.0051.0063-.0052.0063-.0051.0057-.0045.0062-.0051.0063-.0057.0057-.0051.0063-.0052.0057-.0051.0057-.0051.0058-.0057.0062-.0051.0057-.0057.0058-.0051.0057-.0057.0057-.0057.0057-.0051.0057-.0057.0057-.0051.0057-.0057.0057-.0057.0057-.0057.0057-.0056.0052-.0057.0057-.0057.0051-.0057.0057-.0057.0057-.0057.0058-.0057.0051-.0056.0051-.0057.0052-.0057.0051-.0057.0057-.0057.0052-.0057.0051-.0057.0051-.0056.0052-.0057.0051-.0057.0052-.0057.0051-.0057.0051-.0062.0052-.0063.0051-.0063.0051-.0056.0052-.0057.0051-.0057.0052-.0063.0051-.0056.0051-.0063.0046-.0057.0046-.0062.0045-.0063.0046-.0057.0052-.0062.0045-.0063.0046-.0062.0046-.0063.0045-.0063.0046-.0062.0046-.0063.0045-.0062.0046-.0063.0046-.0062.0045-.0063.0046-.0062.0046-.0063.004-.0062.004-.0069.0045-.0068.0046-.0063.004-.0062.004-.0063.0046-.0068.0045-.0062.004-.0063.004-.0068.004-.0068.004-.0069.004-.0068.004-.0062.004-.0069.004-.0068.004-.0062.004-.0069.004-.0068.004-.0068.0034-.0068.0034-.0069.004-.0068.004-.0068.0035-.0068.004-.0069.004-.0068.0034-.0068.0034-.0068.0034-.0074.0035-.0068.004-.0069.004-.0068.0034-.0068.0034-.0068.0034-.0069.0035-.0073.0034-.0069.0034-.0068.0034-.0074.0035-.0068.0034-.0068.0034-.0074.0034-.0074.0035-.0074.0034-.0068.0028-.0069.0029-.0073.0029-.0074.0028-.0074.0029-.0068.0028-.0074.0029-.0074.0028-.0074.0029-.0068.0028-.0074.0029-.0074.0028-.0074.0029-.0074.0029-.0074.0022-.0074.0023-.0074.0023-.0074.0023-.0074.0028-.0074.0029-.0074.0029-.0074.0028-.0073.0023-.0074.0029-.0074.0022-.0074.0023-.0074.0029-.0074.0023-.0074.0022-.0074.0023-.0074.0023-.0074.0017-.0074.0023-.0074.0023-.0073.0023-.0074.0023-.0074.0017-.0074.0017-.008.0023-.0074.0017-.0074.0017-.0079.0023-.0074.0017-.0074.0017-.0074.0017-.0074.0017-.008.0017-.0073.0018-.0074.0011-.008.0017-.008.0017-.0073.0012-.008.0017-.0074.0017-.008.0017-.0079.0017-.0074.0017-.008.0012-.0079.0017-.008.0011-.0074.0017-.0074.0012-.0079.0011-.008.0012-.008.0011-.0079.0011-.008.0012-.0079.0011-.008.0006-.008.0011-.0074.0006-.0079.0012-.008.0011-.0074.0011-.0079.0006-.008.0006-.0079.0006-.008.0005-.008.0012-.0079.0005-.008.0006-.0079.0006-.008.0006-.008.0005-.0079.0006-.008.0006-.008.0005-.0079.0006-.008.0006-.0079.0006-.008v-.0159l.0005-.008v-7.87121l-.0005-.00699-.0006-.00739v-.0074l-.0006-.00739v-.00739l-.0006-.00739v-.00739l-.0005-.0074-.0006-.00682-.0006-.00739-.0005-.00739-.0006-.00739-.0006-.00683-.0006-.00739-.0005-.00682-.0006-.00739-.0011-.0074-.0006-.00682-.0006-.00682-.0011-.00683-.0006-.00682-.0011-.00739-.0006-.00682-.0012-.00683-.0011-.00739-.0006-.00739-.0005-.00682-.0012-.00626-.0023-.01495-.0017-.0145-.0023-.01479-.0022-.01421-.0029-.01422-.0029-.01421-.0022-.01422-.0029-.01421-.0034-.01422-.0034-.01421-.0035-.01422-.0034-.01421-.0034-.01422-.0034-.01421-.0035-.01422-.004-.01421-.004-.01422-.004-.01421-.0045-.01422-.004-.01364-.0046-.01365-.0046-.01365-.0045-.01364-.0046-.01365-.0051-.01365-.0052-.01364-.0051-.01308-.0052-.01365-.0051-.01364-.0051-.01365-.0057-.01308-.0052-.01364-.0057-.01308-.0057-.01308-.0057-.01308-.0063-.01308-.0057-.01307-.0063-.01308-.0063-.01308-.0062-.01251-.0069-.01308-.0063-.01307-.0068-.01308-.0069-.01251-.0068-.01251-.0069-.01251-.0068-.01251-.0069-.01251-.0074-.01251-.0074-.01251-.0075-.01251-.008-.01251-.0074-.01194-.0074-.01194-.008-.01194-.008-.01194-.008-.01194-.008-.01194-.008-.01194-.008-.01194-.0085-.01137-.0086-.01138-.0086-.01137-.0085-.01137-.0086-.01137-.0091-.01137-.0092-.01138-.0091-.01137-.0091-.01137-.0092-.0108-.0097-.01081-.0091-.0108-.0097-.0108-.0097-.01081-.0097-.0108-.0097-.0108-.0097-.01081-.0103-.01023-.0103-.01024-.0103-.01023-.0102-.01024-.0103-.01023-.0109-.01024-.0108-.01023-.0109-.00967-.0108-.00966-.0109-.00967-.0108-.00967-.0109-.00966-.0114-.00967-.0114-.0091-.0114-.00909-.0109-.0091-.012-.00967-.0051-.00398-.0057-.00455-.0057-.00455-.0057-.00454-.0057-.00455-.0058-.00398-.0057-.00455-.0057-.00455-.0063-.00455-.0062-.00455-.0057-.00455-.0058-.00455-.0057-.00455-.0057-.00398-.0057-.00455-.0063-.00454-.0057-.00398-.0057-.00398-.0063-.00455-.0062-.00398-.0063-.00398-.0057-.00398-.0063-.00398-.0063-.00398-.0063-.00398-.0063-.00398-.0062-.00399-.0063-.00398-.0063-.00398-.0063-.00398-.0063-.00398-.0062-.00341-.0063-.00341-.0074-.00398-6.4612-3.7749-.0092-.00557-.0082-.00455-.0086-.00512-.0086-.00512-.0084-.00471-.0085-.00455-.0083-.00455-.0086-.00455-.0085-.00455-.0086-.00455-.0084-.00455-.0086-.00455-.0085-.00455-.0086-.00454-.0086-.00455-.0085-.00455-.0086-.00455-.0087-.00398-.0086-.00455-.0085-.00398-.0086-.00398-.0086-.00455-.0088-.00398-.0086-.00398-.0086-.00398-.0089-.00398-.0085-.00398-.0086-.00341-.0088-.00398-.0087-.00398-.0086-.00398-.0088-.00341-.0086-.00342-.0091-.00341-.0088-.00398-.0091-.00341-.0091-.00398-.0091-.00341-.0089-.00341-.0088-.00341-.009-.00342-.0091-.00341-.0092-.00341-.0085-.00341-.0086-.00284-.0086-.00285-.0091-.00341-.0091-.00284-.0086-.00284-.0091-.00285-.0092-.00284-.0085-.00284-.0092-.00285-.0091-.00284-.0091-.00284-.0086-.00285-.0091-.00284-.0092-.00284-.0091-.00284-.0091-.00228-.0092-.00284-.0091-.00228-.0091-.00284-.0092-.00227-.0091-.00228-.0092-.00227-.0091-.00285-.0091-.00227-.0092-.00227-.0091-.00171-.0091-.00227-.0092-.00228-.0091-.00227-.0091-.00171-.0092-.00227-.0091-.00171-.0091-.00171-.0092-.00227-.0091-.00171-.0092-.0017-.0091-.00171-.0091-.0017-.0092-.00171-.0091-.0017-.0097-.00171-.0091-.00114-.0092-.00113-.0091-.00114-.0091-.00114-.0092-.00171-.0091-.0017-.0092-.00114-.0097-.0017-.0091-.00114-.0091-.00171-.0092-.00113-.0091-.00114-.0091-.00114-.0092-.00114-.0091-.00113-.0097-.00114-.0092-.00057-.0091-.00114-.0091-.00113-.0092-.00057-.0091-.00057-.0091-.00057-.0092-.00057-.0091-.00057-.0097-.00056-.0097-.00057-.0092-.00057-.0091-.00057h-.0091l-.0092-.00057-.0091-.00057h-.0097l-.0091-.00057-.0092-.00056-.0085-.00057-.0092-.00057h-.0188l-.0092-.00057h-.0182z" fill="#c9177e" fill-rule="evenodd"/><path d="m7.31641 17.8444v-11.78263h2.47544v4.29183h4.10625v-4.29183h2.4827v11.78263h-2.4827v-5.1519h-4.10625v5.1519z" fill="#fff"/></svg>