<svg fill="none" height="24" viewBox="0 0 24 24" width="24" xmlns="http://www.w3.org/2000/svg" xmlns:xlink="http://www.w3.org/1999/xlink"><linearGradient id="a" gradientUnits="userSpaceOnUse" x1="5.64209" x2="13.4576" y1="18.5672" y2="18.5672"><stop offset="0" stop-color="#ab0400"/><stop offset="1" stop-color="#f5100c"/></linearGradient><path d="m12 23c6.0751 0 11-4.9249 11-11 0-6.07513-4.9249-11-11-11-6.07513 0-11 4.92487-11 11 0 6.0751 4.92487 11 11 11z" fill="#333"/><g clip-rule="evenodd" fill-rule="evenodd"><path d="m10.6374 3.64927c.2338-.61376 2.1189-.453 4.194.35065 2.075.8038 3.5802 1.94346 3.3463 2.54258 0 .01464-.0146.01464-.0146.02928v.01464c-.0291.04378-.0731.08756-.117.13148 0 0-1.0082.89135-1.1836 1.34435l-5.7271 14.90425c-2.3578-.1833-4.50702-1.11-6.21352-2.546l5.67162-14.75471c.2193-.55534.0293-1.79735.0293-1.79735-.0147-.05841-.0147-.11683 0-.1754.0097-.01942.0146-.03401.0146-.04377z" fill="#f6f8fe"/><path d="m13.4576 14.2872-3.2952 8.56c-1.6631-.2797-3.19958-.9326-4.52031-1.8696l.90375-2.3505s.51141-.8329 1.53439-1.4319c1.02283-.5992 1.85576-.4678 2.98097-.9645 1.1396-.4968 2.3964-1.9435 2.3964-1.9435z" fill="url(#a)"/><path d="m10.5638 3.8786.0411.20685c.3605 1.65052 1.4672 2.68105 1.4672 2.68105l-5.63906 14.7228c-.54568-.3208-1.06125-.6874-1.54144-1.0944l5.6416-14.73585c.1922-.48858.0679-1.5104.036-1.74407z" fill="#fff" opacity=".2"/></g><path d="m16.611 6.05393c.1296-.33806-.8028-1.01258-2.0823-1.50657-1.2796-.49399-2.4219-.62049-2.5513-.28258-.1296.33807.8027 1.01244 2.0822 1.50658 1.2797.49399 2.422.62049 2.5514.28257z" fill="#333"/><g fill="#fff"><path d="m7.71582 19.9608c.55229 0 1-.4477 1-1s-.44771-1-1-1c-.55228 0-1 .4477-1 1s.44772 1 1 1z"/><path d="m9.42871 21.8541c.55229 0 .99999-.4477.99999-1 0-.5522-.4477-1-.99999-1-.55228 0-1 .4478-1 1 0 .5523.44772 1 1 1z"/></g></svg>