<svg fill="none" height="24" viewBox="0 0 24 24" width="24" xmlns="http://www.w3.org/2000/svg"><g fill="#151515"><path d="m10.6668 2.55291c.0439.30835.1097.77618.1426 1.05263.0549.41468.1646.6167.5816 1.05263l.5157.54227-.0549-.94631c-.0658-1.10579-.2633-1.56299-.8558-1.96703l-.417-.28709z"/><path d="m12.4335 3.29715c.0439.10633.0768.65922.0768 1.23339 0 .99946.011 1.04199.3511 1.4354l.3512.41468.1316-.62733c.2414-1.08453.1756-1.65869-.2304-2.00957-.6693-.5848-.7461-.63796-.6803-.44657z"/><path d="m9.74506 3.79692c-.21946.31898-.46086.79745-.53767 1.06326-.1207.42531-.09876.57417.09876 1.20149.42794 1.25465.31821 1.78628-.63644 3.15789-.21945.31898-.42794.6486-.46086.73366-.03292.10628-.10973.06378-.27432-.15949-.32919-.45721-.47184-.95694-.48281-1.67996v-.64859l-.25238.47847c-.13167.26581-.42794.75492-.65837 1.10579-1.03146 1.53106-1.26189 2.54116-1.00951 4.37006.08778.6379.14264 1.1802.1207 1.2014-.06584.0638-.75713-.5741-.94367-.8825l-.20849-.3189v1.0313c0 1.3929.23043 2.3924.83394 3.5726.71324 1.4248 1.79956 2.4668 3.23702 3.1366 1.13021.521 1.63494.6592 2.79814.7656l.779.0744.0768-1.361c.0659-1.2972-.0658-3.9447-.2084-4.3168-.0549-.1383.0658-.2446.4828-.4572.5376-.2552.6693-.4041.4718-.521-.0549-.0319-.4609.0744-.9107.2233-.6913.2339-1.0096.2764-2.07393.287-1.39357.0107-1.70081-.085-2.38113-.7124-1.0534-.9569.21946-2.7538 2.43596-3.4662 1.0205-.319 1.7447-.3828 2.6555-.2233 1.2948.2339 2.1397.8506 2.7761 2.0415.6255 1.1589.7901 2.0734 1.0534 5.9543.033.521.0988.9356.1427.9356.1646 0 1.0205-.8825 1.4594-1.5098.7461-1.0739 1.218-2.4774 1.3277-3.9341l.0439-.6167-.3841.436c-.373.4146-1.2289.9356-1.2289.7443 0-.0532.0878-.3084.2085-.5636.2962-.6698.6693-2.1797.6693-2.69 0-.2446-.0549-.5955-.1207-.7868l-.1207-.3297-.2743.521c-.3841.755-1.2509 1.5418-1.0863.9889.0329-.0957.1097-.5742.1865-1.042.2195-1.4248-.1536-2.64755-1.218-4.01916-.5377-.69112-.9546-1.55237-1.0973-2.29665-.0658-.30835-.1317-.5848-.1536-.6167-.0329-.02126-.1975.15949-.3841.40404-.373.49974-.5925 1.1058-.79 2.1797-.1317.73365-.4828 1.64806-.6474 1.64806-.0439 0-.1097-.30835-.1427-.68049-.0987-.96757-.4828-1.64806-1.624-2.78575-.9546-.95694-1.0534-1.12706-1.1082-1.85009l-.0329-.37214z"/><path d="m8.17602 4.72207c-.71324.72302-.80102 1.37161-.32919 2.29665.1646.32961.32919.85061.37308 1.15896l.06584.56353.2414-.39341c.13168-.22328.29627-.58479.37308-.81871.12071-.38278.09876-.51037-.1207-1.09516-.16459-.42531-.26335-.91441-.26335-1.32908-.01097-.37215-.02195-.66986-.03292-.66986s-.15362.12759-.30724.28708z"/><path d="m8.2747 12.7814c-.08778.202.03292.3722.2853.3722.20848 0 .32918-.1808.25237-.4041-.06583-.1807-.46086-.1595-.53767.0319z"/><path d="m10.0634 12.8985c-.14268.1382-.07684.4465.1097.5103.2304.0851.395-.0638.3402-.3189-.033-.2021-.3183-.319-.4499-.1914z"/></g></svg>