<svg height="24" viewBox="0 0 24 24" width="24" xmlns="http://www.w3.org/2000/svg"><path d="m13.344604 22.089016c-.132728-.039986-2.38636-.709096-5.0080714-1.487066-2.6218632-.778121-4.8526899-1.442215-4.9575948-1.476118-.2660633-.085901-.7309898-.398791-1.0762639-.724453-.630494-.594917-.9934042-1.209904-1.2118802-2.05416-.0770823-.297687-.09152577-.456413-.0907656-.997662.0006082-.441512.0205249-.725668.0635511-.905071.2447782-1.020162.5362315-1.815767.832702-2.272788.0860525-.132728 2.1634745-2.4769737 4.6161216-5.2092154 3.3119558-3.6896131 4.5008782-4.9889141 4.6200752-5.0485122.322013-.1611583.348162-.1564452 6.027777 1.1179219 5.82268 1.3064466 5.510702 1.2200901 5.724617 1.5848248.129685.2213646.152493.5448976.05473.7769045-.06294.1492997-8.812623 10.2797724-9.211414 10.6648804-.285676.276098-.526958.356069-.83772.277922-.104144-.02615-2.144469-.609665-4.5338696-1.296716-4.5920999-1.32013-4.5808493-1.317393-4.9606356-1.195917-.3889084.12467-.6177228.491533-.6957174 1.115338-.1169158.93639.1794025 1.8705.7262767 2.2886.2411292.184418.3201881.215284 1.2679816.494117.4433373.1306 2.5876552.763982 4.765269 1.407551 2.1776133.643569 3.9717923 1.165205 3.9871483 1.159124.01521-.0061 1.725154-2.056593 3.799687-4.556524a5218.7047 5218.7047 0 0 1 3.826294-4.608672c.04592-.05291.04515-.106882-.0046-.341928-.14854-.700583.0061-1.8188085.315019-2.2770455.303007-.4497228.891539-.504 1.278624-.1181311.294799.2937323.325966.6051038.115394 1.1509138-.02571.066287-.05549.2835465-.06644.4825628-.01611.294189-.0035.418555.06766.663789.119804.413083.141392.714723.06477.898534-.06538.156293-8.381753 10.20041-8.593083 10.378141-.232008.195214-.508561.228512-.905679.108856zm3.912346-13.8401553c.08286-.047284.322467-.2929736.532734-.5458099.327942-.3949901.382067-.4807383.382067-.6060161 0-.1103774-.02553-.1651105-.104297-.2239492-.068112-.05078-.836654-.2566369-2.21243-.5926369-1.159427-.2830913-2.642084-.6453936-3.294775-.8050315-1.671789-.4089771-1.726218-.3998549-2.390464.4009193-.3048328.3673192-.3838917.4887964-.3844997.5897482-.00106.1961253.1687588.3118277.6090567.4152109.203879.047891 1.621009.3949897 3.148973.7711273 1.527963.3762894 2.868618.6967816 2.979148.7122894.261654.036489.546418-.00835.734487-.1158515z" stroke-width=".040226"/></svg>