<svg fill="none" height="24" viewBox="0 0 24 24" width="24" xmlns="http://www.w3.org/2000/svg"><g fill="#000"><path d="m11.335 2.00538c-.0429.0039-.1796.01757-.3027.02734-2.83759.25583-5.49554 1.78693-7.17897 4.14022-.9374 1.30846-1.53695 2.79269-1.7635 4.36476-.08007.5488-.08983.7109-.08983 1.455s.00976.9061.08983 1.4549c.54292 3.7516 3.21258 6.9036 6.83332 8.0715.64838.209 1.33195.3515 2.10915.4375.3027.0332 1.6112.0332 1.9139 0 1.3417-.1485 2.4783-.4805 3.5993-1.0527.1718-.0879.205-.1113.1816-.1308-.0156-.0117-.748-.9941-1.6268-2.1815l-1.5975-2.1579-2.0018-2.9626c-1.1014-1.6288-2.00759-2.9607-2.0154-2.9607-.00781-.0019-.01563 1.3143-.01953 2.9216-.00586 2.8142-.00781 2.9274-.04297 2.9938-.05077.0957-.08983.1348-.17185.1778-.0625.0312-.11718.0371-.41207.0371h-.33786l-.08984-.0567c-.05858-.0371-.10155-.0859-.13084-.1425l-.04101-.0879.0039-3.9156.00586-3.91763.06054-.07617c.03125-.04101.09765-.09374.14452-.11913.08007-.03906.11132-.04296.44917-.04296.3984 0 .4648.01562.56831.12889.02929.03125 1.11317 1.6639 2.40987 3.6305 1.2968 1.9666 3.0701 4.6519 3.9411 5.9701l1.5818 2.3963.0801-.0528c.7089-.4608 1.4589-1.117 2.0526-1.8006 1.2635-1.451 2.0779-3.2203 2.3513-5.1069.0801-.5488.0898-.7108.0898-1.4549s-.0097-.9062-.0898-1.455c-.5429-3.75154-3.2126-6.90358-6.8333-8.07143-.6386-.20701-1.3183-.34958-2.0799-.4355-.1875-.01953-1.4784-.04102-1.6405-.02539zm4.0895 6.04238c.0937.04687.1699.1367.1972.23044.0156.05078.0195 1.13661.0156 3.5836l-.0058 3.5114-.6191-.9491-.621-.9491v-2.5525c0-1.65025.0078-2.5779.0195-2.62282.0312-.10936.0996-.19529.1933-.24607.0801-.04101.1094-.04491.416-.04491.289 0 .3398.0039.4043.03906z"/><path d="m17.3071 20.4508c-.0684.043-.0899.0723-.0293.0391.0429-.0254.1132-.0781.1015-.0801-.0058 0-.039.0195-.0722.041zm-.1348.0879c-.0352.0274-.0352.0293.0078.0078.0234-.0117.043-.0254.043-.0293 0-.0156-.0098-.0117-.0508.0215zm-.0976.0586c-.0352.0273-.0352.0293.0078.0078.0234-.0117.0429-.0254.0429-.0293 0-.0156-.0097-.0117-.0507.0215zm-.0977.0586c-.0351.0273-.0351.0293.0078.0078.0235-.0117.043-.0254.043-.0293 0-.0156-.0098-.0117-.0508.0215zm-.1484.0781c-.0742.0391-.0703.0547.0039.0176.0332-.0176.0586-.0352.0586-.0391 0-.0136-.002-.0117-.0625.0215z"/></g></svg>