<svg fill="none" height="24" viewBox="0 0 24 24" width="24" xmlns="http://www.w3.org/2000/svg"><path d="m13.6753 8.00707-.8213 1.44608-2.8089-4.94681-8.62285 15.18386h5.83823c0 .7987.63675 1.4461 1.42222 1.4461h-7.26045c-.508058 0-.977482-.2757-1.231471-.7231-.2539893-.4475-.2539635-.9986.000068-1.446l8.622813-15.18391c.25405-.44744.72358-.72308 1.23174-.72308.5081 0 .9776.27564 1.2317.72308z" fill="#00c58e"/><path d="m19.8999 18.9672-5.4033-9.51404-.8213-1.44608-.8214 1.44608-5.40262 9.51404c-.25403.4474-.25405.9986-.00006 1.446.25398.4474.72341.7231 1.23147.7231h9.98401c.5082 0 .9778-.2754 1.2319-.7229.2541-.4474.2542-.9987.0001-1.4462zm-11.21721.723 4.99261-8.7909 4.9914 8.7909z" fill="#2f495e"/><path d="m23.763 20.4133c-.254.4473-.7234.723-1.2314.723h-3.8649c.7855 0 1.4222-.6474 1.4222-1.4461h2.4397l-6.9226-12.19107-1.1094 1.95403-.8213-1.44609.6993-1.23098c.254-.44744.7235-.72308 1.2317-.72308.5081 0 .9776.27564 1.2317.72308l6.925 12.19111c.254.4474.254.9987 0 1.4461z" fill="#108775"/></svg>