<svg fill="none" height="24" viewBox="0 0 24 24" width="24" xmlns="http://www.w3.org/2000/svg"><path d="m13.7599 16.0576 9.4545-4.1806c.3636-.1603.5236-.576.3564-.9244-.1673-.3484-.6013-.5017-.9649-.3414l-9.212 4.0738-10.16725-2.7383c-.01455-.0047-.01455-.0047-.0291-.007-.10424-.0256-1.01575-.295-1.01575-1.7396 0-.72233.23031-1.11948.39758-1.31226l10.29082 3.13776c.1673.0511.3491.0418.5115-.0255l10.1818-4.24102c.2666-.11148.4363-.36232.4363-.63871v-.40412c0-.3089-.2133-.58064-.5212-.6689l-10.6666-3.01933c-.1672-.04645-.3466-.03484-.5066.03252l-10.18178 4.41286c-.00969.00465-.01697.00697-.02666.01162-.13819.06967-1.369692.71534-1.369692 2.71508 0 1.0568.356362 1.793.804842 2.2877-.11394.0465-.23272.1022-.34909.1765-.5406.3298-1.18302 1.0196-1.18302 2.4132 0 2.074 1.37454 2.9264 2.12362 3.0936l10.40718 2.8034c.0655.0162.1309.0255.1964.0255.1042 0 .2085-.0209.3054-.065l9.4545-4.1806c.3637-.1603.5237-.576.3564-.9244s-.6012-.5017-.9649-.3414l-9.212 4.0737-10.16722-2.7383c-.01455-.0046-.01455-.0046-.02909-.0069-.10424-.0256-1.01575-.295-1.01575-1.7396 0-1.1404.61575-1.3518.89454-1.3866l9.77202 2.6129.6667.1742zm1.9588-7.2975-7.35512-2.39224 1.45454-.69676 7.75748 2.32256zm2.8266-1.23096-7.7575-2.32256 1.4545-.69676 8 2.32256z" fill="#000"/></svg>