<svg fill="none" height="24" viewBox="0 0 24 24" width="24" xmlns="http://www.w3.org/2000/svg" xmlns:xlink="http://www.w3.org/1999/xlink"><clipPath id="a"><path d="m0 0h23.9997v24h-23.9997z"/></clipPath><g clip-path="url(#a)" fill="#000"><path d="m23.3335 5.6339c-.0178-.03743-.0337-.07299-.0478-.10387-.9956 0-1.9033.13755-2.751-.03181-1.3494-.26856-2.6491-.77947-3.9881-1.11446-1.2333-.30879-2.4807-.62507-3.7402-.74859-1.7049-.16562-3.36392.28821-5.00426.72332-1.18464.31441-2.35617.68309-3.54362.98439-1.09481.27792-2.20365.49969-3.325598.7514v1.8855c.997488-.20399 1.931358-.36213 2.847438-.58951 2.28974-.56706 4.56638-1.18464 6.85804-1.74327 1.0068-.24516 2.0539-.26949 3.0579-.01591 2.1354.54085 4.2567 1.13972 6.378 1.73298 1.2258.34341 2.4329.24984 3.6316-.10106.0645-.01871.2152-.05989.2929-.08141z"/><path d="m.909533 10.3378c1.313767.3406 2.591047.6681 3.865517 1.0031 1.53086.4015 3.04675.874 4.59352 1.1968 1.52333.3173 3.07763.4829 4.64213.2518.0889-.0131.1853.0177.3285.0336-1.7564 1.7555-3.567 3.3219-5.75946 4.4008-1.75637.8646-3.56889 1.0209-5.44784.5418-1.14534-.2929-1.73204-1.1931-1.52618-2.2972.09732-.5212.44073-.8422.96568-.904.06082.2237.09731.4567.18621.6682.28259.6728 1.07235.8449 1.6235.3668.83654-.7262.65407-2.0699-.30693-2.6079-.94602-.5296-2.97563.0103-3.74948 1.4298-.2311266.4211-.3247.7954-.3247 1.3568 0 0 0 .4679.0935734.9357.4659956 2.3291 2.2822566 2.578 4.2210966 2.8016 2.29816.2648 4.34648-.4969 6.27503-1.6647 1.7339-1.0499 3.276-2.3374 4.7058-3.771.5652-.567 1.194-1.0704 1.7283-1.5439-.0094 1.1603.1067 2.4965-.3724 3.7757-.1114.2966-.3369.5474-.4885.8309-.0758.1413-.1413.3069-.1441.4632-.0168.8562-.0131 1.7133-.0168 2.5695h.0936c.0336-.0487.058-.1095.1029-.1441 1.3521-1.0415 2.2036-2.373 2.461-4.0854.0468-.3097.2657-.6466.5043-.86.2985-.2666.7-.4192 1.0499-.6175-.218-.176-.4763-.3697-.7168-.5821-.5249-.4632-.6222-1.0545-.2077-1.6197.2433-.3322.5586-.6251.8852-.8824 1.0368-.8169 2.2523-1.267 3.5605-1.64223l-.7654-1.78163c-.0796.02245-.19.0524-.3322.08421-.7851.17873-1.5777.17873-2.3571-.04772-.8796-.25546-1.748-.55115-2.6341-.77759-1.398-.35652-2.796-.73643-4.2146-.98627-2.0015-.35183-3.94129.17966-5.83989.70648-2.11383.58858-4.48123 1.21833-6.655876 1.54022zm16.977967-.5062c-2.0165.8599-4.1041 1.368-6.3106 1.1519-1.82936-.1787-3.61568-.5905-5.3655-1.15564-.48658-.1572-.97784-.29943-1.5711-.48003 1.91171-.52588 3.73545-1.02744 5.6715-1.55987-.2564.90205-.0365 1.57578.4781 2.13441.4052.43883.9442.66153 1.5534.61383 1.1191-.0889 2.0754-1.03772 1.8349-2.6032 1.4757.49313 2.9064.97036 4.3372 1.44852.0037.0421.0065.08328.0103.12538-.2125.10855-.4193.23113-.6382.3247z"/></g></svg>