<svg width="82" height="24" viewBox="0 0 82 24" fill="none" xmlns="http://www.w3.org/2000/svg">
<rect width="82" height="24" fill="white"/>
<path fill-rule="evenodd" clip-rule="evenodd" d="M70 2C64.48 2 60 6.48 60 12C60 17.52 64.48 22 70 22C75.52 22 80 17.52 80 12C80 6.48 75.52 2 70 2ZM74.9 15.49L73.5 16.89C73.3 17.09 72.99 17.09 72.79 16.89L69.38 13.48C68.16 13.91 66.74 13.65 65.76 12.67C64.65 11.56 64.46 9.88 65.17 8.57L67.52 10.92L68.93 9.51L66.58 7.17C67.9 6.46 69.57 6.65 70.68 7.76C71.66 8.74 71.92 10.16 71.49 11.38L74.9 14.79C75.09 14.98 75.09 15.3 74.9 15.49Z" fill="black"/>
<path d="M54 22C59.5228 22 64 17.5228 64 12C64 6.47715 59.5228 2 54 2C48.4772 2 44 6.47715 44 12C44 17.5228 48.4772 22 54 22Z" fill="#663399"/>
<path d="M48.4286 17.5714C46.9286 16.0714 46.1429 14.0714 46.1429 12.1429L53.9286 19.8571C51.9286 19.7857 49.9286 19.0714 48.4286 17.5714ZM55.7143 19.6429L46.3571 10.2857C47.1429 6.78571 50.2857 4.14285 54 4.14285C56.6429 4.14285 58.9286 5.42857 60.3571 7.35714L59.2857 8.28571C58.0714 6.64285 56.1429 5.57142 54 5.57142C51.2143 5.57142 48.8571 7.35714 47.9286 9.85714L56.1429 18.0714C58.2143 17.3571 59.7857 15.5714 60.2857 13.4286H56.8571V12H61.8571C61.8571 15.7143 59.2143 18.8571 55.7143 19.6429Z" fill="white"/>
<path d="M47.5872 4.64478C45.73 1.98475 42.0515 1.19924 39.4086 2.89523L34.7479 5.85874C33.48 6.6621 32.605 7.96534 32.3372 9.42925C32.1229 10.6611 32.3015 11.9286 32.8907 13.0354C32.4979 13.6424 32.2122 14.3208 32.0872 15.0349C31.8193 16.5524 32.1765 18.1056 33.0515 19.3553C34.9086 22.0153 38.5693 22.8008 41.23 21.1048L45.8908 18.1413C47.1586 17.3379 48.0336 16.0347 48.3015 14.5708C48.5158 13.3389 48.3372 12.0714 47.7479 10.9646C48.1407 10.3576 48.4265 9.67918 48.5515 8.96508C48.8193 7.44762 48.4622 5.89445 47.5872 4.64478Z" fill="#FF3E00"/>
<path d="M39.1058 19.6052C37.6058 19.9979 36.0165 19.4088 35.1415 18.1413C34.6058 17.3915 34.3915 16.4632 34.5522 15.5527C34.5879 15.4098 34.6236 15.267 34.6593 15.1242L34.7486 14.8564L34.9808 15.0349C35.5343 15.4456 36.1415 15.749 36.8022 15.9454L36.9808 15.999L36.9629 16.1775C36.9451 16.4274 37.0165 16.6773 37.1593 16.8738C37.4272 17.2665 37.9093 17.4272 38.3558 17.3201C38.4629 17.2843 38.5522 17.2487 38.6415 17.1951L43.3022 14.2316C43.5344 14.0888 43.695 13.8567 43.7486 13.5889C43.8022 13.3211 43.7308 13.0354 43.57 12.8033C43.3022 12.4106 42.82 12.2499 42.3736 12.3571C42.2665 12.3928 42.1772 12.4285 42.0879 12.482L40.3022 13.6068C40.0165 13.7853 39.695 13.9281 39.3558 14.0173C37.8558 14.3744 36.2665 13.8031 35.3736 12.5178C34.8379 11.7679 34.6236 10.8396 34.7843 9.92913C34.9451 9.0365 35.4808 8.25099 36.2308 7.78683L40.9094 4.80546C41.195 4.62693 41.5165 4.48411 41.8558 4.39485C43.3558 4.00209 44.945 4.59123 45.82 5.85876C46.3558 6.60856 46.57 7.53689 46.4094 8.44737C46.3736 8.59019 46.3379 8.73301 46.3022 8.87583L46.2129 9.14362L45.9808 8.9651C45.4272 8.55449 44.82 8.25099 44.1594 8.05461L43.9808 8.00105L43.9986 7.82253C44.0165 7.57259 43.945 7.34051 43.8022 7.12629C43.5344 6.75138 43.0522 6.57286 42.6058 6.67997C42.4986 6.71568 42.4094 6.75138 42.32 6.80494L37.6593 9.80416C37.4272 9.94698 37.2665 10.1791 37.2308 10.4468C37.1772 10.7147 37.2486 11.0003 37.4093 11.2323C37.6772 11.6251 38.1593 11.7858 38.6058 11.6787C38.7129 11.643 38.8022 11.6073 38.8915 11.5537L40.6772 10.429C40.9629 10.2505 41.2844 10.1077 41.6236 10.0184C43.1236 9.62564 44.7129 10.2148 45.5879 11.4823C46.1236 12.2321 46.3379 13.1604 46.1772 14.0709C46.0165 14.9635 45.4986 15.749 44.7308 16.2311L40.0522 19.1946C39.7665 19.3731 39.445 19.5159 39.1058 19.6052Z" fill="white"/>
<path d="M26 22C31.5228 22 36 17.5228 36 12C36 6.47715 31.5228 2 26 2C20.4772 2 16 6.47715 16 12C16 17.5228 20.4772 22 26 22Z" fill="#393939"/>
<path d="M30.5901 12.986C30.6242 12.7965 30.6583 12.6222 30.6887 12.444C30.7947 11.8678 30.8972 11.2917 31.0032 10.7156C31.0563 10.4237 31.1094 10.1281 31.1624 9.83625C31.1852 9.72255 31.2155 9.61641 31.3065 9.53303C31.3557 9.48376 31.4164 9.45722 31.4847 9.45722C31.6135 9.45343 31.7423 9.45343 31.8712 9.45343C32.0494 9.45343 32.1403 9.53303 32.1707 9.71117C32.1972 9.86279 32.1669 10.0106 32.1366 10.1546C31.9849 10.9317 31.8372 11.7087 31.6855 12.4857C31.5377 13.2437 31.3937 13.998 31.2458 14.7561C31.1814 15.0934 31.1132 15.4307 31.0373 15.7681C30.9805 16.0182 30.9009 16.2608 30.7682 16.4845C30.5673 16.8256 30.2717 17.0037 29.8699 16.9999C29.6842 16.9999 29.4985 16.9847 29.3317 16.8938C29.1612 16.8028 29.0588 16.6626 29.055 16.4617C29.055 16.3291 29.055 16.1964 29.0929 16.0713C29.146 15.9007 29.2673 15.8287 29.4417 15.8704C29.4796 15.878 29.5174 15.8894 29.5592 15.9007C29.6198 15.9159 29.6767 15.9311 29.7373 15.95C29.7903 15.9652 29.8282 15.95 29.8586 15.9007C29.9761 15.7226 30.0216 15.5255 30.0292 15.3171C30.0367 15.1275 29.9912 14.9494 29.9457 14.7712C29.7373 13.9374 29.5212 13.1035 29.309 12.2697C29.1195 11.5229 28.9262 10.7801 28.7367 10.0333C28.7025 9.90069 28.7063 9.76803 28.7442 9.63536C28.7783 9.52166 28.8542 9.45722 28.9717 9.45722C29.1574 9.45343 29.3431 9.45343 29.5288 9.45722C29.6994 9.45722 29.8055 9.55956 29.8548 9.72255C29.9078 9.8969 29.942 10.0788 29.9798 10.257C30.177 11.1515 30.3741 12.0498 30.5712 12.9443C30.5787 12.9519 30.5825 12.9632 30.5901 12.986Z" fill="white"/>
<path d="M26.2881 10.5299C26.2085 10.5299 26.1327 10.5299 26.0607 10.5299C25.875 10.5261 25.7688 10.4351 25.7423 10.2532C25.7347 10.2077 25.7309 10.1622 25.7309 10.1129C25.7347 9.98408 25.7347 9.8552 25.7461 9.72634C25.7499 9.67327 25.7764 9.61641 25.8029 9.57093C25.8484 9.49512 25.9204 9.45722 26.0077 9.45343C26.0986 9.44964 26.1896 9.45343 26.2881 9.45343C26.2919 9.38141 26.2957 9.31319 26.2995 9.24117C26.326 8.65368 26.3526 8.06996 26.3828 7.48247C26.3867 7.3915 26.4018 7.29674 26.4246 7.20578C26.4662 7.06554 26.561 7.00109 26.7051 7.00109C26.8226 6.9973 26.9401 7.00489 27.0576 7.00109C27.2963 6.98973 27.3873 7.14134 27.4101 7.31949C27.4177 7.38392 27.4214 7.44835 27.4214 7.51279V9.3852V9.44964H27.4782C27.6488 9.44964 27.8194 9.45343 27.99 9.44964C28.2439 9.43827 28.3387 9.59367 28.3501 9.7756C28.3576 9.9348 28.3576 10.094 28.3425 10.2532C28.3273 10.4275 28.206 10.5299 28.0278 10.5299C27.8422 10.5299 27.6564 10.5299 27.4707 10.5299C27.4555 10.5299 27.4442 10.5299 27.4252 10.5337C27.4252 10.5526 27.4214 10.5678 27.4214 10.5829V13.6379C27.4214 13.8653 27.4403 14.0928 27.5162 14.3088C27.5768 14.4718 27.6147 14.4983 27.7891 14.5021C27.9255 14.5021 28.062 14.5021 28.1984 14.5059C28.3614 14.5097 28.4676 14.5969 28.4902 14.7598C28.513 14.938 28.5168 15.1162 28.4827 15.2943C28.46 15.4232 28.3652 15.5103 28.2363 15.5255C28.1681 15.5331 28.0999 15.5331 28.0278 15.5331C27.827 15.5331 27.6261 15.5369 27.429 15.5218C26.9552 15.4876 26.6292 15.2413 26.4587 14.7978C26.3563 14.5324 26.3108 14.2558 26.2957 13.9715C26.2843 13.7593 26.2805 13.547 26.2805 13.3348C26.2805 12.425 26.2805 11.5153 26.2805 10.6019C26.2881 10.5792 26.2881 10.5602 26.2881 10.5299Z" fill="white"/>
<path d="M20.6974 8.49827C20.5875 8.5248 20.4814 8.54755 20.3828 8.57787C20.1933 8.63473 20.0493 8.5248 20.0151 8.34666C20.0076 8.30118 20.0038 8.2519 20 8.20263C20 8.03206 20 7.85771 20.0038 7.68715C20.0076 7.52795 20.0947 7.41804 20.2464 7.37635C20.6936 7.25505 21.1409 7.13755 21.5919 7.02385C21.7814 6.97457 21.9293 7.0807 21.9558 7.274C21.9672 7.34223 21.9709 7.41045 21.9709 7.48247V14.9153C21.9709 15.0403 21.9672 15.1617 21.9293 15.2829C21.8762 15.4497 21.789 15.5142 21.6109 15.5142C21.4176 15.5142 21.2243 15.5142 21.031 15.5142C20.8869 15.5142 20.7997 15.4611 20.7505 15.3246C20.7239 15.245 20.7088 15.1578 20.6974 15.0707C20.6898 15.0138 20.6936 14.9532 20.6936 14.8925C20.6936 12.7851 20.6936 10.6815 20.6936 8.57408C20.6974 8.55134 20.6974 8.5286 20.6974 8.49827Z" fill="white"/>
<path d="M23.525 8.49825C23.4151 8.52478 23.3127 8.54752 23.2104 8.57784C23.0133 8.63849 22.8655 8.5172 22.839 8.33148C22.8276 8.25188 22.8276 8.16849 22.8276 8.0851C22.8276 7.94107 22.8276 7.79325 22.839 7.64922C22.8503 7.50519 22.9375 7.41043 23.0815 7.37253C23.4871 7.26639 23.8927 7.15648 24.2982 7.05414C24.3702 7.03519 24.4461 7.01624 24.5218 7.01624C24.6621 7.01624 24.7568 7.10341 24.7834 7.25124C24.7947 7.31946 24.8023 7.38769 24.8023 7.45591V14.9342C24.8023 15.0479 24.7872 15.1617 24.7607 15.2716C24.719 15.4421 24.6204 15.5103 24.4461 15.5103C24.2565 15.5103 24.0708 15.5103 23.8813 15.5103C23.7107 15.5103 23.616 15.4459 23.5705 15.2792C23.5477 15.1843 23.5326 15.0858 23.5288 14.9872C23.525 14.3429 23.525 13.6947 23.525 13.0504C23.525 11.5532 23.525 10.0599 23.525 8.56269C23.525 8.54752 23.525 8.52857 23.525 8.49825Z" fill="white"/>
<path fill-rule="evenodd" clip-rule="evenodd" d="M19.1968 14.8289V8.50943C19.1968 7.68764 18.7598 6.92736 18.0484 6.51105C16.5214 5.61766 13.8237 4.03927 12.1716 3.07255C11.2991 2.56226 10.2153 2.57373 9.35409 3.10253C7.89185 4.0004 5.61052 5.40124 4.13791 6.30567C3.24977 6.85102 2.7089 7.81557 2.7089 8.85457V15.3249C2.7089 16.3554 3.25807 17.3085 4.1514 17.8286L9.58718 20.9927C10.3097 21.4135 11.202 21.4226 11.9334 21.0171C13.5207 20.1364 16.332 18.5774 17.9515 17.6791C18.7197 17.2526 19.1957 16.4457 19.1957 15.5701V14.8288L19.1968 14.8289Z" fill="#FF4088"/>
<path fill-rule="evenodd" clip-rule="evenodd" d="M10.7952 2H10.8095L10.8224 2.00015H10.8958L10.9086 2.00067H10.9102L10.923 2.00119H10.9244L10.9374 2.00171H10.9385L10.9514 2.00223H10.9529L10.9654 2.00274H10.967L10.9795 2.00325H10.9805L10.9935 2.00377H10.995L11.008 2.00481H11.0095L11.022 2.00585H11.023L11.0355 2.00687H11.037L11.05 2.00791H11.0511L11.0635 2.00895H11.0651L11.078 2.00997H11.0796L11.0925 2.01101H11.0941L11.1071 2.01205H11.1086L11.1211 2.01308H11.1227L11.1352 2.01411H11.1367L11.1496 2.01515H11.1513L11.1642 2.0167H11.1657L11.1787 2.01825H11.1798L11.1923 2.0198H11.1938L11.2063 2.02135H11.2078L11.2208 2.0229H11.2224L11.2354 2.02445H11.2364L11.2488 2.026H11.2504L11.2634 2.02755H11.2649L11.2774 2.02962L11.2789 2.03014L11.2919 2.0322H11.2935L11.3059 2.03427H11.3069L11.3199 2.03634H11.3215L11.3339 2.03841H11.3355L11.348 2.04047H11.349L11.362 2.04255H11.3635L11.376 2.04461L11.3775 2.04513L11.39 2.04719L11.3915 2.04771L11.404 2.0503H11.4055L11.418 2.05236H11.4196L11.4321 2.05495H11.4336L11.4465 2.05754H11.4476L11.4601 2.06012H11.4616L11.4741 2.0627H11.4751L11.4881 2.06528L11.4896 2.0658L11.5026 2.06839H11.5037L11.5162 2.07149L11.5177 2.07201L11.5302 2.07511H11.5317L11.5447 2.07821L11.5457 2.07873L11.5582 2.08131L11.5597 2.08183L11.5722 2.08441L11.5733 2.08493L11.5857 2.08803H11.5873L11.5997 2.09113L11.6013 2.09165L11.6137 2.09475L11.6147 2.09526L11.6277 2.09837L11.6288 2.09888L11.6413 2.10199L11.6428 2.1025L11.6553 2.10561H11.6563L11.6687 2.10923H11.6703L11.6833 2.11233L11.6848 2.11285L11.6973 2.11595H11.6988L11.7113 2.11956L11.7129 2.12008L11.7254 2.1237L11.7269 2.12422L11.7394 2.12784L11.7409 2.12835L11.7534 2.13196L11.7544 2.13248L11.7668 2.1361L11.7685 2.13662L11.7809 2.14024L11.7825 2.14075L11.7949 2.14437L11.7965 2.14489L11.8089 2.14903L11.8099 2.14955L11.8224 2.15368H11.8239L11.8365 2.15781H11.838L11.8505 2.16195L11.852 2.16246L11.8645 2.1666L11.866 2.16712L11.8785 2.17125L11.8795 2.17177L11.8919 2.17591L11.8935 2.17642L11.906 2.18055L11.907 2.18107L11.9195 2.18521L11.9205 2.18573L11.9325 2.18986L11.934 2.19038L11.9459 2.19452L11.9475 2.19503L11.9595 2.19968L11.961 2.2002L11.9735 2.20485L11.975 2.20537L11.9869 2.21002L11.988 2.21054L12.0005 2.21467L12.0015 2.21519L12.0139 2.21985L12.0155 2.22036L12.0279 2.22501L12.0295 2.22553L12.0415 2.23018L12.043 2.2307L12.0549 2.23586L12.056 2.23638L12.0685 2.24104L12.07 2.24155L12.0819 2.24672L12.0835 2.24724L12.0959 2.25241L12.0975 2.25293L12.11 2.25809L12.111 2.25861L12.1235 2.26378L12.1245 2.2643L12.1365 2.26946L12.1375 2.26998L12.1495 2.27515L12.1505 2.27567L12.1629 2.28084L12.1639 2.28135L12.1759 2.28653L12.1775 2.28705L12.1894 2.29221L12.1909 2.29273L12.2029 2.2979L12.2039 2.29841L12.2158 2.3041L12.2175 2.30462L12.2294 2.3103L12.2309 2.31082L12.2428 2.31651L12.2439 2.31702L12.2558 2.32271L12.2568 2.32323L12.2688 2.32891L12.2704 2.32943L12.2823 2.33512L12.2838 2.33563L12.2958 2.34132L12.2974 2.34184L12.3093 2.34752L12.3104 2.34804L12.3223 2.35424L12.3233 2.35527L12.3353 2.36096L12.3363 2.36147L12.3477 2.36768L12.3493 2.3682L12.3612 2.37388L12.3623 2.3744L12.3742 2.3806L12.3757 2.38112L12.3872 2.38732L12.3887 2.38835L12.4006 2.39455L12.4022 2.39507L12.4142 2.40128L12.4152 2.4018L12.4266 2.408L12.4282 2.40904L12.4401 2.41524L12.4411 2.41627L12.4525 2.42299L12.4535 2.42403L12.465 2.43075L12.4665 2.43126L12.478 2.43798L12.479 2.4385L12.4905 2.44522L12.4915 2.44625L12.5029 2.45297L12.5045 2.454L12.5154 2.46073H12.5164L18.3975 5.90181L18.4074 5.90749L18.4085 5.90853L18.4183 5.91421L18.4198 5.91473L18.4292 5.92094L18.4302 5.92196L18.4395 5.92765L18.4406 5.92869L18.4499 5.93437L18.451 5.93489L18.4604 5.94057L18.4614 5.94109L18.4707 5.94678L18.4717 5.9473L18.4811 5.95298L18.4826 5.9535L18.492 5.9597L18.493 5.96022L18.5024 5.96642L18.5039 5.96694L18.5133 5.97263L18.5143 5.97315L18.5236 5.97935L18.5247 5.98038L18.534 5.98658L18.5351 5.98762L18.5439 5.9933L18.5455 5.99382L18.5548 6.00002L18.5558 6.00054L18.5652 6.00674L18.5662 6.00725L18.575 6.01346L18.5761 6.01398L18.5849 6.02018L18.5859 6.0207L18.5947 6.0269L18.5958 6.02794L18.6046 6.03414L18.6056 6.03465L18.6145 6.04137L18.616 6.04241L18.6249 6.04861L18.6259 6.04913L18.6347 6.05533L18.6357 6.05585L18.6446 6.06205L18.6456 6.06308L18.6545 6.06929L18.6555 6.0698L18.6643 6.07601L18.6654 6.07704L18.6742 6.08325L18.6752 6.08427L18.684 6.091L18.6856 6.09203L18.6939 6.09875L18.6955 6.09978L18.7043 6.10651L18.7058 6.10702L18.7146 6.11375L18.7157 6.11477L18.7245 6.12149L18.7255 6.12253L18.7339 6.12925L18.7355 6.13028L18.7443 6.13752L18.7458 6.13907L18.7625 6.15251L18.7645 6.15406L18.7811 6.16802L18.7832 6.16956L18.8003 6.18353L18.8024 6.18507L18.8195 6.19903L18.8216 6.20058L18.8382 6.21454L18.8403 6.21661L18.8569 6.23056L18.859 6.23212L18.8751 6.24659L18.8771 6.24814L18.8933 6.26261L18.8953 6.26416L18.9114 6.27915L18.9135 6.2807L18.929 6.29517L18.9311 6.29673L18.9472 6.31172L18.9493 6.31378L18.9648 6.32877L18.9669 6.33085L18.9825 6.34584L18.9845 6.3479L18.9996 6.36289L19.0017 6.36496L19.0167 6.38046L19.0188 6.38254L19.0339 6.39805L19.0355 6.40011L19.0505 6.41562L19.0525 6.41768L19.0671 6.43319L19.0692 6.43526L19.0837 6.45076L19.0858 6.45284L19.1004 6.46835L19.1025 6.47041L19.1169 6.48644L19.119 6.4885L19.133 6.50505L19.1346 6.50711L19.1491 6.52314L19.1512 6.5252L19.1652 6.54175L19.1673 6.54381L19.1813 6.56035L19.1829 6.56242L19.1969 6.57896L19.199 6.58103L19.2125 6.59757L19.214 6.59964L19.2275 6.61618L19.2295 6.61825L19.2431 6.63531L19.2446 6.63737L19.2576 6.65443L19.2592 6.6565L19.2722 6.67355L19.2737 6.67563L19.2867 6.69268L19.2883 6.69526L19.3012 6.71285L19.3028 6.71491L19.3157 6.73196L19.3173 6.73455L19.3297 6.75213L19.3314 6.75419L19.3438 6.77177L19.3454 6.77384L19.3578 6.79141L19.3594 6.794L19.3713 6.81157L19.3728 6.81415L19.3848 6.83225L19.3864 6.83484L19.3977 6.85241L19.3994 6.85447L19.4107 6.87205L19.4123 6.87412L19.4243 6.89221L19.4258 6.89428L19.4372 6.91237L19.4388 6.91495L19.4496 6.93305L19.4513 6.93563L19.4626 6.95373L19.4642 6.95631L19.4751 6.9744L19.4766 6.97698L19.4875 6.99559L19.4891 6.99766L19.4995 7.01627L19.5011 7.01885L19.5115 7.03746L19.513 7.04005L19.5234 7.05865L19.5249 7.06125L19.5354 7.07985L19.5364 7.08244L19.5467 7.10156L19.5478 7.10415L19.5576 7.12327L19.5587 7.12585L19.5685 7.14498L19.5701 7.14705L19.5795 7.16669L19.5805 7.16927L19.5904 7.1884L19.5914 7.19098L19.6007 7.21011L19.6023 7.2127L19.6111 7.23234L19.6122 7.23493L19.621 7.25456L19.622 7.25715L19.6308 7.27679L19.6319 7.27938L19.6407 7.29902L19.6417 7.30161L19.65 7.32125L19.6511 7.32384L19.6594 7.34347L19.6605 7.34606L19.6682 7.36622L19.6693 7.3688L19.677 7.38845L19.6781 7.39103L19.6858 7.41119L19.6869 7.41377L19.6946 7.43394L19.6957 7.43652L19.7035 7.45668L19.7045 7.45926L19.7118 7.47943L19.7128 7.48201L19.7196 7.50216L19.7206 7.50475L19.7274 7.52491L19.7285 7.5275L19.7352 7.54765L19.7362 7.55024L19.7429 7.57092L19.7435 7.5735L19.7497 7.59366L19.7507 7.59625L19.757 7.61692L19.7575 7.61951L19.7637 7.64018L19.7647 7.64276L19.771 7.66345L19.772 7.66603L19.7777 7.68671L19.7787 7.68929L19.7845 7.70996L19.785 7.71255L19.7902 7.73323L19.7913 7.73633L19.7969 7.75752L19.7975 7.76011L19.8026 7.7813L19.8037 7.78388L19.8084 7.80507L19.8094 7.80766L19.8145 7.82885L19.8151 7.83195L19.8198 7.85315L19.8203 7.85574L19.825 7.87693L19.8255 7.87951L19.8296 7.90071L19.8302 7.90329L19.8343 7.92448L19.8348 7.92707L19.839 7.94826L19.8395 7.95085L19.8431 7.97255L19.8436 7.97515L19.8473 7.99634L19.8478 7.99944L19.8515 8.02115L19.852 8.02425L19.8551 8.04595L19.8556 8.04906L19.8587 8.07025V8.07232L19.8603 8.08369V8.08473L19.8613 8.09558V8.09714L19.8628 8.10799V8.10902L19.8645 8.11987V8.12143L19.866 8.13228L19.8665 8.13384L19.8681 8.14469V8.14624L19.8691 8.15709L19.8696 8.15813L19.8706 8.16898L19.8712 8.17054L19.8722 8.18139V8.18294L19.8733 8.19379L19.8737 8.19535L19.8748 8.2062L19.8753 8.20775L19.8764 8.21861V8.22015L19.8774 8.23101V8.23256L19.8785 8.24342V8.24497L19.8795 8.25583V8.25737L19.8805 8.26823V8.26978L19.881 8.28064V8.28219L19.8815 8.29356V8.29511L19.8825 8.30648V8.30752L19.8831 8.31837V8.31992L19.8836 8.33077V8.33233L19.8842 8.34318V8.34474L19.8846 8.35559V8.35714L19.8852 8.36851V8.37006L19.8857 8.38092V8.38247L19.8862 8.39333V8.39435L19.8867 8.40521V15.6213L19.8862 15.6332V15.6482L19.8857 15.6601V15.6616L19.8852 15.673V15.674L19.8846 15.6859V15.6875L19.8842 15.6988V15.6999L19.8836 15.7113V15.7128L19.8831 15.7242L19.8825 15.7257L19.8821 15.7371V15.7386L19.8815 15.75V15.7511L19.881 15.7629V15.7645L19.88 15.7764V15.7775L19.8789 15.7893V15.7908L19.8779 15.8022V15.8038L19.8774 15.8152V15.8167L19.8764 15.8281V15.8296L19.8753 15.841V15.8425L19.8743 15.8539V15.8555L19.8733 15.8668L19.8727 15.8679L19.8717 15.8797L19.8712 15.8813L19.8701 15.8927V15.8943L19.8691 15.9056L19.8685 15.9072L19.867 15.9185V15.9201L19.8655 15.9315V15.9325L19.8639 15.9438V15.9455L19.8624 15.9568L19.8618 15.9584L19.8603 15.9702L19.8597 15.9717L19.8582 15.9832L19.8576 15.9847L19.8561 15.9961V15.9976L19.8545 16.009V16.0105L19.853 16.0219L19.8525 16.0235L19.8509 16.0348L19.8504 16.0364L19.8484 16.0477V16.0488L19.8467 16.0602V16.0612L19.8447 16.0725L19.8442 16.0741L19.8426 16.0855L19.8421 16.087L19.8405 16.0985V16.0995L19.8385 16.1108V16.1118L19.8364 16.1232V16.1243L19.8343 16.1356V16.1372L19.8323 16.148L19.8317 16.1495L19.8296 16.1605L19.8291 16.162L19.827 16.1734L19.8265 16.1749L19.8239 16.1863V16.1874L19.8214 16.1987V16.1997L19.8193 16.2105V16.2121L19.8166 16.2235V16.2245L19.8145 16.2359L19.8141 16.2369L19.8115 16.2478V16.2488L19.8089 16.2597V16.2613L19.8063 16.2721L19.8057 16.2736L19.8032 16.2845L19.8026 16.2861L19.8001 16.2969L19.7995 16.2979L19.7969 16.3088L19.7965 16.3098L19.7938 16.3207L19.7933 16.3223L19.7902 16.3331L19.7896 16.3346L19.7871 16.3455L19.7865 16.3471L19.7835 16.3579V16.3595L19.7804 16.3708L19.7798 16.3724L19.7767 16.3833V16.3848L19.7735 16.3956L19.7731 16.3972L19.7699 16.4081L19.7695 16.4096L19.7663 16.421L19.7658 16.422L19.7626 16.4328L19.7622 16.4339L19.759 16.4447L19.7585 16.4463L19.7549 16.4572L19.7544 16.4587L19.7513 16.4695L19.7507 16.4706L19.7476 16.4815L19.7471 16.483L19.744 16.4938L19.7435 16.4949L19.7398 16.5057L19.7394 16.5073L19.7357 16.5182L19.7352 16.5197L19.7315 16.5305L19.731 16.5321L19.7274 16.543L19.7268 16.5445L19.7233 16.5554L19.7227 16.5564L19.7191 16.5673L19.7185 16.5688L19.7149 16.5796L19.7144 16.5812L19.7107 16.5921L19.7103 16.5931L19.7066 16.604L19.7061 16.6055L19.7025 16.6164L19.7019 16.6179L19.6978 16.6283L19.6973 16.6298L19.6936 16.6402L19.6931 16.6417L19.6895 16.652L19.689 16.6535L19.6854 16.6645L19.6848 16.666L19.6806 16.6768L19.6802 16.6784L19.676 16.6887L19.6755 16.6903L19.6714 16.7006L19.6708 16.7022L19.6666 16.7125L19.6661 16.7141L19.662 16.7244L19.6615 16.7259L19.6573 16.7363L19.6568 16.7378L19.6526 16.7482L19.6521 16.7492L19.6475 16.7595L19.6469 16.7611L19.6423 16.7719L19.6417 16.7735L19.6375 16.7838L19.6371 16.7854L19.6324 16.7957L19.6319 16.7973L19.6272 16.8076L19.6266 16.8092L19.622 16.8195L19.6215 16.8205L19.6168 16.8309L19.6163 16.8325L19.6116 16.8427L19.6111 16.8438L19.6065 16.8542L19.6059 16.8552L19.6013 16.8655L19.6007 16.8665L19.5961 16.8769L19.5955 16.8779L19.5904 16.8883L19.5898 16.8893L19.5846 16.8991L19.5841 16.9006L19.5795 16.911L19.5789 16.912L19.5737 16.9218L19.5732 16.9234L19.5685 16.9337L19.568 16.9348L19.5628 16.9451L19.5623 16.9466L19.5571 16.957L19.5566 16.958L19.5515 16.9678L19.5509 16.9689L19.5457 16.9793L19.5452 16.9808L19.54 16.9911L19.5395 16.9926L19.5343 17.003L19.5333 17.0045L19.5281 17.0144L19.5275 17.0155L19.5224 17.0257L19.5218 17.0273L19.5166 17.0376L19.5161 17.0392L19.5104 17.049L19.5094 17.0501L19.5036 17.0599L19.5032 17.0609L19.4975 17.0707L19.4969 17.0717L19.4912 17.0815L19.4907 17.0826L19.485 17.0925L19.4845 17.0935L19.4787 17.1033L19.4782 17.1048L19.4725 17.1146L19.472 17.1157L19.4663 17.1255L19.4657 17.1271L19.4601 17.1369L19.459 17.1379L19.4533 17.1477L19.4523 17.1488L19.4465 17.1586L19.446 17.1596L19.4404 17.1695L19.4398 17.171L19.4335 17.1808L19.4331 17.1818L19.4274 17.1912L19.4268 17.1927L19.4211 17.202L19.4201 17.2031L19.4138 17.2129L19.4134 17.2145L19.4071 17.2237L19.4061 17.2247L19.3998 17.2341L19.3994 17.2351L19.3931 17.2449L19.3921 17.2465L19.3858 17.2558L19.3848 17.2568L19.3785 17.2661L19.378 17.2672L19.3718 17.277L19.3713 17.278L19.3651 17.2873L19.364 17.2884L19.3573 17.2976L19.3567 17.2987L19.3505 17.308L19.35 17.309L19.3433 17.3184L19.3427 17.3194L19.3365 17.3286L19.3355 17.3297L19.3293 17.339L19.3282 17.34L19.3215 17.3494L19.3205 17.3504L19.3142 17.3596L19.3136 17.3607L19.3069 17.37L19.3059 17.3715L19.2996 17.3809L19.2986 17.3819L19.2919 17.3912L19.2908 17.3923L19.2841 17.4015L19.2831 17.4025L19.2763 17.4119L19.2753 17.4129L19.2685 17.4222L19.268 17.4233L19.2613 17.4321L19.2602 17.4331L19.2535 17.4419L19.2529 17.4429L19.2456 17.4517L19.2446 17.4527L19.2379 17.4615L19.2374 17.4625L19.2306 17.4718L19.2295 17.4729L19.2224 17.4822L19.2213 17.4832L19.214 17.492L19.213 17.493L19.2057 17.5018L19.2052 17.5029L19.1979 17.5116L19.1969 17.5127L19.1896 17.5215L19.1885 17.5225L19.1813 17.5313L19.1803 17.5324L19.173 17.5411L19.172 17.5422L19.1647 17.5509L19.1642 17.552L19.1569 17.5607L19.1559 17.5618L19.1481 17.5705L19.1471 17.5716L19.1398 17.5804L19.1387 17.5815L19.1315 17.5902L19.1305 17.5913L19.1232 17.6L19.1222 17.6011L19.1149 17.6099L19.1138 17.6109L19.1065 17.6192L19.1055 17.6202L19.0977 17.629L19.0967 17.63L19.0895 17.6388L19.0884 17.6398L19.0806 17.6486L19.0795 17.6496L19.0723 17.6585L19.0713 17.6595L19.0635 17.6677L19.0625 17.6688L19.0546 17.6771L19.0536 17.6781L19.0458 17.6864L19.0448 17.6874L19.037 17.6956L19.036 17.6967L19.0282 17.705L19.0272 17.706L19.0194 17.7143L19.0184 17.7153L19.0105 17.7235L19.0095 17.7246L19.0017 17.7329L19.0006 17.7339L18.9924 17.7422L18.9914 17.7433L18.9835 17.7515L18.9825 17.7525L18.9747 17.7603L18.9737 17.7614L18.9654 17.7695L18.9638 17.7706L18.9555 17.7789L18.9545 17.7799L18.9462 17.7877L18.9451 17.7887L18.9368 17.797L18.9358 17.798L18.9275 17.8058L18.9265 17.8068L18.9182 17.8145L18.9171 17.8156L18.9088 17.8234L18.9077 17.8244L18.8995 17.8322L18.8985 17.8332L18.8901 17.8409L18.8891 17.842L18.8807 17.8497L18.8797 17.8507L18.8709 17.8585L18.8699 17.859L18.8615 17.8667L18.8605 17.8678L18.8517 17.8755L18.8506 17.8766L18.8418 17.8844L18.8408 17.8849L18.832 17.8926L18.8309 17.8936L18.8221 17.9009L18.8205 17.9019L18.8117 17.9092L18.8107 17.9102L18.8019 17.9179L18.8008 17.919L18.792 17.9267L18.791 17.9277L18.7822 17.9355L18.7811 17.9365L18.7723 17.9438L18.7713 17.9448L18.7619 17.9521L18.7609 17.9525L18.752 17.9598L18.751 17.9608L18.7422 17.9681L18.7406 17.9691L18.7318 17.9764L18.7307 17.9774L18.7219 17.9846L18.7209 17.9856L18.7121 17.9929L18.711 17.9939L18.7017 18.0012L18.7006 18.0022L18.6918 18.0089L18.6908 18.01L18.6815 18.0172L18.6804 18.0182L18.6711 18.0255L18.67 18.0265L18.6607 18.0337L18.6596 18.0347L18.6503 18.042L18.6493 18.0425L18.6399 18.0493L18.6389 18.0497L18.6295 18.0565L18.6285 18.057L18.6192 18.0637L18.6176 18.0643L18.6083 18.0709L18.6072 18.072L18.5979 18.0787L18.5968 18.0797L18.5875 18.0865L18.5865 18.0875L18.5771 18.0942L18.5755 18.0953L18.5662 18.102L18.5652 18.1025L18.5553 18.1092L18.5537 18.1097L18.5439 18.1165L18.5428 18.1175L18.533 18.1242L18.5319 18.1252L18.5221 18.1315L18.5211 18.1325L18.5112 18.1392L18.5102 18.1402L18.5008 18.1469L18.4993 18.148L18.4894 18.1542L18.4884 18.1547L18.4785 18.1609L18.4769 18.1615L18.4671 18.1676L18.466 18.1686L18.4562 18.1748L18.4551 18.1759L18.4453 18.1821L18.4443 18.1826L18.4344 18.1888L18.4328 18.1894L18.4229 18.1955L18.4219 18.1965L18.4121 18.2027L18.4105 18.2033L18.4006 18.2095L18.3991 18.2105L18.3892 18.2167L18.3876 18.2177L18.3773 18.224L18.3763 18.225L18.3664 18.2306L18.3648 18.2312L18.3549 18.2369L18.3539 18.2379L18.3435 18.2441L18.342 18.2452L18.3315 18.2508L18.3305 18.2519L18.3207 18.2575L18.3191 18.2581L18.3087 18.2637L18.3072 18.2643L18.2968 18.27L18.2958 18.2705L18.2859 18.2762L12.2677 21.6159L12.2579 21.6216L12.2564 21.6222L12.2465 21.6278L12.2449 21.6288L12.2351 21.634L12.2335 21.6345L12.2236 21.6397L12.2226 21.6403L12.2127 21.6454L12.2112 21.6459L12.2014 21.6511L12.1997 21.6516L12.1899 21.6567L12.1884 21.6573L12.1785 21.6625L12.1775 21.663L12.1675 21.6682L12.1665 21.6686L12.1566 21.6733L12.1556 21.6738L12.1453 21.679L12.1442 21.68L12.1344 21.6852L12.1334 21.6857L12.1235 21.6904L12.1225 21.6909L12.1125 21.6955L12.1115 21.6961L12.1016 21.7012L12.1006 21.7017L12.0903 21.7064L12.0892 21.7069L12.0794 21.7115L12.0783 21.7121L12.0679 21.7167L12.0669 21.7173L12.057 21.7219L12.056 21.7225L12.0461 21.7271L12.0445 21.7281L12.0342 21.7327L12.0332 21.7333L12.0227 21.7374L12.0217 21.7379L12.0114 21.7425L12.0103 21.7436L11.9999 21.7483L11.9984 21.7488L11.9885 21.7529L11.9875 21.7535L11.9771 21.7581L11.976 21.7586L11.9656 21.7627L11.9646 21.7633L11.9543 21.7674L11.9532 21.7679L11.9428 21.772L11.9413 21.7725L11.9309 21.7767L11.9294 21.7772L11.9189 21.7814L11.9174 21.7818L11.9075 21.786L11.9065 21.7865L11.8961 21.7901L11.8951 21.7906L11.8847 21.7948L11.8831 21.7953L11.8727 21.7995L11.8712 21.8L11.8608 21.8041L11.8593 21.8046L11.8489 21.8082L11.8473 21.8087L11.8369 21.8129L11.8354 21.8134L11.825 21.817L11.8239 21.8175L11.8135 21.8212L11.812 21.8216L11.8016 21.8253L11.8001 21.8258L11.7897 21.8295L11.7881 21.8299L11.7777 21.8335L11.7767 21.8341L11.7664 21.8377L11.7559 21.8413L11.7544 21.8418L11.7435 21.8449L11.7419 21.8455L11.7315 21.8485L11.7305 21.8491L11.7202 21.8526L11.7191 21.8532L11.7082 21.8563L11.7066 21.8568L11.6963 21.8599L11.6947 21.8605L11.6844 21.8635L11.6827 21.8641L11.6718 21.8676L11.6698 21.8682L11.649 21.8744L11.6465 21.8755L11.6252 21.8816L11.6225 21.8822L11.6013 21.8884L11.5986 21.8889L11.5774 21.8945L11.5748 21.8955L11.5535 21.9013L11.5509 21.9018L11.5296 21.9075L11.5265 21.908L11.5053 21.9132L11.5026 21.9136L11.4814 21.9188L11.4783 21.9194L11.457 21.9245L11.4544 21.9251L11.4331 21.9297L11.4305 21.9302L11.4087 21.9349L11.4055 21.9354L11.3838 21.94L11.3812 21.9405L11.3594 21.9447L11.3568 21.9452L11.3355 21.9488L11.3329 21.9494L11.3116 21.9535L11.309 21.954L11.2873 21.9576L11.2846 21.9581L11.2628 21.9617L11.2603 21.9623L11.2385 21.9654L11.2358 21.9659L11.214 21.969L11.2115 21.9695L11.1896 21.9726L11.1871 21.9731L11.1653 21.9762L11.1621 21.9767L11.1404 21.9794L11.1377 21.9798L11.1159 21.9825L11.1134 21.9829L11.0915 21.9855L11.0697 21.9876H11.0672L11.0454 21.9892L11.0427 21.9896L11.0209 21.9912H11.0184L10.9965 21.9927H10.9939L10.9722 21.9943L10.969 21.9948L10.9473 21.9964H10.9446L10.9228 21.9975H10.9203L10.8985 21.9985H10.8954L10.8735 21.999H10.8709L10.8491 21.9995H10.8465L10.8247 22H10.7479L10.7261 21.9995L10.7043 21.999H10.7012L10.6794 21.9985L10.6571 21.9975L10.6545 21.9969L10.6327 21.9959H10.6301L10.6084 21.9948L10.6057 21.9943L10.5839 21.9933H10.5814L10.5595 21.9917L10.5569 21.9912L10.5352 21.9892L10.532 21.9886L10.5102 21.9865L10.5071 21.986L10.4853 21.984L10.4827 21.9835L10.4609 21.9814H10.4584L10.4365 21.9794L10.4339 21.9788L10.4121 21.9762H10.409L10.3872 21.9736L10.3841 21.9731L10.3623 21.97L10.3597 21.9695L10.3379 21.9664L10.3353 21.9659L10.3135 21.9628L10.3109 21.9623L10.2891 21.9592L10.2865 21.9586L10.2652 21.955H10.2636L10.2419 21.9509L10.2391 21.9504L10.2178 21.9463L10.2152 21.9457L10.1939 21.9415L10.1913 21.9411L10.17 21.9369L10.1669 21.9365L10.1453 21.9323L10.1427 21.9317L10.1215 21.9271L10.1184 21.9261L10.097 21.9215L10.0945 21.9209L10.0732 21.9157L10.0703 21.9147L10.049 21.9095L10.0464 21.9085L10.0251 21.9028L10.0225 21.9023L10.0012 21.8966L9.99864 21.8955L9.97736 21.8899L9.97473 21.8889L9.95346 21.8832L9.95091 21.8822L9.92955 21.8759L9.92646 21.8749L9.90518 21.8687L9.90264 21.8676L9.88127 21.8615L9.87873 21.8605L9.85746 21.8543L9.85482 21.8537L9.83418 21.847L9.83209 21.8465L9.82118 21.8428H9.81982L9.80946 21.8397L9.80791 21.8393L9.79746 21.8356L9.79591 21.8351L9.78555 21.8315L9.784 21.831L9.77364 21.8274L9.77209 21.8268L9.76164 21.8232L9.76009 21.8227L9.74973 21.8191L9.74873 21.8185L9.73827 21.8149L9.73727 21.8145L9.72691 21.8108L9.72582 21.8103L9.71546 21.8062L9.71391 21.8056L9.70355 21.8015L9.702 21.801L9.69164 21.7968L9.69055 21.7964L9.68018 21.7922L9.67864 21.7917L9.66827 21.7875L9.66718 21.787L9.65682 21.7829L9.65527 21.7824L9.64491 21.7783L9.64382 21.7777L9.63346 21.7736L9.63246 21.7731L9.622 21.7689L9.62045 21.7685L9.61009 21.7643L9.60855 21.7637L9.59818 21.7596L9.59664 21.7591L9.58618 21.755L9.58464 21.7545L9.57427 21.7504L9.57327 21.7498L9.56282 21.7452L9.56127 21.7446L9.55145 21.74L9.55036 21.7395L9.54 21.7348L9.539 21.7343L9.52864 21.7296L9.52755 21.7292L9.51718 21.725L9.51564 21.7245L9.50573 21.7198L9.50418 21.7193L9.49382 21.7146L9.49227 21.7142L9.48236 21.7095L9.48136 21.7085L9.47155 21.7038L9.47046 21.7033L9.46064 21.6986L9.45955 21.6981L9.44918 21.6935L9.44818 21.6925L9.43773 21.6873L9.43673 21.6863L9.42691 21.6815L9.42527 21.6811L9.41491 21.6765L9.41391 21.6754L9.404 21.6702L9.40246 21.6697L9.39209 21.6645L9.39109 21.664L9.38118 21.6588L9.37964 21.6584L9.36973 21.6532L9.36873 21.6526L9.35891 21.6475L9.35727 21.6465L9.34746 21.6413L9.34636 21.6407L9.33655 21.6355L9.33555 21.6351L9.32564 21.6299L9.32409 21.6288L9.31418 21.6237L9.31318 21.6232L9.30336 21.6175L9.30173 21.6165L9.29191 21.6113L9.29036 21.6107L9.28046 21.6056L9.27891 21.6051L9.26906 21.5999L9.26751 21.5994L9.25765 21.5937L9.25609 21.5932L9.24675 21.5875L9.24519 21.587L9.23585 21.5813L3.79543 18.4188L3.78349 18.4116L3.78245 18.4111L3.77103 18.4044L3.76947 18.4038L3.75754 18.3971L3.75597 18.3966L3.74455 18.3894L3.74352 18.3888L3.7321 18.3816L3.73106 18.3805L3.71965 18.3734L3.7186 18.3723L3.70718 18.3651L3.70563 18.3645L3.69421 18.3578L3.69265 18.3568L3.68123 18.3495L3.68019 18.3485L3.66877 18.3413H3.67142L3.66 18.3341L3.65845 18.333L3.64703 18.3258L3.64598 18.3247L3.63456 18.3175L3.63311 18.3165L3.62169 18.3087L3.62014 18.3077L3.60872 18.2999L3.60768 18.2989L3.59625 18.2916L3.59522 18.2906L3.5838 18.2829L3.58276 18.2818L3.57135 18.2741L3.5703 18.2731L3.5594 18.2653L3.55785 18.2643L3.54668 18.2565L3.54565 18.2555L3.53475 18.2477L3.53345 18.2467L3.52255 18.2389L3.52115 18.2379L3.51025 18.2302L3.50921 18.2296L3.49831 18.2219L3.49727 18.2208L3.48653 18.2131L3.48549 18.2121L3.47479 18.2043L3.47324 18.2038L3.46234 18.196L3.4613 18.195L3.4504 18.1867L3.44936 18.1857L3.43846 18.1779L3.43711 18.1769L3.42621 18.1686L3.42486 18.1676L3.41448 18.1594L3.41344 18.1583L3.40305 18.15L3.40202 18.1495L3.39164 18.1413L3.3906 18.1402L3.38022 18.1319L3.37918 18.1309L3.3688 18.1226L3.36776 18.1216L3.35738 18.1134L3.35635 18.1123L3.34596 18.104L3.34492 18.103L3.33454 18.0947L3.3335 18.0937L3.32312 18.0849L3.32208 18.0844L3.3117 18.0761L3.31066 18.0751L3.30059 18.0668L3.29955 18.0658L3.28917 18.057L3.28814 18.056L3.27775 18.0477L3.27672 18.0466L3.26634 18.0379L3.2653 18.0374L3.25512 18.0291L3.25408 18.0281L3.24422 18.0198L3.24318 18.0187L3.23332 18.01L3.23228 18.0089L3.22242 18.0001L3.22138 17.9991L3.21152 17.9903L3.21048 17.9893L3.20062 17.9805L3.19958 17.9795L3.18972 17.9706L3.18868 17.9696L3.17882 17.9604L3.17778 17.9598L3.16792 17.951L3.16636 17.95L3.15675 17.9407L3.15572 17.9396L3.14585 17.9309L3.14482 17.9298L3.13516 17.9205L3.13413 17.9195L3.12478 17.9102L3.12375 17.9092L3.1144 17.8998L3.11336 17.8988L3.1035 17.8895L3.10246 17.8885L3.0926 17.8792L3.09156 17.8786L3.08222 17.8694L3.08118 17.8684L3.07184 17.859L3.0708 17.858L3.06145 17.8486L3.06042 17.8476L3.05107 17.8384L3.05004 17.8373L3.04069 17.828L3.03965 17.827L3.03031 17.8176L3.02927 17.8166L3.02045 17.8074L3.01941 17.8063L3.01006 17.797L3.00903 17.7959L2.99968 17.7861L2.99865 17.7851L2.98983 17.7753L2.98878 17.7743L2.97996 17.7645L2.97892 17.7634L2.96958 17.7535L2.96855 17.7525L2.95972 17.7427L2.95868 17.7416L2.94985 17.7318L2.94882 17.7308L2.93999 17.721L2.93895 17.72L2.93013 17.7102L2.92909 17.7091L2.92026 17.6993L2.91975 17.6983L2.91145 17.6885L2.91041 17.6874L2.90158 17.6775L2.90055 17.6765L2.8912 17.6662L2.89016 17.6652L2.88134 17.6554L2.8803 17.6544L2.87147 17.644L2.87044 17.6429L2.86213 17.6331L2.86161 17.6321L2.85331 17.6223L2.85227 17.6213L2.84396 17.6109L2.84293 17.6099L2.8341 17.5995L2.83306 17.5985L2.82475 17.5886L2.82372 17.5876L2.81489 17.5778L2.81385 17.5768L2.80555 17.567L2.80451 17.5659L2.79621 17.5556L2.79517 17.5545L2.78686 17.5442L2.78583 17.5432L2.77752 17.5328L2.77648 17.5318L2.76818 17.5215L2.76714 17.5205L2.75884 17.5101L2.75832 17.5091L2.75053 17.4987L2.74949 17.4977L2.74171 17.4874L2.74119 17.4864L2.7334 17.476L2.73236 17.4749L2.72457 17.4641L2.72354 17.4631L2.71575 17.4527L2.71472 17.4517L2.70693 17.4414L2.70641 17.4404L2.69862 17.4295L2.6981 17.4285L2.69032 17.4175L2.6898 17.4165L2.68201 17.4062L2.68149 17.4052L2.67371 17.3948L2.67267 17.3938L2.66488 17.3829L2.66385 17.3819L2.65605 17.3711L2.65502 17.3695L2.64775 17.3586L2.64672 17.3576L2.63945 17.3467L2.63841 17.3457L2.63115 17.3349L2.6301 17.3338L2.62284 17.323L2.62232 17.3219L2.61505 17.3111L2.61401 17.3095L2.60675 17.2987L2.60571 17.2976L2.59845 17.2868L2.5974 17.2857L2.59014 17.2749L2.5891 17.2739L2.58183 17.263L2.58079 17.262L2.57405 17.2511L2.57353 17.2501L2.56678 17.2393L2.56574 17.2377L2.55847 17.2268L2.55744 17.2253L2.55016 17.2145L2.54965 17.2134L2.54238 17.202L2.54186 17.2005L2.53512 17.1896L2.53407 17.1885L2.52733 17.1777L2.52629 17.1767L2.51955 17.1654L2.5185 17.1637L2.51175 17.1529L2.51124 17.1519L2.50449 17.1405L2.50397 17.1395L2.49722 17.1286L2.49618 17.1271L2.48944 17.1157L2.4884 17.1142L2.48165 17.1028L2.48061 17.1012L2.47438 17.0898L2.47335 17.0888L2.4666 17.0775L2.46607 17.0765L2.45985 17.065L2.45933 17.064L2.4531 17.0526L2.45258 17.0511L2.44635 17.0397L2.44532 17.0382L2.43908 17.0268L2.43856 17.0253L2.43234 17.0134L2.43182 17.0123L2.42559 17.0009L2.42507 16.9994L2.41885 16.988L2.41832 16.9865L2.41209 16.9751L2.41157 16.9735L2.40586 16.9616L2.40535 16.9606L2.39912 16.9487L2.3986 16.9472L2.39237 16.9353L2.39133 16.9343L2.38562 16.9224L2.3851 16.9214L2.37939 16.91L2.37887 16.9085L2.37316 16.8965L2.36745 16.8852L2.36642 16.8836L2.36071 16.8717L2.36018 16.8702L2.35447 16.8588L2.35395 16.8573L2.34825 16.8454L2.34773 16.8444L2.34202 16.8325L2.3415 16.8314L2.33631 16.8195L2.33579 16.8185L2.33008 16.8065L2.32956 16.8055L2.32385 16.7936L2.32333 16.7926L2.31762 16.7807L2.3171 16.7792L2.31191 16.7673L2.31139 16.7663L2.30568 16.7544L2.30516 16.7528L2.29945 16.7409L2.29894 16.7399L2.29375 16.728L2.29323 16.727L2.28804 16.7151L2.28752 16.7135L2.28233 16.7016L2.28181 16.7006L2.27714 16.6887L2.27662 16.6877L2.27143 16.6758L2.27091 16.6743L2.26624 16.6618L2.26572 16.6608L2.26053 16.6489L2.26 16.6474L2.25534 16.636L2.25482 16.6345L2.24963 16.6221L2.2491 16.621L2.24444 16.6086L2.24391 16.6071L2.23925 16.5946L2.23872 16.5936L2.23405 16.5812L2.23353 16.5796L2.22886 16.5673L2.22834 16.5662L2.22367 16.5538L2.22315 16.5528L2.219 16.5404L2.21848 16.5388L2.21381 16.5265L2.21329 16.5254L2.20914 16.513L2.20862 16.5115L2.20446 16.499L2.20395 16.4975L2.19927 16.4851L2.19875 16.4835L2.1946 16.4711L2.19408 16.4701L2.18993 16.4576L2.18941 16.4566L2.18525 16.4443L2.18474 16.4426L2.18058 16.4303L2.18006 16.4287L2.17592 16.4163L2.17539 16.4147L2.17125 16.4024L2.17073 16.4008L2.16657 16.3884L2.1661 16.3869L2.16247 16.3745L2.16195 16.3735L2.1578 16.3605L2.15728 16.359L2.15365 16.3461L2.15313 16.3445L2.14949 16.3321L2.14897 16.3305L2.14534 16.3182L2.14482 16.3166L2.14119 16.3036L2.14067 16.3021L2.13704 16.2892L2.13652 16.2882L2.13288 16.2753L2.12873 16.2618L2.12821 16.2608L2.1251 16.2484L2.12458 16.2474L2.12146 16.2349V16.2339L2.11783 16.221V16.2195L2.11472 16.207L2.1142 16.2055L2.11108 16.1931L2.11056 16.1915L2.10745 16.1785L2.10485 16.1656L2.10434 16.1646L2.10122 16.1517L2.1007 16.1506L2.09758 16.1377L2.09706 16.1367L2.09395 16.1238L2.09135 16.1104L2.09084 16.1088L2.08773 16.0959L2.0872 16.0944L2.08461 16.0814L2.08409 16.0798L2.08097 16.0669L2.08045 16.0659L2.07786 16.053L2.07735 16.0515L2.07475 16.0385L2.07423 16.0369L2.07164 16.024L2.06904 16.0111V16.0095L2.06645 15.9961V15.9945L2.06385 15.9816L2.06333 15.9801L2.06021 15.9677V15.9662L2.05762 15.9522L2.0571 15.9506L2.0545 15.9372L2.05398 15.9356L2.05191 15.9227L2.05139 15.9212L2.04931 15.9083V15.9067L2.04724 15.8937V15.8922L2.04516 15.8793L2.04464 15.8777L2.04256 15.8648L2.04049 15.8525V15.8514L2.03841 15.8385V15.8369L2.03634 15.824V15.8225L2.03425 15.8095V15.8085L2.0327 15.795V15.7935L2.03115 15.7805V15.7795L2.02907 15.7661L2.02855 15.7645L2.02699 15.7516V15.7501L2.02544 15.7366L2.02492 15.7351L2.02335 15.7216V15.7201L2.0218 15.7066L2.02128 15.7051L2.01973 15.6916V15.6901L2.01816 15.6766L2.01765 15.6756L2.01609 15.6622L2.01505 15.6487V15.6472L2.0135 15.6337L2.01297 15.6322L2.01142 15.6188V15.6172L2.01038 15.6038L2.00986 15.6023L2.00883 15.5888V15.5873L2.00778 15.5738V15.5723L2.00675 15.5588L2.00571 15.5454V15.5438L2.00467 15.5304V15.5288L2.00364 15.5154V15.4987L2.00312 15.4853V15.4837L2.00259 15.4703V15.4687L2.00207 15.4553L2.00155 15.4537L2.00104 15.4403V15.4258L2.00052 15.4124V15.4108L2 15.3974V8.85327L2.00052 8.84035V8.82381L2.00104 8.81037V8.76281L2.00155 8.74937V8.74834L2.00207 8.7349V8.73335L2.00259 8.71991V8.71835L2.00312 8.70492V8.70388L2.00364 8.69045V8.68889L2.00415 8.67546V8.6739L2.00519 8.65995V8.6584L2.00623 8.64495V8.64393L2.00675 8.63048V8.62894L2.00778 8.61549V8.61395L2.00831 8.6005V8.59895L2.00883 8.58551V8.58396L2.00986 8.57052V8.56897L2.0109 8.55553V8.55398L2.01245 8.54054V8.53899L2.0135 8.52555L2.01402 8.52452L2.01505 8.51107V8.51005L2.01661 8.4966V8.49557L2.01816 8.48213L2.01869 8.48058L2.02025 8.46714V8.46559L2.0218 8.45215V8.45112L2.02335 8.43767V8.43665L2.02492 8.4232L2.02544 8.42165L2.02699 8.40821V8.40666L2.02855 8.39374V8.39218L2.03011 8.37875V8.37719L2.03166 8.36375L2.03218 8.36221L2.03374 8.34928V8.34774L2.03582 8.33429V8.33275L2.03737 8.3193L2.03789 8.31775L2.03945 8.30483L2.03997 8.30328L2.04205 8.28984L2.04256 8.2888L2.04464 8.27536V8.27433L2.04672 8.26089V8.25985L2.04879 8.24694L2.04931 8.24538L2.05139 8.23246V8.23091L2.05502 8.21747L2.05555 8.21592L2.05762 8.203V8.20145L2.06021 8.18853V8.18749L2.06281 8.17456V8.17354L2.0654 8.16009L2.06592 8.15905L2.06852 8.14614L2.06904 8.1451L2.07164 8.13218L2.07215 8.13063L2.07475 8.11771L2.07526 8.11615L2.07786 8.10324V8.10168L2.08045 8.08875V8.08773L2.08305 8.0748L2.08357 8.07377L2.08616 8.06085L2.08668 8.05981L2.0898 8.04689V8.04534L2.09292 8.03242L2.09344 8.03086L2.09603 8.01795L2.09655 8.01639L2.09966 8.00347V8.00192L2.10277 7.98899L2.1033 7.98745L2.10641 7.97452V7.97297L2.10953 7.96005L2.11005 7.95902L2.11315 7.94609V7.94505L2.11627 7.93214L2.11679 7.93058L2.12043 7.91766V7.91663L2.12405 7.9037V7.90267L2.12769 7.88975L2.12821 7.8882L2.13185 7.87527V7.87373L2.13548 7.8608L2.136 7.85925L2.13963 7.84685L2.14015 7.84581L2.14378 7.83289L2.1443 7.83159L2.14794 7.81867L2.14845 7.81712L2.15209 7.80451L2.15261 7.80347L2.15676 7.79055L2.15728 7.78952L2.16091 7.77711L2.16144 7.77608L2.16506 7.76352L2.16558 7.76248L2.16922 7.74966L2.16974 7.74812L2.17389 7.7355L2.17441 7.73395L2.17856 7.72155V7.72051L2.18272 7.7081V7.70655L2.18686 7.69415L2.18738 7.69312L2.19154 7.68071L2.19205 7.67915L2.19621 7.66675L2.19673 7.6652L2.20088 7.65279L2.2014 7.65125L2.20555 7.63884L2.20607 7.6378L2.21075 7.6254L2.21126 7.62436L2.21542 7.61195L2.21594 7.61066L2.22009 7.59826L2.22061 7.59723L2.22528 7.58482L2.2258 7.58379L2.23047 7.57138V7.57035L2.23514 7.55795L2.23566 7.55691L2.24033 7.5445L2.24085 7.54295L2.24552 7.53055L2.24605 7.52951L2.25071 7.51711L2.25124 7.51555L2.25643 7.50366L2.25695 7.50264L2.26214 7.49023L2.26265 7.48919L2.26785 7.47679L2.26836 7.47524L2.27355 7.46283L2.27407 7.46128L2.27926 7.44887L2.27978 7.44732L2.28497 7.43492L2.28549 7.43336L2.29068 7.42096L2.2912 7.41941L2.29639 7.407L2.29691 7.40571L2.3021 7.39382L2.30262 7.39227L2.30781 7.38038L2.30833 7.37884L2.31352 7.36643L2.31404 7.36539L2.31975 7.35298L2.32027 7.35195L2.32598 7.34006L2.3265 7.33903L2.33169 7.32714L2.33221 7.32559L2.33792 7.3137L2.33844 7.31266L2.34415 7.30078L2.34466 7.29975L2.35037 7.28785L2.35089 7.28682L2.3566 7.27494L2.35713 7.27338L2.36284 7.26149L2.36335 7.26045L2.36906 7.24857L2.36958 7.24702L2.37529 7.23513L2.37581 7.2341L2.38152 7.22221L2.38204 7.22117L2.38775 7.20928L2.38826 7.20825L2.39398 7.19636L2.3945 7.19533L2.40073 7.18395L2.40125 7.18292L2.40747 7.17104L2.40851 7.16948L2.41474 7.15759L2.41526 7.15656L2.42149 7.14467L2.42201 7.14312L2.42824 7.13175L2.42875 7.13072L2.43498 7.11935L2.4355 7.11831L2.44174 7.10694L2.44225 7.10538L2.44848 7.09401L2.44952 7.09298L2.45575 7.08161L2.45626 7.08005L2.46249 7.06868L2.46354 7.06765L2.46976 7.05628L2.47028 7.05525L2.47651 7.04387L2.47755 7.04232L2.4843 7.03095L2.48482 7.02992L2.49105 7.01855L2.49156 7.01751L2.49831 7.00614L2.49883 7.0051L2.50558 6.99374L2.5061 6.9927L2.51285 6.98133L2.51388 6.98029L2.52063 6.96892L2.52115 6.96789L2.5279 6.95652L2.52894 6.95548L2.53568 6.94411L2.5362 6.94307L2.54295 6.9317L2.54399 6.93067L2.55074 6.9193L2.55125 6.91826L2.55853 6.90689L2.55956 6.90534L2.56683 6.89397L2.56735 6.89294L2.5741 6.88208L2.57514 6.88105L2.5824 6.87019L2.58344 6.86915L2.59019 6.85778L2.59071 6.85675L2.59797 6.84589L2.59849 6.84486L2.60576 6.83401L2.6068 6.83297L2.61406 6.8216L2.6151 6.82056L2.62237 6.80971L2.62289 6.80816L2.63015 6.79731L2.63067 6.79627L2.63795 6.78542L2.63846 6.78438L2.64625 6.77353L2.64728 6.77249L2.65455 6.76164L2.65559 6.76061L2.66337 6.74975L2.6639 6.74872L2.67168 6.73786L2.6722 6.73683L2.67999 6.72597L2.68051 6.72494L2.68829 6.71408L2.68933 6.71305L2.69712 6.70219L2.69764 6.70116L2.70542 6.69031L2.70646 6.68927L2.71425 6.67894L2.71476 6.6779L2.72255 6.66705L2.72359 6.66601L2.73137 6.65567L2.73242 6.65464L2.7402 6.6443L2.74124 6.64326L2.74903 6.63293L2.75006 6.63189L2.75785 6.62155L2.75836 6.62052L2.76615 6.61018L2.76719 6.60915L2.7755 6.59881L2.77654 6.59778L2.78484 6.58744L2.78588 6.58641L2.79418 6.57606L2.79522 6.57504L2.80353 6.56469L2.80456 6.56366L2.81287 6.55333L2.81391 6.55177L2.82222 6.54144L2.82274 6.5404L2.83104 6.53006L2.83207 6.52903L2.84038 6.51869L2.84142 6.51765L2.84973 6.50784L2.85076 6.5068L2.85907 6.49646L2.86011 6.49543L2.86841 6.48509L2.86945 6.48405L2.87827 6.47424L2.87931 6.4732L2.88762 6.46286L2.88865 6.46183L2.89696 6.45201L2.898 6.45097L2.9063 6.44064L2.90735 6.4396L2.91616 6.42926L2.91668 6.42823L2.92551 6.41841L2.92655 6.41737L2.93537 6.40755L2.93641 6.40652L2.94524 6.3967L2.94627 6.39566L2.9551 6.38585L2.95562 6.38481L2.96444 6.37499L2.96548 6.37395L2.9743 6.36414L2.97535 6.3631L2.98416 6.35328L2.98468 6.35225L2.99351 6.34243L2.99455 6.34139L3.00389 6.33156L3.00441 6.33054L3.01375 6.32071L3.01479 6.31968L3.02465 6.31037L3.02569 6.30934L3.03504 6.29952L3.03607 6.29848L3.04542 6.28866L3.04645 6.28763L3.0558 6.27833L3.05684 6.27729L3.06618 6.26799L3.06722 6.26695L3.07656 6.25765L3.0776 6.25662L3.08746 6.24731L3.0885 6.24628L3.09785 6.23697L3.09888 6.23594L3.10823 6.22664L3.10926 6.2256L3.11861 6.2163L3.11965 6.21526L3.12899 6.20595L3.13003 6.20493L3.13937 6.19562L3.14041 6.19458L3.14975 6.18528L3.15079 6.18425L3.16013 6.17495L3.16117 6.17391L3.17104 6.16512L3.17207 6.16409L3.18194 6.1553L3.18297 6.15426L3.19284 6.14496L3.19387 6.14393L3.20374 6.13463L3.20477 6.13411L3.21464 6.12532L3.21567 6.1248L3.22554 6.11602L3.22657 6.11498L3.23644 6.10619L3.23747 6.10516L3.24734 6.09637L3.24837 6.09534L3.25824 6.08655L3.25927 6.08604L3.26965 6.07725L3.27069 6.07621L3.28107 6.06743L3.28212 6.06639L3.2925 6.0576L3.29354 6.05657L3.30392 6.0483L3.30495 6.04726L3.31534 6.039L3.31637 6.03796L3.32624 6.02969L3.32727 6.02865L3.33765 6.02039L3.33869 6.01935L3.34907 6.01108L3.35011 6.01056L3.36049 6.00229L3.36154 6.00126L3.37192 5.99299L3.37295 5.99195L3.38334 5.98368L3.38437 5.98265L3.39527 5.97438L3.39631 5.97335L3.40669 5.96508L3.40773 5.96405L3.41863 5.95577L3.41967 5.95474L3.43057 5.94647L3.43161 5.94544L3.44199 5.93716L3.44303 5.93665L3.45393 5.92837L3.45496 5.92735L3.46535 5.91907L3.46638 5.91804L3.47728 5.91028L3.47833 5.90925L3.48923 5.90098L3.49026 5.89995L3.50116 5.89219L3.5022 5.89167L3.5131 5.88392L3.51466 5.88289L3.52556 5.87514L3.5266 5.87462L3.5375 5.86686L3.53854 5.86583L3.54944 5.85756L3.55047 5.85705L3.56189 5.84929L3.56294 5.84825L3.57384 5.8405L3.57539 5.83998L3.58629 5.83223L3.58733 5.83172L3.59823 5.82396L3.59927 5.82345L3.61069 5.81569L3.61173 5.81465L3.62263 5.8069L3.62366 5.80638L3.63508 5.79915L3.63613 5.79863L3.64703 5.79088L3.64858 5.78985L3.66 5.78261L3.66104 5.78157L3.67245 5.77382L3.6735 5.77278L3.68492 5.76555L3.68647 5.76504L3.69789 5.75779L3.69893 5.75676L3.71035 5.74953L3.71139 5.74901L3.72281 5.74177L3.72385 5.74125L3.73526 5.73402L3.7363 5.7335L3.74773 5.72626L3.74928 5.72575L3.7607 5.71903L8.97844 2.51417L8.98986 2.50694L8.99089 2.50642L9.00232 2.49918L9.00387 2.49815L9.01529 2.49143L9.01685 2.49039L9.02827 2.48367L9.02983 2.48264L9.04125 2.47592L9.0428 2.4754L9.05475 2.46868L9.05578 2.46765L9.0672 2.46093L9.06876 2.46041L9.08017 2.45369L9.08122 2.45317L9.09316 2.44697L9.09419 2.44594L9.10613 2.43974L9.10716 2.4387L9.11859 2.4325L9.12015 2.43198L9.13208 2.42578L9.13312 2.42475L9.14455 2.41855L9.1461 2.41751L9.15752 2.41131L9.15907 2.41027L9.17049 2.40407L9.17154 2.40304L9.18347 2.39684L9.18451 2.39632L9.19593 2.39011L9.19749 2.3896L9.20891 2.38339L9.21046 2.38287L9.2224 2.37667L9.22396 2.37615L9.2359 2.36995L9.23694 2.36944L9.24887 2.36375L9.25044 2.36324L9.26237 2.35755L9.26393 2.35703L9.27536 2.35135L9.27691 2.35083L9.28882 2.34515L9.28991 2.34463L9.30182 2.33894L9.30336 2.33842L9.31527 2.33274L9.31691 2.3317L9.32882 2.32602L9.33036 2.3255L9.34227 2.31981L9.34391 2.3193L9.35582 2.31413L9.35736 2.31361L9.36927 2.30845L9.37036 2.30741L9.38227 2.30224L9.38327 2.30172L9.39527 2.29655L9.39682 2.29552L9.40873 2.29035L9.41027 2.28984L9.42227 2.28466L9.42382 2.28415L9.43573 2.27898L9.43727 2.27846L9.44927 2.27329L9.45082 2.27277L9.46273 2.26761L9.46427 2.26709L9.47627 2.26244L9.47782 2.26192L9.48973 2.25675L9.49127 2.25624L9.50373 2.25106L9.50527 2.25055L9.51773 2.24538L9.51927 2.24435L9.53127 2.23969L9.53227 2.23917L9.54473 2.23453L9.54627 2.23401L9.55827 2.22935L9.55927 2.22884L9.57173 2.22418L9.57327 2.22366L9.58573 2.21954L9.58727 2.21902L9.59973 2.21436L9.60136 2.21385L9.61382 2.20919L9.61536 2.20868L9.62782 2.20455L9.62936 2.20403L9.64182 2.19989L9.64336 2.19937L9.65527 2.19524L9.65691 2.19472L9.66936 2.19058L9.67091 2.19007L9.68282 2.18594L9.68436 2.18542L9.69682 2.18128L9.69791 2.18076L9.71036 2.17663L9.71191 2.17611L9.72436 2.17197L9.72591 2.17146L9.73836 2.16733L9.73991 2.16681L9.75236 2.16319L9.75346 2.16267L9.76591 2.15905L9.76746 2.15854L9.77991 2.15492H9.78146L9.79391 2.1513L9.79546 2.15078L9.80791 2.14716L9.809 2.14665L9.82145 2.14303L9.82246 2.14251L9.83491 2.13889L9.83646 2.13838L9.84891 2.13475L9.85046 2.13425L9.86291 2.13063L9.86446 2.13011L9.877 2.12701L9.87855 2.12649L9.891 2.12339L9.892 2.12287L9.90445 2.11925L9.90573 2.11874L9.91873 2.11564H9.91973L9.93218 2.11202H9.93373L9.94655 2.10891L9.94809 2.1084L9.96109 2.10529L9.96264 2.10478L9.97509 2.10167H9.97664L9.98964 2.09857H9.99118L10.0036 2.09547L10.0052 2.09495L10.0176 2.09237L10.0193 2.09185L10.0317 2.08875L10.0333 2.08824L10.0457 2.08565H10.0473L10.0597 2.08306L10.0613 2.08255L10.0737 2.07996H10.0748L10.0873 2.07738L10.0888 2.07686L10.1017 2.07428H10.1028L10.1158 2.0717L10.1168 2.07118L10.1298 2.06859L10.1314 2.06808L10.1444 2.06549L10.1459 2.06497L10.1589 2.06291H10.1605L10.1729 2.06084L10.1745 2.06033L10.1875 2.05774L10.189 2.05722L10.2019 2.05515H10.2035L10.216 2.05309L10.2175 2.05257L10.2305 2.0505L10.2321 2.04998L10.2445 2.04792H10.2455L10.258 2.04585H10.2595L10.2725 2.04378L10.2741 2.04326L10.2871 2.0412H10.2886L10.3016 2.03913H10.3032L10.3162 2.03706H10.3177L10.3306 2.03551H10.3323L10.3447 2.03396H10.3463L10.3593 2.03241L10.3608 2.03189L10.3737 2.03035L10.3748 2.02983L10.3878 2.02879H10.3894L10.4018 2.02725H10.4034L10.4158 2.02569H10.4174L10.4304 2.02414H10.4319L10.4449 2.02259H10.4465L10.4589 2.02155H10.4605L10.4735 2.02L10.475 2.01949L10.488 2.01845L10.4895 2.01794L10.5025 2.0169H10.5041L10.5168 2.01587H10.5184L10.5314 2.01484H10.5329L10.5459 2.01432L10.5475 2.0138L10.5605 2.01276L10.5615 2.01225L10.5745 2.01174H10.576L10.589 2.0107H10.59L10.603 2.01018H10.6045L10.6175 2.00966H10.6191L10.6321 2.00915H10.6336L10.6465 2.00864L10.6482 2.00812L10.6611 2.0076H10.6626L10.6756 2.00708H10.6772L10.6902 2.00656H10.6917L10.7047 2.00605H10.7063L10.7193 2.00553H10.7203L10.7333 2.00502H10.7494L10.7624 2.0045H10.7925L10.7952 2ZM10.7833 3.39566H10.7747L10.7663 3.39576H10.7577L10.7489 3.39597L10.7401 3.39618L10.7313 3.39644L10.7225 3.39695L10.7136 3.39747L10.7048 3.39799L10.6965 3.39851L10.6877 3.39902L10.6794 3.39954L10.6711 3.40005L10.6628 3.40057L10.654 3.40109L10.6456 3.40161L10.6368 3.40265L10.628 3.40367L10.6197 3.40471L10.6109 3.40575L10.6021 3.40677L10.5932 3.40781L10.5849 3.40885L10.5761 3.40988L10.5678 3.41091L10.5595 3.41195L10.5506 3.41298L10.5424 3.41401L10.5341 3.41505L10.5257 3.41608L10.5175 3.41712L10.5086 3.41815L10.5003 3.4197L10.492 3.42074L10.4832 3.42228L10.4749 3.42384L10.4665 3.42538L10.4583 3.42694L10.45 3.42849L10.4416 3.43004L10.4334 3.43159L10.4251 3.43262L10.4162 3.43417L10.4079 3.43573L10.3991 3.43727L10.3908 3.43883L10.3825 3.44037L10.3742 3.44193L10.3659 3.44399L10.3575 3.44606L10.3493 3.44813L10.341 3.44968L10.3326 3.45123L10.3244 3.4533L10.316 3.45536L10.3077 3.45744L10.2995 3.4595L10.2911 3.46157L10.2828 3.46364L10.2745 3.4657L10.2662 3.46777L10.2579 3.46984L10.2496 3.47191L10.2413 3.47449L10.233 3.47656L10.2247 3.47915L10.2169 3.48173L10.2086 3.48431L10.2003 3.4869L10.192 3.48948L10.1836 3.49206L10.1754 3.49465L10.1675 3.49724L10.1593 3.49982L10.151 3.50292L10.1426 3.50551L10.1344 3.50809L10.1261 3.51119L10.1177 3.51377L10.1095 3.51636L10.1016 3.51895L10.0934 3.52205L10.0851 3.52515L10.0767 3.52825L10.069 3.53135L10.0606 3.53445L10.0529 3.53755L10.0451 3.54065L10.0368 3.54427L10.0285 3.54737L10.0202 3.55048L10.0118 3.55358L10.0041 3.5572L9.99627 3.5603L9.988 3.56392L9.98018 3.56754L9.97246 3.57115L9.96464 3.57477L9.95636 3.57839L9.94855 3.58201L9.94027 3.58563L9.93246 3.58925L9.92464 3.59286L9.91691 3.59648L9.90855 3.6001L9.90082 3.60372L9.893 3.60734L9.88518 3.61147L9.87746 3.61561L9.86964 3.61923L9.86182 3.62336L9.85409 3.62698L9.84627 3.63112L9.83846 3.63525L9.83073 3.63939L9.82291 3.64352L9.81509 3.64765L9.80736 3.65231L9.80009 3.65645L9.79227 3.66058L9.785 3.66472L9.77727 3.66936L9.76946 3.67402L9.76164 3.67867L9.75436 3.68281L9.74664 3.68746L9.73936 3.69211L9.73155 3.69676L9.72382 3.70142L9.71546 3.70658L4.50396 6.90524L4.49514 6.91093L4.48684 6.91609L4.47905 6.92126L4.47126 6.92643L4.46347 6.9316L4.45569 6.93677L4.4479 6.94194L4.44012 6.94711L4.43233 6.95227L4.42455 6.95745L4.41675 6.96262L4.40897 6.96778L4.40119 6.97347L4.39392 6.97864L4.38665 6.98381L4.37886 6.98897L4.3716 6.99415L4.36434 6.99932L4.35706 7.00448L4.3498 7.00965L4.34253 7.01482L4.33526 7.01999L4.328 7.02568L4.32073 7.03085L4.31346 7.03654L4.3062 7.04222L4.29893 7.04791L4.29166 7.05359L4.28439 7.05927L4.27713 7.06496L4.27038 7.07065L4.26311 7.07634L4.25585 7.08202L4.2491 7.08771L4.24183 7.09339L4.23456 7.09908L4.22782 7.10476L4.22055 7.11045L4.2138 7.11614L4.20705 7.12183L4.20031 7.12803L4.19355 7.13423L4.18681 7.13992L4.18006 7.1456L4.17331 7.1518L4.16656 7.15801L4.15982 7.16421L4.15307 7.17041L4.14632 7.17662L4.13957 7.18282L4.13283 7.18902L4.12608 7.19523L4.11933 7.20143L4.11258 7.20763L4.10584 7.21384L4.09961 7.22004L4.09285 7.22624L4.08663 7.23296L4.07988 7.23916L4.07365 7.24588L4.06742 7.25208L4.06119 7.25881L4.05496 7.26501L4.04874 7.27173L4.04251 7.27845L4.03575 7.28516L4.02953 7.29137L4.0233 7.29809L4.01707 7.30481L4.01085 7.31153L4.00514 7.31825L3.9989 7.32497L3.99267 7.33169L3.98645 7.33841L3.98022 7.34565L3.97399 7.35236L3.96828 7.35908L3.96257 7.36581L3.95634 7.37305L3.95063 7.37976L3.9444 7.38648L3.93869 7.39372L3.93298 7.40044L3.92727 7.40767L3.92156 7.41491L3.91585 7.42215L3.91015 7.42938L3.90444 7.43662L3.89872 7.44386L3.89354 7.4511L3.88782 7.45834L3.88211 7.46557L3.8764 7.47281L3.87069 7.48005L3.8655 7.48728L3.86031 7.49452L3.85512 7.50175L3.84993 7.50951L3.84474 7.51675L3.83955 7.52398L3.83435 7.53174L3.82916 7.53897L3.82397 7.54621L3.81878 7.55345L3.81359 7.56068L3.80892 7.56844L3.80374 7.57619L3.79855 7.58343L3.79335 7.59118L3.78868 7.59894L3.78401 7.60617L3.77934 7.61393L3.77466 7.62167L3.76999 7.62943L3.76532 7.63718L3.76013 7.64494L3.75494 7.65269L3.75026 7.66045L3.7456 7.6682L3.74093 7.67595L3.73625 7.68371L3.73158 7.69146L3.72691 7.69922L3.72224 7.70696L3.71756 7.71472L3.71289 7.72247L3.70822 7.73023L3.70355 7.7385L3.69888 7.74625L3.69421 7.75401L3.68954 7.76227L3.68538 7.77003L3.68123 7.7783L3.67708 7.78657L3.67293 7.79485L3.66877 7.8026L3.66462 7.81035L3.66046 7.81862L3.65632 7.82637L3.65216 7.83465L3.64853 7.8424L3.64437 7.85067L3.64023 7.85894L3.63607 7.86721L3.63192 7.87548L3.62776 7.88375L3.62414 7.89202L3.6205 7.90029L3.61686 7.90856L3.61323 7.91684L3.6096 7.9251L3.60596 7.93337L3.60233 7.94165L3.5987 7.94992L3.59506 7.95819L3.59195 7.96645L3.58832 7.97473L3.58468 7.98352L3.58105 7.99178L3.57742 8.00005L3.57378 8.00833L3.57066 8.0166L3.56704 8.02538L3.5634 8.03365L3.56028 8.04193L3.55717 8.05072L3.55405 8.05898L3.55095 8.06777L3.54783 8.07605L3.54472 8.08483L3.5416 8.09362L3.53848 8.10241L3.53589 8.11119L3.53277 8.11946L3.52966 8.12825L3.52706 8.13704L3.52447 8.14531L3.52187 8.1541L3.51876 8.16288L3.51616 8.17115L3.51357 8.17943L3.51097 8.18821L3.50786 8.197L3.50526 8.20579L3.50267 8.21405L3.50007 8.22285L3.49748 8.23164L3.49488 8.24042L3.49229 8.24921L3.48969 8.258L3.48762 8.26678L3.48554 8.27557L3.48295 8.28435L3.48086 8.29315L3.47827 8.30194L3.4762 8.31072L3.47412 8.31951L3.47205 8.32881L3.46996 8.3376L3.46789 8.34639L3.46582 8.35517L3.46374 8.36396L3.46166 8.37275L3.45958 8.38154L3.45803 8.39033L3.45595 8.39911L3.45439 8.4079L3.45284 8.41721L3.45128 8.42651L3.44973 8.43581L3.44816 8.44512L3.44661 8.45391L3.44505 8.46269L3.44349 8.472L3.44194 8.4813L3.44038 8.49009L3.43882 8.49887L3.43726 8.50766L3.43571 8.51697L3.43467 8.52627L3.43364 8.53558L3.43259 8.54436L3.43104 8.55367L3.42948 8.56246L3.42845 8.57176L3.4274 8.58106L3.42636 8.59037L3.42533 8.59967L3.42429 8.60898L3.42325 8.61828L3.42221 8.62707L3.42117 8.63637L3.42014 8.64568L3.41962 8.65498L3.41858 8.66429L3.41754 8.67359L3.41702 8.6829L3.4165 8.6922L3.41598 8.70151L3.41546 8.71081L3.41495 8.72012L3.41443 8.72942L3.41391 8.73873L3.41339 8.74803L3.41287 8.75734L3.41235 8.76664V8.77595L3.41183 8.78525L3.41131 8.79456V8.80385L3.41079 8.81316V15.3676L3.41131 15.3769V15.4048L3.41183 15.4136L3.41235 15.4229L3.41287 15.4322L3.41339 15.4415L3.41391 15.4508L3.41443 15.4601L3.41495 15.4695L3.41546 15.4787L3.41598 15.488L3.41702 15.4974L3.41754 15.5066L3.41806 15.516L3.41858 15.5253L3.41962 15.5341L3.42065 15.5434L3.42169 15.5522L3.42221 15.5615L3.42325 15.5703L3.42429 15.579L3.42533 15.5878L3.42636 15.5966L3.4274 15.6059L3.42845 15.6147L3.42948 15.6235L3.43052 15.6328L3.43155 15.6421L3.43259 15.6509L3.43364 15.6602L3.43519 15.669L3.43675 15.6777L3.4383 15.6865L3.43986 15.6954L3.44142 15.7046L3.44297 15.7135L3.44454 15.7222L3.44609 15.731L3.44765 15.7398L3.44973 15.7485L3.45128 15.7574L3.45284 15.7662L3.45439 15.7749L3.45647 15.7837L3.45855 15.7925L3.46011 15.8013L3.46218 15.8101L3.46425 15.8189L3.46634 15.8276L3.46841 15.8365L3.47048 15.8453L3.47256 15.854L3.47464 15.8628L3.47672 15.8711L3.47931 15.8794L3.48139 15.8881L3.48346 15.8969L3.48554 15.9057L3.48814 15.9145L3.49021 15.9227L3.49229 15.9315L3.49436 15.9398L3.49695 15.9486L3.49904 15.9569L3.50163 15.9656L3.50423 15.9745L3.50682 15.9827L3.50942 15.9915L3.51201 16.0003L3.51461 16.0085L3.5172 16.0174L3.52032 16.0256L3.52343 16.0339L3.52655 16.0422L3.52966 16.0505L3.53225 16.0587L3.53537 16.0675L3.53848 16.0758L3.5416 16.084L3.54472 16.0923L3.54783 16.1005L3.55095 16.1088L3.55405 16.1171L3.55717 16.1254L3.56028 16.1336L3.5634 16.1419L3.56704 16.1502L3.57066 16.1585L3.57378 16.1667L3.5769 16.175L3.58001 16.1833L3.58313 16.1915L3.58624 16.1998L3.58987 16.2081L3.59351 16.2164L3.59714 16.2246L3.60077 16.2329L3.60441 16.2412L3.60804 16.2495L3.61167 16.2577L3.61531 16.266L3.61895 16.2743L3.62257 16.2825L3.62621 16.2908L3.62985 16.2985L3.63399 16.3068L3.63815 16.3145L3.6423 16.3228L3.64645 16.3306L3.65061 16.3384L3.65475 16.3461L3.65891 16.3539L3.66306 16.3616L3.66722 16.3694L3.67189 16.3771L3.67604 16.3849L3.68019 16.3926L3.68435 16.4004L3.68902 16.4082L3.69369 16.4159L3.69784 16.4236L3.70199 16.4315L3.70615 16.4392L3.71082 16.4469L3.71497 16.4546L3.71965 16.4619L3.72432 16.4696L3.72898 16.4769L3.73365 16.4846L3.73833 16.4924L3.743 16.4996L3.74767 16.5069L3.75235 16.5141L3.75702 16.5214L3.76169 16.5291L3.76635 16.5368L3.77155 16.5441L3.77622 16.5514L3.78089 16.5591L3.78556 16.5664L3.79024 16.5735L3.79543 16.5808L3.80062 16.588L3.80581 16.5958L3.811 16.603L3.81619 16.6103L3.82138 16.6175L3.82657 16.6247L3.83176 16.632L3.83695 16.6392L3.84215 16.6465L3.84785 16.6537L3.85356 16.6609L3.85875 16.6682L3.86395 16.6754L3.86914 16.6826L3.87433 16.6899L3.88004 16.6965L3.88575 16.7033L3.89145 16.7105L3.89716 16.7173L3.90287 16.7245L3.90858 16.7312L3.91429 16.7379L3.92001 16.7446L3.92572 16.7514L3.93143 16.7581L3.93714 16.7648L3.94285 16.7715L3.94855 16.7783L3.95426 16.785L3.95997 16.7917L3.96568 16.7985L3.97191 16.8052L3.97815 16.8118L3.98385 16.8185L3.99008 16.8248L3.99631 16.8315L4.00254 16.8377L4.00876 16.8445L4.01447 16.8512L4.02071 16.8578L4.02694 16.8641L4.03316 16.8703L4.03939 16.8765L4.04562 16.8826L4.05185 16.8894L4.05808 16.8956L4.06431 16.9018L4.07054 16.908L4.07676 16.9142L4.08299 16.9205L4.08975 16.9266L4.09597 16.9328L4.1022 16.939L4.10895 16.9452L4.11517 16.9515L4.12141 16.9576L4.12815 16.9638L4.1349 16.9695L4.14165 16.9752L4.1484 16.9814L4.15515 16.9876L4.16189 16.9933L4.16865 16.999L4.17539 17.0052L4.18214 17.0114L4.18888 17.0171L4.19615 17.0227L4.20342 17.0285L4.21069 17.0341L4.21744 17.0398L4.22418 17.0455L4.23145 17.0512L4.2382 17.0569L4.24546 17.062L4.25221 17.0677L4.25948 17.0735L4.26675 17.0791L4.27402 17.0848L4.28076 17.09L4.28803 17.0956L4.2953 17.1008L4.30256 17.1065L4.30983 17.1122L4.3171 17.1174L4.32436 17.1225L4.33215 17.1277L4.33942 17.1328L4.34668 17.138L4.35395 17.1432L4.36122 17.1484L4.36848 17.1535L4.37575 17.1587L4.38354 17.1639L4.39133 17.1685L4.39911 17.1737L4.40638 17.1789L4.41416 17.184L4.42195 17.1892L4.42922 17.1938L4.437 17.1985L4.44479 17.2032L4.45257 17.2078L4.46036 17.2125L4.46815 17.2171L4.47645 17.2217L4.48424 17.2265L4.49203 17.2311L4.50085 17.2363L9.93455 20.3997L9.94127 20.4039L9.947 20.407L9.95318 20.4101L9.95946 20.4132L9.96564 20.4163L9.97136 20.4199L9.97764 20.423L9.98382 20.4261L9.99009 20.4292L9.99627 20.4328L10.0025 20.4359L10.0087 20.439L10.015 20.4421L10.0212 20.4453L10.0275 20.4484L10.0336 20.4515L10.0399 20.4545L10.0461 20.4576L10.0518 20.4607L10.0581 20.4638L10.0643 20.4669L10.0705 20.4695L10.0767 20.4726L10.083 20.4752L10.0892 20.4778L10.0955 20.4804L10.1016 20.4835L10.1079 20.4865L10.1141 20.4892L10.1204 20.4923L10.1265 20.4948L10.1328 20.4975L10.139 20.5L10.1453 20.5026L10.1515 20.5052L10.1577 20.5078L10.1639 20.5104L10.1702 20.5129L10.1765 20.5155L10.1826 20.5176L10.1894 20.5202L10.1956 20.5227L10.2018 20.5254L10.2081 20.5279L10.2143 20.5305L10.2205 20.5325L10.2267 20.5352L10.233 20.5373L10.2392 20.5393L10.246 20.5414L10.2522 20.5435L10.2579 20.5455L10.2714 20.5496L10.2844 20.5538L10.2974 20.5574L10.3104 20.561L10.3233 20.5646L10.3363 20.5683L10.3493 20.5719L10.3623 20.5755L10.3752 20.5791L10.3882 20.5822L10.4012 20.5853L10.4142 20.5885L10.4271 20.591L10.4401 20.5941L10.4531 20.5967L10.4661 20.5993L10.479 20.6018L10.492 20.6039L10.505 20.6065L10.518 20.6085L10.5309 20.6106L10.5445 20.6127L10.5575 20.6148L10.5709 20.6164L10.5844 20.6179L10.5979 20.6195L10.6114 20.6205L10.6244 20.6215L10.6379 20.6225L10.6508 20.6235L10.6644 20.6246L10.6778 20.6256L10.6908 20.6266L10.7038 20.6272L10.7167 20.6277L10.7303 20.6282H10.7967L10.8102 20.6277H10.8237L10.8372 20.6272L10.8507 20.6266L10.8642 20.6256L10.8776 20.6246L10.8912 20.6241L10.9046 20.6231L10.9182 20.622L10.9316 20.621L10.9446 20.6199L10.9581 20.6184L10.9716 20.6168L10.9846 20.6153L10.9981 20.6137L11.0111 20.6116L11.0245 20.6096L11.0375 20.6075L11.0511 20.6055L11.064 20.6034L11.077 20.6008L11.09 20.5987L11.1035 20.5962L11.1165 20.5935L11.1295 20.5905L11.1424 20.5879L11.1554 20.5848L11.1684 20.5817L11.1814 20.5786L11.1943 20.5755L11.2073 20.5719L11.2203 20.5683L11.2333 20.5646L11.2462 20.561L11.2597 20.5569L11.2659 20.5548L11.2722 20.5527L11.2784 20.5507L11.2852 20.5486L11.2914 20.5465L11.2981 20.5445L11.3044 20.5425L11.3105 20.5404L11.3174 20.5383L11.3235 20.5362L11.3298 20.5342L11.3365 20.5315L11.3427 20.5295L11.3495 20.5275L11.3557 20.5248L11.362 20.5227L11.3682 20.5207L11.3745 20.5186L11.3812 20.5161L11.3875 20.514L11.3936 20.5114L11.3999 20.5088L11.4061 20.5063L11.4124 20.5036L11.4185 20.5011L11.4248 20.4985L11.431 20.4959L11.4373 20.4933L11.4435 20.4907L11.4497 20.4882L11.4559 20.485L11.4622 20.4819L11.4684 20.4794L11.4746 20.4763L11.4808 20.4732L11.4871 20.4705L11.4933 20.4675L11.4995 20.4644L11.5057 20.4613L11.5115 20.4582L11.5177 20.4551L11.5239 20.4519L11.5302 20.4488L11.5364 20.4457L11.5426 20.4426L11.5488 20.4395L11.5551 20.4365L11.5613 20.4334L11.567 20.4303L11.5733 20.4272L11.5795 20.424L11.5862 20.4205L17.6059 17.0796L17.6132 17.076L17.6199 17.0724L17.6262 17.0687L17.6324 17.0652L17.6386 17.0615L17.6448 17.0574L17.6516 17.0537L17.6578 17.0502L17.6641 17.0465L17.6703 17.0429L17.6765 17.0388L17.6827 17.0346L17.689 17.031L17.6952 17.0274L17.7015 17.0238L17.7076 17.0196L17.7139 17.0155L17.7201 17.0119L17.7264 17.0077L17.7325 17.0042L17.7383 17L17.744 16.9959L17.7497 16.9917L17.7555 16.9876L17.7611 16.9835L17.7674 16.9794L17.7731 16.9752L17.7793 16.9711L17.785 16.9669L17.7907 16.9628L17.7965 16.9586L17.8021 16.9545L17.8078 16.9504L17.8141 16.9463L17.8198 16.9416L17.8255 16.9375L17.8312 16.9328L17.8369 16.9286L17.8426 16.924L17.8484 16.9194L17.854 16.9147L17.8597 16.9105L17.8655 16.9065L17.8712 16.9018L17.8764 16.8972L17.8821 16.8925L17.8878 16.8878L17.893 16.8837L17.8986 16.8791L17.9044 16.8739L17.9095 16.8693L17.9153 16.8645L17.9205 16.8599L17.9256 16.8553L17.9309 16.8501L17.9365 16.8455L17.9417 16.8403L17.947 16.8356L17.9522 16.8305L17.9574 16.8253L17.9625 16.8206L17.9677 16.8155L17.9729 16.8108L17.9781 16.8056L17.9833 16.8005L17.9885 16.7953L17.9936 16.7902L17.9984 16.785L18.0035 16.7798L18.0082 16.7746L18.0134 16.7695L18.0185 16.7643L18.0238 16.7591L18.0285 16.754L18.0331 16.7488L18.0378 16.7436L18.0425 16.7385L18.0476 16.7333L18.0524 16.7281L18.057 16.7229L18.0616 16.7178L18.0664 16.7126L18.071 16.7075L18.0757 16.7023L18.0804 16.6971L18.085 16.6915L18.0897 16.6857L18.0944 16.68L18.099 16.6749L18.1037 16.6697L18.1084 16.6645L18.1131 16.6588L18.1177 16.6537L18.1224 16.648L18.1265 16.6428L18.1307 16.6372L18.1348 16.6315L18.139 16.6263L18.1437 16.6206L18.1478 16.6149L18.152 16.6093L18.1562 16.6035L18.1603 16.5978L18.1645 16.5922L18.1686 16.5865L18.1727 16.5808L18.1769 16.5751L18.1811 16.5695L18.1852 16.5637L18.1894 16.5581L18.1935 16.5524L18.1972 16.5467L18.2008 16.5405L18.2049 16.5343L18.2091 16.5285L18.2127 16.5229L18.2164 16.5172L18.2205 16.511L18.2246 16.5054L18.2283 16.4996L18.2319 16.4935L18.2355 16.4873L18.2392 16.481L18.2428 16.4748L18.2465 16.4692L18.2501 16.4629L18.2537 16.4567L18.2574 16.4511L18.261 16.4448L18.2646 16.4386L18.2683 16.4325L18.2714 16.4263L18.2745 16.42L18.2781 16.4138L18.2817 16.4076L18.2849 16.4015L18.2885 16.3952L18.2922 16.389L18.2953 16.3828L18.2984 16.3766L18.3015 16.3699L18.3046 16.3637L18.3083 16.3575L18.3119 16.3513L18.315 16.3451L18.3181 16.3389L18.3212 16.3326L18.3244 16.326L18.3275 16.3197L18.3305 16.3135L18.3336 16.3068L18.3368 16.3006L18.3399 16.2945L18.343 16.2877L18.3461 16.281L18.3493 16.2743L18.3524 16.2681L18.3549 16.2618L18.3575 16.2552L18.3602 16.2485L18.3627 16.2417L18.3654 16.2355L18.3679 16.2288L18.3705 16.2221L18.3731 16.2154L18.3757 16.2092L18.3783 16.2025L18.3809 16.1957L18.3835 16.189L18.3861 16.1823L18.3887 16.1755L18.3907 16.1688L18.3928 16.1621L18.3949 16.1554L18.397 16.1486L18.3995 16.1419L18.4022 16.1352L18.4048 16.1285L18.4074 16.1218L18.4095 16.1151L18.4121 16.1084L18.4141 16.1016L18.4162 16.0949L18.4188 16.0882L18.4209 16.0815L18.4229 16.0747L18.425 16.068L18.4271 16.0613L18.4286 16.0545L18.4307 16.0478L18.4328 16.0412L18.4349 16.0345L18.437 16.0277L18.4385 16.021L18.4401 16.0137L18.4422 16.007L18.4437 16.0003L18.4453 15.9931L18.4474 15.9864L18.4489 15.9796L18.4505 15.9729L18.452 15.9662L18.4535 15.9589L18.4551 15.9523L18.4567 15.9455L18.4577 15.9383L18.4593 15.931L18.4608 15.9244L18.4619 15.9171L18.4635 15.9104L18.465 15.9031L18.4665 15.8959L18.4681 15.8892L18.4696 15.8819L18.4707 15.8747L18.4723 15.8675L18.4733 15.8607L18.4748 15.854L18.4759 15.8468L18.4769 15.8395L18.478 15.8323L18.479 15.8251L18.48 15.8178L18.4811 15.8106L18.4821 15.8034L18.4826 15.7961L18.4836 15.7894L18.4842 15.7822L18.4853 15.7749L18.4863 15.7682L18.4873 15.761L18.4878 15.7537L18.4884 15.7465L18.4889 15.7393L18.4894 15.732L18.4905 15.7248L18.4909 15.7175L18.4915 15.7104L18.492 15.7031L18.4925 15.6958L18.493 15.6886L18.4935 15.6814L18.4941 15.6741L18.4945 15.6669L18.4951 15.6596L18.4956 15.6525L18.4962 15.6452V15.6307L18.4966 15.6235V8.46781L18.4962 8.46145L18.4956 8.45474V8.44801L18.4951 8.44129V8.43457L18.4945 8.42785V8.42114L18.4941 8.41441L18.4935 8.40821L18.493 8.40149L18.4925 8.39477L18.492 8.38805L18.4915 8.38185L18.4909 8.37513L18.4905 8.36893L18.4899 8.36221L18.4889 8.35548L18.4884 8.34928L18.4878 8.34308L18.4868 8.33687L18.4863 8.33067L18.4853 8.32395L18.4847 8.31775L18.4836 8.31155L18.4826 8.30483L18.4821 8.29811L18.4816 8.29191L18.4805 8.28622L18.4785 8.27263L18.4769 8.25945L18.4748 8.246L18.4728 8.23308L18.4702 8.22015L18.4675 8.20724L18.4655 8.19431L18.4629 8.18139L18.4598 8.16846L18.4567 8.15555L18.4535 8.14262L18.4505 8.1297L18.4474 8.11677L18.4443 8.10385L18.4411 8.09093L18.4375 8.07801L18.4338 8.06508L18.4302 8.05216L18.4261 8.03924L18.4225 8.02684L18.4183 8.01443L18.4141 8.00202L18.41 7.98962L18.4058 7.97721L18.4012 7.9648L18.3965 7.9524L18.3918 7.94051L18.3871 7.9281L18.3825 7.9157L18.3778 7.90329L18.3726 7.8914L18.3679 7.879L18.3627 7.86711L18.3575 7.85522L18.3524 7.84333L18.3466 7.83144L18.3415 7.81955L18.3357 7.80766L18.33 7.79577L18.3244 7.7844L18.3181 7.77251L18.3124 7.76063L18.3062 7.74874L18.2999 7.73736L18.2937 7.72599L18.2875 7.71462L18.2813 7.70325L18.275 7.69187L18.2683 7.6805L18.2615 7.66913L18.2547 7.65775L18.2475 7.64638L18.2407 7.63553L18.234 7.62467L18.2267 7.61382L18.2195 7.60296L18.2122 7.59211L18.2049 7.58125L18.1976 7.5704L18.1904 7.55955L18.1826 7.54921L18.1748 7.53886L18.167 7.52853L18.1593 7.51819L18.1515 7.50785L18.1432 7.49752L18.1348 7.48717L18.1265 7.47684L18.1183 7.4665L18.1099 7.45668L18.1011 7.44685L18.0928 7.43704L18.084 7.42722L18.0752 7.41739L18.0664 7.40757L18.0575 7.39775L18.0487 7.38793L18.0394 7.37863L18.03 7.36932L18.0206 7.36002L18.0114 7.35071L18.002 7.34141L17.9921 7.3321L17.9823 7.3228L17.9724 7.31401L17.9625 7.30523L17.9526 7.29644L17.9428 7.28765L17.9329 7.27886L17.9225 7.27007L17.9122 7.2618L17.9018 7.25354L17.8919 7.24526L17.881 7.23647L17.8764 7.23285L17.8712 7.22872L17.866 7.22458L17.8608 7.22045L17.8556 7.21632L17.8504 7.2127L17.8452 7.20856L17.84 7.20443L17.8343 7.20029L17.8286 7.19615L17.8235 7.19202L17.8182 7.18788L17.813 7.18375L17.8078 7.18013L17.8026 7.17599L17.7969 7.17186L17.7917 7.16825L17.7865 7.16463L17.7808 7.16049L17.7752 7.15687L17.7695 7.15325L17.7643 7.14964L17.7585 7.14602L17.7528 7.1424L17.7471 7.13878L17.7414 7.13516L17.7357 7.13154L17.73 7.12792L17.7243 7.1243L17.7185 7.12068L17.7128 7.11706L17.7072 7.11396L17.7015 7.11086L17.6947 7.10725L11.8209 3.67552L11.8125 3.67045L11.8051 3.66632L11.7973 3.66166L11.7895 3.65701L11.7818 3.65273L11.7741 3.64859L11.7665 3.64445L11.7587 3.64032L11.751 3.63618L11.7432 3.63205L11.7355 3.62791L11.7277 3.62377L11.72 3.61964L11.7122 3.61551L11.7044 3.61137L11.6966 3.60724L11.6888 3.6031L11.6809 3.59948L11.6731 3.59535L11.6654 3.59173L11.6575 3.58811L11.6497 3.58397L11.6417 3.58035L11.6339 3.57674L11.6261 3.57312L11.618 3.5695L11.6103 3.56588L11.6025 3.56278L11.5945 3.55916L11.5865 3.55555L11.5787 3.55193L11.5707 3.54883L11.5629 3.54572L11.5546 3.54262L11.5466 3.539L11.5384 3.5359L11.5301 3.53228L11.5218 3.52918L11.5137 3.52608L11.5057 3.52298L11.4975 3.51987L11.4893 3.51677L11.4809 3.51367L11.4732 3.51057L11.4654 3.50799L11.4575 3.5054L11.4493 3.5023L11.441 3.49972L11.4332 3.49714L11.4249 3.49455L11.4165 3.49196L11.4088 3.48938L11.4005 3.48679L11.3922 3.48421L11.3839 3.48163L11.3761 3.47904L11.3678 3.47645L11.3595 3.47387L11.3512 3.47129L11.3429 3.46922L11.3345 3.46664L11.3263 3.46456L11.318 3.46198L11.3096 3.45992L11.3014 3.45785L11.293 3.45578L11.2847 3.45319L11.2765 3.45113L11.2681 3.44906L11.2598 3.44751L11.2515 3.44545L11.2432 3.44337L11.2349 3.44131L11.2266 3.43975L11.2183 3.43769L11.21 3.43614L11.2017 3.43458L11.1934 3.43252L11.1851 3.43096L11.1767 3.42942L11.1685 3.42786L11.1602 3.42632L11.1518 3.42476L11.1435 3.42322L11.1347 3.42166L11.1265 3.42063L11.1181 3.4196L11.1098 3.41856L11.1015 3.41753L11.0932 3.41597L11.0849 3.41443L11.0765 3.41339L11.0677 3.41185L11.0595 3.41081L11.0512 3.40925L11.0428 3.40823L11.0345 3.40719L11.0263 3.40615L11.0179 3.40512L11.0096 3.40409L11.0008 3.40305L10.9925 3.40254L10.9842 3.4015L10.9759 3.40047L10.9675 3.39995L10.9593 3.39944L10.951 3.39892L10.9426 3.3984L10.9344 3.39788L10.9255 3.39737L10.9167 3.39685L10.9084 3.39634L10.9001 3.39582H10.8918L10.8835 3.3953L10.8752 3.39478H10.8664L10.8581 3.39426L10.8497 3.39375L10.842 3.39324L10.8336 3.39272H10.8165L10.8082 3.3922H10.7916L10.7833 3.39566Z" fill="#C9177E"/>
<path d="M6.83309 17.3131V6.60162H9.08349V10.5033H12.8164V6.60162H15.0734V17.3131H12.8164V12.6296H9.08349V17.3131H6.83309Z" fill="white"/>
</svg>
