<svg fill="none" height="24" viewBox="0 0 24 24" width="24" xmlns="http://www.w3.org/2000/svg"><path d="m20.5047 3.17373c-2.2286-3.1920297-6.6429-4.134642-9.8143-2.09946l-5.59288 3.55622c-1.52143.96403-2.57143 2.52791-2.89285 4.2846-.25715 1.47821-.04286 2.99921.66428 4.32741-.47143.7284-.81428 1.5425-.96428 2.3994-.32143 1.821.10714 3.6848 1.15714 5.1844 2.22857 3.192 6.62143 4.1346 9.81429 2.0994l5.5929-3.5562c1.5214-.964 2.5714-2.5279 2.8928-4.2846.2572-1.4782.0429-2.9992-.6643-4.3274.4714-.7284.8143-1.54249.9643-2.39941.3214-1.82095-.1071-3.68475-1.1571-5.18436z" fill="#ff3e00"/><path d="m10.327 21.1262c-1.80003.4713-3.70717-.2356-4.75717-1.7567-.64286-.8997-.9-2.0137-.70714-3.1063.04285-.1714.08571-.3428.12857-.5142l.10714-.3213.27857.2142c.66429.4928 1.39286.8569 2.18572 1.0926l.21428.0643-.02143.2142c-.02143.2999.06429.5998.23572.8355.32143.4713.9.6641 1.43571.5356.12857-.0429.23572-.0857.34286-.15l5.59287-3.5562c.2786-.1714.4714-.4499.5357-.7712.0643-.3214-.0214-.6642-.2143-.9427-.3214-.4713-.9-.6641-1.4357-.5355-.1286.0428-.2357.0857-.3429.1499l-2.1428 1.3497c-.3429.2142-.7286.3856-1.1357.4927-1.80003.4285-3.70717-.2571-4.7786-1.7995-.64286-.8998-.9-2.0138-.70714-3.10635.19285-1.07115.83571-2.01376 1.73571-2.57076l5.61433-3.57764c.3428-.21423.7285-.38562 1.1357-.49273 1.8-.47131 3.7071.23565 4.7571 1.75669.6429.89976.9 2.01376.7072 3.10633-.0429.17138-.0858.34277-.1286.51415l-.1072.32135-.2785-.21423c-.6643-.49273-1.3929-.85692-2.1857-1.09258l-.2143-.06427.0214-.21423c.0214-.29992-.0643-.57842-.2357-.83549-.3214-.44989-.9-.66411-1.4357-.53558-.1286.04285-.2357.08569-.3429.14996l-5.59284 3.59907c-.27857.17138-.47143.44988-.51429.77121-.06428.3214.02143.6641.21429.9426.32143.4713.9.6641 1.43571.5356.12857-.0428.23572-.0857.34283-.15l2.1429-1.3496c.3428-.21424.7286-.38562 1.1357-.49274 1.8-.4713 3.7071.23566 4.7571 1.75664.6429.8998.9 2.0138.7072 3.1064-.1929 1.0711-.8143 2.0137-1.7357 2.5922l-5.6143 3.5562c-.3429.2142-.7286.3856-1.1357.4927" fill="#fff"/></svg>