<svg width="225" height="44" viewBox="0 0 225 44" fill="none" xmlns="http://www.w3.org/2000/svg">
<path fill-rule="evenodd" clip-rule="evenodd" d="M22.9833 27.6094C23.1923 27.7288 23.4161 27.8482 23.64 27.9526C25.3114 28.7287 26.0875 29.2361 26.0875 30.3106C26.0875 31.4597 25.1473 32.3999 23.9981 32.3999C23.1027 32.3999 22.3565 31.8328 22.0581 31.0418C20.9686 32.1462 19.4762 32.8327 17.8048 32.8327C14.5066 32.8327 11.8353 30.1613 11.8353 26.8632C11.8353 26.5498 11.88 26.2364 11.9248 25.923L11.9248 25.923C8.86543 25.0276 6.50748 22.4756 5.97022 19.2819C5.8956 18.8193 5.85083 18.3566 5.85083 17.8791C5.85083 17.4015 5.8956 16.9389 5.97022 16.4762C6.5224 13.2975 8.86543 10.7306 11.9248 9.83516C11.9229 9.82207 11.9211 9.80901 11.9192 9.79598C11.8764 9.49678 11.8353 9.20957 11.8353 8.89496C11.8353 5.5968 14.5066 2.92544 17.8048 2.92544C19.4613 2.92544 20.9686 3.61194 22.0581 4.7163C22.3565 3.92534 23.1027 3.35823 23.9981 3.35823C25.1473 3.35823 26.0875 4.29843 26.0875 5.44756C26.0875 6.61162 25.3114 7.11903 23.64 7.89506C23.4744 7.97234 23.3169 8.05779 23.1556 8.14537C23.0988 8.17617 23.0416 8.20724 22.9833 8.23831L22.9833 8.23834C22.849 8.31295 22.7147 8.38756 22.5953 8.46217C22.4908 8.52186 22.4013 8.58156 22.3118 8.64125C22.2819 8.65618 22.2558 8.67483 22.2297 8.69349C22.2036 8.71214 22.1774 8.7308 22.1476 8.74572C21.6402 9.07404 21.1776 9.46206 20.7298 9.865C20.7149 9.87246 20.7037 9.88366 20.6925 9.89485C20.6813 9.90604 20.6701 9.91724 20.6552 9.9247C20.4761 10.1038 20.297 10.2829 20.1329 10.462C20.1105 10.4843 20.0881 10.5105 20.0657 10.5366C20.0433 10.5627 20.021 10.5888 19.9986 10.6112C19.9281 10.6993 19.8553 10.7851 19.7829 10.8704C19.6714 11.0018 19.5609 11.1321 19.4613 11.2678C18.0734 13.1184 17.2227 15.4316 17.2227 17.9238C17.2227 20.4161 18.0585 22.7293 19.4613 24.5799C19.6255 24.8037 19.8046 25.0276 19.9986 25.2365C20.021 25.2589 20.0433 25.285 20.0657 25.3111C20.0881 25.3372 20.1105 25.3633 20.1329 25.3857C20.2558 25.531 20.3871 25.6595 20.5204 25.7901C20.5652 25.8339 20.6102 25.878 20.6552 25.923C20.6701 25.9305 20.6813 25.9416 20.6925 25.9528C20.7037 25.964 20.7149 25.9752 20.7298 25.9827C21.1776 26.3856 21.6402 26.7736 22.1476 27.102C22.1774 27.1169 22.2036 27.1355 22.2297 27.1542C22.2558 27.1729 22.2819 27.1915 22.3118 27.2064C22.3565 27.2363 22.405 27.2661 22.4535 27.296C22.502 27.3258 22.5505 27.3557 22.5953 27.3855C22.6625 27.4228 22.7259 27.4601 22.7893 27.4975C22.8528 27.5348 22.9162 27.5721 22.9833 27.6094ZM43.7276 9.89482C46.7869 10.7902 49.1449 13.3422 49.6821 16.5359C49.7568 16.9836 49.8015 17.4612 49.8015 18.0283C49.8015 18.5058 49.7568 18.9685 49.6821 19.4311C49.13 22.6099 46.7869 25.1768 43.7276 26.0722L43.7332 26.1113C43.776 26.4105 43.8171 26.6978 43.8171 27.0124C43.8171 30.3105 41.1457 32.9819 37.8476 32.9819C36.191 32.9819 34.6837 32.2954 33.5943 31.1911C33.2958 31.982 32.5496 32.5491 31.6542 32.5491C30.5051 32.5491 29.5649 31.6089 29.5649 30.4598C29.5649 29.2957 30.3409 28.7883 32.0124 28.0123C32.178 27.935 32.3354 27.8496 32.4968 27.762C32.5535 27.7312 32.6108 27.7001 32.669 27.669L32.6691 27.669C32.8034 27.5944 32.9377 27.5198 33.0571 27.4452C33.1615 27.3855 33.2511 27.3258 33.3406 27.2661C33.3705 27.2512 33.3966 27.2325 33.4227 27.2139C33.4488 27.1952 33.4749 27.1766 33.5048 27.1616C34.0122 26.8333 34.4748 26.4453 34.9225 26.0423C34.9375 26.0349 34.9486 26.0237 34.9598 26.0125C34.971 26.0013 34.9822 25.9901 34.9971 25.9827L34.9972 25.9826C35.1763 25.8035 35.3553 25.6245 35.5195 25.4454C35.5419 25.423 35.5643 25.3969 35.5866 25.3708C35.609 25.3447 35.6314 25.3185 35.6538 25.2962C35.7243 25.2081 35.7971 25.1223 35.8694 25.037C35.981 24.9056 36.0915 24.7753 36.191 24.6395C37.579 22.789 38.4296 20.4758 38.4296 17.9835C38.4296 15.4912 37.5939 13.1781 36.191 11.3275C36.0269 11.1036 35.8478 10.8798 35.6538 10.6709C35.6314 10.6485 35.609 10.6224 35.5866 10.5962C35.5642 10.5701 35.5419 10.544 35.5195 10.5216C35.3553 10.3276 35.1762 10.1485 34.9971 9.98436C34.9822 9.9769 34.971 9.96571 34.9598 9.95451C34.9486 9.94332 34.9375 9.93213 34.9225 9.92467C34.4748 9.52172 34.0122 9.14863 33.5048 8.80538C33.4749 8.79046 33.4488 8.7718 33.4227 8.75315C33.3966 8.73449 33.3705 8.71584 33.3406 8.70092C33.2958 8.67107 33.2473 8.64122 33.1988 8.61138C33.1503 8.58153 33.1018 8.55168 33.0571 8.52183C32.9899 8.48452 32.9265 8.44721 32.863 8.4099C32.7996 8.37259 32.7362 8.33528 32.669 8.29797C32.4601 8.17858 32.2362 8.05919 32.0124 7.95473C30.3559 7.16377 29.5649 6.65636 29.5649 5.50723C29.5649 4.3581 30.5051 3.4179 31.6542 3.4179C32.5496 3.4179 33.2958 3.985 33.5943 4.77596C34.6837 3.6716 36.1761 2.98511 37.8476 2.98511C41.1457 2.98511 43.8171 5.65647 43.8171 8.95462C43.8171 9.26802 43.7723 9.58142 43.7276 9.89482Z" fill="white"/>
<path d="M34.34 17.9389C34.34 14.3423 31.4298 11.4322 27.8332 11.4322C24.2366 11.4322 21.3264 14.3423 21.3264 17.9389C21.3264 21.5356 24.2366 24.4457 27.8332 24.4457C31.4298 24.4457 34.34 21.5356 34.34 17.9389Z" fill="white"/>
<path fill-rule="evenodd" clip-rule="evenodd" d="M76.4213 25.6348V4.75385H72.5854V25.6348H76.4213ZM63.7845 26.0674C65.5535 26.0674 67.0147 25.5963 68.1684 24.6541C69.322 23.712 70.0719 22.5872 70.418 21.2797L67.0436 20.1549C66.8513 20.8087 66.486 21.3711 65.9476 21.8421C65.4093 22.3132 64.6882 22.5487 63.7845 22.5487C62.7655 22.5487 61.9051 22.1882 61.2033 21.4672C60.5015 20.7462 60.1506 19.7704 60.1506 18.5398C60.1506 17.3093 60.4967 16.3383 61.1888 15.6269C61.881 14.9155 62.7366 14.5598 63.7557 14.5598C65.39 14.5598 66.4379 15.3577 66.8994 16.9536L70.3315 15.7999C70.0046 14.4732 69.2644 13.3436 68.1107 12.4111C66.9571 11.4786 65.4766 11.0123 63.6692 11.0123C61.5926 11.0123 59.8477 11.7237 58.4345 13.1465C57.0213 14.5694 56.3147 16.3671 56.3147 18.5398C56.3147 20.6933 57.0309 22.4863 58.4634 23.9187C59.8958 25.3511 61.6695 26.0674 63.7845 26.0674ZM91.2507 23.9331C89.8375 25.3559 88.0638 26.0674 85.9296 26.0674C83.7953 26.0674 82.0216 25.3559 80.6084 23.9331C79.1952 22.5103 78.4886 20.7125 78.4886 18.5398C78.4886 16.3671 79.1904 14.5694 80.594 13.1465C82.0168 11.7237 83.7953 11.0123 85.9296 11.0123C88.0638 11.0123 89.8375 11.7237 91.2507 13.1465C92.664 14.5694 93.3706 16.3671 93.3706 18.5398C93.3706 20.7125 92.664 22.5103 91.2507 23.9331ZM85.9301 22.5775C84.9302 22.5775 84.0746 22.2218 83.3632 21.5104C82.671 20.7989 82.3249 19.8087 82.3249 18.5397C82.3249 17.2707 82.6758 16.2805 83.3776 15.5691C84.0794 14.8577 84.9302 14.502 85.9301 14.502C86.9299 14.502 87.7807 14.8577 88.4825 15.5691C89.1843 16.2805 89.5352 17.2707 89.5352 18.5397C89.5352 19.8087 89.1843 20.7989 88.4825 21.5104C87.7807 22.2218 86.9299 22.5775 85.9301 22.5775ZM102.922 25.5337C102.201 25.8509 101.437 26.0096 100.629 26.0096C98.9562 26.0096 97.6392 25.476 96.6778 24.4089C95.7164 23.3418 95.2357 22.0103 95.2357 20.4144V11.4448H99.0716V19.6357C99.0716 20.4817 99.2927 21.1691 99.735 21.6978C100.177 22.2266 100.821 22.4909 101.667 22.4909C102.494 22.4909 103.148 22.2362 103.629 21.7267C104.109 21.2171 104.35 20.5394 104.35 19.6934V11.4448H108.185V23.0678C108.185 23.9715 108.233 24.8271 108.33 25.6346H104.667C104.59 25.2501 104.551 24.7406 104.551 24.106C104.186 24.7406 103.643 25.2164 102.922 25.5337ZM117.419 25.9809C118.342 25.9809 119.154 25.7982 119.856 25.4329C120.558 25.0676 121.072 24.5869 121.399 23.9909C121.399 24.6061 121.447 25.1541 121.543 25.6348H125.206C125.129 24.8657 125.091 24.0101 125.091 23.0679V4.75385H121.313V12.8582C120.678 11.6853 119.342 11.0989 117.304 11.0989C115.323 11.0989 113.694 11.8103 112.415 13.2331C111.137 14.656 110.497 16.4153 110.497 18.5111C110.497 20.6645 111.146 22.4479 112.444 23.8611C113.742 25.2743 115.4 25.9809 117.419 25.9809ZM115.343 21.4673C115.997 22.1884 116.843 22.5489 117.881 22.5489C118.9 22.5489 119.736 22.1836 120.39 21.4529C121.044 20.7223 121.371 19.7321 121.371 18.4823C121.371 17.2517 121.044 16.2855 120.39 15.5837C119.736 14.8819 118.9 14.531 117.881 14.531C116.862 14.531 116.021 14.8868 115.357 15.5982C114.694 16.3096 114.362 17.2806 114.362 18.5111C114.362 19.7609 114.689 20.7463 115.343 21.4673ZM134.686 26.0674C136.455 26.0674 137.916 25.5963 139.07 24.6541C140.223 23.712 140.973 22.5872 141.319 21.2797L137.945 20.1549C137.753 20.8087 137.387 21.3711 136.849 21.8421C136.311 22.3132 135.59 22.5487 134.686 22.5487C133.667 22.5487 132.806 22.1882 132.105 21.4672C131.403 20.7462 131.052 19.7704 131.052 18.5398C131.052 17.3093 131.398 16.3383 132.09 15.6269C132.782 14.9155 133.638 14.5598 134.657 14.5598C136.291 14.5598 137.339 15.3577 137.801 16.9536L141.233 15.7999C140.906 14.4732 140.166 13.3436 139.012 12.4111C137.858 11.4786 136.378 11.0123 134.571 11.0123C132.494 11.0123 130.749 11.7237 129.336 13.1465C127.923 14.5694 127.216 16.3671 127.216 18.5398C127.216 20.6933 127.932 22.4863 129.365 23.9187C130.797 25.3511 132.571 26.0674 134.686 26.0674ZM152.227 23.9331C151.323 25.3367 149.929 26.0385 148.045 26.0385C146.584 26.0385 145.406 25.6155 144.512 24.7695C143.618 23.9235 143.171 22.9237 143.171 21.77C143.171 20.5587 143.565 19.5877 144.354 18.8571C145.142 18.1264 146.161 17.665 147.411 17.4727L150.9 16.9536C151.612 16.8574 151.968 16.5209 151.968 15.9441C151.968 15.4058 151.761 14.9635 151.347 14.6174C150.934 14.2713 150.343 14.0983 149.574 14.0983C148.766 14.0983 148.127 14.3194 147.656 14.7616C147.185 15.2039 146.92 15.7519 146.863 16.4056L143.459 15.6846C143.594 14.454 144.2 13.3677 145.276 12.4255C146.353 11.4834 147.776 11.0123 149.545 11.0123C151.66 11.0123 153.217 11.517 154.217 12.5265C155.217 13.5359 155.717 14.8289 155.717 16.4056V23.3851C155.717 24.2311 155.775 24.981 155.89 25.6347H152.371C152.275 25.2117 152.227 24.6445 152.227 23.9331ZM148.852 23.1833C148.275 23.1833 147.824 23.0247 147.497 22.7074C147.17 22.3902 147.006 22.0008 147.006 21.5393C147.006 20.5203 147.593 19.9242 148.766 19.7512L151.967 19.2609V19.8954C151.967 21.0683 151.674 21.9095 151.087 22.419C150.501 22.9285 149.756 23.1833 148.852 23.1833ZM162.456 17.4728V25.6348H158.62V11.445H162.34V13.2043C162.744 12.5121 163.321 11.9833 164.071 11.618C164.821 11.2527 165.609 11.07 166.436 11.07C168.109 11.07 169.382 11.594 170.257 12.6419C171.132 13.6898 171.57 15.0405 171.57 16.6941V25.6348H167.734V17.3574C167.734 16.5114 167.517 15.8288 167.085 15.3097C166.652 14.7905 165.994 14.531 165.109 14.531C164.302 14.531 163.658 14.8098 163.177 15.3674C162.696 15.925 162.456 16.6268 162.456 17.4728ZM178.337 25.6348V17.4728C178.337 16.6268 178.578 15.925 179.058 15.3674C179.539 14.8098 180.183 14.531 180.991 14.531C181.875 14.531 182.534 14.7905 182.966 15.3097C183.399 15.8288 183.615 16.5114 183.615 17.3574V25.6348H187.451V16.6941C187.451 15.0405 187.014 13.6898 186.139 12.6419C185.264 11.594 183.99 11.07 182.317 11.07C181.491 11.07 180.702 11.2527 179.953 11.618C179.203 11.9833 178.626 12.5121 178.222 13.2043V11.445H174.502V25.6348H178.337ZM202.078 23.9331C200.665 25.3559 198.891 26.0674 196.757 26.0674C194.623 26.0674 192.849 25.3559 191.436 23.9331C190.022 22.5103 189.316 20.7125 189.316 18.5398C189.316 16.3671 190.018 14.5694 191.421 13.1465C192.844 11.7237 194.623 11.0123 196.757 11.0123C198.891 11.0123 200.665 11.7237 202.078 13.1465C203.491 14.5694 204.198 16.3671 204.198 18.5398C204.198 20.7125 203.491 22.5103 202.078 23.9331ZM196.757 22.5775C195.758 22.5775 194.902 22.2218 194.191 21.5104C193.498 20.7989 193.152 19.8087 193.152 18.5397C193.152 17.2707 193.503 16.2805 194.205 15.5691C194.907 14.8577 195.758 14.502 196.757 14.502C197.757 14.502 198.608 14.8577 199.31 15.5691C200.012 16.2805 200.363 17.2707 200.363 18.5397C200.363 19.8087 200.012 20.7989 199.31 21.5104C198.608 22.2218 197.757 22.5775 196.757 22.5775ZM210.101 17.4728V25.6348H206.265V11.445H209.985V13.2043C210.389 12.5121 210.966 11.9833 211.716 11.618C212.466 11.2527 213.254 11.07 214.081 11.07C215.754 11.07 217.027 11.594 217.902 12.6419C218.777 13.6898 219.215 15.0405 219.215 16.6941V25.6348H215.379V17.3574C215.379 16.5114 215.162 15.8288 214.73 15.3097C214.297 14.7905 213.639 14.531 212.754 14.531C211.947 14.531 211.302 14.8098 210.822 15.3674C210.341 15.925 210.101 16.6268 210.101 17.4728Z" fill="white"/>
<path d="M143.112 39V31.4074H145.661C147.885 31.4074 149.62 33.1429 149.62 35.2037C149.62 37.2646 147.885 39 145.661 39H143.112ZM144.305 37.9153H145.661C147.234 37.9153 148.427 36.7222 148.427 35.2037C148.427 33.6852 147.234 32.4921 145.661 32.4921H144.305V37.9153ZM153.241 39.1085C151.723 39.1085 150.53 37.9153 150.53 36.3968C150.53 34.8783 151.723 33.6852 153.241 33.6852C154.76 33.6852 155.953 34.8783 155.953 36.3968C155.953 37.9153 154.76 39.1085 153.241 39.1085ZM153.241 38.078C154.163 38.078 154.868 37.373 154.868 36.3968C154.868 35.4206 154.163 34.7156 153.241 34.7156C152.32 34.7156 151.614 35.4206 151.614 36.3968C151.614 37.373 152.32 38.078 153.241 38.078ZM159.414 39.1085C157.895 39.1085 156.702 37.9153 156.702 36.3968C156.702 34.8783 157.895 33.6852 159.414 33.6852C160.878 33.6852 161.583 34.7156 161.583 34.7156L160.824 35.4206C160.824 35.4206 160.336 34.7156 159.414 34.7156C158.492 34.7156 157.787 35.4206 157.787 36.3968C157.787 37.373 158.492 38.078 159.414 38.078C160.336 38.078 160.878 37.3188 160.878 37.3188L161.638 38.0238C161.638 38.0238 160.878 39.1085 159.414 39.1085ZM164.604 39.1085C163.411 39.1085 162.544 38.2407 162.544 36.8307V33.7937H163.628V36.8307C163.628 37.59 164.116 38.078 164.821 38.078C165.635 38.078 166.231 37.4815 166.231 36.6138V33.7937H167.316V39H166.231V38.2407C166.231 38.2407 165.689 39.1085 164.604 39.1085ZM168.716 39V33.7937H169.801V34.5529C169.801 34.5529 170.235 33.6852 171.319 33.6852C172.458 33.6852 172.946 34.5529 172.946 34.5529C172.946 34.5529 173.434 33.6852 174.736 33.6852C175.766 33.6852 176.634 34.5529 176.634 35.9087V39H175.549V35.9087C175.549 35.1495 175.061 34.7156 174.465 34.7156C173.76 34.7156 173.217 35.2579 173.217 36.1257V39H172.133V35.9087C172.133 35.1495 171.645 34.7156 171.048 34.7156C170.343 34.7156 169.801 35.2579 169.801 36.1257V39H168.716ZM180.421 39.1085C178.902 39.1085 177.709 37.9153 177.709 36.3968C177.709 34.8783 178.902 33.6852 180.367 33.6852C181.831 33.6852 182.915 34.7699 182.915 36.2341C182.915 36.5595 182.861 36.7765 182.861 36.7765H178.848C178.956 37.4815 179.607 38.078 180.475 38.078C181.397 38.078 181.994 37.373 181.994 37.373L182.644 38.1323C182.644 38.1323 181.939 39.1085 180.421 39.1085ZM178.848 35.8545H181.777C181.614 35.1495 181.126 34.6614 180.367 34.6614C179.553 34.6614 179.065 35.1495 178.848 35.8545ZM183.985 39V33.7937H185.069V34.5529C185.069 34.5529 185.612 33.6852 186.696 33.6852C187.889 33.6852 188.757 34.5529 188.757 35.963V39H187.672V35.963C187.672 35.2037 187.184 34.7156 186.479 34.7156C185.666 34.7156 185.069 35.3122 185.069 36.1799V39H183.985ZM192.221 39.1085C191.19 39.1085 190.594 38.5119 190.594 37.373V34.8241H189.617V33.7937H190.214C190.539 33.7937 190.702 33.631 190.702 33.1971V32.0582H191.678V33.7937H192.871V34.8241H191.678V37.2646C191.678 37.8069 191.949 38.078 192.437 38.078C192.763 38.078 193.034 37.9153 193.034 37.9153V38.9458C193.034 38.9458 192.709 39.1085 192.221 39.1085ZM195.461 39.1085C194.431 39.1085 193.726 38.4034 193.726 37.59C193.726 36.7222 194.322 36.1257 195.244 35.963L197.142 35.6376C197.142 35.0952 196.708 34.6614 196.058 34.6614C195.244 34.6614 194.702 35.3664 194.702 35.3664L193.997 34.6614C193.997 34.6614 194.702 33.6852 196.058 33.6852C197.359 33.6852 198.227 34.5529 198.227 35.6918V39H197.142V38.2407C197.142 38.2407 196.6 39.1085 195.461 39.1085ZM195.678 38.1865C196.492 38.1865 197.142 37.5357 197.142 36.668V36.5053L195.624 36.7765C195.081 36.8741 194.81 37.1561 194.81 37.4815C194.81 37.8611 195.136 38.1865 195.678 38.1865ZM201.684 39.1085C200.654 39.1085 200.057 38.5119 200.057 37.373V34.8241H199.081V33.7937H199.678C200.003 33.7937 200.166 33.631 200.166 33.1971V32.0582H201.142V33.7937H202.335V34.8241H201.142V37.2646C201.142 37.8069 201.413 38.078 201.901 38.078C202.227 38.078 202.498 37.9153 202.498 37.9153V38.9458C202.498 38.9458 202.173 39.1085 201.684 39.1085ZM203.729 39V33.7937H204.814V39H203.729ZM204.272 32.8175C203.946 32.8175 203.621 32.5463 203.621 32.1667C203.621 31.7871 203.946 31.5159 204.272 31.5159C204.597 31.5159 204.922 31.7871 204.922 32.1667C204.922 32.5463 204.597 32.8175 204.272 32.8175ZM208.654 39.1085C207.135 39.1085 205.942 37.9153 205.942 36.3968C205.942 34.8783 207.135 33.6852 208.654 33.6852C210.172 33.6852 211.365 34.8783 211.365 36.3968C211.365 37.9153 210.172 39.1085 208.654 39.1085ZM208.654 38.078C209.576 38.078 210.281 37.373 210.281 36.3968C210.281 35.4206 209.576 34.7156 208.654 34.7156C207.732 34.7156 207.027 35.4206 207.027 36.3968C207.027 37.373 207.732 38.078 208.654 38.078ZM212.44 39V33.7937H213.525V34.5529C213.525 34.5529 214.067 33.6852 215.152 33.6852C216.345 33.6852 217.212 34.5529 217.212 35.963V39H216.128V35.963C216.128 35.2037 215.64 34.7156 214.935 34.7156C214.121 34.7156 213.525 35.3122 213.525 36.1799V39H212.44Z" fill="white"/>
</svg>
