<svg xmlns="http://www.w3.org/2000/svg" fill="none" viewBox="0 0 43 30">
  <path fill="#034AD8" fill-rule="evenodd" d="M16.818 24.337c.205.118.424.235.644.337 1.641.762 2.403 1.26 2.403 2.315a2.057 2.057 0 0 1-2.051 2.05 2.035 2.035 0 0 1-1.905-1.332 5.831 5.831 0 0 1-4.175 1.758 5.858 5.858 0 0 1-5.86-5.86c0-.308.044-.615.088-.923-3.003-.879-5.317-3.384-5.845-6.52A8.59 8.59 0 0 1 0 14.787c0-.469.044-.923.117-1.377.542-3.12 2.842-5.64 5.845-6.52l-.005-.038c-.042-.293-.083-.575-.083-.884a5.858 5.858 0 0 1 5.86-5.86c1.626 0 3.106.674 4.175 1.758A2.035 2.035 0 0 1 17.814.532c1.128 0 2.05.923 2.05 2.05 0 1.143-.761 1.642-2.402 2.403-.162.076-.317.16-.475.246l-.17.091c-.131.074-.263.147-.38.22-.103.059-.19.117-.279.176-.029.014-.055.033-.08.051a.601.601 0 0 1-.08.051 11.19 11.19 0 0 0-1.392 1.1c-.015.006-.026.017-.037.028s-.022.022-.037.03a17.041 17.041 0 0 0-.578.6c-.022.026-.044.052-.066.074-.07.086-.14.17-.212.254a7.15 7.15 0 0 0-.316.39 10.892 10.892 0 0 0-2.197 6.534c0 2.446.82 4.717 2.197 6.533.162.22.337.44.528.645.022.022.044.048.066.073.022.026.044.052.066.074.12.142.25.268.38.396l.132.131a.142.142 0 0 1 .037.03c.011.01.022.021.037.029.44.395.893.776 1.391 1.098.03.015.055.033.08.052.026.018.052.036.081.05.044.03.092.06.14.089.047.029.095.058.139.088.066.036.128.073.19.11l.19.11ZM37.18 6.95c3.003.878 5.317 3.384 5.845 6.519a8.734 8.734 0 0 1 0 2.842c-.542 3.12-2.842 5.64-5.845 6.519l.005.038c.042.294.083.576.083.885a5.858 5.858 0 0 1-5.86 5.86 5.856 5.856 0 0 1-4.175-1.759 2.035 2.035 0 0 1-1.905 1.333 2.057 2.057 0 0 1-2.05-2.05c0-1.143.761-1.641 2.402-2.403.162-.076.317-.16.475-.246l.17-.09c.131-.074.263-.147.38-.22.103-.06.19-.118.278-.176.03-.015.055-.033.081-.052a.6.6 0 0 1 .08-.051c.499-.322.953-.703 1.392-1.099.015-.007.026-.018.037-.029.011-.011.022-.022.037-.03a17.231 17.231 0 0 0 .578-.6c.022-.026.044-.051.066-.073.07-.087.14-.17.212-.255.11-.129.218-.257.316-.39a10.892 10.892 0 0 0 2.197-6.533c0-2.447-.82-4.718-2.197-6.534a7.252 7.252 0 0 0-.594-.718 1.325 1.325 0 0 0-.066-.073 5.847 5.847 0 0 0-.512-.528c-.015-.007-.026-.018-.037-.029-.011-.01-.022-.022-.037-.03-.44-.395-.893-.761-1.391-1.098a.602.602 0 0 1-.08-.051c-.027-.018-.052-.037-.081-.051a4.434 4.434 0 0 0-.14-.088 4.546 4.546 0 0 1-.139-.088c-.066-.037-.128-.073-.19-.11a8.917 8.917 0 0 0-.835-.447c-1.626-.776-2.403-1.274-2.403-2.402 0-1.128.923-2.051 2.051-2.051.88 0 1.612.556 1.904 1.333A5.83 5.83 0 0 1 31.41.166a5.858 5.858 0 0 1 5.86 5.86c0 .307-.044.615-.088.923Z" clip-rule="evenodd"/>
  <path fill="#034AD8" d="M27.966 14.845a6.383 6.383 0 0 0-6.388-6.388 6.383 6.383 0 0 0-6.387 6.388 6.383 6.383 0 0 0 6.387 6.387 6.383 6.383 0 0 0 6.388-6.387Z"/>
</svg>
