<svg fill="none" height="1119" viewBox="0 0 2465 1119" width="2465" xmlns="http://www.w3.org/2000/svg" xmlns:xlink="http://www.w3.org/1999/xlink"><linearGradient id="a" gradientUnits="userSpaceOnUse" x1="308.694" x2="234.522" y1="167.64" y2="228.672"><stop offset=".18" stop-color="#0052cc"/><stop offset="1" stop-color="#2684ff"/></linearGradient><clipPath id="b"><path d="m2117.8 755.018h241.187v241.187h-241.187z"/></clipPath><clipPath id="c"><path d="m2118 85h241v183h-241z"/></clipPath><clipPath id="d"><path d="m2082 424h311v205h-311z"/></clipPath><rect fill="#fff" height="445" rx="25" stroke="#aaa" stroke-width="10" width="445" x="1010" y="304"/><path d="m1379.7 516.199c-3.6-21.4-19.4-38.5-39.9-44.5.3-2.1.6-4.2.6-6.3 0-22.1-17.9-40-40-40-11.2 0-21.2 4.6-28.5 12-2-5.3-7-9.1-13-9.1-7.7 0-14 6.3-14 14s5.3 11.1 16.4 16.4c1.5.7 3 1.5 4.4 2.3.9.5 1.7 1 2.6 1.5.6.4 1.3.8 1.9 1.2.4.2.7.5 1.1.7 3.4 2.3 6.5 4.8 9.5 7.5.2.1.3.3.5.4 1.2 1.1 2.4 2.3 3.5 3.6.3.3.6.7.9 1 1.3 1.4 2.5 2.9 3.6 4.4 9.4 12.4 15 27.9 15 44.6s-5.7 32.2-15 44.6c-1.1 1.5-2.4 2.9-3.6 4.4-.3.3-.6.699-.9 1-1.1 1.199-2.3 2.4-3.5 3.6-.2.1-.3.301-.5.4-3 2.699-6.1 5.3-9.5 7.5-.4.199-.7.5-1.1.699-.6.4-1.2.801-1.9 1.201-.8.5-1.7 1-2.6 1.5-1.5.799-2.9 1.6-4.4 2.299-11.2 5.201-16.4 8.601-16.4 16.4 0 7.7 6.3 14 14 14 6 0 11-3.8 13-9.1 7.3 7.4 17.4 12 28.5 12 22.1 0 40-17.9 40-40 0-2.2-.3-4.2-.6-6.301 20.5-6 36.2-23.199 39.9-44.5.5-3.1.8-6.2.8-9.4 0-3.798-.3-6.998-.8-9.998zm-174.5 76.5c-1.5-.7-3-1.5-4.4-2.3-.9-.5-1.7-1-2.6-1.5-.6-.4-1.3-.801-1.9-1.2-.4-.2-.7-.5-1.1-.7-3.4-2.199-6.5-4.8-9.5-7.5-.2-.1-.3-.3-.5-.4-1.2-1.199-2.4-2.299-3.5-3.6-.3-.3-.6-.699-.9-1-1.3-1.4-2.5-2.9-3.6-4.4-9.4-12.399-15-27.899-15-44.599s5.7-32.2 15-44.6c1.1-1.5 2.4-2.9 3.6-4.4.3-.3.6-.7.9-1 1.1-1.2 2.3-2.4 3.5-3.6.2-.1.3-.3.5-.4 3-2.7 6.1-5.3 9.5-7.5.4-.2.7-.5 1.1-.7.6-.4 1.2-.8 1.9-1.2.8-.5 1.7-1 2.6-1.5 1.5-.8 2.9-1.6 4.4-2.3 11.2-5.2 16.4-8.6 16.4-16.4 0-7.7-6.3-14-14-14-6 0-11 3.8-13 9.1-7.3-7.4-17.4-12-28.5-12-22.1 0-40 17.9-40 40 0 2.2.3 4.2.6 6.3-20.5 6-36.2 23.2-39.9 44.5-.5 3.1-.8 6.2-.8 9.4s.3 6.3.8 9.4c3.6 21.4 19.4 38.5 39.9 44.5-.3 2.099-.6 4.199-.6 6.299 0 22.1 17.9 40 40 40 11.2 0 21.2-4.6 28.5-12 2 5.3 7 9.1 13 9.1 7.7 0 14-6.3 14-14 0-7.2-5.2-10.6-16.4-15.8z" fill="#034ad8"/><path d="m1276.9 525.599c0-24.1-19.5-43.6-43.6-43.6s-43.6 19.5-43.6 43.6 19.5 43.6 43.6 43.6 43.6-19.5 43.6-43.6z" fill="#034ad8"/><rect fill="#fff" height="344" rx="25" stroke="#aaa" stroke-width="10" width="344" x="2066" y="704"/><g clip-path="url(#b)"><path d="m2154.85 796.786-16.05 8.025v140.837l16.05 7.978.09-.116v-156.613z" fill="#8c3123"/><path d="m2240.72 933.185-85.87 20.441v-156.84l85.87 19.996z" fill="#e05243"/><path d="m2201.96 901.182 36.43 4.637.22-.528.21-59.729-.43-.467-36.43 4.571z" fill="#8c3123"/><path d="m2238.39 933.414 83.53 20.256.13-.209v-156.535l-.13-.14-83.53 20.226z" fill="#8c3123"/><path d="m2274.82 901.182-36.43 4.637v-60.724l36.43 4.571z" fill="#e05243"/><path d="m2274.82 824.752-36.43 6.641-36.43-6.641 36.38-9.535z" fill="#5e1f18"/><path d="m2274.82 926.028-36.43-6.684-36.43 6.684 36.38 10.155z" fill="#f2b0a9"/><path d="m2201.96 824.752 36.43-9.014.29-.091v-60.386l-.29-.243-36.43 18.215z" fill="#8c3123"/><path d="m2274.82 824.752-36.43-9.014v-60.72l36.43 18.215z" fill="#e05243"/><path d="m2238.39 995.759-36.43-18.209v-51.519l36.43 9.012.53.609-.14 59.056z" fill="#8c3123"/><path d="m2238.39 995.759 36.43-18.209v-51.519l-36.43 9.011zm83.53-198.973 16.06 8.025v140.837l-16.06 8.022z" fill="#e05243"/></g><rect fill="#fff" height="344" rx="25" stroke="#aaa" stroke-width="10" width="344" x="2066" y="5"/><g clip-path="url(#c)" fill="#000"><path d="m2279.59 207.056 22.1 22.054-39.29 39.209-22.1-22.058-4.17-4.169-13.02-12.982-4.17-4.164-4.92-4.909 13.01-12.981 4.91 4.905 4.19 4.168 13 12.981 4.18 4.169 9.09 9.077 13.27-13.246-9.09-9.077zm-60.65-26.228 13 12.985-4.91 4.906-4.18 4.164-13 12.986-4.18 4.164-9.1 9.077 13.28 13.246 9.09-9.077 13 12.982-22.09 22.058-39.29-39.209 22.1-22.054 4.18-4.173 13.01-12.977 4.17-4.169zm52.56 0 13 12.985-4.92 4.906-4.17 4.164-13.01 12.986-4.18 4.168-4.91 4.909-13.01-12.985 4.92-4.905 4.17-4.173 13.01-12.977zm-114.21-43.373 22.1 22.059 4.17 4.164 13.01 12.986 9.1 9.077-13.01 12.982-4.92-4.91-17.18-17.149-4.18-4.169-9.09-9.077-13.27 13.246 13.27 13.242 9.09-9.074 13.01 12.978-22.1 22.059-39.29-39.205zm157.67-.004 39.29 39.209-39.29 39.209-22.1-22.063-4.18-4.165-13.01-12.981-9.09-9.078 13-12.981 4.92 4.913 4.18 4.16 13.01 12.986 4.17 4.168 9.1 9.078 13.27-13.246-13.27-13.246-9.1 9.077-13-12.977zm-87.93 17.154 4.92 4.909 4.18 4.164 13.01 12.982 4.17 4.172 4.91 4.905-13 12.986-9.09-9.078-13.01-12.985-4.18-4.169-4.91-4.909zm35.37-69.6009 39.29 39.2049-22.11 22.055-4.17 4.172-13.01 12.978-9.09 9.077-13.01-12.977 9.09-9.078 13.01-12.985 4.18-4.164 9.09-9.078-13.27-13.246-9.09 9.078-13.01-12.978zm-43.46 43.3729 13 12.982-4.91 4.905-4.18 4.172-13 12.978-9.1 9.077-13.01-12.977 9.1-9.078 13.01-12.985zm-9.09-43.377 26.28 26.227 13 12.982 4.18 4.168 4.91 4.905-13 12.982-35.37-35.301-13.28 13.246 9.1 9.073-13.01 12.982-22.1-22.055z"/><path d="m2279.59 207.056 22.1 22.054-39.29 39.209-22.1-22.058-4.17-4.169-13.02-12.982-4.17-4.164-4.92-4.909 13.01-12.981 4.91 4.905 4.19 4.168 13 12.981 4.18 4.169 9.09 9.077 13.27-13.246-9.09-9.077zm-60.65-26.228 13 12.985-4.91 4.906-4.18 4.164-13 12.986-4.18 4.164-9.1 9.077 13.28 13.246 9.09-9.077 13 12.982-22.09 22.058-39.29-39.209 22.1-22.054 4.18-4.173 13.01-12.977 4.17-4.169zm52.56 0 13 12.985-4.92 4.906-4.17 4.164-13.01 12.986-4.18 4.168-4.91 4.909-13.01-12.985 4.92-4.905 4.17-4.173 13.01-12.977zm-114.21-43.373 22.1 22.059 4.17 4.164 13.01 12.986 9.1 9.077-13.01 12.982-4.92-4.91-17.18-17.149-4.18-4.169-9.09-9.077-13.27 13.246 13.27 13.242 9.09-9.074 13.01 12.978-22.1 22.059-39.29-39.205zm157.67-.004 39.29 39.209-39.29 39.209-22.1-22.063-4.18-4.165-13.01-12.981-9.09-9.078 13-12.981 4.92 4.913 4.18 4.16 13.01 12.986 4.17 4.168 9.1 9.078 13.27-13.246-13.27-13.246-9.1 9.077-13-12.977zm-87.93 17.154 4.92 4.909 4.18 4.164 13.01 12.982 4.17 4.172 4.91 4.905-13 12.986-9.09-9.078-13.01-12.985-4.18-4.169-4.91-4.909zm35.37-69.6009 39.29 39.2049-22.11 22.055-4.17 4.172-13.01 12.978-9.09 9.077-13.01-12.977 9.09-9.078 13.01-12.985 4.18-4.164 9.09-9.078-13.27-13.246-9.09 9.078-13.01-12.978zm-43.46 43.3729 13 12.982-4.91 4.905-4.18 4.172-13 12.978-9.1 9.077-13.01-12.977 9.1-9.078 13.01-12.985zm-9.09-43.377 26.28 26.227 13 12.982 4.18 4.168 4.91 4.905-13 12.982-35.37-35.301-13.28 13.246 9.1 9.073-13.01 12.982-22.1-22.055z"/></g><rect fill="#fff" height="445" rx="25" stroke="#aaa" stroke-width="10" width="445" x="2015" y="304"/><g clip-path="url(#d)" fill="#3448c5"><path d="m2333.65 496.032c-6.65-20.789-19.72-38.95-37.34-51.887-17.63-12.937-38.9-19.988-60.79-20.145-18.5-.106-36.69 4.817-52.59 14.239-15.91 9.422-28.95 22.988-37.7 39.24-16.1 2.875-30.85 10.797-42.11 22.611-11.27 11.814-18.46 26.904-20.53 43.074-2.06 16.17 1.1 32.576 9.03 46.83 7.93 14.253 20.22 25.611 35.08 32.42l1.92.871h.13v-21.781c-10.19-6.237-18.17-15.496-22.81-26.481-4.65-10.985-5.73-23.144-3.1-34.773s8.85-22.145 17.78-30.075 20.12-12.875 32.01-14.143l5.4-.564 2.36-4.843c6.72-14.186 17.35-26.166 30.66-34.532s28.74-12.77 44.47-12.695c18.75.132 36.91 6.509 51.61 18.117 14.69 11.608 25.07 27.78 29.48 45.945l1.85 7.329h7.71c12.43.254 24.27 5.344 32.99 14.183s13.62 20.725 13.66 33.121c0 18.065-10.46 32.851-28.27 40.334v20.653l1.29-.41c28.63-9.353 46.41-32.569 46.41-60.577-.11-16.211-6.11-31.831-16.88-43.975-10.78-12.143-25.59-19.989-41.72-22.086z"/><path d="m2197.84 620.774 4.27 4.254c.11.118.19.267.22.429s.02.329-.05.482c-.06.152-.16.283-.3.376-.14.094-.3.145-.46.148h-33.67c-4.09 0-8.02-1.62-10.91-4.503-2.89-2.884-4.52-6.794-4.52-10.872v-65.19c0-.224-.08-.439-.24-.598-.16-.158-.38-.248-.6-.248h-7.2c-.17.002-.33-.046-.47-.137s-.25-.222-.32-.375c-.06-.153-.08-.323-.05-.487s.11-.316.22-.436l28.58-28.494c.08-.08.18-.144.28-.187s.22-.065.33-.065.22.022.33.065c.1.043.19.107.27.187l28.56 28.494c.11.119.19.268.22.43.03.161.02.329-.05.481-.06.153-.16.284-.3.377s-.3.144-.46.147h-7.3c-.23 0-.45.089-.61.246-.17.158-.26.374-.27.6v64.063c.01 4.055 1.63 7.941 4.5 10.813z"/><path d="m2260.99 620.774 4.29 4.254c.12.119.2.271.23.435s.01.334-.05.487c-.07.154-.18.285-.32.376s-.3.139-.47.137h-33.6c-4.09 0-8.01-1.62-10.9-4.503-2.89-2.884-4.52-6.794-4.52-10.872v-48.713c0-.227-.09-.445-.24-.607-.16-.163-.38-.258-.61-.265h-7.27c-.16-.003-.32-.054-.46-.147s-.24-.224-.31-.377c-.06-.152-.08-.32-.04-.481.03-.162.1-.311.22-.43l28.56-28.443c.07-.08.17-.143.27-.187.11-.043.22-.065.33-.065s.22.022.33.065c.1.044.19.107.27.187l28.58 28.392c.12.12.2.272.23.436s.01.333-.05.487c-.07.153-.18.284-.32.375s-.3.139-.47.137h-7.3c-.23.007-.45.102-.6.264-.16.163-.25.381-.25.607v47.637c0 4.052 1.61 7.938 4.47 10.814z"/><path d="m2324.17 620.774 4.27 4.254c.11.118.19.267.22.429s.01.329-.05.482c-.06.152-.17.283-.3.376-.14.093-.3.145-.47.148h-33.69c-4.09 0-8.01-1.62-10.91-4.503-2.89-2.884-4.51-6.794-4.51-10.872v-32.364c0-.225-.09-.44-.25-.598-.16-.159-.38-.248-.6-.248h-7.2c-.17.002-.34-.048-.48-.142s-.25-.229-.31-.387c-.07-.158-.08-.331-.05-.497.04-.167.13-.318.25-.435l28.58-28.469c.08-.079.17-.142.27-.185s.21-.065.32-.065.22.022.32.065c.11.043.2.106.27.185l28.59 28.469c.12.117.21.268.24.435.04.166.02.339-.04.497s-.17.293-.32.387c-.14.094-.31.144-.48.142h-7.32c-.23 0-.44.089-.6.248-.16.158-.25.373-.25.598v31.237c.01 4.054 1.63 7.941 4.5 10.813z"/></g><g fill="#000"><path d="m1249.54 953.464c-1.96-1.952-5.12-1.952-7.08 0l-31.82 31.82c-1.95 1.953-1.95 5.119 0 7.071 1.96 1.953 5.12 1.953 7.08 0l28.28-28.284 28.28 28.284c1.96 1.953 5.12 1.953 7.08 0 1.95-1.952 1.95-5.118 0-7.071zm1.46 165.536v-162h-10v162z"/><path d="m1952.54 528.536c1.95-1.953 1.95-5.119 0-7.071l-31.82-31.82c-1.96-1.953-5.12-1.953-7.08 0-1.95 1.952-1.95 5.118 0 7.071l28.29 28.284-28.29 28.284c-1.95 1.953-1.95 5.119 0 7.071 1.96 1.953 5.12 1.953 7.08 0zm-444.54 1.464h441v-10h-441z"/><path d="m1508.4 459h12.8l4.8-12.8h21.6l4.8 12.8h12.8l-21.6-56h-13.6zm21.6-23.6 6.64-18.4h.32l6.64 18.4zm53.58 24.4c10.8 0 16.4-5.6 16.4-12.4 0-12.8-20-12-20-16.4 0-1.2 1.2-2.4 4-2.4 5.6 0 8.8 3.2 8.8 3.2l6.4-6.8s-5.2-6-15.2-6-15.6 5.6-15.6 12c0 12.8 20 12 20 16.4 0 1.6-1.2 2.8-4.8 2.8-6.4 0-10.4-4.4-10.4-4.4l-6.4 6.8s6 7.2 16.8 7.2zm36.4 0c10.8 0 16.4-5.6 16.4-12.4 0-12.8-20-12-20-16.4 0-1.2 1.2-2.4 4-2.4 5.6 0 8.8 3.2 8.8 3.2l6.4-6.8s-5.2-6-15.2-6-15.6 5.6-15.6 12c0 12.8 20 12 20 16.4 0 1.6-1.2 2.8-4.8 2.8-6.4 0-10.4-4.4-10.4-4.4l-6.4 6.8s6 7.2 16.8 7.2zm42.01 0c10.8 0 16.8-6.4 16.8-6.4l-5.6-7.6s-3.6 4.4-10.4 4.4c-6 0-9.2-3.2-10.4-6.8h28.4s.4-2 .4-4.8c0-10.8-8.8-19.6-19.6-19.6-11.2 0-20.4 9.2-20.4 20.4s9.2 20.4 20.8 20.4zm-9.6-24.4c1.2-3.6 4.4-6.8 8.8-6.8s7.6 3.2 8.8 6.8zm53.23 24.4c4 0 7.2-1.2 7.2-1.2v-10s-2 .8-4.4.8c-3.2 0-5.2-2-5.2-5.6v-13.2h8.8v-10h-8.8v-12h-9.6v7.2c0 3.2-1.6 4.8-4.4 4.8h-3.6v10h6.8v14.8c0 9.2 5.2 14.4 13.2 14.4zm28.43 0c10.8 0 16.4-5.6 16.4-12.4 0-12.8-20-12-20-16.4 0-1.2 1.2-2.4 4-2.4 5.6 0 8.8 3.2 8.8 3.2l6.4-6.8s-5.2-6-15.2-6-15.6 5.6-15.6 12c0 12.8 20 12 20 16.4 0 1.6-1.2 2.8-4.8 2.8-6.4 0-10.4-4.4-10.4-4.4l-6.4 6.8s6 7.2 16.8 7.2z"/><path d="m1117.2 891h42.4v-11.2h-30.4v-12h23.2v-10.8h-23.2v-10.8h29.6v-11.2h-41.6zm65.62.8c8.4 0 12.4-6.4 12.4-6.4h.4v5.6h10.8v-56h-10.8v22.4h-.4s-4-6.4-12.4-6.4c-9.2 0-17.6 8.4-17.6 20.4s8.4 20.4 17.6 20.4zm3.2-10c-5.6 0-10-4.4-10-10.4s4.4-10.4 10-10.4 10 4.4 10 10.4-4.4 10.4-10 10.4zm31.21 9.2h10.8v-39.2h-10.8zm5.36-44.4c3.44 0 6.24-2.8 6.24-6s-2.8-6-6.16-6c-3.44 0-6.24 2.8-6.24 6s2.8 6 6.16 6zm32.21 45.2c4 0 7.2-1.2 7.2-1.2v-10s-2 .8-4.4.8c-3.2 0-5.2-2-5.2-5.6v-13.2h8.8v-10h-8.8v-12h-9.6v7.2c0 3.2-1.6 4.8-4.4 4.8h-3.6v10h6.8v14.8c0 9.2 5.2 14.4 13.2 14.4zm15.63-.8h10.8v-39.2h-10.8zm5.36-44.4c3.44 0 6.24-2.8 6.24-6s-2.8-6-6.16-6c-3.44 0-6.24 2.8-6.24 6s2.8 6 6.16 6zm15.82 44.4h10.8v-20.8c0-5.2 3.6-8.8 8.4-8.8 4.4 0 7.2 2.8 7.2 7.6v22h10.8v-23.6c0-10-6.4-16.4-14.4-16.4-7.6 0-11.6 6.4-11.6 6.4h-.4v-5.6h-10.8zm63.97 16.8c12.4 0 21.2-8.8 21.2-20.8v-35.2h-10.8v5.6h-.4s-3.6-6.4-12-6.4c-8.8 0-16.8 8-16.8 19.6s8 19.6 16.8 19.6c8.4 0 12-6.4 12-6.4h.4v3.2c0 6.4-4.4 10.8-10.4 10.8-6.4 0-10.4-4.8-10.4-4.8l-6.8 6.8s5.6 8 17.2 8zm1.2-27.6c-5.2 0-9.2-4-9.2-9.6s4-9.6 9.2-9.6 9.2 4 9.2 9.6-4 9.6-9.2 9.6z"/><path d="m511.464 521.464c-1.952 1.953-1.952 5.119 0 7.072l31.82 31.819c1.953 1.953 5.119 1.953 7.071 0 1.953-1.952 1.953-5.118 0-7.071l-28.284-28.284 28.284-28.284c1.953-1.953 1.953-5.119 0-7.071-1.952-1.953-5.118-1.953-7.071 0zm3.536 8.536h441v-10h-441z"/><path d="m681 460.2c16 0 24-11.2 24-11.2l-8-8s-5.6 8-16 8c-10 0-18-8-18-18s8-18 18-18 15.6 8 15.6 8l8-8s-8-11.2-23.6-11.2c-17.2 0-30.4 13.2-30.4 29.2s13.2 29.2 30.4 29.2zm48.428-.4c11.6 0 20.8-9.2 20.8-20.4s-9.2-20.4-20.8-20.4-20.8 9.2-20.8 20.4 9.2 20.4 20.8 20.4zm0-10c-5.6 0-10-4.4-10-10.4s4.4-10.4 10-10.4 10 4.4 10 10.4-4.4 10.4-10 10.4zm28.788 9.2h10.8v-20.8c0-5.2 3.6-8.8 8.4-8.8 4.4 0 7.2 2.8 7.2 7.6v22h10.8v-23.6c0-10-6.4-16.4-14.4-16.4-7.6 0-11.6 6.4-11.6 6.4h-.4v-5.6h-10.8zm63.197.8c4 0 7.2-1.2 7.2-1.2v-10s-2 .8-4.4.8c-3.2 0-5.2-2-5.2-5.6v-13.2h8.8v-10h-8.8v-12h-9.6v7.2c0 3.2-1.6 4.8-4.4 4.8h-3.6v10h6.8v14.8c0 9.2 5.2 14.4 13.2 14.4zm33.25 0c10.8 0 16.799-6.4 16.799-6.4l-5.599-7.6s-3.6 4.4-10.4 4.4c-6 0-9.2-3.2-10.4-6.8h28.4s.4-2 .4-4.8c0-10.8-8.8-19.6-19.6-19.6-11.2 0-20.4 9.2-20.4 20.4s9.2 20.4 20.8 20.4zm-9.6-24.4c1.2-3.6 4.4-6.8 8.8-6.8s7.6 3.2 8.8 6.8zm36.825 23.6h10.8v-20.8c0-5.2 3.6-8.8 8.4-8.8 4.4 0 7.2 2.8 7.2 7.6v22h10.8v-23.6c0-10-6.4-16.4-14.4-16.4-7.6 0-11.6 6.4-11.6 6.4h-.4v-5.6h-10.8zm63.196.8c4 0 7.2-1.2 7.2-1.2v-10s-2 .8-4.4.8c-3.2 0-5.2-2-5.2-5.6v-13.2h8.8v-10h-8.8v-12h-9.6v7.2c0 3.2-1.6 4.8-4.4 4.8h-3.6v10h6.8v14.8c0 9.2 5.2 14.4 13.2 14.4z"/></g><rect fill="#fff" height="344" rx="25" stroke="#aaa" stroke-width="10" width="344" x="55" y="704"/><path d="m226.779 949.487 82.187-56.185c1.108-.761 1.935-1.829 2.365-3.054.43-1.226.441-2.547.031-3.778" fill="#fc6d26"/><path d="m311.362 886.47-9.509-27.475-18.788-54.513c-.269-.77-.851-1.408-1.619-1.775-.767-.368-1.659-.435-2.479-.188-1.005.291-1.701 1.018-2.087 1.963l-18.788 54.44h-62.549l-18.865-54.367c-.269-.77-.851-1.408-1.618-1.776-.768-.367-1.659-.435-2.479-.187-.928.291-1.701 1.018-2.011 1.963l-18.787 54.44-9.51 27.475c-.851 2.471.077 5.233 2.319 6.832l82.187 56.185" fill="#fc6d26"/><path d="m226.779 949.414 31.236-90.419h-62.472z" fill="#e24329"/><path d="m226.779 949.414-31.236-90.419h-43.76z" fill="#fc6d26"/><path d="m226.779 949.487-75.074-90.492-9.51 27.475c-.85 2.471.078 5.233 2.32 6.832z" fill="#fca326"/><path d="m151.783 858.995h43.838l-18.943-54.441c-.269-.769-.851-1.407-1.618-1.775-.768-.368-1.659-.435-2.479-.187-.928.363-1.701 1.017-2.011 1.962z" fill="#e24329"/><path d="m226.779 949.414 31.236-90.419h43.838z" fill="#fc6d26"/><path d="m226.779 949.414 74.996-90.419 9.51 27.475c.851 2.471-.077 5.233-2.319 6.832z" fill="#fca326"/><path d="m301.853 858.995h-43.838l18.787-54.441c.541-1.599 2.397-2.471 4.098-1.962 1.005.291 1.701 1.018 2.088 1.962z" fill="#e24329"/><rect fill="#fff" height="344" rx="25" stroke="#aaa" stroke-width="10" width="344" x="55" y="5"/><path d="m154.235 110.889c-.728-.009-1.45.132-2.114.415-.664.282-1.255.699-1.731 1.222-.476.522-.826 1.137-1.025 1.801s-.242 1.361-.127 2.043l21.173 121.833c.267 1.487 1.076 2.838 2.286 3.816 1.211.978 2.745 1.521 4.335 1.534h101.499c1.192.013 2.35-.379 3.264-1.106.914-.726 1.523-1.739 1.717-2.855l21.166-123.2c.115-.682.071-1.379-.128-2.044-.199-.664-.549-1.278-1.025-1.801-.476-.522-1.067-.939-1.731-1.221-.664-.283-1.385-.425-2.113-.415zm89.091 88.036h-32.407l-8.774-43.466h49.021z" fill="#2684ff"/><path d="m297.88 155.459h-46.775l-7.84 43.473h-32.415l-38.255 43.065c1.214.993 2.759 1.544 4.361 1.556h101.537c1.192.013 2.35-.379 3.264-1.106.914-.726 1.523-1.739 1.717-2.855z" fill="url(#a)"/><rect fill="#fff" height="445" rx="25" stroke="#aaa" stroke-width="10" width="445" x="5" y="304"/><path clip-rule="evenodd" d="m228.087 424.64c-26.128-.031-51.413 8.767-71.321 24.817-19.908 16.049-33.138 38.301-37.316 62.764-4.179 24.463.967 49.538 14.515 70.728 13.547 21.19 34.61 37.111 59.412 44.906 5.449.894 7.475-2.312 7.475-5.066l-.174-17.735c-30.571 6.309-36.974-13.954-36.974-13.954-5.048-12.053-12.22-15.259-12.22-15.259-9.977-6.473.758-6.371.758-6.371 11.05.75 16.792 10.769 16.792 10.769 9.858 15.927 25.773 11.303 32.056 8.652.481-5.288 2.94-10.237 6.933-13.954-24.386-2.579-50.071-11.539-50.071-51.5 0-11.365 4.279-20.705 11.331-27.98-3.351-8.98-2.971-18.834 1.062-27.558 0 0 9.273-2.816 30.268 10.686 18.013-4.624 36.999-4.624 55.012 0 20.963-13.502 30.214-10.686 30.214-10.686 4.045 8.729 4.425 18.593 1.062 27.579 7.074 7.316 11.277 16.605 11.277 27.979 0 40.013-25.696 48.849-50.158 51.449 3.932 3.196 7.432 9.556 7.432 19.287l-.12 28.606c0 2.816 1.951 6.022 7.595 5.015 24.75-7.851 45.749-23.795 59.244-44.983 13.494-21.187 18.604-46.236 14.415-70.668-4.189-24.433-17.404-46.655-37.281-62.695s-45.121-24.852-71.218-24.859" fill="#1b1817" fill-rule="evenodd"/></svg>