<svg width="2322" height="733" viewBox="0 0 2322 733" fill="none" xmlns="http://www.w3.org/2000/svg">
<path d="M1515.54 369.536C1517.49 367.583 1517.49 364.417 1515.54 362.465L1483.72 330.645C1481.76 328.692 1478.6 328.692 1476.64 330.645C1474.69 332.597 1474.69 335.763 1476.64 337.716L1504.93 366L1476.64 394.284C1474.69 396.237 1474.69 399.403 1476.64 401.355C1478.6 403.308 1481.76 403.308 1483.72 401.355L1515.54 369.536ZM1071 371L1512 371L1512 361L1071 361L1071 371Z" fill="black"/>
<path d="M1090.6 300H1102.2L1113.56 263.6H1114.04L1125.4 300H1137L1155.4 244H1143L1131.4 281.6H1131L1119.4 244H1108.2L1096.6 281.6H1096.2L1084.6 244H1072.2L1090.6 300ZM1176.24 300.8C1187.84 300.8 1197.04 291.6 1197.04 280.4C1197.04 269.2 1187.84 260 1176.24 260C1164.64 260 1155.44 269.2 1155.44 280.4C1155.44 291.6 1164.64 300.8 1176.24 300.8ZM1176.24 290.8C1170.64 290.8 1166.24 286.4 1166.24 280.4C1166.24 274.4 1170.64 270 1176.24 270C1181.84 270 1186.24 274.4 1186.24 280.4C1186.24 286.4 1181.84 290.8 1176.24 290.8ZM1205.03 300H1215.83V281.6C1215.83 275.2 1219.83 271.2 1225.03 271.2C1227.43 271.2 1228.63 271.6 1228.63 271.6V260H1227.83C1220.23 260 1216.23 266.4 1216.23 266.4H1215.83V260.8H1205.03V300ZM1235.82 300H1246.62V290.8L1251.82 284.8L1261.82 300H1274.22L1259.02 277.2L1273.42 260.8H1260.62L1246.62 276.8V244H1235.82V300ZM1281.41 300H1292.21V271.6H1301.01V261.6H1292.21V259.2C1292.21 255.6 1294.21 253.6 1297.41 253.6C1299.81 253.6 1301.81 254.4 1301.81 254.4V244.4C1301.81 244.4 1298.61 243.2 1294.61 243.2C1286.61 243.2 1281.41 248.4 1281.41 257.6V261.6H1275.41V271.6H1281.41V300ZM1309.02 300H1319.82V244H1309.02V300ZM1349.05 300.8C1360.65 300.8 1369.85 291.6 1369.85 280.4C1369.85 269.2 1360.65 260 1349.05 260C1337.45 260 1328.25 269.2 1328.25 280.4C1328.25 291.6 1337.45 300.8 1349.05 300.8ZM1349.05 290.8C1343.45 290.8 1339.05 286.4 1339.05 280.4C1339.05 274.4 1343.45 270 1349.05 270C1354.65 270 1359.05 274.4 1359.05 280.4C1359.05 286.4 1354.65 290.8 1349.05 290.8ZM1386 300H1395.84L1403.28 277.2H1403.6L1411.04 300H1420.88L1434.64 260.8H1423.04L1415.84 284H1415.44L1407.84 260.8H1399.04L1391.44 284H1391.04L1383.84 260.8H1372.24L1386 300ZM1452.2 300.8C1463 300.8 1468.6 295.2 1468.6 288.4C1468.6 275.6 1448.6 276.4 1448.6 272C1448.6 270.8 1449.8 269.6 1452.6 269.6C1458.2 269.6 1461.4 272.8 1461.4 272.8L1467.8 266C1467.8 266 1462.6 260 1452.6 260C1442.6 260 1437 265.6 1437 272C1437 284.8 1457 284 1457 288.4C1457 290 1455.8 291.2 1452.2 291.2C1445.8 291.2 1441.8 286.8 1441.8 286.8L1435.4 293.6C1435.4 293.6 1441.4 300.8 1452.2 300.8Z" fill="black"/>
<path d="M444.536 369.536C446.488 367.583 446.488 364.417 444.536 362.465L412.716 330.645C410.763 328.692 407.597 328.692 405.645 330.645C403.692 332.597 403.692 335.763 405.645 337.716L433.929 366L405.645 394.284C403.692 396.237 403.692 399.403 405.645 401.355C407.597 403.308 410.763 403.308 412.716 401.355L444.536 369.536ZM-4.37114e-07 371L441 371L441 361L4.37114e-07 361L-4.37114e-07 371Z" fill="black"/>
<path d="M139.2 300H159.6C176.8 300 189.2 287.6 189.2 272C189.2 256.4 176.8 244 159.6 244H139.2V300ZM151.2 288.8V255.2H159.6C169.6 255.2 176.8 262.4 176.8 272C176.8 281.6 169.6 288.8 159.6 288.8H151.2ZM207.981 300.8C215.581 300.8 219.581 295.2 219.581 295.2H219.981V300C222.381 300 230.781 300 230.781 300V275.6C230.781 266.8 223.981 260 213.981 260C203.581 260 197.981 267.6 197.981 267.6L204.381 274C204.381 274 207.581 269.6 213.181 269.6C217.181 269.6 219.581 272 219.981 274.8L207.581 277.04C200.381 278.32 195.981 283.2 195.981 289.6C195.981 296 200.781 300.8 207.981 300.8ZM211.581 292C208.381 292 206.781 290.4 206.781 288C206.781 286 208.381 284.48 211.181 284L219.981 282.4V283.2C219.981 288.4 216.381 292 211.581 292ZM256.803 300.8C260.803 300.8 264.003 299.6 264.003 299.6V289.6C264.003 289.6 262.003 290.4 259.603 290.4C256.403 290.4 254.403 288.4 254.403 284.8V271.6H263.203V261.6H254.403V249.6H244.803V256.8C244.803 260 243.203 261.6 240.403 261.6H236.803V271.6H243.603V286.4C243.603 295.6 248.803 300.8 256.803 300.8ZM281.653 300.8C289.253 300.8 293.253 295.2 293.253 295.2H293.653V300C296.053 300 304.453 300 304.453 300V275.6C304.453 266.8 297.653 260 287.653 260C277.253 260 271.653 267.6 271.653 267.6L278.053 274C278.053 274 281.253 269.6 286.853 269.6C290.853 269.6 293.253 272 293.653 274.8L281.253 277.04C274.053 278.32 269.653 283.2 269.653 289.6C269.653 296 274.453 300.8 281.653 300.8ZM285.253 292C282.053 292 280.453 290.4 280.453 288C280.453 286 282.053 284.48 284.853 284L293.653 282.4V283.2C293.653 288.4 290.053 292 285.253 292Z" fill="black"/>
<rect x="554" y="106" width="445" height="445" rx="25" fill="white" stroke="#AAAAAA" stroke-width="10"/>
<path d="M923.7 318.199C920.1 296.799 904.3 279.699 883.8 273.699C884.101 271.599 884.4 269.499 884.4 267.399C884.4 245.299 866.501 227.399 844.4 227.399C833.201 227.399 823.201 231.999 815.9 239.399C813.9 234.099 808.9 230.299 802.9 230.299C795.201 230.299 788.9 236.599 788.9 244.299C788.9 251.999 794.201 255.399 805.3 260.699C806.8 261.399 808.3 262.199 809.7 262.999C810.6 263.499 811.399 263.999 812.3 264.499C812.9 264.899 813.601 265.299 814.2 265.699C814.6 265.899 814.899 266.199 815.3 266.399C818.7 268.699 821.8 271.199 824.8 273.899C825 273.999 825.101 274.199 825.3 274.299C826.5 275.399 827.7 276.599 828.8 277.899C829.101 278.199 829.4 278.599 829.7 278.899C831 280.299 832.2 281.799 833.3 283.299C842.7 295.699 848.3 311.199 848.3 327.899C848.3 344.599 842.601 360.099 833.3 372.499C832.2 373.999 830.9 375.399 829.7 376.899C829.399 377.199 829.1 377.598 828.8 377.899C827.7 379.098 826.5 380.299 825.3 381.499C825.101 381.599 825 381.8 824.8 381.899C821.8 384.598 818.7 387.199 815.3 389.399C814.9 389.598 814.601 389.899 814.2 390.098C813.6 390.498 813 390.899 812.3 391.299C811.5 391.799 810.601 392.299 809.7 392.799C808.2 393.598 806.8 394.399 805.3 395.098C794.101 400.299 788.9 403.699 788.9 411.498C788.9 419.198 795.201 425.498 802.9 425.498C808.9 425.498 813.9 421.698 815.9 416.398C823.201 423.798 833.3 428.398 844.4 428.398C866.501 428.398 884.4 410.498 884.4 388.398C884.4 386.198 884.101 384.198 883.8 382.097C904.3 376.097 919.999 358.898 923.7 337.597C924.2 334.497 924.499 331.397 924.499 328.197C924.499 324.399 924.2 321.199 923.7 318.199V318.199ZM749.2 394.699C747.7 393.999 746.2 393.199 744.8 392.399C743.9 391.899 743.1 391.399 742.2 390.899C741.6 390.499 740.9 390.098 740.3 389.699C739.9 389.499 739.6 389.199 739.2 388.999C735.8 386.8 732.7 384.199 729.7 381.499C729.5 381.399 729.4 381.199 729.2 381.099C728 379.9 726.8 378.8 725.7 377.499C725.4 377.199 725.1 376.8 724.8 376.499C723.5 375.099 722.3 373.599 721.2 372.099C711.8 359.7 706.2 344.2 706.2 327.5C706.2 310.8 711.9 295.3 721.2 282.9C722.3 281.4 723.6 280 724.8 278.5C725.1 278.2 725.4 277.8 725.7 277.5C726.8 276.3 728 275.1 729.2 273.9C729.4 273.8 729.5 273.6 729.7 273.5C732.7 270.8 735.8 268.2 739.2 266C739.6 265.8 739.9 265.5 740.3 265.3C740.9 264.9 741.5 264.5 742.2 264.1C743 263.6 743.9 263.1 744.8 262.6C746.3 261.8 747.7 261 749.2 260.3C760.4 255.1 765.6 251.7 765.6 243.9C765.6 236.2 759.3 229.9 751.6 229.9C745.6 229.9 740.6 233.7 738.6 239C731.3 231.6 721.2 227 710.1 227C688 227 670.1 244.9 670.1 267C670.1 269.2 670.4 271.2 670.7 273.3C650.2 279.3 634.5 296.5 630.8 317.8C630.3 320.9 630 324 630 327.2C630 330.4 630.3 333.5 630.8 336.6C634.4 358 650.2 375.1 670.7 381.1C670.4 383.199 670.1 385.299 670.1 387.399C670.1 409.499 688 427.399 710.1 427.399C721.3 427.399 731.3 422.799 738.6 415.399C740.6 420.699 745.6 424.499 751.6 424.499C759.3 424.499 765.6 418.199 765.6 410.499C765.6 403.299 760.4 399.899 749.2 394.699V394.699Z" fill="#034AD8"/>
<path d="M820.9 327.599C820.9 303.499 801.4 283.999 777.3 283.999C753.2 283.999 733.7 303.499 733.7 327.599C733.7 351.699 753.2 371.199 777.3 371.199C801.4 371.199 820.9 351.699 820.9 327.599V327.599Z" fill="#034AD8"/>
<rect x="797" y="588" width="140" height="140" rx="25" fill="white" stroke="#AAAAAA" stroke-width="10"/>
<g clip-path="url(#clip0_5508_47424)">
<path opacity="0.502" d="M877.593 689.781H888.186V700.373H877.593V689.781Z" fill="#0074BF"/>
<path opacity="0.702" d="M867 689.781H877.593V700.373H867V689.781ZM856.408 689.781H867V700.373H856.408V689.781Z" fill="#0074BF"/>
<path opacity="0.502" d="M845.814 689.781H856.408V700.373H845.814V689.781Z" fill="#0074BF"/>
<path opacity="0.702" d="M888.187 679.187H898.781V689.781H888.187V679.187Z" fill="#0082BF"/>
<path opacity="0.8" d="M877.593 679.187H888.186V689.781H877.593V679.187Z" fill="#0082BF"/>
<path d="M867 679.187H877.593V689.781H867V679.187ZM856.408 679.187H867V689.781H856.408V679.187Z" fill="#0082BF"/>
<path opacity="0.8" d="M845.814 679.187H856.408V689.781H845.814V679.187Z" fill="#0082BF"/>
<path opacity="0.702" d="M835.219 679.187H845.813V689.781H835.219V679.187Z" fill="#0082BF"/>
<path opacity="0.502" d="M898.781 668.592H909.373V679.186H898.781V668.592Z" fill="#008FBF"/>
<path opacity="0.8" d="M888.187 668.592H898.781V679.186H888.187V668.592Z" fill="#008FBF"/>
<path d="M877.592 668.592H888.186V679.186H877.592V668.592ZM867 668.592H877.592V679.186H867V668.592ZM856.408 668.592H867V679.186H856.408V668.592Z" fill="#008FBF"/>
<path d="M845.814 668.592H856.408V679.186H845.814V668.592Z" fill="#008FBF"/>
<path opacity="0.8" d="M835.219 668.592H845.813V679.186H835.219V668.592Z" fill="#008FBF"/>
<path opacity="0.502" d="M824.627 668.592H835.219V679.186H824.627V668.592Z" fill="#008FBF"/>
<path opacity="0.702" d="M898.781 658H909.373V668.592H898.781V658Z" fill="#009DBF"/>
<path d="M888.187 658H898.781V668.592H888.187V658ZM877.592 658H888.186V668.592H877.592V658ZM867 658H877.592V668.592H867V658ZM856.408 658H867V668.592H856.408V658Z" fill="#009DBF"/>
<path d="M845.814 658H856.408V668.592H845.814V658ZM835.219 658H845.813V668.592H835.219V658Z" fill="#009DBF"/>
<path opacity="0.702" d="M824.627 658H835.219V668.592H824.627V658Z" fill="#009DBF"/>
<path opacity="0.702" d="M898.781 647.408H909.373V658H898.781V647.408Z" fill="#00ABBF"/>
<path d="M888.187 647.408H898.781V658H888.187V647.408ZM877.592 647.408H888.186V658H877.592V647.408ZM867 647.408H877.592V658H867V647.408ZM856.408 647.408H867V658H856.408V647.408Z" fill="#00ABBF"/>
<path d="M845.814 647.408H856.408V658H845.814V647.408ZM835.219 647.408H845.813V658H835.219V647.408Z" fill="#00ABBF"/>
<path opacity="0.702" d="M824.627 647.408H835.219V658H824.627V647.408Z" fill="#00ABBF"/>
<path opacity="0.502" d="M898.781 636.814H909.373V647.408H898.781V636.814Z" fill="#00B9BF"/>
<path opacity="0.8" d="M888.187 636.814H898.781V647.408H888.187V636.814Z" fill="#00B9BF"/>
<path d="M877.592 636.814H888.186V647.408H877.592V636.814ZM867 636.814H877.592V647.408H867V636.814ZM856.408 636.814H867V647.408H856.408V636.814Z" fill="#00B9BF"/>
<path d="M845.814 636.814H856.408V647.408H845.814V636.814Z" fill="#00B9BF"/>
<path opacity="0.8" d="M835.219 636.814H845.813V647.408H835.219V636.814Z" fill="#00B9BF"/>
<path opacity="0.502" d="M824.627 636.814H835.219V647.408H824.627V636.814Z" fill="#00B9BF"/>
<path opacity="0.702" d="M888.187 626.219H898.781V636.813H888.187V626.219Z" fill="#00C6BF"/>
<path opacity="0.8" d="M877.593 626.219H888.186V636.813H877.593V626.219Z" fill="#00C6BF"/>
<path d="M867 626.219H877.593V636.813H867V626.219ZM856.408 626.219H867V636.813H856.408V626.219Z" fill="#00C6BF"/>
<path opacity="0.8" d="M845.814 626.219H856.408V636.813H845.814V626.219Z" fill="#00C6BF"/>
<path opacity="0.702" d="M835.219 626.219H845.813V636.813H835.219V626.219Z" fill="#00C6BF"/>
<path opacity="0.502" d="M877.593 615.627H888.186V626.219H877.593V615.627Z" fill="#00D4BF"/>
<path opacity="0.702" d="M867 615.627H877.593V626.219H867V615.627ZM856.408 615.627H867V626.219H856.408V615.627Z" fill="#00D4BF"/>
<path opacity="0.502" d="M845.814 615.627H856.408V626.219H845.814V615.627Z" fill="#00D4BF"/>
<path d="M852.518 654.658L855.47 648.051C856.546 646.358 856.404 644.283 855.227 643.107C855.187 643.067 855.148 643.029 855.105 642.992C855.064 642.955 855.022 642.918 854.979 642.884C854.892 642.815 854.802 642.75 854.708 642.691C854.507 642.567 854.293 642.466 854.07 642.389C853.846 642.312 853.616 642.259 853.381 642.231C853.146 642.204 852.909 642.203 852.674 642.227C852.439 642.251 852.207 642.299 851.984 642.374C851.73 642.452 851.484 642.554 851.25 642.675C851.015 642.798 850.792 642.941 850.582 643.102C850.372 643.265 850.178 643.446 849.999 643.643C849.822 643.839 849.663 644.051 849.523 644.276C849.384 644.501 845.482 653.704 843.978 657.942C842.475 662.179 843.075 669.951 848.873 675.761C855.023 681.911 863.926 683.315 869.605 679.054C869.665 679.024 869.724 678.991 869.781 678.959C869.839 678.926 869.895 678.891 869.95 678.854C870.007 678.819 870.061 678.781 870.114 678.741C870.168 678.703 870.22 678.662 870.271 678.62L887.771 664.006C888.621 663.303 889.878 661.857 888.75 660.205C887.648 658.594 885.561 659.69 884.709 660.234L874.637 667.558C874.591 667.596 874.535 667.626 874.477 667.643C874.418 667.66 874.357 667.665 874.296 667.658C874.236 667.651 874.176 667.632 874.124 667.602C874.07 667.572 874.024 667.531 873.987 667.482C873.731 667.167 873.686 666.335 874.087 666.005L889.526 652.902C890.86 651.701 891.045 649.955 889.965 648.758C888.911 647.586 887.236 647.621 885.891 648.833L871.991 659.7C871.926 659.754 871.851 659.793 871.77 659.816C871.69 659.838 871.605 659.845 871.522 659.834C871.438 659.823 871.359 659.796 871.287 659.752C871.215 659.71 871.151 659.653 871.103 659.585C870.829 659.277 870.723 658.752 871.032 658.444L886.774 643.167C887.07 642.892 887.309 642.561 887.475 642.194C887.643 641.827 887.737 641.429 887.751 641.026C887.766 640.623 887.701 640.22 887.559 639.842C887.417 639.463 887.204 639.117 886.93 638.821C886.792 638.675 886.64 638.545 886.477 638.432C886.313 638.318 886.138 638.221 885.955 638.142C885.771 638.064 885.58 638.005 885.385 637.964C885.19 637.924 884.991 637.905 884.791 637.906C884.587 637.903 884.384 637.92 884.184 637.958C883.783 638.032 883.401 638.184 883.058 638.405C882.887 638.516 882.728 638.643 882.581 638.784L866.495 653.894C866.11 654.278 865.358 653.894 865.266 653.444C865.258 653.404 865.254 653.363 865.256 653.322C865.258 653.281 865.265 653.24 865.277 653.202C865.288 653.163 865.306 653.124 865.327 653.091C865.348 653.055 865.373 653.022 865.403 652.994L877.715 638.975C878.013 638.698 878.252 638.363 878.418 637.992C878.584 637.62 878.673 637.218 878.68 636.811C878.695 635.989 878.375 635.196 877.796 634.615C877.214 634.032 876.422 633.71 875.601 633.722C874.779 633.735 873.997 634.08 873.434 634.68L854.763 655.322C854.094 655.991 853.108 656.025 852.639 655.636C852.566 655.58 852.507 655.509 852.463 655.43C852.418 655.351 852.39 655.263 852.378 655.172C852.367 655.08 852.374 654.989 852.398 654.901C852.422 654.813 852.463 654.73 852.518 654.658V654.658Z" fill="white"/>
</g>
<rect x="616" y="588" width="140" height="140" rx="25" fill="white" stroke="#AAAAAA" stroke-width="10"/>
<g clip-path="url(#clip1_5508_47424)">
<path d="M728.372 657.817C728.37 657.209 728.356 656.605 728.329 656.003V621.71L718.849 631.191C711.089 621.693 699.285 615.627 686.064 615.627C672.305 615.627 660.081 622.194 652.354 632.365L667.894 648.068C669.417 645.252 671.581 642.833 674.189 641.006C676.902 638.889 680.746 637.158 686.064 637.158C686.706 637.158 687.202 637.233 687.566 637.374C694.155 637.894 699.865 641.53 703.228 646.807L692.228 657.807C706.161 657.753 721.9 657.72 728.371 657.814" fill="#1C3AA9"/>
<path d="M685.817 615.628C685.209 615.63 684.605 615.644 684.003 615.672H649.711L659.191 625.152C649.693 632.912 643.627 644.715 643.627 657.937C643.627 671.696 650.195 683.919 660.365 691.646L676.069 676.107C673.252 674.584 670.833 672.42 669.006 669.812C666.889 667.099 665.158 663.255 665.158 657.937C665.158 657.295 665.233 656.799 665.374 656.435C665.894 649.846 669.53 644.135 674.808 640.773L685.807 651.773C685.753 637.84 685.721 622.101 685.815 615.63" fill="#4285F4"/>
<path d="M643.629 657.936C643.631 658.543 643.645 659.148 643.672 659.749V694.042L653.152 684.562C660.912 694.059 672.716 700.126 685.937 700.126C699.696 700.126 711.92 693.558 719.647 683.387L704.107 667.684C702.584 670.501 700.421 672.92 697.812 674.747C695.099 676.864 691.255 678.595 685.937 678.595C685.295 678.595 684.799 678.52 684.435 678.378C677.847 677.858 672.136 674.222 668.773 668.945L679.773 657.945C665.84 658 650.101 658.032 643.63 657.938" fill="#ABABAB"/>
</g>
<rect x="1973" y="384" width="344" height="344" rx="25" fill="white" stroke="#AAAAAA" stroke-width="10"/>
<g clip-path="url(#clip2_5508_47424)">
<path fill-rule="evenodd" clip-rule="evenodd" d="M2118.33 456C2107.27 456.008 2098.33 464.98 2098.33 476.036C2098.33 487.092 2107.28 496.064 2118.34 496.072H2138.34V476.044C2138.35 464.988 2129.39 456.016 2118.33 456C2118.34 456 2118.34 456 2118.33 456V456ZM2118.33 509.44H2065C2053.95 509.448 2044.99 518.42 2045 529.476C2044.98 540.532 2053.94 549.504 2065 549.52H2118.33C2129.38 549.512 2138.34 540.54 2138.33 529.484C2138.34 518.42 2129.38 509.448 2118.33 509.44V509.44Z" fill="#36C5F0"/>
<path fill-rule="evenodd" clip-rule="evenodd" d="M2245 529.476C2245.01 518.42 2236.05 509.448 2225 509.44C2213.94 509.448 2204.99 518.42 2204.99 529.476V549.52H2225C2236.05 549.512 2245.01 540.54 2245 529.476ZM2191.67 529.476V476.036C2191.67 464.988 2182.73 456.016 2171.67 456C2160.62 456.008 2151.66 464.98 2151.67 476.036V529.476C2151.65 540.532 2160.61 549.504 2171.66 549.52C2182.72 549.512 2191.67 540.54 2191.67 529.476Z" fill="#2EB67D"/>
<path fill-rule="evenodd" clip-rule="evenodd" d="M2171.66 656.4C2182.72 656.392 2191.67 647.42 2191.67 636.364C2191.67 625.309 2182.72 616.337 2171.66 616.329H2151.66V636.364C2151.65 647.412 2160.61 656.384 2171.66 656.4ZM2171.66 602.952H2225C2236.05 602.944 2245.01 593.972 2245 582.916C2245.02 571.86 2236.06 562.888 2225 562.872H2171.67C2160.61 562.88 2151.66 571.852 2151.67 582.908C2151.66 593.972 2160.61 602.944 2171.66 602.952V602.952Z" fill="#ECB22E"/>
<path fill-rule="evenodd" clip-rule="evenodd" d="M2045 582.916C2044.99 593.972 2053.95 602.944 2065 602.952C2076.06 602.944 2085.01 593.972 2085.01 582.916V562.88H2065C2053.95 562.888 2044.99 571.86 2045 582.916ZM2098.33 582.916V636.356C2098.32 647.412 2107.27 656.384 2118.33 656.4C2129.38 656.392 2138.34 647.42 2138.33 636.364V582.932C2138.35 571.876 2129.39 562.904 2118.34 562.888C2107.27 562.888 2098.33 571.86 2098.33 582.916C2098.33 582.924 2098.33 582.916 2098.33 582.916Z" fill="#E01E5A"/>
</g>
<rect x="1594" y="5" width="344" height="344" rx="25" fill="white" stroke="#AAAAAA" stroke-width="10"/>
<g clip-path="url(#clip3_5508_47424)">
<mask id="mask0_5508_47424" style="mask-type:alpha" maskUnits="userSpaceOnUse" x="1666" y="85" width="149" height="184">
<path d="M1814.6 85.2085H1666.36V268.738H1814.6V85.2085Z" fill="white"/>
<path fill-rule="evenodd" clip-rule="evenodd" d="M1730.34 110.062C1730.03 110.665 1729.74 111.273 1729.47 111.886L1729.34 111.82L1677.21 201.61C1676.48 202.708 1675.8 203.856 1675.18 205.054C1665.41 224.006 1674.14 247.951 1694.68 258.535C1715.22 269.12 1739.79 262.336 1749.55 243.385C1749.62 243.258 1749.68 243.131 1749.75 243.003L1802.89 151.536C1803.54 150.529 1804.15 149.48 1804.71 148.392C1814.48 129.44 1805.75 105.495 1785.22 94.9108C1764.68 84.3261 1740.11 91.1093 1730.34 110.062Z" fill="black"/>
</mask>
<g mask="url(#mask0_5508_47424)">
<path fill-rule="evenodd" clip-rule="evenodd" d="M1730.34 110.062C1730.03 110.665 1729.74 111.273 1729.47 111.886L1729.34 111.82L1677.21 201.61C1676.48 202.708 1675.8 203.856 1675.18 205.054C1665.41 224.006 1674.14 247.951 1694.68 258.535C1715.22 269.12 1739.79 262.336 1749.55 243.385C1749.62 243.258 1749.68 243.131 1749.75 243.003L1802.89 151.536C1803.54 150.529 1804.15 149.48 1804.71 148.392C1814.48 129.44 1805.75 105.495 1785.22 94.9108C1764.68 84.3261 1740.11 91.1093 1730.34 110.062Z" fill="#4F81E2"/>
<path d="M1729.47 111.886L1733.76 113.805L1731.74 118.334L1727.32 116.076L1729.47 111.886ZM1730.34 110.061L1726.16 107.905L1730.34 110.061ZM1729.34 111.82L1725.27 109.457L1727.51 105.599L1731.48 107.63L1729.34 111.82ZM1677.21 201.61L1681.28 203.973L1681.2 204.096L1681.12 204.215L1677.21 201.61ZM1675.18 205.054L1671 202.898L1675.18 205.054ZM1749.55 243.385L1745.37 241.228L1749.55 243.385ZM1749.75 243.003L1745.54 240.898L1745.6 240.766L1745.68 240.64L1749.75 243.003ZM1802.89 151.536L1798.82 149.172L1798.88 149.069L1798.94 148.97L1802.89 151.536ZM1804.71 148.392L1800.53 146.236L1804.71 148.392ZM1785.22 94.9107L1783.06 99.0937L1785.22 94.9107ZM1725.17 109.967C1725.48 109.274 1725.81 108.587 1726.16 107.905L1734.53 112.217C1734.26 112.743 1734 113.272 1733.76 113.805L1725.17 109.967ZM1731.48 107.63L1731.61 107.696L1727.32 116.076L1727.2 116.01L1731.48 107.63ZM1673.14 199.247L1725.27 109.457L1733.41 114.183L1681.28 203.973L1673.14 199.247ZM1681.12 204.215C1680.49 205.169 1679.9 206.168 1679.37 207.209L1671 202.898C1671.7 201.546 1672.46 200.248 1673.29 199.005L1681.12 204.215ZM1679.37 207.209C1670.95 223.542 1678.29 244.792 1696.84 254.352L1692.53 262.718C1670 251.109 1659.88 224.47 1671 202.898L1679.37 207.209ZM1696.84 254.352C1715.39 263.913 1736.95 257.56 1745.37 241.228L1753.74 245.54C1742.62 267.113 1715.05 274.327 1692.53 262.718L1696.84 254.352ZM1745.37 241.228C1745.43 241.119 1745.48 241.008 1745.54 240.898L1753.96 245.11C1753.88 245.254 1753.81 245.398 1753.74 245.54L1745.37 241.228ZM1806.96 153.9L1753.82 245.368L1745.68 240.64L1798.82 149.172L1806.96 153.9ZM1808.9 150.548C1808.26 151.777 1807.58 152.962 1806.83 154.101L1798.94 148.97C1799.51 148.095 1800.04 147.184 1800.53 146.236L1808.9 150.548ZM1787.37 90.7277C1809.9 102.337 1820.02 128.975 1808.9 150.548L1800.53 146.236C1808.95 129.904 1801.61 108.654 1783.06 99.0937L1787.37 90.7277ZM1726.16 107.905C1737.28 86.3331 1764.85 79.1186 1787.37 90.7277L1783.06 99.0937C1764.51 89.5334 1742.94 95.8852 1734.53 112.217L1726.16 107.905Z" fill="#4F81E2"/>
<path d="M1729.47 111.886L1733.76 113.805L1731.74 118.334L1727.32 116.076L1729.47 111.886ZM1730.34 110.061L1726.16 107.905L1730.34 110.061ZM1729.34 111.82L1725.27 109.457L1727.51 105.599L1731.48 107.63L1729.34 111.82ZM1677.21 201.61L1681.28 203.973L1681.2 204.096L1681.12 204.215L1677.21 201.61ZM1675.18 205.054L1671 202.898L1675.18 205.054ZM1749.55 243.385L1745.37 241.228L1749.55 243.385ZM1749.75 243.003L1745.54 240.898L1745.6 240.766L1745.68 240.64L1749.75 243.003ZM1802.89 151.536L1798.82 149.172L1798.88 149.069L1798.94 148.97L1802.89 151.536ZM1804.71 148.392L1800.53 146.236L1804.71 148.392ZM1785.22 94.9107L1783.06 99.0937L1785.22 94.9107ZM1725.17 109.967C1725.48 109.274 1725.81 108.587 1726.16 107.905L1734.53 112.217C1734.26 112.743 1734 113.272 1733.76 113.805L1725.17 109.967ZM1731.48 107.63L1731.61 107.696L1727.32 116.076L1727.2 116.01L1731.48 107.63ZM1673.14 199.247L1725.27 109.457L1733.41 114.183L1681.28 203.973L1673.14 199.247ZM1681.12 204.215C1680.49 205.169 1679.9 206.168 1679.37 207.209L1671 202.898C1671.7 201.546 1672.46 200.248 1673.29 199.005L1681.12 204.215ZM1679.37 207.209C1670.95 223.542 1678.29 244.792 1696.84 254.352L1692.53 262.718C1670 251.109 1659.88 224.47 1671 202.898L1679.37 207.209ZM1696.84 254.352C1715.39 263.913 1736.95 257.56 1745.37 241.228L1753.74 245.54C1742.62 267.113 1715.05 274.327 1692.53 262.718L1696.84 254.352ZM1745.37 241.228C1745.43 241.119 1745.48 241.008 1745.54 240.898L1753.96 245.11C1753.88 245.254 1753.81 245.398 1753.74 245.54L1745.37 241.228ZM1806.96 153.9L1753.82 245.368L1745.68 240.64L1798.82 149.172L1806.96 153.9ZM1808.9 150.548C1808.26 151.777 1807.58 152.962 1806.83 154.101L1798.94 148.97C1799.51 148.095 1800.04 147.184 1800.53 146.236L1808.9 150.548ZM1787.37 90.7277C1809.9 102.337 1820.02 128.975 1808.9 150.548L1800.53 146.236C1808.95 129.904 1801.61 108.654 1783.06 99.0937L1787.37 90.7277ZM1726.16 107.905C1737.28 86.3331 1764.85 79.1186 1787.37 90.7277L1783.06 99.0937C1764.51 89.5334 1742.94 95.8852 1734.53 112.217L1726.16 107.905Z" fill="#4F81E2"/>
<path d="M1729.47 111.886L1733.76 113.805L1731.74 118.334L1727.32 116.076L1729.47 111.886ZM1730.34 110.061L1726.16 107.905L1730.34 110.061ZM1729.34 111.82L1725.27 109.457L1727.51 105.599L1731.48 107.63L1729.34 111.82ZM1677.21 201.61L1681.28 203.973L1681.2 204.096L1681.12 204.215L1677.21 201.61ZM1675.18 205.054L1671 202.898L1675.18 205.054ZM1749.55 243.385L1745.37 241.228L1749.55 243.385ZM1749.75 243.003L1745.54 240.898L1745.6 240.766L1745.68 240.64L1749.75 243.003ZM1802.89 151.536L1798.82 149.172L1798.88 149.069L1798.94 148.97L1802.89 151.536ZM1804.71 148.392L1800.53 146.236L1804.71 148.392ZM1785.22 94.9107L1783.06 99.0937L1785.22 94.9107ZM1725.17 109.967C1725.48 109.274 1725.81 108.587 1726.16 107.905L1734.53 112.217C1734.26 112.743 1734 113.272 1733.76 113.805L1725.17 109.967ZM1731.48 107.63L1731.61 107.696L1727.32 116.076L1727.2 116.01L1731.48 107.63ZM1673.14 199.247L1725.27 109.457L1733.41 114.183L1681.28 203.973L1673.14 199.247ZM1681.12 204.215C1680.49 205.169 1679.9 206.168 1679.37 207.209L1671 202.898C1671.7 201.546 1672.46 200.248 1673.29 199.005L1681.12 204.215ZM1679.37 207.209C1670.95 223.542 1678.29 244.792 1696.84 254.352L1692.53 262.718C1670 251.109 1659.88 224.47 1671 202.898L1679.37 207.209ZM1696.84 254.352C1715.39 263.913 1736.95 257.56 1745.37 241.228L1753.74 245.54C1742.62 267.113 1715.05 274.327 1692.53 262.718L1696.84 254.352ZM1745.37 241.228C1745.43 241.119 1745.48 241.008 1745.54 240.898L1753.96 245.11C1753.88 245.254 1753.81 245.398 1753.74 245.54L1745.37 241.228ZM1806.96 153.9L1753.82 245.368L1745.68 240.64L1798.82 149.172L1806.96 153.9ZM1808.9 150.548C1808.26 151.777 1807.58 152.962 1806.83 154.101L1798.94 148.97C1799.51 148.095 1800.04 147.184 1800.53 146.236L1808.9 150.548ZM1787.37 90.7277C1809.9 102.337 1820.02 128.975 1808.9 150.548L1800.53 146.236C1808.95 129.904 1801.61 108.654 1783.06 99.0937L1787.37 90.7277ZM1726.16 107.905C1737.28 86.3331 1764.85 79.1186 1787.37 90.7277L1783.06 99.0937C1764.51 89.5334 1742.94 95.8852 1734.53 112.217L1726.16 107.905Z" fill="#4F81E2"/>
</g>
<mask id="mask1_5508_47424" style="mask-type:alpha" maskUnits="userSpaceOnUse" x="1717" y="85" width="150" height="184">
<path d="M1866.06 85.2085H1717.83V268.738H1866.06V85.2085Z" fill="white"/>
<path fill-rule="evenodd" clip-rule="evenodd" d="M1802.08 110.062C1802.4 110.665 1802.69 111.273 1802.96 111.886L1803.09 111.82L1855.22 201.61C1855.95 202.708 1856.63 203.856 1857.24 205.054C1867.01 224.006 1858.28 247.951 1837.75 258.535C1817.21 269.12 1792.64 262.336 1782.87 243.385C1782.81 243.258 1782.74 243.131 1782.68 243.003L1729.54 151.536C1728.88 150.529 1728.27 149.48 1727.71 148.392C1717.95 129.44 1726.68 105.495 1747.21 94.9108C1767.75 84.3261 1792.32 91.1093 1802.08 110.062Z" fill="black"/>
</mask>
<g mask="url(#mask1_5508_47424)">
<path fill-rule="evenodd" clip-rule="evenodd" d="M1802.08 110.062C1802.4 110.665 1802.69 111.273 1802.96 111.886L1803.09 111.82L1855.22 201.61C1855.95 202.708 1856.63 203.856 1857.24 205.054C1867.01 224.006 1858.28 247.951 1837.75 258.535C1817.21 269.12 1792.64 262.336 1782.87 243.385C1782.81 243.258 1782.74 243.131 1782.68 243.003L1729.54 151.536C1728.88 150.529 1728.27 149.48 1727.71 148.392C1717.95 129.44 1726.68 105.495 1747.21 94.9108C1767.75 84.3261 1792.32 91.1093 1802.08 110.062Z" fill="white"/>
<path d="M1802.96 111.886L1798.66 113.805L1800.69 118.334L1805.1 116.076L1802.96 111.886ZM1802.08 110.061L1806.27 107.905L1802.08 110.061ZM1803.09 111.82L1807.16 109.457L1804.92 105.599L1800.95 107.63L1803.09 111.82ZM1855.22 201.61L1851.15 203.973L1851.22 204.096L1851.3 204.215L1855.22 201.61ZM1857.24 205.054L1861.43 202.898L1857.24 205.054ZM1782.87 243.385L1787.06 241.228H1787.06L1782.87 243.385ZM1782.68 243.003L1786.89 240.898L1786.82 240.766L1786.75 240.64L1782.68 243.003ZM1729.54 151.536L1733.61 149.172L1733.55 149.069L1733.48 148.97L1729.54 151.536ZM1727.71 148.392L1731.9 146.236L1727.71 148.392ZM1747.21 94.9107L1749.37 99.0937L1747.21 94.9107ZM1807.26 109.967C1806.95 109.274 1806.62 108.587 1806.27 107.905L1797.9 112.217C1798.17 112.743 1798.43 113.272 1798.66 113.805L1807.26 109.967ZM1800.95 107.63L1800.82 107.696L1805.1 116.076L1805.23 116.01L1800.95 107.63ZM1859.29 199.247L1807.16 109.457L1799.02 114.183L1851.15 203.973L1859.29 199.247ZM1851.3 204.215C1851.94 205.169 1852.52 206.168 1853.06 207.209L1861.43 202.898C1860.73 201.546 1859.97 200.248 1859.14 199.005L1851.3 204.215ZM1853.06 207.209C1861.48 223.542 1854.14 244.792 1835.59 254.352L1839.9 262.718C1862.43 251.109 1872.55 224.47 1861.43 202.898L1853.06 207.209ZM1835.59 254.352C1817.04 263.913 1795.47 257.56 1787.06 241.228L1778.69 245.54C1789.81 267.113 1817.38 274.327 1839.9 262.718L1835.59 254.352ZM1787.06 241.228C1787 241.119 1786.94 241.008 1786.89 240.898L1778.47 245.11C1778.54 245.254 1778.62 245.398 1778.69 245.54L1787.06 241.228ZM1725.47 153.9L1778.61 245.368L1786.75 240.64L1733.61 149.172L1725.47 153.9ZM1723.53 150.548C1724.16 151.777 1724.85 152.962 1725.59 154.101L1733.48 148.97C1732.92 148.095 1732.38 147.184 1731.9 146.236L1723.53 150.548ZM1745.06 90.7277C1722.53 102.337 1712.41 128.975 1723.53 150.548L1731.9 146.236C1723.48 129.904 1730.82 108.654 1749.37 99.0937L1745.06 90.7277ZM1806.27 107.905C1795.15 86.3331 1767.58 79.1186 1745.06 90.7277L1749.37 99.0937C1767.92 89.5334 1789.48 95.8852 1797.9 112.217L1806.27 107.905Z" fill="#4F81E2"/>
<path d="M1802.96 111.886L1798.66 113.805L1800.69 118.334L1805.1 116.076L1802.96 111.886ZM1802.08 110.061L1806.27 107.905L1802.08 110.061ZM1803.09 111.82L1807.16 109.457L1804.92 105.599L1800.95 107.63L1803.09 111.82ZM1855.22 201.61L1851.15 203.973L1851.22 204.096L1851.3 204.215L1855.22 201.61ZM1857.24 205.054L1861.43 202.898L1857.24 205.054ZM1782.87 243.385L1787.06 241.228H1787.06L1782.87 243.385ZM1782.68 243.003L1786.89 240.898L1786.82 240.766L1786.75 240.64L1782.68 243.003ZM1729.54 151.536L1733.61 149.172L1733.55 149.069L1733.48 148.97L1729.54 151.536ZM1727.71 148.392L1731.9 146.236L1727.71 148.392ZM1747.21 94.9107L1749.37 99.0937L1747.21 94.9107ZM1807.26 109.967C1806.95 109.274 1806.62 108.587 1806.27 107.905L1797.9 112.217C1798.17 112.743 1798.43 113.272 1798.66 113.805L1807.26 109.967ZM1800.95 107.63L1800.82 107.696L1805.1 116.076L1805.23 116.01L1800.95 107.63ZM1859.29 199.247L1807.16 109.457L1799.02 114.183L1851.15 203.973L1859.29 199.247ZM1851.3 204.215C1851.94 205.169 1852.52 206.168 1853.06 207.209L1861.43 202.898C1860.73 201.546 1859.97 200.248 1859.14 199.005L1851.3 204.215ZM1853.06 207.209C1861.48 223.542 1854.14 244.792 1835.59 254.352L1839.9 262.718C1862.43 251.109 1872.55 224.47 1861.43 202.898L1853.06 207.209ZM1835.59 254.352C1817.04 263.913 1795.47 257.56 1787.06 241.228L1778.69 245.54C1789.81 267.113 1817.38 274.327 1839.9 262.718L1835.59 254.352ZM1787.06 241.228C1787 241.119 1786.94 241.008 1786.89 240.898L1778.47 245.11C1778.54 245.254 1778.62 245.398 1778.69 245.54L1787.06 241.228ZM1725.47 153.9L1778.61 245.368L1786.75 240.64L1733.61 149.172L1725.47 153.9ZM1723.53 150.548C1724.16 151.777 1724.85 152.962 1725.59 154.101L1733.48 148.97C1732.92 148.095 1732.38 147.184 1731.9 146.236L1723.53 150.548ZM1745.06 90.7277C1722.53 102.337 1712.41 128.975 1723.53 150.548L1731.9 146.236C1723.48 129.904 1730.82 108.654 1749.37 99.0937L1745.06 90.7277ZM1806.27 107.905C1795.15 86.3331 1767.58 79.1186 1745.06 90.7277L1749.37 99.0937C1767.92 89.5334 1789.48 95.8852 1797.9 112.217L1806.27 107.905Z" fill="#4F81E2"/>
<path d="M1802.96 111.886L1798.66 113.805L1800.69 118.334L1805.1 116.076L1802.96 111.886ZM1802.08 110.061L1806.27 107.905L1802.08 110.061ZM1803.09 111.82L1807.16 109.457L1804.92 105.599L1800.95 107.63L1803.09 111.82ZM1855.22 201.61L1851.15 203.973L1851.22 204.096L1851.3 204.215L1855.22 201.61ZM1857.24 205.054L1861.43 202.898L1857.24 205.054ZM1782.87 243.385L1787.06 241.228H1787.06L1782.87 243.385ZM1782.68 243.003L1786.89 240.898L1786.82 240.766L1786.75 240.64L1782.68 243.003ZM1729.54 151.536L1733.61 149.172L1733.55 149.069L1733.48 148.97L1729.54 151.536ZM1727.71 148.392L1731.9 146.236L1727.71 148.392ZM1747.21 94.9107L1749.37 99.0937L1747.21 94.9107ZM1807.26 109.967C1806.95 109.274 1806.62 108.587 1806.27 107.905L1797.9 112.217C1798.17 112.743 1798.43 113.272 1798.66 113.805L1807.26 109.967ZM1800.95 107.63L1800.82 107.696L1805.1 116.076L1805.23 116.01L1800.95 107.63ZM1859.29 199.247L1807.16 109.457L1799.02 114.183L1851.15 203.973L1859.29 199.247ZM1851.3 204.215C1851.94 205.169 1852.52 206.168 1853.06 207.209L1861.43 202.898C1860.73 201.546 1859.97 200.248 1859.14 199.005L1851.3 204.215ZM1853.06 207.209C1861.48 223.542 1854.14 244.792 1835.59 254.352L1839.9 262.718C1862.43 251.109 1872.55 224.47 1861.43 202.898L1853.06 207.209ZM1835.59 254.352C1817.04 263.913 1795.47 257.56 1787.06 241.228L1778.69 245.54C1789.81 267.113 1817.38 274.327 1839.9 262.718L1835.59 254.352ZM1787.06 241.228C1787 241.119 1786.94 241.008 1786.89 240.898L1778.47 245.11C1778.54 245.254 1778.62 245.398 1778.69 245.54L1787.06 241.228ZM1725.47 153.9L1778.61 245.368L1786.75 240.64L1733.61 149.172L1725.47 153.9ZM1723.53 150.548C1724.16 151.777 1724.85 152.962 1725.59 154.101L1733.48 148.97C1732.92 148.095 1732.38 147.184 1731.9 146.236L1723.53 150.548ZM1745.06 90.7277C1722.53 102.337 1712.41 128.975 1723.53 150.548L1731.9 146.236C1723.48 129.904 1730.82 108.654 1749.37 99.0937L1745.06 90.7277ZM1806.27 107.905C1795.15 86.3331 1767.58 79.1186 1745.06 90.7277L1749.37 99.0937C1767.92 89.5334 1789.48 95.8852 1797.9 112.217L1806.27 107.905Z" fill="#4F81E2"/>
</g>
</g>
<rect x="1594" y="384" width="344" height="344" rx="25" fill="white" stroke="#AAAAAA" stroke-width="10"/>
<path d="M1816 456H1716C1688.39 456 1666 478.386 1666 506V606C1666 633.614 1688.39 656 1716 656H1816C1843.61 656 1866 633.614 1866 606V506C1866 478.386 1843.61 456 1816 456Z" fill="black"/>
<path d="M1687.83 535.476H1700.94V576.524H1687.83V535.476ZM1704.69 552.828V576.524H1717.8V565.329H1730.91V552.268H1717.8V548.537H1736.53V535.476H1704.69V548.723V552.828ZM1740.28 548.537H1749.64V576.524H1762.75V548.537H1772.12V535.476H1740.28V548.537ZM1775.86 548.537H1785.23V576.524H1798.34V548.537H1807.71V535.476H1775.86V548.537ZM1811.45 548.537H1820.82V576.524H1833.93V548.537H1843.29V535.476H1811.45V548.537Z" fill="white"/>
<rect x="1973" y="5" width="344" height="344" rx="25" fill="white" stroke="#AAAAAA" stroke-width="10"/>
<path d="M2139.88 77.0977C2139.84 77.1367 2138.91 77.2148 2137.77 77.2734C2136.64 77.3516 2135.51 77.4297 2135.23 77.4883C2134.96 77.5273 2134.22 77.6055 2133.57 77.6641C2132.38 77.7812 2132.05 77.8203 2129.73 78.1914L2128.4 78.4062L2128.38 79.1094C2128.38 79.8711 2128.38 110.301 2128.4 111.688V112.488L2129.43 112.215C2130.51 111.941 2135.18 111.062 2136.5 110.906C2138.98 110.594 2140.68 110.516 2144.9 110.496C2149.57 110.496 2151.99 110.633 2154.47 111.043C2154.8 111.102 2155.45 111.219 2155.94 111.277C2157.09 111.473 2157.09 111.453 2159.41 111.961C2160.53 112.195 2161.48 112.352 2161.54 112.273C2161.68 112.137 2161.74 78.3672 2161.58 78.3672C2161.52 78.3672 2160.57 78.2305 2159.43 78.0547C2158.32 77.8789 2157.03 77.7227 2156.58 77.6836C2156.13 77.6445 2155.31 77.5469 2154.73 77.4883C2154.16 77.4102 2153.26 77.3125 2152.71 77.2734C2151.48 77.1758 2139.98 77.0195 2139.88 77.0977Z" fill="black"/>
<path d="M2110.43 83.1719C2109.73 83.4453 2108.93 83.7383 2108.65 83.8359C2108.36 83.9141 2107.83 84.1289 2107.48 84.2852C2107.11 84.4414 2105.86 84.9883 2104.67 85.5156C2101.46 86.9023 2095.96 89.7734 2093.14 91.5117C2085.31 96.375 2079.43 101.082 2073.42 107.273C2070.96 109.793 2070.12 110.711 2069.34 111.668C2068.95 112.137 2068.5 112.645 2068.38 112.781C2067.54 113.641 2063.61 118.875 2062.01 121.297C2059.79 124.617 2058.96 125.945 2057.05 129.441C2054.94 133.289 2052.32 139.109 2050.94 143.055C2050.66 143.836 2050.39 144.617 2050.33 144.773C2050.27 144.93 2050.2 145.145 2050.16 145.262C2050.12 145.359 2049.82 146.336 2049.49 147.41C2047.68 153.191 2046.15 160.477 2045.66 165.672C2045.63 166.258 2045.53 166.922 2045.49 167.137C2045.27 168.191 2045.1 172.508 2045.12 177.098C2045.12 182.43 2045.25 185.047 2045.68 188.523C2045.72 188.895 2045.82 189.695 2045.9 190.281C2046.07 191.922 2047.09 197.488 2047.66 199.832C2051.45 215.965 2058.85 230.262 2070.1 243.191C2071.62 244.949 2075.39 248.777 2077.7 250.926C2081.21 254.188 2087.07 258.66 2091.54 261.492C2098.07 265.633 2104.65 268.777 2112.38 271.512C2114.45 272.254 2119.36 273.719 2120.53 273.973C2120.72 274.012 2121.62 274.227 2122.54 274.441C2124.88 274.988 2129.26 275.77 2131.91 276.121C2136.86 276.746 2139.02 276.883 2145 276.883C2149.65 276.883 2152.97 276.766 2154.77 276.512C2155.04 276.473 2155.78 276.395 2156.43 276.316C2157.62 276.199 2157.89 276.16 2159.45 275.926C2161.21 275.672 2161.54 275.613 2163.65 275.223C2166.04 274.773 2169.37 274.031 2170.88 273.602C2174.04 272.684 2174.92 272.43 2176.25 271.98C2191.95 266.766 2205.7 258.074 2217.17 246.141C2218.5 244.754 2219.04 244.168 2220.92 242.039C2221.52 241.355 2224.02 238.25 2224.94 237.059C2229.79 230.691 2234.84 221.688 2237.97 213.816C2239.61 209.695 2241.66 203.113 2242.38 199.676C2242.54 198.875 2242.71 198.172 2242.75 198.094C2242.83 197.977 2243.01 197.098 2243.14 196.238C2243.16 196.023 2243.38 194.793 2243.59 193.504C2243.81 192.215 2244.1 190.32 2244.22 189.305C2244.34 188.289 2244.47 187.176 2244.51 186.863C2245.02 182.879 2245.02 171.141 2244.51 167.137C2244.47 166.805 2244.39 166.102 2244.34 165.574C2244.24 164.676 2244.02 163.152 2243.73 161.082C2243.42 158.953 2242.79 155.984 2241.93 152.488C2238.48 138.387 2231.23 124.246 2221.64 112.84C2218.79 109.441 2214.94 105.438 2212.17 102.977C2211.39 102.273 2210.61 101.57 2210.45 101.414C2210.27 101.258 2209.69 100.77 2209.16 100.34C2208.61 99.9102 2208.14 99.5195 2208.09 99.4609C2206.89 98.2695 2200.94 94.0508 2196.86 91.5117C2195.02 90.3789 2191.25 88.3281 2188.75 87.0977C2184.14 84.8516 2178.73 82.6641 2178.46 82.9375C2178.22 83.1719 2178.28 119.012 2178.5 119.285C2178.61 119.422 2179.55 120.066 2180.61 120.73C2186.41 124.344 2192.3 129.598 2196.76 135.105C2203.71 143.68 2208.75 154.617 2210.55 165.086C2210.62 165.574 2210.7 166.004 2210.72 166.062C2210.74 166.121 2210.82 166.688 2210.9 167.332C2210.98 167.957 2211.07 168.641 2211.11 168.816C2211.62 171.414 2211.62 184.383 2211.11 185.184C2211.07 185.262 2211 185.867 2210.94 186.531C2210.88 187.215 2210.78 187.84 2210.74 187.898C2210.7 187.977 2210.61 188.426 2210.55 188.914C2210.49 189.402 2210.39 189.969 2210.33 190.184C2210.2 190.73 2209.63 193.23 2209.55 193.68C2209.34 194.617 2207.58 199.93 2206.89 201.648C2201.78 214.48 2192.66 225.535 2180.94 233.074C2179.02 234.324 2176.54 235.75 2175.27 236.355C2174.79 236.59 2174.26 236.844 2174.1 236.941C2173.05 237.566 2167.56 239.812 2166.64 239.988C2166.46 240.027 2166.15 240.145 2165.96 240.242C2164.96 240.789 2157.46 242.566 2154.67 242.938C2154.14 242.996 2153.48 243.094 2153.2 243.133C2149.18 243.66 2139.98 243.66 2136.8 243.133C2136.52 243.074 2135.88 242.996 2135.33 242.918C2132.36 242.547 2125.27 240.848 2124.26 240.281C2124.06 240.164 2123.79 240.086 2123.65 240.086C2123.18 240.086 2118.5 238.172 2116.04 236.98C2110.76 234.441 2105.96 231.277 2101.43 227.391C2099.8 226.004 2095.94 222.137 2094.71 220.672C2094.16 220.047 2093.63 219.422 2093.54 219.305C2091.56 217.156 2087.6 211.082 2085.49 206.98C2084.04 204.168 2081.93 198.895 2081.19 196.238C2080.59 194.109 2079.98 191.688 2079.79 190.672C2079.67 190.086 2079.51 189.383 2079.47 189.109C2079.34 188.484 2079.02 186.316 2078.89 185.301C2078.34 180.906 2078.34 172.41 2078.91 168.699C2078.95 168.367 2079.02 167.801 2079.06 167.43C2080.2 158.797 2083.93 148.836 2089.04 140.867C2089.96 139.422 2092.91 135.379 2093.46 134.812C2093.61 134.656 2094.16 133.992 2094.71 133.348C2096.09 131.668 2100.12 127.703 2102.05 126.102C2104.88 123.738 2106.72 122.43 2111.02 119.695L2111.68 119.246L2111.7 100.965C2111.7 90.8867 2111.7 82.6641 2111.7 82.6836C2111.7 82.6836 2111.13 82.8984 2110.43 83.1719Z" fill="black"/>
<path d="M2142.03 127.098C2141.99 127.117 2141.25 127.195 2140.39 127.273C2139.51 127.332 2138.67 127.43 2138.54 127.469C2138.38 127.527 2137.81 127.605 2137.25 127.664C2136.7 127.723 2135.68 127.898 2135 128.055C2134.32 128.211 2133.54 128.387 2133.24 128.445C2132.71 128.523 2128.57 129.754 2128.42 129.852C2128.38 129.891 2128.34 206.395 2128.38 207.391C2128.4 207.527 2128.59 207.664 2128.85 207.723C2129.08 207.781 2130.02 208.055 2130.92 208.328C2133.11 209.012 2136.07 209.637 2138.46 209.91C2139 209.988 2139.65 210.086 2139.92 210.145C2141.02 210.379 2148.77 210.301 2150.7 210.047C2153.57 209.676 2157.11 208.934 2159.55 208.211L2161.64 207.566V169.383C2161.62 148.387 2161.62 130.887 2161.62 130.496L2161.6 129.813L2159.12 129.09C2157.73 128.719 2155.92 128.25 2155.06 128.074C2154.2 127.898 2153.36 127.723 2153.2 127.684C2153.05 127.664 2152.34 127.566 2151.64 127.488C2150.94 127.41 2150.2 127.313 2149.98 127.254C2149.57 127.176 2142.11 127.02 2142.03 127.098Z" fill="black"/>
<rect x="1771" y="182" width="344" height="344" rx="25" fill="white" stroke="#AAAAAA" stroke-width="10"/>
<path fill-rule="evenodd" clip-rule="evenodd" d="M1968.28 354.567C1968.28 361.94 1966.93 368.999 1964.47 375.515C1957.95 377.972 1950.89 379.324 1943.52 379.33H1943.43C1936.06 379.324 1929 377.977 1922.48 375.52C1920.03 369.004 1918.67 361.942 1918.67 354.567V354.481C1918.67 347.108 1920.02 340.049 1922.48 333.533C1928.99 331.075 1936.06 329.722 1943.43 329.717H1943.52C1950.89 329.722 1957.95 331.075 1964.47 333.533C1966.93 340.049 1968.28 347.108 1968.28 354.481V354.567ZM2041.32 337.986H1983.4L2024.35 297.031C2021.14 292.51 2017.55 288.27 2013.63 284.356L2013.63 284.354C2009.72 280.444 2005.48 276.859 2000.97 273.644L1960.01 314.599V256.679C1954.65 255.779 1949.14 255.302 1943.53 255.299H1943.42C1937.8 255.302 1932.3 255.779 1926.94 256.679V314.599L1885.98 273.644C1881.46 276.861 1877.22 280.448 1873.31 284.36L1873.3 284.374C1869.39 288.283 1865.81 292.517 1862.59 297.031L1903.55 337.986H1845.63C1845.63 337.986 1844.25 348.865 1844.25 354.487V354.558C1844.25 360.182 1844.73 365.694 1845.63 371.061H1903.55L1862.59 412.016C1869.03 421.054 1876.94 428.968 1885.98 435.404L1926.94 394.449V452.369C1932.29 453.267 1937.79 453.744 1943.4 453.748H1943.55C1949.16 453.744 1954.65 453.267 1960.01 452.369V394.448L2000.97 435.403C2005.48 432.187 2009.72 428.601 2013.63 424.691L2013.64 424.682C2017.55 420.77 2021.14 416.534 2024.35 412.017L1983.4 371.061H2041.32C2042.22 365.705 2042.69 360.205 2042.7 354.594V354.452C2042.69 348.842 2042.22 343.342 2041.32 337.986V337.986Z" fill="#FF4A00"/>
<defs>
<clipPath id="clip0_5508_47424">
<rect width="84.7458" height="84.7458" fill="white" transform="translate(824.627 615.627)"/>
</clipPath>
<clipPath id="clip1_5508_47424">
<rect width="84.7458" height="84.7458" fill="white" transform="translate(643.627 615.627)"/>
</clipPath>
<clipPath id="clip2_5508_47424">
<rect width="200" height="200.4" fill="white" transform="translate(2045 456)"/>
</clipPath>
<clipPath id="clip3_5508_47424">
<rect width="200" height="183.529" fill="white" transform="translate(1666 85)"/>
</clipPath>
</defs>
</svg>
