<svg width="700" height="230" viewBox="0 0 700 230" fill="none" xmlns="http://www.w3.org/2000/svg">
<rect width="700" height="230" fill="white"/>
<rect width="700" height="230" fill="white"/>
<rect x="167" y="34" width="482" height="162" rx="7" stroke="#CFCFCF" stroke-width="2"/>
<path d="M84.9869 82H92.5869V79.76H87.3869V70.8H84.9869V82ZM95.9463 82.16C97.4663 82.16 98.2663 81.04 98.2663 81.04H98.3463V82C98.8263 82 100.506 82 100.506 82V77.12C100.506 75.36 99.1463 74 97.1463 74C95.0663 74 93.9463 75.52 93.9463 75.52L95.2263 76.8C95.2263 76.8 95.8663 75.92 96.9863 75.92C97.7863 75.92 98.2663 76.4 98.3463 76.96L95.8663 77.408C94.4263 77.664 93.5463 78.64 93.5463 79.92C93.5463 81.2 94.5063 82.16 95.9463 82.16ZM96.6663 80.4C96.0263 80.4 95.7063 80.08 95.7063 79.6C95.7063 79.2 96.0263 78.896 96.5863 78.8L98.3463 78.48V78.64C98.3463 79.68 97.6263 80.4 96.6663 80.4ZM107.387 82.16C109.227 82.16 110.907 80.48 110.907 78.08C110.907 75.68 109.227 74 107.387 74C105.707 74 104.907 75.28 104.907 75.28H104.827V70.8H102.667V82H104.827V80.88H104.907C104.907 80.88 105.707 82.16 107.387 82.16ZM106.747 80.16C105.627 80.16 104.747 79.28 104.747 78.08C104.747 76.88 105.627 76 106.747 76C107.867 76 108.747 76.88 108.747 78.08C108.747 79.28 107.867 80.16 106.747 80.16ZM116.189 82.16C118.349 82.16 119.549 80.88 119.549 80.88L118.429 79.36C118.429 79.36 117.709 80.24 116.349 80.24C115.149 80.24 114.509 79.6 114.269 78.88H119.949C119.949 78.88 120.029 78.48 120.029 77.92C120.029 75.76 118.269 74 116.109 74C113.869 74 112.029 75.84 112.029 78.08C112.029 80.32 113.869 82.16 116.189 82.16ZM114.269 77.28C114.509 76.56 115.149 75.92 116.029 75.92C116.909 75.92 117.549 76.56 117.789 77.28H114.269ZM121.714 82H123.874V70.8H121.714V82Z" fill="#034AD8"/>
<path d="M57.3938 106.24C60.5938 106.24 62.1938 104 62.1938 104L60.5938 102.4C60.5938 102.4 59.4738 104 57.3938 104C55.3938 104 53.7938 102.4 53.7938 100.4C53.7938 98.4 55.3938 96.8 57.3938 96.8C59.3938 96.8 60.5138 98.4 60.5138 98.4L62.1138 96.8C62.1138 96.8 60.5138 94.56 57.3938 94.56C53.9538 94.56 51.3138 97.2 51.3138 100.4C51.3138 103.6 53.9538 106.24 57.3938 106.24ZM67.0794 106.16C69.3994 106.16 71.2394 104.32 71.2394 102.08C71.2394 99.84 69.3994 98 67.0794 98C64.7594 98 62.9194 99.84 62.9194 102.08C62.9194 104.32 64.7594 106.16 67.0794 106.16ZM67.0794 104.16C65.9594 104.16 65.0794 103.28 65.0794 102.08C65.0794 100.88 65.9594 100 67.0794 100C68.1994 100 69.0794 100.88 69.0794 102.08C69.0794 103.28 68.1994 104.16 67.0794 104.16ZM72.8369 106H74.9969V101.68C74.9969 100.72 75.6369 100.08 76.5169 100.08C77.3169 100.08 77.7969 100.56 77.7969 101.44V106H79.9569V101.68C79.9569 100.72 80.5969 100.08 81.4769 100.08C82.2769 100.08 82.7569 100.56 82.7569 101.44V106H84.9169V101.12C84.9169 99.2 83.7169 98 82.1969 98C80.5169 98 79.6369 99.36 79.6369 99.36H79.5569C79.5569 99.36 78.9169 98 77.2369 98C75.7169 98 75.0769 99.28 75.0769 99.28H74.9969V98.16H72.8369V106ZM86.9931 106H89.1531V101.68C89.1531 100.72 89.7931 100.08 90.6731 100.08C91.4731 100.08 91.9531 100.56 91.9531 101.44V106H94.1131V101.68C94.1131 100.72 94.7531 100.08 95.6331 100.08C96.4331 100.08 96.9131 100.56 96.9131 101.44V106H99.0731V101.12C99.0731 99.2 97.8731 98 96.3531 98C94.6731 98 93.7931 99.36 93.7931 99.36H93.7131C93.7131 99.36 93.0731 98 91.3931 98C89.8731 98 89.2331 99.28 89.2331 99.28H89.1531V98.16H86.9931V106ZM104.829 106.16C106.989 106.16 108.189 104.88 108.189 104.88L107.069 103.36C107.069 103.36 106.349 104.24 104.989 104.24C103.789 104.24 103.149 103.6 102.909 102.88H108.589C108.589 102.88 108.669 102.48 108.669 101.92C108.669 99.76 106.909 98 104.749 98C102.509 98 100.669 99.84 100.669 102.08C100.669 104.32 102.509 106.16 104.829 106.16ZM102.909 101.28C103.149 100.56 103.789 99.92 104.669 99.92C105.549 99.92 106.189 100.56 106.429 101.28H102.909ZM110.274 106H112.434V101.84C112.434 100.8 113.154 100.08 114.114 100.08C114.994 100.08 115.554 100.64 115.554 101.6V106H117.714V101.28C117.714 99.28 116.434 98 114.834 98C113.314 98 112.514 99.28 112.514 99.28H112.434V98.16H110.274V106ZM122.914 106.16C123.714 106.16 124.354 105.92 124.354 105.92V103.92C124.354 103.92 123.954 104.08 123.474 104.08C122.834 104.08 122.434 103.68 122.434 102.96V100.32H124.194V98.32H122.434V95.92H120.514V97.36C120.514 98 120.194 98.32 119.634 98.32H118.914V100.32H120.274V103.28C120.274 105.12 121.314 106.16 122.914 106.16Z" fill="#034AD8"/>
<path d="M92.9106 150H95.3106V141.04H98.5106V138.8H89.7106V141.04H92.9106V150ZM99.875 153.36C101.315 153.36 102.259 152.4 102.915 150.64L106.115 142.16H103.795L102.035 147.36H101.955L100.115 142.16H97.795L100.835 149.92L100.675 150.32C100.451 150.88 100.035 151.28 99.315 151.28C98.835 151.28 98.435 151.12 98.435 151.12V153.12C98.435 153.12 99.075 153.36 99.875 153.36ZM107.071 153.36H109.231V148.88H109.311C109.311 148.88 110.111 150.16 111.791 150.16C113.631 150.16 115.311 148.48 115.311 146.08C115.311 143.68 113.631 142 111.791 142C110.111 142 109.311 143.28 109.311 143.28H109.231V142.16H107.071V153.36ZM111.151 148.16C110.031 148.16 109.151 147.28 109.151 146.08C109.151 144.88 110.031 144 111.151 144C112.271 144 113.151 144.88 113.151 146.08C113.151 147.28 112.271 148.16 111.151 148.16ZM120.595 150.16C122.755 150.16 123.955 148.88 123.955 148.88L122.835 147.36C122.835 147.36 122.115 148.24 120.755 148.24C119.555 148.24 118.915 147.6 118.675 146.88H124.355C124.355 146.88 124.435 146.48 124.435 145.92C124.435 143.76 122.675 142 120.515 142C118.275 142 116.435 143.84 116.435 146.08C116.435 148.32 118.275 150.16 120.595 150.16ZM118.675 145.28C118.915 144.56 119.555 143.92 120.435 143.92C121.315 143.92 121.955 144.56 122.195 145.28H118.675Z" fill="#034AD8"/>
<path d="M231.52 82H233.92V73.04H237.12V70.8H228.32V73.04H231.52V82ZM238.165 82H240.325V74.16H238.165V82ZM239.237 73.12C239.925 73.12 240.485 72.56 240.485 71.92C240.485 71.28 239.925 70.72 239.253 70.72C238.565 70.72 238.005 71.28 238.005 71.92C238.005 72.56 238.565 73.12 239.237 73.12ZM245.679 82.16C246.479 82.16 247.119 81.92 247.119 81.92V79.92C247.119 79.92 246.719 80.08 246.239 80.08C245.599 80.08 245.199 79.68 245.199 78.96V76.32H246.959V74.32H245.199V71.92H243.279V73.36C243.279 74 242.959 74.32 242.399 74.32H241.679V76.32H243.039V79.28C243.039 81.12 244.079 82.16 245.679 82.16ZM248.886 82H251.046V70.8H248.886V82ZM256.892 82.16C259.052 82.16 260.252 80.88 260.252 80.88L259.132 79.36C259.132 79.36 258.412 80.24 257.052 80.24C255.852 80.24 255.212 79.6 254.972 78.88H260.652C260.652 78.88 260.732 78.48 260.732 77.92C260.732 75.76 258.972 74 256.812 74C254.572 74 252.732 75.84 252.732 78.08C252.732 80.32 254.572 82.16 256.892 82.16ZM254.972 77.28C255.212 76.56 255.852 75.92 256.732 75.92C257.612 75.92 258.252 76.56 258.492 77.28H254.972Z" fill="#333333"/>
<path d="M229.68 106H237.52V104.88H230.88V100.72H236.08V99.6H230.88V95.92H237.36V94.8H229.68V106ZM239.514 106H240.634V101.76C240.634 100.24 241.674 99.2 243.034 99.2C244.234 99.2 245.114 100.08 245.114 101.44V106H246.234V101.44C246.234 99.44 244.954 98.16 243.114 98.16C241.434 98.16 240.634 99.44 240.634 99.44V98.32H239.514V106ZM251.391 106.16C251.999 106.16 252.479 105.92 252.479 105.92V104.88C252.479 104.88 251.999 105.12 251.439 105.12C250.799 105.12 250.399 104.72 250.399 103.92V99.36H252.079V98.32H250.399V95.76H249.359V97.52C249.359 98.08 249.119 98.32 248.719 98.32H247.839V99.36H249.279V103.92C249.279 105.36 250.079 106.16 251.391 106.16ZM257.529 106.16C259.609 106.16 260.729 104.56 260.729 104.56L260.009 103.84C260.009 103.84 259.145 105.12 257.529 105.12C256.089 105.12 254.889 103.92 254.809 102.56L261.049 102.576C261.049 102.576 261.129 102.32 261.129 102C261.129 99.76 259.529 98.16 257.449 98.16C255.449 98.16 253.689 99.92 253.689 102.16C253.689 104.4 255.449 106.16 257.529 106.16ZM254.809 101.6C254.969 100.32 256.089 99.2 257.449 99.2C258.809 99.2 259.849 100.24 260.009 101.6H254.809ZM263.124 106H264.244V101.76C264.244 100.24 265.364 99.28 266.644 99.28H267.124V98.16H266.804C265.044 98.16 264.244 99.36 264.244 99.36V98.32H263.124V106ZM273.846 106.16C275.526 106.16 276.326 104.96 276.326 104.96V106H277.446V101.12C277.446 99.44 276.166 98.16 274.406 98.16C272.566 98.16 271.526 99.6 271.526 99.6L272.246 100.32C272.246 100.32 273.046 99.2 274.406 99.2C275.526 99.2 276.326 100 276.326 101.12L273.366 101.6C271.926 101.84 271.126 102.64 271.126 103.92C271.126 105.04 272.246 106.16 273.846 106.16ZM273.846 105.12C272.806 105.12 272.246 104.56 272.246 103.92C272.246 103.2 272.726 102.736 273.686 102.56L276.326 102.08V102.56C276.326 104.08 275.286 105.12 273.846 105.12ZM286.638 106.16C288.638 106.16 289.838 104.56 289.838 104.56L289.038 103.84C289.038 103.84 288.158 105.12 286.638 105.12C285.198 105.12 283.918 103.84 283.918 102.16C283.918 100.48 285.198 99.2 286.638 99.2C288.158 99.2 288.958 100.48 288.958 100.48L289.758 99.68C289.758 99.68 288.638 98.16 286.638 98.16C284.558 98.16 282.798 99.92 282.798 102.16C282.798 104.4 284.558 106.16 286.638 106.16ZM294.796 106.16C296.956 106.16 298.716 104.4 298.716 102.16C298.716 99.92 296.956 98.16 294.796 98.16C292.636 98.16 290.876 99.92 290.876 102.16C290.876 104.4 292.636 106.16 294.796 106.16ZM294.796 105.12C293.276 105.12 291.996 103.824 291.996 102.16C291.996 100.48 293.276 99.2 294.796 99.2C296.316 99.2 297.596 100.48 297.596 102.16C297.596 103.84 296.316 105.12 294.796 105.12ZM300.718 106H301.838V101.76C301.838 100.24 302.878 99.2 304.238 99.2C305.438 99.2 306.318 100.08 306.318 101.44V106H307.438V101.44C307.438 99.44 306.158 98.16 304.318 98.16C302.638 98.16 301.838 99.44 301.838 99.44V98.32H300.718V106ZM313.279 106.16C315.279 106.16 316.479 104.56 316.479 104.56L315.679 103.84C315.679 103.84 314.799 105.12 313.279 105.12C311.839 105.12 310.559 103.84 310.559 102.16C310.559 100.48 311.839 99.2 313.279 99.2C314.799 99.2 315.599 100.48 315.599 100.48L316.399 99.68C316.399 99.68 315.279 98.16 313.279 98.16C311.199 98.16 309.439 99.92 309.439 102.16C309.439 104.4 311.199 106.16 313.279 106.16ZM318.233 106H319.353V98.32H318.233V106ZM318.793 96.48C319.193 96.48 319.513 96.16 319.513 95.76C319.513 95.36 319.193 95.04 318.793 95.04C318.393 95.04 318.073 95.36 318.073 95.76C318.073 96.16 318.393 96.48 318.793 96.48ZM324.001 106.16C325.761 106.16 326.801 105.12 326.801 103.84C326.801 101.12 322.641 102 322.641 100.32C322.641 99.76 323.201 99.2 324.081 99.2C325.201 99.2 325.761 100 325.761 100L326.561 99.2C326.561 99.2 325.681 98.16 324.081 98.16C322.561 98.16 321.521 99.2 321.521 100.32C321.521 102.96 325.681 102.08 325.681 103.84C325.681 104.56 325.121 105.12 324.001 105.12C322.721 105.12 322.001 104 322.001 104L321.201 104.8C321.201 104.8 322.081 106.16 324.001 106.16ZM332.076 106.16C334.156 106.16 335.276 104.56 335.276 104.56L334.556 103.84C334.556 103.84 333.692 105.12 332.076 105.12C330.636 105.12 329.436 103.92 329.356 102.56L335.596 102.576C335.596 102.576 335.676 102.32 335.676 102C335.676 99.76 334.076 98.16 331.996 98.16C329.996 98.16 328.236 99.92 328.236 102.16C328.236 104.4 329.996 106.16 332.076 106.16ZM329.356 101.6C329.516 100.32 330.636 99.2 331.996 99.2C333.356 99.2 334.396 100.24 334.556 101.6H329.356ZM344.23 106.16C345.99 106.16 346.87 104.88 346.87 104.88V106H347.99V94.8H346.87V99.44C346.87 99.44 345.99 98.16 344.23 98.16C342.15 98.16 340.47 99.84 340.47 102.16C340.47 104.48 342.15 106.16 344.23 106.16ZM344.23 105.12C342.79 105.12 341.59 103.92 341.59 102.16C341.59 100.4 342.79 99.2 344.23 99.2C345.59 99.2 346.87 100.48 346.87 102.16C346.87 103.84 345.59 105.12 344.23 105.12ZM353.904 106.16C355.984 106.16 357.104 104.56 357.104 104.56L356.384 103.84C356.384 103.84 355.52 105.12 353.904 105.12C352.464 105.12 351.264 103.92 351.184 102.56L357.424 102.576C357.424 102.576 357.504 102.32 357.504 102C357.504 99.76 355.904 98.16 353.824 98.16C351.824 98.16 350.064 99.92 350.064 102.16C350.064 104.4 351.824 106.16 353.904 106.16ZM351.184 101.6C351.344 100.32 352.464 99.2 353.824 99.2C355.184 99.2 356.224 100.24 356.384 101.6H351.184ZM361.579 106.16C363.339 106.16 364.379 105.12 364.379 103.84C364.379 101.12 360.219 102 360.219 100.32C360.219 99.76 360.779 99.2 361.659 99.2C362.779 99.2 363.339 100 363.339 100L364.139 99.2C364.139 99.2 363.259 98.16 361.659 98.16C360.139 98.16 359.099 99.2 359.099 100.32C359.099 102.96 363.259 102.08 363.259 103.84C363.259 104.56 362.699 105.12 361.579 105.12C360.299 105.12 359.579 104 359.579 104L358.779 104.8C358.779 104.8 359.659 106.16 361.579 106.16ZM369.654 106.16C371.654 106.16 372.854 104.56 372.854 104.56L372.054 103.84C372.054 103.84 371.174 105.12 369.654 105.12C368.214 105.12 366.934 103.84 366.934 102.16C366.934 100.48 368.214 99.2 369.654 99.2C371.174 99.2 371.974 100.48 371.974 100.48L372.774 99.68C372.774 99.68 371.654 98.16 369.654 98.16C367.574 98.16 365.814 99.92 365.814 102.16C365.814 104.4 367.574 106.16 369.654 106.16ZM374.608 106H375.728V101.76C375.728 100.24 376.848 99.28 378.128 99.28H378.608V98.16H378.288C376.528 98.16 375.728 99.36 375.728 99.36V98.32H374.608V106ZM380.124 106H381.244V98.32H380.124V106ZM380.684 96.48C381.084 96.48 381.404 96.16 381.404 95.76C381.404 95.36 381.084 95.04 380.684 95.04C380.284 95.04 379.964 95.36 379.964 95.76C379.964 96.16 380.284 96.48 380.684 96.48ZM383.811 109.36H384.931V104.88C384.931 104.88 385.811 106.16 387.571 106.16C389.651 106.16 391.331 104.48 391.331 102.16C391.331 99.84 389.651 98.16 387.571 98.16C385.811 98.16 384.931 99.44 384.931 99.44V98.32H383.811V109.36ZM387.571 105.12C386.211 105.12 384.931 103.84 384.931 102.16C384.931 100.48 386.211 99.2 387.571 99.2C389.011 99.2 390.211 100.4 390.211 102.16C390.211 103.92 389.011 105.12 387.571 105.12ZM396.079 106.16C396.687 106.16 397.167 105.92 397.167 105.92V104.88C397.167 104.88 396.687 105.12 396.127 105.12C395.487 105.12 395.087 104.72 395.087 103.92V99.36H396.767V98.32H395.087V95.76H394.047V97.52C394.047 98.08 393.807 98.32 393.407 98.32H392.527V99.36H393.967V103.92C393.967 105.36 394.767 106.16 396.079 106.16ZM399.093 106H400.213V98.32H399.093V106ZM399.653 96.48C400.053 96.48 400.373 96.16 400.373 95.76C400.373 95.36 400.053 95.04 399.653 95.04C399.253 95.04 398.933 95.36 398.933 95.76C398.933 96.16 399.253 96.48 399.653 96.48ZM406.14 106.16C408.3 106.16 410.06 104.4 410.06 102.16C410.06 99.92 408.3 98.16 406.14 98.16C403.98 98.16 402.22 99.92 402.22 102.16C402.22 104.4 403.98 106.16 406.14 106.16ZM406.14 105.12C404.62 105.12 403.34 103.824 403.34 102.16C403.34 100.48 404.62 99.2 406.14 99.2C407.66 99.2 408.94 100.48 408.94 102.16C408.94 103.84 407.66 105.12 406.14 105.12ZM412.061 106H413.181V101.76C413.181 100.24 414.221 99.2 415.581 99.2C416.781 99.2 417.661 100.08 417.661 101.44V106H418.781V101.44C418.781 99.44 417.501 98.16 415.661 98.16C413.981 98.16 413.181 99.44 413.181 99.44V98.32H412.061V106ZM428.062 106.16C430.222 106.16 431.982 104.4 431.982 102.16C431.982 99.92 430.222 98.16 428.062 98.16C425.902 98.16 424.142 99.92 424.142 102.16C424.142 104.4 425.902 106.16 428.062 106.16ZM428.062 105.12C426.542 105.12 425.262 103.824 425.262 102.16C425.262 100.48 426.542 99.2 428.062 99.2C429.582 99.2 430.862 100.48 430.862 102.16C430.862 103.84 429.582 105.12 428.062 105.12ZM434.383 106H435.503V99.36H437.343V98.32H435.503V96.88C435.503 96.08 435.903 95.68 436.543 95.68C437.103 95.68 437.583 95.92 437.583 95.92V94.88C437.583 94.88 437.103 94.64 436.463 94.64C435.183 94.64 434.383 95.44 434.383 96.88V98.32H433.183V99.36H434.383V106ZM445.22 106.16C445.828 106.16 446.308 105.92 446.308 105.92V104.88C446.308 104.88 445.828 105.12 445.268 105.12C444.628 105.12 444.228 104.72 444.228 103.92V99.36H445.908V98.32H444.228V95.76H443.188V97.52C443.188 98.08 442.948 98.32 442.548 98.32H441.668V99.36H443.108V103.92C443.108 105.36 443.908 106.16 445.22 106.16ZM448.313 106H449.433V101.76C449.433 100.24 450.473 99.2 451.833 99.2C453.033 99.2 453.913 100.08 453.913 101.44V106H455.033V101.44C455.033 99.44 453.753 98.16 451.913 98.16C450.233 98.16 449.433 99.44 449.433 99.44V94.8H448.313V106ZM457.593 106H458.713V98.32H457.593V106ZM458.153 96.48C458.553 96.48 458.873 96.16 458.873 95.76C458.873 95.36 458.553 95.04 458.153 95.04C457.753 95.04 457.433 95.36 457.433 95.76C457.433 96.16 457.753 96.48 458.153 96.48ZM463.36 106.16C465.12 106.16 466.16 105.12 466.16 103.84C466.16 101.12 462 102 462 100.32C462 99.76 462.56 99.2 463.44 99.2C464.56 99.2 465.12 100 465.12 100L465.92 99.2C465.92 99.2 465.04 98.16 463.44 98.16C461.92 98.16 460.88 99.2 460.88 100.32C460.88 102.96 465.04 102.08 465.04 103.84C465.04 104.56 464.48 105.12 463.36 105.12C462.08 105.12 461.36 104 461.36 104L460.56 104.8C460.56 104.8 461.44 106.16 463.36 106.16ZM471.514 109.36H472.634V104.88C472.634 104.88 473.514 106.16 475.274 106.16C477.354 106.16 479.034 104.48 479.034 102.16C479.034 99.84 477.354 98.16 475.274 98.16C473.514 98.16 472.634 99.44 472.634 99.44V98.32H471.514V109.36ZM475.274 105.12C473.914 105.12 472.634 103.84 472.634 102.16C472.634 100.48 473.914 99.2 475.274 99.2C476.714 99.2 477.914 100.4 477.914 102.16C477.914 103.92 476.714 105.12 475.274 105.12ZM483.19 106.16C484.87 106.16 485.67 104.96 485.67 104.96V106H486.79V101.12C486.79 99.44 485.51 98.16 483.75 98.16C481.91 98.16 480.87 99.6 480.87 99.6L481.59 100.32C481.59 100.32 482.39 99.2 483.75 99.2C484.87 99.2 485.67 100 485.67 101.12L482.71 101.6C481.27 101.84 480.47 102.64 480.47 103.92C480.47 105.04 481.59 106.16 483.19 106.16ZM483.19 105.12C482.15 105.12 481.59 104.56 481.59 103.92C481.59 103.2 482.07 102.736 483.03 102.56L485.67 102.08V102.56C485.67 104.08 484.63 105.12 483.19 105.12ZM492.303 109.36C494.383 109.36 496.062 107.68 496.062 105.52V98.32H494.943V99.36C494.943 99.36 494.223 98.16 492.383 98.16C490.383 98.16 488.783 99.84 488.783 102C488.783 104.16 490.383 105.84 492.383 105.84C494.223 105.84 494.943 104.64 494.943 104.64V105.52C494.943 107.12 493.743 108.32 492.303 108.32C490.703 108.32 489.823 107.04 489.823 107.04L489.103 107.76C489.103 107.76 490.143 109.36 492.303 109.36ZM492.383 104.8C491.023 104.8 489.903 103.6 489.903 102C489.903 100.4 491.023 99.2 492.383 99.2C493.823 99.2 494.943 100.4 494.943 102C494.943 103.6 493.823 104.8 492.383 104.8ZM501.904 106.16C503.984 106.16 505.104 104.56 505.104 104.56L504.384 103.84C504.384 103.84 503.52 105.12 501.904 105.12C500.464 105.12 499.264 103.92 499.184 102.56L505.424 102.576C505.424 102.576 505.504 102.32 505.504 102C505.504 99.76 503.904 98.16 501.824 98.16C499.824 98.16 498.064 99.92 498.064 102.16C498.064 104.4 499.824 106.16 501.904 106.16ZM499.184 101.6C499.344 100.32 500.464 99.2 501.824 99.2C503.184 99.2 504.224 100.24 504.384 101.6H499.184Z" fill="#393939"/>
<rect x="229" y="122" width="358" height="46" rx="7" stroke="#CFCFCF" stroke-width="2"/>
<path d="M207.707 77.7071C208.098 77.3166 208.098 76.6834 207.707 76.2929L201.343 69.9289C200.953 69.5384 200.319 69.5384 199.929 69.9289C199.538 70.3195 199.538 70.9526 199.929 71.3431L205.586 77L199.929 82.6569C199.538 83.0474 199.538 83.6805 199.929 84.0711C200.319 84.4616 200.953 84.4616 201.343 84.0711L207.707 77.7071ZM135 78H207V76H135V78Z" fill="#034AD8"/>
<path d="M207.707 101.707C208.098 101.317 208.098 100.683 207.707 100.293L201.343 93.9289C200.953 93.5384 200.319 93.5384 199.929 93.9289C199.538 94.3195 199.538 94.9526 199.929 95.3431L205.586 101L199.929 106.657C199.538 107.047 199.538 107.681 199.929 108.071C200.319 108.462 200.953 108.462 201.343 108.071L207.707 101.707ZM135 102H207V100H135V102Z" fill="#034AD8"/>
<path d="M207.707 145.707C208.098 145.317 208.098 144.683 207.707 144.293L201.343 137.929C200.953 137.538 200.319 137.538 199.929 137.929C199.538 138.319 199.538 138.953 199.929 139.343L205.586 145L199.929 150.657C199.538 151.047 199.538 151.681 199.929 152.071C200.319 152.462 200.953 152.462 201.343 152.071L207.707 145.707ZM135 146H207V144H135V146Z" fill="#034AD8"/>
<g filter="url(#filter0_d_3982_31567)">
<mask id="path-12-outside-1_3982_31567" maskUnits="userSpaceOnUse" x="553" y="150" width="12" height="22" fill="black">
<rect fill="white" x="553" y="150" width="12" height="22"/>
<path fill-rule="evenodd" clip-rule="evenodd" d="M557.75 152.25H560.25V169.75H557.75V152.25V152.25ZM560.25 151H564V153.5H560.25V151V151ZM560.25 168.5H564V171H560.25V168.5V168.5ZM554 151H557.75V153.5H554V151V151ZM554 168.5H557.75V171H554V168.5V168.5Z"/>
</mask>
<path fill-rule="evenodd" clip-rule="evenodd" d="M557.75 152.25H560.25V169.75H557.75V152.25V152.25ZM560.25 151H564V153.5H560.25V151V151ZM560.25 168.5H564V171H560.25V168.5V168.5ZM554 151H557.75V153.5H554V151V151ZM554 168.5H557.75V171H554V168.5V168.5Z" fill="#363B3E"/>
<path d="M560.25 152.25H561.25V151.25H560.25V152.25ZM560.25 169.75V170.75H561.25V169.75H560.25ZM557.75 169.75H556.75V170.75H557.75V169.75ZM564 151H565V150H564V151ZM564 153.5V154.5H565V153.5H564ZM560.25 153.5H559.25V154.5H560.25V153.5ZM564 168.5H565V167.5H564V168.5ZM564 171V172H565V171H564ZM560.25 171H559.25V172H560.25V171ZM557.75 151H558.75V150H557.75V151ZM557.75 153.5V154.5H558.75V153.5H557.75ZM554 153.5H553V154.5H554V153.5ZM557.75 168.5H558.75V167.5H557.75V168.5ZM557.75 171V172H558.75V171H557.75ZM554 171H553V172H554V171ZM557.75 153.25H560.25V151.25H557.75V153.25ZM559.25 152.25V169.75H561.25V152.25H559.25ZM560.25 168.75H557.75V170.75H560.25V168.75ZM558.75 169.75V152.25H556.75V169.75H558.75ZM560.25 152H564V150H560.25V152ZM563 151V153.5H565V151H563ZM564 152.5H560.25V154.5H564V152.5ZM561.25 153.5V151H559.25V153.5H561.25ZM560.25 169.5H564V167.5H560.25V169.5ZM563 168.5V171H565V168.5H563ZM564 170H560.25V172H564V170ZM561.25 171V168.5H559.25V171H561.25ZM554 152H557.75V150H554V152ZM556.75 151V153.5H558.75V151H556.75ZM557.75 152.5H554V154.5H557.75V152.5ZM555 153.5V151H553V153.5H555ZM554 169.5H557.75V167.5H554V169.5ZM556.75 168.5V171H558.75V168.5H556.75ZM557.75 170H554V172H557.75V170ZM555 171V168.5H553V171H555Z" fill="white" fill-opacity="0.8" mask="url(#path-12-outside-1_3982_31567)"/>
</g>
<defs>
<filter id="filter0_d_3982_31567" x="550" y="148" width="18" height="28" filterUnits="userSpaceOnUse" color-interpolation-filters="sRGB">
<feFlood flood-opacity="0" result="BackgroundImageFix"/>
<feColorMatrix in="SourceAlpha" type="matrix" values="0 0 0 0 0 0 0 0 0 0 0 0 0 0 0 0 0 0 127 0" result="hardAlpha"/>
<feOffset dy="1"/>
<feGaussianBlur stdDeviation="1.5"/>
<feColorMatrix type="matrix" values="0 0 0 0 0 0 0 0 0 0 0 0 0 0 0 0 0 0 0.25 0"/>
<feBlend mode="normal" in2="BackgroundImageFix" result="effect1_dropShadow_3982_31567"/>
<feBlend mode="normal" in="SourceGraphic" in2="effect1_dropShadow_3982_31567" result="shape"/>
</filter>
</defs>
</svg>
