<svg fill="none" height="124" viewBox="0 0 635 124" width="635" xmlns="http://www.w3.org/2000/svg"><path d="m0 0h635v124h-635z" fill="#fff"/><path d="m145 93.5005c-.552 0-1 .4477-1 1 0 .5522.448 1 1 1zm168.5.9999v1h.376l.283-.2474zm24.998-20.9339c.037-.5511-.38-1.0276-.931-1.0643l-8.981-.5986c-.551-.0367-1.027.3803-1.064.9313-.037.5511.38 1.0276.931 1.0643l7.983.5321-.532 7.9823c-.037.551.38 1.0275.931 1.0643.551.0367 1.027-.3803 1.064-.9313zm-193.498 21.934 168.5-.0001v-2l-168.5.0001zm169.159-.2475 24-21.0004-1.318-1.5052-24 21.0005z" fill="#034ad8"/><path d="m145 31c-.552 0-1 .4477-1 1s.448 1 1 1zm113.462 1v-1zm17.245.7071c.391-.3905.391-1.0237 0-1.4142l-6.364-6.364c-.39-.3905-1.024-.3905-1.414 0-.391.3905-.391 1.0237 0 1.4142l5.657 5.6569-5.657 5.6568c-.391.3906-.391 1.0237 0 1.4143.39.3905 1.024.3905 1.414 0zm-130.707.2929h113.462v-2h-113.462zm113.462 0h16.538v-2h-16.538z" fill="#034ad8"/><g fill="#cfcfcf"><path d="m289 22c-5.53 0-10 4.47-10 10s4.47 10 10 10 10-4.47 10-10-4.47-10-10-10z"/><rect height="8" rx="4" width="186" x="311" y="28"/><path d="m289 56c-5.53 0-10 4.47-10 10s4.47 10 10 10 10-4.47 10-10-4.47-10-10-10z"/><rect height="8" rx="4" width="124" x="311" y="62"/></g><path d="m105.382 100.18c-.48 0-.9-.078-1.26-.234-.348-.156-.642-.408-.882-.756-.228-.348-.396-.81-.504-1.386-.096-.576-.126-1.29-.09-2.142l.234-6.012 2.106-.27.162-.018.018.162c-.048.084-.096.168-.144.252s-.078.228-.09.432l-.198 2.484.09.126-.144 2.808c-.036.78-.012 1.386.072 1.818.096.42.234.708.414.864.192.156.42.234.684.234.384 0 .726-.078 1.026-.234.312-.156.6-.336.864-.54l.432 1.476c-.408.3-.846.534-1.314.702-.456.156-.948.234-1.476.234zm-4.32-8.55h6.444l-.018 1.602h-6.462zm12.816 8.568c-.6 0-1.158-.096-1.674-.288-.504-.192-.948-.468-1.332-.828-.372-.372-.66-.828-.864-1.368s-.306-1.152-.306-1.836c0-.696.102-1.32.306-1.872s.48-1.02.828-1.404c.36-.384.78-.672 1.26-.864.48-.204.996-.306 1.548-.306.492 0 .954.084 1.386.252s.81.426 1.134.774c.336.336.6.762.792 1.278.192.504.288 1.092.288 1.764 0 .12-.006.264-.018.432 0 .168-.006.312-.018.432h-5.544c.024.396.102.738.234 1.026.132.276.306.504.522.684s.456.318.72.414c.264.084.54.126.828.126.252 0 .492-.024.72-.072.24-.048.462-.132.666-.252.216-.12.42-.276.612-.468l1.044 1.008c-.264.312-.564.576-.9.792-.324.204-.678.348-1.062.432-.372.096-.762.144-1.17.144zm-2.178-5.364h3.564c0-.288-.042-.546-.126-.774-.072-.228-.18-.42-.324-.576s-.324-.27-.54-.342c-.204-.084-.444-.126-.72-.126-.228 0-.45.036-.666.108-.204.06-.39.168-.558.324s-.306.348-.414.576-.18.498-.216.81zm6.804 5.166 2.898-4.194-2.862-4.176h2.142l1.8 2.592 1.674-2.592h2.052l-2.646 4.104 3.006 4.266h-2.196l-1.89-2.664-1.8 2.664zm13.878.18c-.48 0-.9-.078-1.26-.234-.348-.156-.642-.408-.882-.756-.228-.348-.396-.81-.504-1.386-.096-.576-.126-1.29-.09-2.142l.234-6.012 2.106-.27.162-.018.018.162c-.048.084-.096.168-.144.252s-.078.228-.09.432l-.198 2.484.09.126-.144 2.808c-.036.78-.012 1.386.072 1.818.096.42.234.708.414.864.192.156.42.234.684.234.384 0 .726-.078 1.026-.234.312-.156.6-.336.864-.54l.432 1.476c-.408.3-.846.534-1.314.702-.456.156-.948.234-1.476.234zm-4.32-8.55h6.444l-.018 1.602h-6.462z" fill="#034ad8"/><path d="m29.512 37v-1.602h2.052v-5.166h-1.944v-1.602h3.996v6.768h1.872v1.602zm2.988-9.756c-.348 0-.648-.12-.9-.36s-.378-.528-.378-.864c0-.36.12-.654.36-.882s.546-.342.918-.342c.336 0 .63.12.882.36.264.24.396.528.396.864s-.132.624-.396.864c-.252.24-.546.36-.882.36zm9.504 9.972c-.612 0-1.182-.108-1.71-.324-.516-.216-.972-.516-1.368-.9-.384-.384-.684-.84-.9-1.368s-.324-1.11-.324-1.746c0-.612.108-1.188.324-1.728s.516-1.008.9-1.404c.396-.408.852-.726 1.368-.954.528-.24 1.104-.36 1.728-.36.768 0 1.44.144 2.016.432s1.032.684 1.368 1.188l-1.134 1.242-.108.126-.144-.108c0-.096-.012-.192-.036-.288-.024-.108-.102-.234-.234-.378-.228-.228-.48-.378-.756-.45-.276-.084-.594-.126-.954-.126-.3 0-.588.066-.864.198-.264.12-.504.3-.72.54-.216.228-.384.516-.504.864s-.18.75-.18 1.206c0 .408.06.78.18 1.116.132.324.3.606.504.846.216.228.462.408.738.54.288.12.588.18.9.18.252 0 .498-.036.738-.108s.474-.18.702-.324c.24-.156.462-.36.666-.612l1.134 1.296c-.444.492-.96.852-1.548 1.08-.588.216-1.182.324-1.782.324zm8.478-.036c-.744 0-1.422-.18-2.034-.54-.6-.372-1.074-.888-1.422-1.548s-.522-1.422-.522-2.286c0-.828.174-1.572.522-2.232s.822-1.182 1.422-1.566c.612-.384 1.29-.576 2.034-.576.756 0 1.434.192 2.034.576.612.384 1.092.906 1.44 1.566.36.66.54 1.404.54 2.232 0 .864-.18 1.626-.54 2.286-.348.66-.828 1.176-1.44 1.548-.6.36-1.278.54-2.034.54zm0-1.62c.396 0 .738-.114 1.026-.342.288-.24.516-.564.684-.972.18-.42.27-.9.27-1.44 0-.564-.09-1.05-.27-1.458-.168-.408-.396-.72-.684-.936-.288-.228-.63-.342-1.026-.342-.36 0-.69.114-.99.342-.288.216-.522.528-.702.936-.168.408-.252.894-.252 1.458 0 .54.084 1.02.252 1.44.168.408.396.732.684.972.3.228.636.342 1.008.342zm5.508 1.44v-8.37h2.034v1.152c.204-.264.426-.498.666-.702s.504-.36.792-.468c.3-.12.618-.18.954-.18.492 0 .942.12 1.35.36.408.228.738.6.99 1.116s.378 1.194.378 2.034v5.058h-2.034v-5.022c0-.468-.048-.846-.144-1.134s-.24-.498-.432-.63c-.18-.144-.396-.216-.648-.216-.228 0-.456.048-.684.144-.216.084-.414.216-.594.396s-.324.396-.432.648c-.108.24-.162.516-.162.828v4.986zm19.71.774-1.872-.81 5.544-11.97 1.836.936zm16.812-.774v-1.602h2.052v-5.166h-1.944v-1.602h3.996v6.768h1.872v1.602zm2.988-9.756c-.348 0-.648-.12-.9-.36s-.378-.528-.378-.864c0-.36.12-.654.36-.882s.546-.342.918-.342c.336 0 .63.12.882.36.264.24.396.528.396.864s-.132.624-.396.864c-.252.24-.546.36-.882.36zm5.04 9.756v-8.37h1.71v.612c.144-.192.294-.348.45-.468s.318-.204.486-.252c.18-.06.354-.09.522-.09.204 0 .396.036.576.108.18.06.342.168.486.324.156.144.276.336.36.576.132-.228.282-.414.45-.558.168-.156.36-.27.576-.342.228-.072.474-.108.738-.108.312 0 .576.054.792.162s.39.264.522.468c.144.204.246.456.306.756s.09.636.09 1.008v6.174h-1.764v-5.742c0-.36-.018-.636-.054-.828-.036-.204-.09-.342-.162-.414-.072-.084-.168-.126-.288-.126-.156 0-.306.078-.45.234-.144.144-.264.348-.36.612-.084.252-.126.552-.126.9v5.364h-1.656v-5.688c0-.576-.042-.96-.126-1.152s-.24-.288-.468-.288c-.108 0-.216.036-.324.108-.096.072-.186.18-.27.324-.072.132-.132.306-.18.522-.048.204-.072.438-.072.702v5.472zm12.024.216c-.924 0-1.644-.216-2.16-.648-.504-.444-.756-1.014-.756-1.71 0-.444.096-.852.288-1.224.204-.384.504-.714.9-.99s.888-.486 1.476-.63c.588-.156 1.26-.234 2.016-.234h.36c.144 0 .3.006.468.018.168 0 .324.012.468.036l.054 1.404c-.12-.012-.264-.018-.432-.018-.168-.012-.342-.018-.522-.018-.168-.012-.312-.018-.432-.018-.48 0-.888.036-1.224.108-.324.072-.588.174-.792.306-.204.12-.354.27-.45.45-.096.168-.144.354-.144.558 0 .192.03.354.09.486.072.132.162.24.27.324.12.072.258.126.414.162s.324.054.504.054c.36 0 .672-.054.936-.162.276-.12.504-.306.684-.558.192-.252.33-.564.414-.936.096-.384.144-.834.144-1.35 0-.696-.072-1.23-.216-1.602s-.354-.63-.63-.774c-.276-.156-.624-.234-1.044-.234-.384 0-.75.066-1.098.198-.336.12-.666.348-.99.684l-1.116-1.224c.468-.444.99-.762 1.566-.954s1.152-.288 1.728-.288c.528 0 1.02.06 1.476.18s.852.324 1.188.612c.348.276.618.66.81 1.152.204.48.306 1.08.306 1.8v4.824h-2.106v-.9c-.156.204-.324.378-.504.522s-.372.258-.576.342-.42.144-.648.18c-.228.048-.468.072-.72.072zm9.738 3.006c-.6 0-1.134-.054-1.602-.162s-.864-.258-1.188-.45-.576-.426-.756-.702c-.168-.264-.252-.564-.252-.9 0-.288.072-.558.216-.81s.336-.468.576-.648c.252-.192.522-.342.81-.45l.918.378c-.156.12-.312.24-.468.36-.144.108-.264.228-.36.36-.084.144-.126.312-.126.504 0 .156.06.294.18.414s.288.216.504.288c.216.084.468.144.756.18s.606.054.954.054c.456 0 .84-.042 1.152-.126s.552-.204.72-.36c.168-.144.252-.312.252-.504 0-.18-.048-.33-.144-.45-.096-.108-.27-.186-.522-.234s-.606-.072-1.062-.072c-.384 0-.762-.018-1.134-.054s-.726-.096-1.062-.18c-.324-.084-.612-.192-.864-.324-.252-.144-.45-.318-.594-.522-.132-.204-.198-.45-.198-.738 0-.396.114-.738.342-1.026.24-.288.528-.552.864-.792l.936.54c-.12.108-.228.198-.324.27-.084.072-.15.144-.198.216-.048.06-.072.15-.072.27 0 .144.09.264.27.36.192.096.498.168.918.216.432.048.99.072 1.674.072.54 0 .99.06 1.35.18.36.108.648.27.864.486.216.204.372.444.468.72.108.264.162.546.162.846 0 .36-.078.702-.234 1.026-.156.336-.396.636-.72.9s-.738.474-1.242.63c-.492.156-1.08.234-1.764.234zm-.162-6.048c-.588 0-1.122-.126-1.602-.378-.468-.252-.84-.594-1.116-1.026-.264-.444-.396-.936-.396-1.476s.132-1.026.396-1.458c.276-.444.648-.798 1.116-1.062.48-.264 1.014-.396 1.602-.396.6 0 1.128.132 1.584.396.468.264.834.618 1.098 1.062.276.432.414.918.414 1.458s-.138 1.032-.414 1.476c-.264.432-.63.774-1.098 1.026-.456.252-.984.378-1.584.378zm-.018-1.476c.264 0 .498-.06.702-.18.216-.12.384-.288.504-.504.132-.216.198-.456.198-.72s-.066-.498-.198-.702c-.12-.204-.288-.366-.504-.486-.204-.12-.438-.18-.702-.18-.24 0-.468.066-.684.198-.204.12-.372.282-.504.486s-.198.432-.198.684.06.486.18.702c.132.216.3.39.504.522.216.12.45.18.702.18zm2.61-2.538-.774-.954c.336-.276.72-.486 1.152-.63s.9-.198 1.404-.162l.198 1.404c-.36-.072-.714-.078-1.062-.018s-.654.18-.918.36zm7.146 7.038c-.6 0-1.158-.096-1.674-.288-.504-.192-.948-.468-1.332-.828-.372-.372-.66-.828-.864-1.368s-.306-1.152-.306-1.836c0-.696.102-1.32.306-1.872s.48-1.02.828-1.404c.36-.384.78-.672 1.26-.864.48-.204.996-.306 1.548-.306.492 0 .954.084 1.386.252s.81.426 1.134.774c.336.336.6.762.792 1.278.192.504.288 1.092.288 1.764 0 .12-.006.264-.018.432 0 .168-.006.312-.018.432h-5.544c.024.396.102.738.234 1.026.132.276.306.504.522.684s.456.318.72.414c.264.084.54.126.828.126.252 0 .492-.024.72-.072.24-.048.462-.132.666-.252.216-.12.42-.276.612-.468l1.044 1.008c-.264.312-.564.576-.9.792-.324.204-.678.348-1.062.432-.372.096-.762.144-1.17.144zm-2.178-5.364h3.564c0-.288-.042-.546-.126-.774-.072-.228-.18-.42-.324-.576s-.324-.27-.54-.342c-.204-.084-.444-.126-.72-.126-.228 0-.45.036-.666.108-.204.06-.39.168-.558.324s-.306.348-.414.576-.18.498-.216.81z" fill="#034ad8"/></svg>