<svg fill="none" height="423" viewBox="0 0 635 423" width="635" xmlns="http://www.w3.org/2000/svg" xmlns:xlink="http://www.w3.org/1999/xlink"><filter id="a" color-interpolation-filters="sRGB" filterUnits="userSpaceOnUse" height="198" width="385" x="239" y="205"><feFlood flood-opacity="0" result="BackgroundImageFix"/><feColorMatrix in="SourceAlpha" result="hardAlpha" type="matrix" values="0 0 0 0 0 0 0 0 0 0 0 0 0 0 0 0 0 0 127 0"/><feOffset dy="-10"/><feGaussianBlur stdDeviation="5"/><feComposite in2="hardAlpha" operator="out"/><feColorMatrix type="matrix" values="0 0 0 0 0 0 0 0 0 0 0 0 0 0 0 0 0 0 0.05 0"/><feBlend in2="BackgroundImageFix" mode="normal" result="effect1_dropShadow_203_2709"/><feBlend in="SourceGraphic" in2="effect1_dropShadow_203_2709" mode="normal" result="shape"/></filter><clipPath id="b"><path d="m0 0h635v423h-635z"/></clipPath><mask id="c" height="217" maskUnits="userSpaceOnUse" width="366" x="249" y="20"><path d="m249.09 28.9925c0-4.4182 3.582-7.9999 8-7.9999h349.576c4.418 0 8 3.5817 8 8v207.1734h-365.576z" fill="#eee"/></mask><mask id="d" fill="#fff"><path d="m249 225h365v170c0 4.418-3.582 8-8 8h-349c-4.418 0-8-3.582-8-8z" fill="#fff"/></mask><g clip-path="url(#b)"><path d="m0 0h635v423h-635z" fill="#fff"/><g mask="url(#c)"><rect fill="#eee" height="254.25" rx="7" stroke="#cfcfcf" stroke-width="2" width="363" x="250" y="21"/><rect fill="#8bb4ed" height="265" rx="6" width="360" x="251" y="23"/></g><g filter="url(#a)"><path d="m249 225h365v170c0 4.418-3.582 8-8 8h-349c-4.418 0-8-3.582-8-8z" fill="#fff" shape-rendering="crispEdges"/><rect fill="#8bb4ed" height="40" rx="6" width="40" x="269" y="245"/><path d="m279.934 261.5h11v2h-11zm0-2h11v-2h-11zm0 8h7v-2h-7zm15.01-3.13.71-.71c.39-.39 1.02-.39 1.41 0l.71.71c.39.39.39 1.02 0 1.41l-.71.71zm-.71.71-5.3 5.3v2.12h2.12l5.3-5.3z" fill="#8bb4ed"/><g fill="#cfcfcf"><rect height="24" rx="12" width="195" x="319" y="245"/><rect height="8" rx="4" width="268" x="319" y="279"/><rect height="8" rx="4" width="146" x="319" y="297"/><path d="m289 327c-5.53 0-10 4.47-10 10s4.47 10 10 10 10-4.47 10-10-4.47-10-10-10z"/><rect height="8" rx="4" width="186" x="311" y="333"/><path d="m289 361c-5.53 0-10 4.47-10 10s4.47 10 10 10 10-4.47 10-10-4.47-10-10-10z"/><rect height="8" rx="4" width="124" x="311" y="367"/><path d="m249 225h365zm367 170c0 5.523-4.477 10-10 10h-349c-5.523 0-10-4.477-10-10h4c0 3.314 2.686 6 6 6h349c3.314 0 6-2.686 6-6zm-359 10c-5.523 0-10-4.477-10-10v-170h4v170c0 3.314 2.686 6 6 6zm359-180v170c0 5.523-4.477 10-10 10v-4c3.314 0 6-2.686 6-6v-170z" mask="url(#d)"/></g></g><g fill="#034ad8"><path d="m75.302 102.222c-.6 0-1.134-.054-1.602-.162s-.864-.258-1.188-.45-.576-.426-.756-.702c-.168-.264-.252-.564-.252-.9 0-.288.072-.558.216-.81s.336-.468.576-.648c.252-.192.522-.342.81-.45l.918.378c-.156.12-.312.24-.468.36-.144.108-.264.228-.36.36-.084.144-.126.312-.126.504 0 .156.06.294.18.414s.288.216.504.288c.216.084.468.144.756.18s.606.054.954.054c.456 0 .84-.042 1.152-.126s.552-.204.72-.36c.168-.144.252-.312.252-.504 0-.18-.048-.33-.144-.45-.096-.108-.27-.186-.522-.234s-.606-.072-1.062-.072c-.384 0-.762-.018-1.134-.054s-.726-.096-1.062-.18c-.324-.084-.612-.192-.864-.324-.252-.144-.45-.318-.594-.522-.132-.204-.198-.45-.198-.738 0-.396.114-.738.342-1.026.24-.288.528-.552.864-.792l.936.54c-.12.108-.228.198-.324.27-.084.072-.15.144-.198.216-.048.06-.072.15-.072.27 0 .144.09.264.27.36.192.096.498.168.918.216.432.048.99.072 1.674.072.54 0 .99.06 1.35.18.36.108.648.27.864.486.216.204.372.444.468.72.108.264.162.546.162.846 0 .36-.078.702-.234 1.026-.156.336-.396.636-.72.9s-.738.474-1.242.63c-.492.156-1.08.234-1.764.234zm-.162-6.048c-.588 0-1.122-.126-1.602-.378-.468-.252-.84-.594-1.116-1.026-.264-.444-.396-.936-.396-1.476s.132-1.026.396-1.458c.276-.444.648-.798 1.116-1.062.48-.264 1.014-.396 1.602-.396.6 0 1.128.132 1.584.396.468.264.834.618 1.098 1.062.276.432.414.918.414 1.458s-.138 1.032-.414 1.476c-.264.432-.63.774-1.098 1.026-.456.252-.984.378-1.584.378zm-.018-1.476c.264 0 .498-.06.702-.18.216-.12.384-.288.504-.504.132-.216.198-.456.198-.72s-.066-.498-.198-.702c-.12-.204-.288-.366-.504-.486-.204-.12-.438-.18-.702-.18-.24 0-.468.066-.684.198-.204.12-.372.282-.504.486s-.198.432-.198.684.06.486.18.702c.132.216.3.39.504.522.216.12.45.18.702.18zm2.61-2.538-.774-.954c.336-.276.72-.486 1.152-.63s.9-.198 1.404-.162l.198 1.404c-.36-.072-.714-.078-1.062-.018s-.654.18-.918.36zm5.832 7.056c-.924 0-1.644-.216-2.16-.648-.504-.444-.756-1.014-.756-1.71 0-.444.096-.852.288-1.224.204-.384.504-.714.9-.99s.888-.486 1.476-.63c.588-.156 1.26-.234 2.016-.234h.36c.144 0 .3.006.468.018.168 0 .324.012.468.036l.054 1.404c-.12-.012-.264-.018-.432-.018-.168-.012-.342-.018-.522-.018-.168-.012-.312-.018-.432-.018-.48 0-.888.036-1.224.108-.324.072-.588.174-.792.306-.204.12-.354.27-.45.45-.096.168-.144.354-.144.558 0 .192.03.354.09.486.072.132.162.24.27.324.12.072.258.126.414.162s.324.054.504.054c.36 0 .672-.054.936-.162.276-.12.504-.306.684-.558.192-.252.33-.564.414-.936.096-.384.144-.834.144-1.35 0-.696-.072-1.23-.216-1.602s-.354-.63-.63-.774c-.276-.156-.624-.234-1.044-.234-.384 0-.75.066-1.098.198-.336.12-.666.348-.99.684l-1.116-1.224c.468-.444.99-.762 1.566-.954s1.152-.288 1.728-.288c.528 0 1.02.06 1.476.18s.852.324 1.188.612c.348.276.618.66.81 1.152.204.48.306 1.08.306 1.8v4.824h-2.106v-.9c-.156.204-.324.378-.504.522s-.372.258-.576.342-.42.144-.648.18c-.228.048-.468.072-.72.072zm6.57-.216v-1.602h2.358v-8.874h-2.25v-1.602h4.302v10.476h2.34v1.602zm9 0v-1.602h2.358v-8.874h-2.25v-1.602h4.302v10.476h2.34v1.602zm12.744.198c-.6 0-1.158-.096-1.674-.288-.504-.192-.948-.468-1.332-.828-.372-.372-.66-.828-.864-1.368s-.306-1.152-.306-1.836c0-.696.102-1.32.306-1.872s.48-1.02.828-1.404c.36-.384.78-.672 1.26-.864.48-.204.996-.306 1.548-.306.492 0 .954.084 1.386.252s.81.426 1.134.774c.336.336.6.762.792 1.278.192.504.288 1.092.288 1.764 0 .12-.006.264-.018.432 0 .168-.006.312-.018.432h-5.544c.024.396.102.738.234 1.026.132.276.306.504.522.684s.456.318.72.414c.264.084.54.126.828.126.252 0 .492-.024.72-.072.24-.048.462-.132.666-.252.216-.12.42-.276.612-.468l1.044 1.008c-.264.312-.564.576-.9.792-.324.204-.678.348-1.062.432-.372.096-.762.144-1.17.144zm-2.178-5.364h3.564c0-.288-.042-.546-.126-.774-.072-.228-.18-.42-.324-.576s-.324-.27-.54-.342c-.204-.084-.444-.126-.72-.126-.228 0-.45.036-.666.108-.204.06-.39.168-.558.324s-.306.348-.414.576-.18.498-.216.81zm7.902-3.204h2.106l-.018 2.34-.234-.144c.048-.372.15-.702.306-.99.168-.288.372-.54.612-.756.252-.216.522-.378.81-.486.3-.108.606-.162.918-.162.468 0 .888.078 1.26.234.384.144.738.384 1.062.72l-.864 1.71-.054.144-.162-.072c-.036-.096-.072-.192-.108-.288-.036-.108-.126-.228-.27-.36-.168-.132-.348-.234-.54-.306-.18-.072-.378-.108-.594-.108-.288 0-.564.048-.828.144s-.498.246-.702.45c-.192.204-.348.468-.468.792-.108.312-.162.684-.162 1.116v4.392h-2.07zm9.666 11.538c-.396 0-.756-.072-1.08-.216-.312-.132-.618-.318-.918-.558l.702-1.404.072-.162.162.072c.036.096.078.186.126.27.06.084.168.18.324.288.084.048.174.084.27.108.108.024.222.036.342.036.24 0 .444-.066.612-.198.18-.132.342-.336.486-.612.156-.276.306-.63.45-1.062l1.818-5.13c.18-.516.33-1.014.45-1.494.132-.48.21-.972.234-1.476h1.89c-.048.54-.174 1.11-.378 1.71-.204.588-.408 1.158-.612 1.71l-2.07 5.688c-.336.888-.744 1.512-1.224 1.872-.468.372-1.02.558-1.656.558zm-1.71-11.538h2.034l2.466 6.39-1.062 2.178z"/><path d="m27.512 274v-1.602h2.052v-5.166h-1.944v-1.602h3.996v6.768h1.872v1.602zm2.988-9.756c-.348 0-.648-.12-.9-.36s-.378-.528-.378-.864c0-.36.12-.654.36-.882s.546-.342.918-.342c.336 0 .63.12.882.36.264.24.396.528.396.864s-.132.624-.396.864c-.252.24-.546.36-.882.36zm9.504 9.972c-.612 0-1.182-.108-1.71-.324-.516-.216-.972-.516-1.368-.9-.384-.384-.684-.84-.9-1.368s-.324-1.11-.324-1.746c0-.612.108-1.188.324-1.728s.516-1.008.9-1.404c.396-.408.852-.726 1.368-.954.528-.24 1.104-.36 1.728-.36.768 0 1.44.144 2.016.432s1.032.684 1.368 1.188l-1.134 1.242-.108.126-.144-.108c0-.096-.012-.192-.036-.288-.024-.108-.102-.234-.234-.378-.228-.228-.48-.378-.756-.45-.276-.084-.594-.126-.954-.126-.3 0-.588.066-.864.198-.264.12-.504.3-.72.54-.216.228-.384.516-.504.864s-.18.75-.18 1.206c0 .408.06.78.18 1.116.132.324.3.606.504.846.216.228.462.408.738.54.288.12.588.18.9.18.252 0 .498-.036.738-.108s.474-.18.702-.324c.24-.156.462-.36.666-.612l1.134 1.296c-.444.492-.96.852-1.548 1.08-.588.216-1.182.324-1.782.324zm8.478-.036c-.744 0-1.422-.18-2.034-.54-.6-.372-1.074-.888-1.422-1.548s-.522-1.422-.522-2.286c0-.828.174-1.572.522-2.232s.822-1.182 1.422-1.566c.612-.384 1.29-.576 2.034-.576.756 0 1.434.192 2.034.576.612.384 1.092.906 1.44 1.566.36.66.54 1.404.54 2.232 0 .864-.18 1.626-.54 2.286-.348.66-.828 1.176-1.44 1.548-.6.36-1.278.54-2.034.54zm0-1.62c.396 0 .738-.114 1.026-.342.288-.24.516-.564.684-.972.18-.42.27-.9.27-1.44 0-.564-.09-1.05-.27-1.458-.168-.408-.396-.72-.684-.936-.288-.228-.63-.342-1.026-.342-.36 0-.69.114-.99.342-.288.216-.522.528-.702.936-.168.408-.252.894-.252 1.458 0 .54.084 1.02.252 1.44.168.408.396.732.684.972.3.228.636.342 1.008.342zm5.508 1.44v-8.37h2.034v1.152c.204-.264.426-.498.666-.702s.504-.36.792-.468c.3-.12.618-.18.954-.18.492 0 .942.12 1.35.36.408.228.738.6.99 1.116s.378 1.194.378 2.034v5.058h-2.034v-5.022c0-.468-.048-.846-.144-1.134s-.24-.498-.432-.63c-.18-.144-.396-.216-.648-.216-.228 0-.456.048-.684.144-.216.084-.414.216-.594.396s-.324.396-.432.648c-.108.24-.162.516-.162.828v4.986zm19.71.774-1.872-.81 5.544-11.97 1.836.936zm16.812-.774v-1.602h2.052v-5.166h-1.944v-1.602h3.996v6.768h1.872v1.602zm2.988-9.756c-.348 0-.648-.12-.9-.36s-.378-.528-.378-.864c0-.36.12-.654.36-.882s.546-.342.918-.342c.336 0 .63.12.882.36.264.24.396.528.396.864s-.132.624-.396.864c-.252.24-.546.36-.882.36zm5.04 9.756v-8.37h1.71v.612c.144-.192.294-.348.45-.468s.318-.204.486-.252c.18-.06.354-.09.522-.09.204 0 .396.036.576.108.18.06.342.168.486.324.156.144.276.336.36.576.132-.228.282-.414.45-.558.168-.156.36-.27.576-.342.228-.072.474-.108.738-.108.312 0 .576.054.792.162s.39.264.522.468c.144.204.246.456.306.756s.09.636.09 1.008v6.174h-1.764v-5.742c0-.36-.018-.636-.054-.828-.036-.204-.09-.342-.162-.414-.072-.084-.168-.126-.288-.126-.156 0-.306.078-.45.234-.144.144-.264.348-.36.612-.084.252-.126.552-.126.9v5.364h-1.656v-5.688c0-.576-.042-.96-.126-1.152s-.24-.288-.468-.288c-.108 0-.216.036-.324.108-.096.072-.186.18-.27.324-.072.132-.132.306-.18.522-.048.204-.072.438-.072.702v5.472zm12.024.216c-.924 0-1.644-.216-2.16-.648-.504-.444-.756-1.014-.756-1.71 0-.444.096-.852.288-1.224.204-.384.504-.714.9-.99s.888-.486 1.476-.63c.588-.156 1.26-.234 2.016-.234h.36c.144 0 .3.006.468.018.168 0 .324.012.468.036l.054 1.404c-.12-.012-.264-.018-.432-.018-.168-.012-.342-.018-.522-.018-.168-.012-.312-.018-.432-.018-.48 0-.888.036-1.224.108-.324.072-.588.174-.792.306-.204.12-.354.27-.45.45-.096.168-.144.354-.144.558 0 .192.03.354.09.486.072.132.162.24.27.324.12.072.258.126.414.162s.324.054.504.054c.36 0 .672-.054.936-.162.276-.12.504-.306.684-.558.192-.252.33-.564.414-.936.096-.384.144-.834.144-1.35 0-.696-.072-1.23-.216-1.602s-.354-.63-.63-.774c-.276-.156-.624-.234-1.044-.234-.384 0-.75.066-1.098.198-.336.12-.666.348-.99.684l-1.116-1.224c.468-.444.99-.762 1.566-.954s1.152-.288 1.728-.288c.528 0 1.02.06 1.476.18s.852.324 1.188.612c.348.276.618.66.81 1.152.204.48.306 1.08.306 1.8v4.824h-2.106v-.9c-.156.204-.324.378-.504.522s-.372.258-.576.342-.42.144-.648.18c-.228.048-.468.072-.72.072zm9.738 3.006c-.6 0-1.134-.054-1.602-.162s-.864-.258-1.188-.45-.576-.426-.756-.702c-.168-.264-.252-.564-.252-.9 0-.288.072-.558.216-.81s.336-.468.576-.648c.252-.192.522-.342.81-.45l.918.378c-.156.12-.312.24-.468.36-.144.108-.264.228-.36.36-.084.144-.126.312-.126.504 0 .156.06.294.18.414s.288.216.504.288c.216.084.468.144.756.18s.606.054.954.054c.456 0 .84-.042 1.152-.126s.552-.204.72-.36c.168-.144.252-.312.252-.504 0-.18-.048-.33-.144-.45-.096-.108-.27-.186-.522-.234s-.606-.072-1.062-.072c-.384 0-.762-.018-1.134-.054s-.726-.096-1.062-.18c-.324-.084-.612-.192-.864-.324-.252-.144-.45-.318-.594-.522-.132-.204-.198-.45-.198-.738 0-.396.114-.738.342-1.026.24-.288.528-.552.864-.792l.936.54c-.12.108-.228.198-.324.27-.084.072-.15.144-.198.216-.048.06-.072.15-.072.27 0 .144.09.264.27.36.192.096.498.168.918.216.432.048.99.072 1.674.072.54 0 .99.06 1.35.18.36.108.648.27.864.486.216.204.372.444.468.72.108.264.162.546.162.846 0 .36-.078.702-.234 1.026-.156.336-.396.636-.72.9s-.738.474-1.242.63c-.492.156-1.08.234-1.764.234zm-.162-6.048c-.588 0-1.122-.126-1.602-.378-.468-.252-.84-.594-1.116-1.026-.264-.444-.396-.936-.396-1.476s.132-1.026.396-1.458c.276-.444.648-.798 1.116-1.062.48-.264 1.014-.396 1.602-.396.6 0 1.128.132 1.584.396.468.264.834.618 1.098 1.062.276.432.414.918.414 1.458s-.138 1.032-.414 1.476c-.264.432-.63.774-1.098 1.026-.456.252-.984.378-1.584.378zm-.018-1.476c.264 0 .498-.06.702-.18.216-.12.384-.288.504-.504.132-.216.198-.456.198-.72s-.066-.498-.198-.702c-.12-.204-.288-.366-.504-.486-.204-.12-.438-.18-.702-.18-.24 0-.468.066-.684.198-.204.12-.372.282-.504.486s-.198.432-.198.684.06.486.18.702c.132.216.3.39.504.522.216.12.45.18.702.18zm2.61-2.538-.774-.954c.336-.276.72-.486 1.152-.63s.9-.198 1.404-.162l.198 1.404c-.36-.072-.714-.078-1.062-.018s-.654.18-.918.36zm7.146 7.038c-.6 0-1.158-.096-1.674-.288-.504-.192-.948-.468-1.332-.828-.372-.372-.66-.828-.864-1.368s-.306-1.152-.306-1.836c0-.696.102-1.32.306-1.872s.48-1.02.828-1.404c.36-.384.78-.672 1.26-.864.48-.204.996-.306 1.548-.306.492 0 .954.084 1.386.252s.81.426 1.134.774c.336.336.6.762.792 1.278.192.504.288 1.092.288 1.764 0 .12-.006.264-.018.432 0 .168-.006.312-.018.432h-5.544c.024.396.102.738.234 1.026.132.276.306.504.522.684s.456.318.72.414c.264.084.54.126.828.126.252 0 .492-.024.72-.072.24-.048.462-.132.666-.252.216-.12.42-.276.612-.468l1.044 1.008c-.264.312-.564.576-.9.792-.324.204-.678.348-1.062.432-.372.096-.762.144-1.17.144zm-2.178-5.364h3.564c0-.288-.042-.546-.126-.774-.072-.228-.18-.42-.324-.576s-.324-.27-.54-.342c-.204-.084-.444-.126-.72-.126-.228 0-.45.036-.666.108-.204.06-.39.168-.558.324s-.306.348-.414.576-.18.498-.216.81z"/><path d="m75.662 312.198c-.504 0-.99-.048-1.458-.144-.468-.084-.9-.222-1.296-.414-.396-.204-.762-.462-1.098-.774l.9-1.656.072-.144.144.09c.036.084.072.18.108.288.036.096.126.21.27.342.3.252.642.45 1.026.594s.84.216 1.368.216c.336 0 .618-.036.846-.108.24-.084.42-.192.54-.324.132-.144.198-.306.198-.486 0-.144-.036-.27-.108-.378s-.186-.204-.342-.288-.36-.168-.612-.252c-.252-.096-.552-.198-.9-.306-.612-.156-1.146-.348-1.602-.576-.444-.24-.786-.528-1.026-.864s-.36-.726-.36-1.17c0-.468.132-.882.396-1.242.276-.36.66-.642 1.152-.846.492-.216 1.074-.324 1.746-.324.348 0 .678.03.99.09.312.048.606.126.882.234.288.096.552.228.792.396.252.156.486.342.702.558l-.99 1.386-.126.144-.126-.108c-.012-.096-.042-.186-.09-.27-.036-.096-.126-.21-.27-.342-.24-.18-.516-.312-.828-.396-.3-.084-.6-.126-.9-.126-.408 0-.762.066-1.062.198-.288.132-.432.336-.432.612 0 .156.066.3.198.432.132.12.348.24.648.36.312.108.72.228 1.224.36.672.18 1.218.39 1.638.63.432.228.744.504.936.828.204.324.306.702.306 1.134 0 .468-.132.906-.396 1.314s-.654.732-1.17.972c-.504.24-1.134.36-1.89.36zm8.154.018c-.336 0-.654-.048-.954-.144-.3-.084-.57-.216-.81-.396-.24-.192-.45-.432-.63-.72-.168-.288-.3-.63-.396-1.026-.096-.408-.144-.87-.144-1.386v-4.914h2.052v4.914c0 .372.03.69.09.954.06.252.15.462.27.63.12.156.258.27.414.342.168.072.342.108.522.108.252 0 .48-.042.684-.126.216-.096.396-.234.54-.414.156-.18.276-.402.36-.666.084-.276.126-.6.126-.972v-4.77h2.034v7.038c0 .264.006.504.018.72.024.204.078.408.162.612h-1.854c-.06-.12-.102-.24-.126-.36s-.042-.24-.054-.36c0-.132 0-.252 0-.36-.132.204-.282.39-.45.558-.168.156-.354.288-.558.396-.192.108-.402.192-.63.252-.216.06-.438.09-.666.09zm10.206 0c-.3 0-.588-.042-.864-.126s-.534-.21-.774-.378c-.228-.18-.438-.39-.63-.63l-.342.918h-1.548v-12.078h2.034.18v.162c-.072.072-.12.15-.144.234-.012.084-.018.228-.018.432v3.816c.132-.168.276-.324.432-.468s.33-.264.522-.36c.192-.108.39-.186.594-.234.216-.048.432-.072.648-.072.516 0 .978.09 1.386.27.42.18.774.45 1.062.81.3.348.528.786.684 1.314.168.528.252 1.146.252 1.854 0 .768-.096 1.44-.288 2.016-.18.564-.432 1.032-.756 1.404s-.696.654-1.116.846c-.408.18-.846.27-1.314.27zm-.414-1.584c.252 0 .492-.048.72-.144.228-.108.426-.27.594-.486s.3-.498.396-.846c.096-.36.144-.792.144-1.296 0-.456-.042-.864-.126-1.224s-.204-.66-.36-.9c-.156-.252-.348-.444-.576-.576-.216-.132-.468-.198-.756-.198-.348 0-.654.114-.918.342-.252.216-.444.534-.576.954s-.204.924-.216 1.512c0 .456.03.864.09 1.224.072.348.174.648.306.9.144.24.318.426.522.558.216.12.468.18.756.18zm9.774 1.548c-.48 0-.9-.078-1.26-.234-.348-.156-.642-.408-.882-.756-.228-.348-.396-.81-.504-1.386-.096-.576-.126-1.29-.09-2.142l.234-6.012 2.106-.27.162-.018.018.162c-.048.084-.096.168-.144.252s-.078.228-.09.432l-.198 2.484.09.126-.144 2.808c-.036.78-.012 1.386.072 1.818.096.42.234.708.414.864.192.156.42.234.684.234.384 0 .726-.078 1.026-.234.312-.156.6-.336.864-.54l.432 1.476c-.408.3-.846.534-1.314.702-.456.156-.948.234-1.476.234zm-4.32-8.55h6.444l-.018 1.602h-6.462zm12.816 8.568c-.6 0-1.158-.096-1.674-.288-.504-.192-.948-.468-1.332-.828-.372-.372-.66-.828-.864-1.368s-.306-1.152-.306-1.836c0-.696.102-1.32.306-1.872s.48-1.02.828-1.404c.36-.384.78-.672 1.26-.864.48-.204.996-.306 1.548-.306.492 0 .954.084 1.386.252s.81.426 1.134.774c.336.336.6.762.792 1.278.192.504.288 1.092.288 1.764 0 .12-.006.264-.018.432 0 .168-.006.312-.018.432h-5.544c.024.396.102.738.234 1.026.132.276.306.504.522.684s.456.318.72.414c.264.084.54.126.828.126.252 0 .492-.024.72-.072.24-.048.462-.132.666-.252.216-.12.42-.276.612-.468l1.044 1.008c-.264.312-.564.576-.9.792-.324.204-.678.348-1.062.432-.372.096-.762.144-1.17.144zm-2.178-5.364h3.564c0-.288-.042-.546-.126-.774-.072-.228-.18-.42-.324-.576s-.324-.27-.54-.342c-.204-.084-.444-.126-.72-.126-.228 0-.45.036-.666.108-.204.06-.39.168-.558.324s-.306.348-.414.576-.18.498-.216.81zm6.804 5.166 2.898-4.194-2.862-4.176h2.142l1.8 2.592 1.674-2.592h2.052l-2.646 4.104 3.006 4.266h-2.196l-1.89-2.664-1.8 2.664zm13.878.18c-.48 0-.9-.078-1.26-.234-.348-.156-.642-.408-.882-.756-.228-.348-.396-.81-.504-1.386-.096-.576-.126-1.29-.09-2.142l.234-6.012 2.106-.27.162-.018.018.162c-.048.084-.096.168-.144.252s-.078.228-.09.432l-.198 2.484.09.126-.144 2.808c-.036.78-.012 1.386.072 1.818.096.42.234.708.414.864.192.156.42.234.684.234.384 0 .726-.078 1.026-.234.312-.156.6-.336.864-.54l.432 1.476c-.408.3-.846.534-1.314.702-.456.156-.948.234-1.476.234zm-4.32-8.55h6.444l-.018 1.602h-6.462z"/><path d="m103.382 236.18c-.48 0-.9-.078-1.26-.234-.348-.156-.642-.408-.882-.756-.228-.348-.396-.81-.504-1.386-.096-.576-.126-1.29-.09-2.142l.234-6.012 2.106-.27.162-.018.018.162c-.048.084-.096.168-.144.252s-.078.228-.09.432l-.198 2.484.09.126-.144 2.808c-.036.78-.012 1.386.072 1.818.096.42.234.708.414.864.192.156.42.234.684.234.384 0 .726-.078 1.026-.234.312-.156.6-.336.864-.54l.432 1.476c-.408.3-.846.534-1.314.702-.456.156-.948.234-1.476.234zm-4.32-8.55h6.444l-.018 1.602h-6.462zm12.816 8.568c-.6 0-1.158-.096-1.674-.288-.504-.192-.948-.468-1.332-.828-.372-.372-.66-.828-.864-1.368s-.306-1.152-.306-1.836c0-.696.102-1.32.306-1.872s.48-1.02.828-1.404c.36-.384.78-.672 1.26-.864.48-.204.996-.306 1.548-.306.492 0 .954.084 1.386.252s.81.426 1.134.774c.336.336.6.762.792 1.278.192.504.288 1.092.288 1.764 0 .12-.006.264-.018.432 0 .168-.006.312-.018.432h-5.544c.024.396.102.738.234 1.026.132.276.306.504.522.684s.456.318.72.414c.264.084.54.126.828.126.252 0 .492-.024.72-.072.24-.048.462-.132.666-.252.216-.12.42-.276.612-.468l1.044 1.008c-.264.312-.564.576-.9.792-.324.204-.678.348-1.062.432-.372.096-.762.144-1.17.144zm-2.178-5.364h3.564c0-.288-.042-.546-.126-.774-.072-.228-.18-.42-.324-.576s-.324-.27-.54-.342c-.204-.084-.444-.126-.72-.126-.228 0-.45.036-.666.108-.204.06-.39.168-.558.324s-.306.348-.414.576-.18.498-.216.81zm6.804 5.166 2.898-4.194-2.862-4.176h2.142l1.8 2.592 1.674-2.592h2.052l-2.646 4.104 3.006 4.266h-2.196l-1.89-2.664-1.8 2.664zm13.878.18c-.48 0-.9-.078-1.26-.234-.348-.156-.642-.408-.882-.756-.228-.348-.396-.81-.504-1.386-.096-.576-.126-1.29-.09-2.142l.234-6.012 2.106-.27.162-.018.018.162c-.048.084-.096.168-.144.252s-.078.228-.09.432l-.198 2.484.09.126-.144 2.808c-.036.78-.012 1.386.072 1.818.096.42.234.708.414.864.192.156.42.234.684.234.384 0 .726-.078 1.026-.234.312-.156.6-.336.864-.54l.432 1.476c-.408.3-.846.534-1.314.702-.456.156-.948.234-1.476.234zm-4.32-8.55h6.444l-.018 1.602h-6.462z"/><path d="m62.54 353v-8.37h1.71v.612c.144-.192.294-.348.45-.468s.318-.204.486-.252c.18-.06.354-.09.522-.09.204 0 .396.036.576.108.18.06.342.168.486.324.156.144.276.336.36.576.132-.228.282-.414.45-.558.168-.156.36-.27.576-.342.228-.072.474-.108.738-.108.312 0 .576.054.792.162s.39.264.522.468c.144.204.246.456.306.756s.09.636.09 1.008v6.174h-1.764v-5.742c0-.36-.018-.636-.054-.828-.036-.204-.09-.342-.162-.414-.072-.084-.168-.126-.288-.126-.156 0-.306.078-.45.234-.144.144-.264.348-.36.612-.084.252-.126.552-.126.9v5.364h-1.656v-5.688c0-.576-.042-.96-.126-1.152s-.24-.288-.468-.288c-.108 0-.216.036-.324.108-.096.072-.186.18-.27.324-.072.132-.132.306-.18.522-.048.204-.072.438-.072.702v5.472zm13.338.198c-.6 0-1.158-.096-1.674-.288-.504-.192-.948-.468-1.332-.828-.372-.372-.66-.828-.864-1.368s-.306-1.152-.306-1.836c0-.696.102-1.32.306-1.872s.48-1.02.828-1.404c.36-.384.78-.672 1.26-.864.48-.204.996-.306 1.548-.306.492 0 .954.084 1.386.252s.81.426 1.134.774c.336.336.6.762.792 1.278.192.504.288 1.092.288 1.764 0 .12-.006.264-.018.432 0 .168-.006.312-.018.432h-5.544c.024.396.102.738.234 1.026.132.276.306.504.522.684s.456.318.72.414c.264.084.54.126.828.126.252 0 .492-.024.72-.072.24-.048.462-.132.666-.252.216-.12.42-.276.612-.468l1.044 1.008c-.264.312-.564.576-.9.792-.324.204-.678.348-1.062.432-.372.096-.762.144-1.17.144zm-2.178-5.364h3.564c0-.288-.042-.546-.126-.774-.072-.228-.18-.42-.324-.576s-.324-.27-.54-.342c-.204-.084-.444-.126-.72-.126-.228 0-.45.036-.666.108-.204.06-.39.168-.558.324s-.306.348-.414.576-.18.498-.216.81zm11.682 5.346c-.48 0-.9-.078-1.26-.234-.348-.156-.642-.408-.882-.756-.228-.348-.396-.81-.504-1.386-.096-.576-.126-1.29-.09-2.142l.234-6.012 2.106-.27.162-.018.018.162c-.048.084-.096.168-.144.252s-.078.228-.09.432l-.198 2.484.09.126-.144 2.808c-.036.78-.012 1.386.072 1.818.096.42.234.708.414.864.192.156.42.234.684.234.384 0 .726-.078 1.026-.234.312-.156.6-.336.864-.54l.432 1.476c-.408.3-.846.534-1.314.702-.456.156-.948.234-1.476.234zm-4.32-8.55h6.444l-.018 1.602h-6.462zm11.502 8.586c-.924 0-1.644-.216-2.16-.648-.504-.444-.756-1.014-.756-1.71 0-.444.096-.852.288-1.224.204-.384.504-.714.9-.99s.888-.486 1.476-.63c.588-.156 1.26-.234 2.016-.234h.36c.144 0 .3.006.468.018.168 0 .324.012.468.036l.054 1.404c-.12-.012-.264-.018-.432-.018-.168-.012-.342-.018-.522-.018-.168-.012-.312-.018-.432-.018-.48 0-.888.036-1.224.108-.324.072-.588.174-.792.306-.204.12-.354.27-.45.45-.096.168-.144.354-.144.558 0 .192.03.354.09.486.072.132.162.24.27.324.12.072.258.126.414.162s.324.054.504.054c.36 0 .672-.054.936-.162.276-.12.504-.306.684-.558.192-.252.33-.564.414-.936.096-.384.144-.834.144-1.35 0-.696-.072-1.23-.216-1.602s-.354-.63-.63-.774c-.276-.156-.624-.234-1.044-.234-.384 0-.75.066-1.098.198-.336.12-.666.348-.99.684l-1.116-1.224c.468-.444.99-.762 1.566-.954s1.152-.288 1.728-.288c.528 0 1.02.06 1.476.18s.852.324 1.188.612c.348.276.618.66.81 1.152.204.48.306 1.08.306 1.8v4.824h-2.106v-.9c-.156.204-.324.378-.504.522s-.372.258-.576.342-.42.144-.648.18c-.228.048-.468.072-.72.072zm9.504-.018c-.468 0-.912-.09-1.332-.27-.408-.18-.774-.456-1.098-.828s-.582-.834-.774-1.386c-.18-.552-.27-1.2-.27-1.944 0-.72.09-1.35.27-1.89.18-.552.426-1.008.738-1.368.324-.372.696-.648 1.116-.828s.876-.27 1.368-.27c.276 0 .54.036.792.108.264.072.498.18.702.324.216.132.39.318.522.558v-4.482h1.998.18v.162c-.072.072-.12.15-.144.234-.012.084-.018.228-.018.432l-.018 10.134c0 .192.012.378.036.558s.078.366.162.558h-1.998c-.06-.132-.102-.24-.126-.324s-.042-.168-.054-.252c0-.096 0-.21 0-.342-.144.252-.324.462-.54.63s-.45.288-.702.36c-.252.084-.522.126-.81.126zm.342-1.638c.276 0 .516-.054.72-.162.216-.12.39-.294.522-.522.144-.228.246-.516.306-.864.072-.36.108-.768.108-1.224 0-.624-.06-1.14-.18-1.548-.12-.42-.306-.732-.558-.936s-.576-.306-.972-.306c-.276 0-.528.066-.756.198-.228.12-.414.3-.558.54s-.258.528-.342.864c-.072.336-.108.714-.108 1.134 0 .588.078 1.092.234 1.512.168.42.39.744.666.972s.582.342.918.342zm8.154 1.656c-.924 0-1.644-.216-2.16-.648-.504-.444-.756-1.014-.756-1.71 0-.444.096-.852.288-1.224.204-.384.504-.714.9-.99s.888-.486 1.476-.63c.588-.156 1.26-.234 2.016-.234h.36c.144 0 .3.006.468.018.168 0 .324.012.468.036l.054 1.404c-.12-.012-.264-.018-.432-.018-.168-.012-.342-.018-.522-.018-.168-.012-.312-.018-.432-.018-.48 0-.888.036-1.224.108-.324.072-.588.174-.792.306-.204.12-.354.27-.45.45-.096.168-.144.354-.144.558 0 .192.03.354.09.486.072.132.162.24.27.324.12.072.258.126.414.162s.324.054.504.054c.36 0 .672-.054.936-.162.276-.12.504-.306.684-.558.192-.252.33-.564.414-.936.096-.384.144-.834.144-1.35 0-.696-.072-1.23-.216-1.602s-.354-.63-.63-.774c-.276-.156-.624-.234-1.044-.234-.384 0-.75.066-1.098.198-.336.12-.666.348-.99.684l-1.116-1.224c.468-.444.99-.762 1.566-.954s1.152-.288 1.728-.288c.528 0 1.02.06 1.476.18s.852.324 1.188.612c.348.276.618.66.81 1.152.204.48.306 1.08.306 1.8v4.824h-2.106v-.9c-.156.204-.324.378-.504.522s-.372.258-.576.342-.42.144-.648.18c-.228.048-.468.072-.72.072zm10.818-.036c-.48 0-.9-.078-1.26-.234-.348-.156-.642-.408-.882-.756-.228-.348-.396-.81-.504-1.386-.096-.576-.126-1.29-.09-2.142l.234-6.012 2.106-.27.162-.018.018.162c-.048.084-.096.168-.144.252s-.078.228-.09.432l-.198 2.484.09.126-.144 2.808c-.036.78-.012 1.386.072 1.818.096.42.234.708.414.864.192.156.42.234.684.234.384 0 .726-.078 1.026-.234.312-.156.6-.336.864-.54l.432 1.476c-.408.3-.846.534-1.314.702-.456.156-.948.234-1.476.234zm-4.32-8.55h6.444l-.018 1.602h-6.462zm11.502 8.586c-.924 0-1.644-.216-2.16-.648-.504-.444-.756-1.014-.756-1.71 0-.444.096-.852.288-1.224.204-.384.504-.714.9-.99s.888-.486 1.476-.63c.588-.156 1.26-.234 2.016-.234h.36c.144 0 .3.006.468.018.168 0 .324.012.468.036l.054 1.404c-.12-.012-.264-.018-.432-.018-.168-.012-.342-.018-.522-.018-.168-.012-.312-.018-.432-.018-.48 0-.888.036-1.224.108-.324.072-.588.174-.792.306-.204.12-.354.27-.45.45-.096.168-.144.354-.144.558 0 .192.03.354.09.486.072.132.162.24.27.324.12.072.258.126.414.162s.324.054.504.054c.36 0 .672-.054.936-.162.276-.12.504-.306.684-.558.192-.252.33-.564.414-.936.096-.384.144-.834.144-1.35 0-.696-.072-1.23-.216-1.602s-.354-.63-.63-.774c-.276-.156-.624-.234-1.044-.234-.384 0-.75.066-1.098.198-.336.12-.666.348-.99.684l-1.116-1.224c.468-.444.99-.762 1.566-.954s1.152-.288 1.728-.288c.528 0 1.02.06 1.476.18s.852.324 1.188.612c.348.276.618.66.81 1.152.204.48.306 1.08.306 1.8v4.824h-2.106v-.9c-.156.204-.324.378-.504.522s-.372.258-.576.342-.42.144-.648.18c-.228.048-.468.072-.72.072z"/><path d="m143 93c-.552 0-1 .4477-1 1s.448 1 1 1zm134.707 1.7071c.391-.3905.391-1.0237 0-1.4142l-6.364-6.364c-.39-.3905-1.024-.3905-1.414 0-.391.3905-.391 1.0237 0 1.4142l5.657 5.6569-5.657 5.6568c-.391.3902-.391 1.0242 0 1.4142.39.391 1.024.391 1.414 0zm-134.707.2929h134v-2h-134z"/><path d="m143 267c-.552 0-1 .448-1 1s.448 1 1 1zm121.707 1.707c.391-.39.391-1.024 0-1.414l-6.364-6.364c-.39-.391-1.024-.391-1.414 0-.391.39-.391 1.024 0 1.414l5.657 5.657-5.657 5.657c-.391.39-.391 1.024 0 1.414.39.391 1.024.391 1.414 0zm-121.707.293h121v-2h-121z"/><path d="m143 305.5c-.552 0-1 .448-1 1 0 .553.448 1 1 1zm97.5 1v-1zm74.707.708c.391-.391.391-1.024 0-1.415l-6.364-6.364c-.39-.39-1.024-.39-1.414 0-.391.391-.391 1.024 0 1.415l5.657 5.656-5.657 5.657c-.391.391-.391 1.024 0 1.415.39.39 1.024.39 1.414 0zm-172.207.292h97.5v-2h-97.5zm97.5 0h74v-2h-74z"/><path d="m143 230c-.552 0-1 .448-1 1s.448 1 1 1zm149.025 1 .317-.949-.154-.051h-.163zm27.422 9.895c.494-.247.694-.848.448-1.342l-4.023-8.051c-.247-.494-.848-.694-1.342-.448-.494.247-.694.848-.447 1.342l3.575 7.156-7.156 3.576c-.494.247-.694.848-.448 1.342.247.494.848.694 1.342.447zm-176.447-8.895h149.025v-2h-149.025zm148.709-.051 26.975 9 .632-1.898-26.974-9z"/><path d="m241.707 330.707c.391-.39.391-1.024 0-1.414l-6.364-6.364c-.39-.391-1.024-.391-1.414 0-.391.39-.391 1.024 0 1.414l5.657 5.657-5.657 5.657c-.391.39-.391 1.024 0 1.414.39.391 1.024.391 1.414 0zm-25.707-.707v-1h-1v1zm0 34h-1v1h1zm25.707.707c.391-.39.391-1.024 0-1.414l-6.364-6.364c-.39-.391-1.024-.391-1.414 0-.391.39-.391 1.024 0 1.414l5.657 5.657-5.657 5.657c-.391.39-.391 1.024 0 1.414.39.391 1.024.391 1.414 0zm-.707-35.707h-25v2h25zm-26 1v34h2v-34zm1 35h25v-2h-25z"/></g><path d="m215 348h-71" stroke="#034ad8" stroke-linecap="round" stroke-width="2"/></g></svg>