<svg fill="none" height="109" viewBox="0 0 157 109" width="157" xmlns="http://www.w3.org/2000/svg" xmlns:xlink="http://www.w3.org/1999/xlink"><filter id="a" color-interpolation-filters="sRGB" filterUnits="userSpaceOnUse" height="96.969" width="139.18" x="3.3854" y="4.09274"><feFlood flood-opacity="0" result="BackgroundImageFix"/><feGaussianBlur in="BackgroundImageFix" stdDeviation="4.03087"/><feComposite in2="SourceAlpha" operator="in" result="effect1_backgroundBlur_308_3075"/><feBlend in="SourceGraphic" in2="effect1_backgroundBlur_308_3075" mode="normal" result="shape"/></filter><filter id="b" color-interpolation-filters="sRGB" filterUnits="userSpaceOnUse" height="108.116" width="109.32" x="46.9259" y=".513264"><feFlood flood-opacity="0" result="BackgroundImageFix"/><feGaussianBlur in="BackgroundImageFix" stdDeviation="3.43006"/><feComposite in2="SourceAlpha" operator="in" result="effect1_backgroundBlur_308_3075"/><feColorMatrix in="SourceAlpha" result="hardAlpha" type="matrix" values="0 0 0 0 0 0 0 0 0 0 0 0 0 0 0 0 0 0 127 0"/><feOffset dy="25.7254"/><feGaussianBlur stdDeviation="17.1503"/><feComposite in2="hardAlpha" operator="out"/><feColorMatrix type="matrix" values="0 0 0 0 0 0 0 0 0 0 0 0 0 0 0 0 0 0 0.1 0"/><feBlend in2="effect1_backgroundBlur_308_3075" mode="normal" result="effect2_dropShadow_308_3075"/><feBlend in="SourceGraphic" in2="effect2_dropShadow_308_3075" mode="normal" result="shape"/></filter><path d="m90.609 32.5483c-3.2293-15.7354-17.4104-27.5483-34.4464-27.5483-13.5258 0-25.2732 7.48-31.1234 18.4263-14.0875 1.4596-25.0392 13.09-25.0392 27.1835 0 15.0968 12.5898 27.3658 28.0813 27.3658h60.8428c12.9179 0 23.4009-10.2166 23.4009-22.8049 0-12.0409-9.594-21.8014-21.716-22.6224z" fill="#92b4e7"/><g filter="url(#a)"><path d="m110.713 42.6737c-3.538-17.4324-19.0738-30.5192-37.7374-30.5192-14.8181 0-27.6878 8.2866-34.097 20.4135-15.4334 1.6169-27.4315 14.5016-27.4315 30.1149 0 16.725 13.7927 30.3171 30.7643 30.3171h66.6556c14.152 0 25.637-11.3184 25.637-25.2642 0-13.3395-10.511-24.1526-23.791-25.0621z" fill="#b9ddff"/></g><g filter="url(#b)"><ellipse cx="101.586" cy="28.8461" fill="#dcefe9" rx="20.3593" ry="19.7577"/></g><path d="m98.1449 32.6275-3.6146-3.5077c-.4027-.3908-1.043-.3908-1.4458 0-.4027.3909-.4027 1.0122 0 1.4031l4.3271 4.1992c.4028.3909 1.0534.3909 1.4562 0l10.9472-10.6133c.402-.3908.402-1.0122 0-1.4031-.403-.3908-1.043-.3908-1.446 0z" fill="#38a413"/></svg>